<?xml version="1.0" encoding="utf-8"?>
<svg xmlns="http://www.w3.org/2000/svg" xmlns:xlink="http://www.w3.org/1999/xlink" width="600" height="400" viewBox="0 0 2400 1600">
<defs>
  <clipPath id="clip950">
    <rect x="0" y="0" width="2400" height="1600"/>
  </clipPath>
</defs>
<path clip-path="url(#clip950)" d="
M0 1600 L2400 1600 L2400 0 L0 0  Z
  " fill="#ffffff" fill-rule="evenodd" fill-opacity="1"/>
<defs>
  <clipPath id="clip951">
    <rect x="480" y="0" width="1681" height="1600"/>
  </clipPath>
</defs>
<path clip-path="url(#clip950)" d="
M210.746 1423.18 L2352.76 1423.18 L2352.76 123.472 L210.746 123.472  Z
  " fill="#ffffff" fill-rule="evenodd" fill-opacity="1"/>
<defs>
  <clipPath id="clip952">
    <rect x="210" y="123" width="2143" height="1301"/>
  </clipPath>
</defs>
<polyline clip-path="url(#clip952)" style="stroke:#000000; stroke-linecap:butt; stroke-linejoin:round; stroke-width:2; stroke-opacity:0.1; fill:none" points="
  271.369,1423.18 271.369,123.472 
  "/>
<polyline clip-path="url(#clip952)" style="stroke:#000000; stroke-linecap:butt; stroke-linejoin:round; stroke-width:2; stroke-opacity:0.1; fill:none" points="
  1281.75,1423.18 1281.75,123.472 
  "/>
<polyline clip-path="url(#clip952)" style="stroke:#000000; stroke-linecap:butt; stroke-linejoin:round; stroke-width:2; stroke-opacity:0.1; fill:none" points="
  2292.13,1423.18 2292.13,123.472 
  "/>
<polyline clip-path="url(#clip950)" style="stroke:#000000; stroke-linecap:butt; stroke-linejoin:round; stroke-width:4; stroke-opacity:1; fill:none" points="
  210.746,1423.18 2352.76,1423.18 
  "/>
<polyline clip-path="url(#clip950)" style="stroke:#000000; stroke-linecap:butt; stroke-linejoin:round; stroke-width:4; stroke-opacity:1; fill:none" points="
  271.369,1423.18 271.369,1404.28 
  "/>
<polyline clip-path="url(#clip950)" style="stroke:#000000; stroke-linecap:butt; stroke-linejoin:round; stroke-width:4; stroke-opacity:1; fill:none" points="
  1281.75,1423.18 1281.75,1404.28 
  "/>
<polyline clip-path="url(#clip950)" style="stroke:#000000; stroke-linecap:butt; stroke-linejoin:round; stroke-width:4; stroke-opacity:1; fill:none" points="
  2292.13,1423.18 2292.13,1404.28 
  "/>
<path clip-path="url(#clip950)" d="M271.369 1454.1 Q267.758 1454.1 265.929 1457.66 Q264.124 1461.2 264.124 1468.33 Q264.124 1475.44 265.929 1479.01 Q267.758 1482.55 271.369 1482.55 Q275.003 1482.55 276.809 1479.01 Q278.637 1475.44 278.637 1468.33 Q278.637 1461.2 276.809 1457.66 Q275.003 1454.1 271.369 1454.1 M271.369 1450.39 Q277.179 1450.39 280.235 1455 Q283.313 1459.58 283.313 1468.33 Q283.313 1477.06 280.235 1481.67 Q277.179 1486.25 271.369 1486.25 Q265.559 1486.25 262.48 1481.67 Q259.424 1477.06 259.424 1468.33 Q259.424 1459.58 262.48 1455 Q265.559 1450.39 271.369 1450.39 Z" fill="#000000" fill-rule="evenodd" fill-opacity="1" /><path clip-path="url(#clip950)" d="M1269 1455.16 L1293.83 1455.16 L1293.83 1459.42 L1290.57 1459.42 L1290.57 1475.35 Q1290.57 1477.01 1291.13 1477.75 Q1291.7 1478.47 1292.98 1478.47 Q1293.32 1478.47 1293.83 1478.43 Q1294.34 1478.36 1294.51 1478.33 L1294.51 1481.41 Q1293.7 1481.71 1292.84 1481.85 Q1291.98 1481.99 1291.13 1481.99 Q1288.35 1481.99 1287.28 1480.49 Q1286.22 1478.96 1286.22 1474.88 L1286.22 1459.42 L1276.66 1459.42 L1276.66 1481.09 L1272.31 1481.09 L1272.31 1459.42 L1269 1459.42 L1269 1455.16 Z" fill="#000000" fill-rule="evenodd" fill-opacity="1" /><path clip-path="url(#clip950)" d="M2274.03 1477.15 L2290.35 1477.15 L2290.35 1481.09 L2268.41 1481.09 L2268.41 1477.15 Q2271.07 1474.4 2275.65 1469.77 Q2280.26 1465.11 2281.44 1463.77 Q2283.68 1461.25 2284.56 1459.51 Q2285.47 1457.75 2285.47 1456.06 Q2285.47 1453.31 2283.52 1451.57 Q2281.6 1449.84 2278.5 1449.84 Q2276.3 1449.84 2273.85 1450.6 Q2271.42 1451.36 2268.64 1452.92 L2268.64 1448.19 Q2271.46 1447.06 2273.92 1446.48 Q2276.37 1445.9 2278.41 1445.9 Q2283.78 1445.9 2286.97 1448.59 Q2290.17 1451.27 2290.17 1455.76 Q2290.17 1457.89 2289.36 1459.81 Q2288.57 1461.71 2286.46 1464.3 Q2285.88 1464.98 2282.78 1468.19 Q2279.68 1471.39 2274.03 1477.15 Z" fill="#000000" fill-rule="evenodd" fill-opacity="1" /><path clip-path="url(#clip950)" d="M2290.35 1455.16 L2315.19 1455.16 L2315.19 1459.42 L2311.92 1459.42 L2311.92 1475.35 Q2311.92 1477.01 2312.48 1477.75 Q2313.06 1478.47 2314.33 1478.47 Q2314.68 1478.47 2315.19 1478.43 Q2315.7 1478.36 2315.86 1478.33 L2315.86 1481.41 Q2315.05 1481.71 2314.19 1481.85 Q2313.34 1481.99 2312.48 1481.99 Q2309.7 1481.99 2308.64 1480.49 Q2307.57 1478.96 2307.57 1474.88 L2307.57 1459.42 L2298.01 1459.42 L2298.01 1481.09 L2293.66 1481.09 L2293.66 1459.42 L2290.35 1459.42 L2290.35 1455.16 Z" fill="#000000" fill-rule="evenodd" fill-opacity="1" /><path clip-path="url(#clip950)" d="M1298.37 1532.4 L1285.47 1549.74 L1299.03 1568.04 L1292.13 1568.04 L1281.75 1554.04 L1271.37 1568.04 L1264.47 1568.04 L1278.31 1549.39 L1265.65 1532.4 L1272.55 1532.4 L1282.01 1545.1 L1291.46 1532.4 L1298.37 1532.4 Z" fill="#000000" fill-rule="evenodd" fill-opacity="1" /><polyline clip-path="url(#clip952)" style="stroke:#000000; stroke-linecap:butt; stroke-linejoin:round; stroke-width:2; stroke-opacity:0.1; fill:none" points="
  210.746,1098.25 2352.76,1098.25 
  "/>
<polyline clip-path="url(#clip952)" style="stroke:#000000; stroke-linecap:butt; stroke-linejoin:round; stroke-width:2; stroke-opacity:0.1; fill:none" points="
  210.746,773.326 2352.76,773.326 
  "/>
<polyline clip-path="url(#clip952)" style="stroke:#000000; stroke-linecap:butt; stroke-linejoin:round; stroke-width:2; stroke-opacity:0.1; fill:none" points="
  210.746,448.399 2352.76,448.399 
  "/>
<polyline clip-path="url(#clip950)" style="stroke:#000000; stroke-linecap:butt; stroke-linejoin:round; stroke-width:4; stroke-opacity:1; fill:none" points="
  210.746,1423.18 210.746,123.472 
  "/>
<polyline clip-path="url(#clip950)" style="stroke:#000000; stroke-linecap:butt; stroke-linejoin:round; stroke-width:4; stroke-opacity:1; fill:none" points="
  210.746,1098.25 229.644,1098.25 
  "/>
<polyline clip-path="url(#clip950)" style="stroke:#000000; stroke-linecap:butt; stroke-linejoin:round; stroke-width:4; stroke-opacity:1; fill:none" points="
  210.746,773.326 229.644,773.326 
  "/>
<polyline clip-path="url(#clip950)" style="stroke:#000000; stroke-linecap:butt; stroke-linejoin:round; stroke-width:4; stroke-opacity:1; fill:none" points="
  210.746,448.399 229.644,448.399 
  "/>
<path clip-path="url(#clip950)" d="M114.26 1098.7 L143.936 1098.7 L143.936 1102.64 L114.26 1102.64 L114.26 1098.7 Z" fill="#000000" fill-rule="evenodd" fill-opacity="1" /><path clip-path="url(#clip950)" d="M154.839 1111.6 L162.477 1111.6 L162.477 1085.23 L154.167 1086.9 L154.167 1082.64 L162.431 1080.97 L167.107 1080.97 L167.107 1111.6 L174.746 1111.6 L174.746 1115.53 L154.839 1115.53 L154.839 1111.6 Z" fill="#000000" fill-rule="evenodd" fill-opacity="1" /><path clip-path="url(#clip950)" d="M162.802 759.125 Q159.19 759.125 157.362 762.689 Q155.556 766.231 155.556 773.361 Q155.556 780.467 157.362 784.032 Q159.19 787.574 162.802 787.574 Q166.436 787.574 168.241 784.032 Q170.07 780.467 170.07 773.361 Q170.07 766.231 168.241 762.689 Q166.436 759.125 162.802 759.125 M162.802 755.421 Q168.612 755.421 171.667 760.027 Q174.746 764.611 174.746 773.361 Q174.746 782.088 171.667 786.694 Q168.612 791.277 162.802 791.277 Q156.991 791.277 153.913 786.694 Q150.857 782.088 150.857 773.361 Q150.857 764.611 153.913 760.027 Q156.991 755.421 162.802 755.421 Z" fill="#000000" fill-rule="evenodd" fill-opacity="1" /><path clip-path="url(#clip950)" d="M154.839 461.744 L162.477 461.744 L162.477 435.378 L154.167 437.045 L154.167 432.786 L162.431 431.119 L167.107 431.119 L167.107 461.744 L174.746 461.744 L174.746 465.679 L154.839 465.679 L154.839 461.744 Z" fill="#000000" fill-rule="evenodd" fill-opacity="1" /><path clip-path="url(#clip950)" d="M67.3143 771.639 Q73.68 774.122 75.6216 776.477 Q77.5631 778.832 77.5631 782.779 L77.5631 787.458 L72.6615 787.458 L72.6615 784.02 Q72.6615 781.601 71.5157 780.265 Q70.3699 778.928 66.1048 777.305 L63.4312 776.254 L28.3562 790.673 L28.3562 784.466 L56.238 773.326 L28.3562 762.186 L28.3562 755.979 L67.3143 771.639 Z" fill="#000000" fill-rule="evenodd" fill-opacity="1" /><path clip-path="url(#clip950)" d="M684.303 12.096 L735.466 12.096 L735.466 18.9825 L713.996 18.9825 L713.996 72.576 L705.773 72.576 L705.773 18.9825 L684.303 18.9825 L684.303 12.096 Z" fill="#000000" fill-rule="evenodd" fill-opacity="1" /><path clip-path="url(#clip950)" d="M757.139 34.1734 Q755.883 33.4443 754.384 33.1202 Q752.926 32.7556 751.143 32.7556 Q744.824 32.7556 741.421 36.8875 Q738.059 40.9789 738.059 48.6757 L738.059 72.576 L730.565 72.576 L730.565 27.2059 L738.059 27.2059 L738.059 34.2544 Q740.408 30.1225 744.176 28.1376 Q747.943 26.1121 753.331 26.1121 Q754.1 26.1121 755.032 26.2337 Q755.964 26.3147 757.098 26.5172 L757.139 34.1734 Z" fill="#000000" fill-rule="evenodd" fill-opacity="1" /><path clip-path="url(#clip950)" d="M764.957 27.2059 L772.41 27.2059 L772.41 72.576 L764.957 72.576 L764.957 27.2059 M764.957 9.54393 L772.41 9.54393 L772.41 18.9825 L764.957 18.9825 L764.957 9.54393 Z" fill="#000000" fill-rule="evenodd" fill-opacity="1" /><path clip-path="url(#clip950)" d="M817.862 49.3643 Q817.862 41.2625 814.499 36.8065 Q811.178 32.3505 805.142 32.3505 Q799.146 32.3505 795.784 36.8065 Q792.462 41.2625 792.462 49.3643 Q792.462 57.4256 795.784 61.8816 Q799.146 66.3376 805.142 66.3376 Q811.178 66.3376 814.499 61.8816 Q817.862 57.4256 817.862 49.3643 M825.315 66.9452 Q825.315 78.5308 820.171 84.1616 Q815.026 89.8329 804.413 89.8329 Q800.483 89.8329 796.999 89.2252 Q793.516 88.6581 790.234 87.4428 L790.234 80.1917 Q793.516 81.9741 796.716 82.8248 Q799.916 83.6755 803.238 83.6755 Q810.57 83.6755 814.216 79.8271 Q817.862 76.0193 817.862 68.282 L817.862 64.5957 Q815.553 68.6061 811.947 70.5911 Q808.342 72.576 803.319 72.576 Q794.974 72.576 789.87 66.2161 Q784.766 59.8562 784.766 49.3643 Q784.766 38.832 789.87 32.472 Q794.974 26.1121 803.319 26.1121 Q808.342 26.1121 811.947 28.0971 Q815.553 30.082 817.862 34.0924 L817.862 27.2059 L825.315 27.2059 L825.315 66.9452 Z" fill="#000000" fill-rule="evenodd" fill-opacity="1" /><path clip-path="url(#clip950)" d="M858.249 32.4315 Q852.254 32.4315 848.77 37.1306 Q845.286 41.7891 845.286 49.9314 Q845.286 58.0738 848.73 62.7728 Q852.213 67.4314 858.249 67.4314 Q864.204 67.4314 867.688 62.7323 Q871.172 58.0333 871.172 49.9314 Q871.172 41.8701 867.688 37.1711 Q864.204 32.4315 858.249 32.4315 M858.249 26.1121 Q867.971 26.1121 873.521 32.4315 Q879.071 38.7509 879.071 49.9314 Q879.071 61.0714 873.521 67.4314 Q867.971 73.7508 858.249 73.7508 Q848.486 73.7508 842.937 67.4314 Q837.427 61.0714 837.427 49.9314 Q837.427 38.7509 842.937 32.4315 Q848.486 26.1121 858.249 26.1121 Z" fill="#000000" fill-rule="evenodd" fill-opacity="1" /><path clip-path="url(#clip950)" d="M929.14 45.1919 L929.14 72.576 L921.686 72.576 L921.686 45.4349 Q921.686 38.994 919.175 35.7938 Q916.663 32.5936 911.64 32.5936 Q905.604 32.5936 902.12 36.4419 Q898.637 40.2903 898.637 46.9338 L898.637 72.576 L891.142 72.576 L891.142 27.2059 L898.637 27.2059 L898.637 34.2544 Q901.31 30.163 904.916 28.1376 Q908.561 26.1121 913.301 26.1121 Q921.119 26.1121 925.13 30.9732 Q929.14 35.7938 929.14 45.1919 Z" fill="#000000" fill-rule="evenodd" fill-opacity="1" /><path clip-path="url(#clip950)" d="M961.588 32.4315 Q955.592 32.4315 952.109 37.1306 Q948.625 41.7891 948.625 49.9314 Q948.625 58.0738 952.068 62.7728 Q955.552 67.4314 961.588 67.4314 Q967.543 67.4314 971.026 62.7323 Q974.51 58.0333 974.51 49.9314 Q974.51 41.8701 971.026 37.1711 Q967.543 32.4315 961.588 32.4315 M961.588 26.1121 Q971.31 26.1121 976.86 32.4315 Q982.409 38.7509 982.409 49.9314 Q982.409 61.0714 976.86 67.4314 Q971.31 73.7508 961.588 73.7508 Q951.825 73.7508 946.275 67.4314 Q940.766 61.0714 940.766 49.9314 Q940.766 38.7509 946.275 32.4315 Q951.825 26.1121 961.588 26.1121 Z" fill="#000000" fill-rule="evenodd" fill-opacity="1" /><path clip-path="url(#clip950)" d="M1030.09 35.9153 Q1032.88 30.8922 1036.77 28.5022 Q1040.66 26.1121 1045.93 26.1121 Q1053.02 26.1121 1056.86 31.0947 Q1060.71 36.0368 1060.71 45.1919 L1060.71 72.576 L1053.22 72.576 L1053.22 45.4349 Q1053.22 38.913 1050.91 35.7533 Q1048.6 32.5936 1043.86 32.5936 Q1038.07 32.5936 1034.71 36.4419 Q1031.34 40.2903 1031.34 46.9338 L1031.34 72.576 L1023.85 72.576 L1023.85 45.4349 Q1023.85 38.8725 1021.54 35.7533 Q1019.23 32.5936 1014.41 32.5936 Q1008.7 32.5936 1005.34 36.4824 Q1001.98 40.3308 1001.98 46.9338 L1001.98 72.576 L994.481 72.576 L994.481 27.2059 L1001.98 27.2059 L1001.98 34.2544 Q1004.53 30.082 1008.09 28.0971 Q1011.66 26.1121 1016.56 26.1121 Q1021.5 26.1121 1024.94 28.6237 Q1028.43 31.1352 1030.09 35.9153 Z" fill="#000000" fill-rule="evenodd" fill-opacity="1" /><path clip-path="url(#clip950)" d="M1114.39 48.0275 L1114.39 51.6733 L1080.12 51.6733 Q1080.6 59.3701 1084.74 63.421 Q1088.91 67.4314 1096.32 67.4314 Q1100.61 67.4314 1104.63 66.3781 Q1108.68 65.3249 1112.65 63.2184 L1112.65 70.267 Q1108.64 71.9684 1104.42 72.8596 Q1100.21 73.7508 1095.88 73.7508 Q1085.02 73.7508 1078.66 67.4314 Q1072.34 61.1119 1072.34 50.3365 Q1072.34 39.1965 1078.33 32.6746 Q1084.37 26.1121 1094.58 26.1121 Q1103.73 26.1121 1109.04 32.0264 Q1114.39 37.9003 1114.39 48.0275 M1106.93 45.84 Q1106.85 39.7232 1103.49 36.0774 Q1100.17 32.4315 1094.66 32.4315 Q1088.42 32.4315 1084.65 35.9558 Q1080.93 39.4801 1080.36 45.8805 L1106.93 45.84 Z" fill="#000000" fill-rule="evenodd" fill-opacity="1" /><path clip-path="url(#clip950)" d="M1133.99 14.324 L1133.99 27.2059 L1149.35 27.2059 L1149.35 32.9987 L1133.99 32.9987 L1133.99 57.6282 Q1133.99 63.1779 1135.49 64.7578 Q1137.03 66.3376 1141.69 66.3376 L1149.35 66.3376 L1149.35 72.576 L1141.69 72.576 Q1133.06 72.576 1129.78 69.3758 Q1126.5 66.1351 1126.5 57.6282 L1126.5 32.9987 L1121.03 32.9987 L1121.03 27.2059 L1126.5 27.2059 L1126.5 14.324 L1133.99 14.324 Z" fill="#000000" fill-rule="evenodd" fill-opacity="1" /><path clip-path="url(#clip950)" d="M1185.44 34.1734 Q1184.18 33.4443 1182.69 33.1202 Q1181.23 32.7556 1179.45 32.7556 Q1173.13 32.7556 1169.72 36.8875 Q1166.36 40.9789 1166.36 48.6757 L1166.36 72.576 L1158.87 72.576 L1158.87 27.2059 L1166.36 27.2059 L1166.36 34.2544 Q1168.71 30.1225 1172.48 28.1376 Q1176.25 26.1121 1181.63 26.1121 Q1182.4 26.1121 1183.33 26.2337 Q1184.27 26.3147 1185.4 26.5172 L1185.44 34.1734 Z" fill="#000000" fill-rule="evenodd" fill-opacity="1" /><path clip-path="url(#clip950)" d="M1193.26 27.2059 L1200.71 27.2059 L1200.71 72.576 L1193.26 72.576 L1193.26 27.2059 M1193.26 9.54393 L1200.71 9.54393 L1200.71 18.9825 L1193.26 18.9825 L1193.26 9.54393 Z" fill="#000000" fill-rule="evenodd" fill-opacity="1" /><path clip-path="url(#clip950)" d="M1245.23 28.5427 L1245.23 35.5912 Q1242.07 33.9709 1238.67 33.1607 Q1235.27 32.3505 1231.62 32.3505 Q1226.07 32.3505 1223.28 34.0519 Q1220.52 35.7533 1220.52 39.156 Q1220.52 41.7486 1222.51 43.2475 Q1224.49 44.7058 1230.49 46.0426 L1233.04 46.6097 Q1240.98 48.3111 1244.3 51.4303 Q1247.66 54.509 1247.66 60.0587 Q1247.66 66.3781 1242.64 70.0644 Q1237.66 73.7508 1228.91 73.7508 Q1225.26 73.7508 1221.29 73.0216 Q1217.36 72.3329 1212.99 70.9151 L1212.99 63.2184 Q1217.12 65.3654 1221.13 66.4591 Q1225.14 67.5124 1229.07 67.5124 Q1234.34 67.5124 1237.17 65.73 Q1240.01 63.9071 1240.01 60.6258 Q1240.01 57.5877 1237.94 55.9673 Q1235.91 54.3469 1228.99 52.8481 L1226.4 52.2405 Q1219.47 50.7821 1216.39 47.7845 Q1213.31 44.7463 1213.31 39.4801 Q1213.31 33.0797 1217.85 29.5959 Q1222.38 26.1121 1230.73 26.1121 Q1234.86 26.1121 1238.51 26.7198 Q1242.15 27.3274 1245.23 28.5427 Z" fill="#000000" fill-rule="evenodd" fill-opacity="1" /><path clip-path="url(#clip950)" d="M1292.18 28.9478 L1292.18 35.9153 Q1289.02 34.1734 1285.82 33.3227 Q1282.66 32.4315 1279.42 32.4315 Q1272.17 32.4315 1268.16 37.0496 Q1264.15 41.6271 1264.15 49.9314 Q1264.15 58.2358 1268.16 62.8538 Q1272.17 67.4314 1279.42 67.4314 Q1282.66 67.4314 1285.82 66.5807 Q1289.02 65.6895 1292.18 63.9476 L1292.18 70.8341 Q1289.06 72.2924 1285.7 73.0216 Q1282.38 73.7508 1278.61 73.7508 Q1268.36 73.7508 1262.33 67.3098 Q1256.29 60.8689 1256.29 49.9314 Q1256.29 38.832 1262.37 32.472 Q1268.48 26.1121 1279.1 26.1121 Q1282.54 26.1121 1285.82 26.8413 Q1289.1 27.5299 1292.18 28.9478 Z" fill="#000000" fill-rule="evenodd" fill-opacity="1" /><path clip-path="url(#clip950)" d="M1342.86 45.1919 L1342.86 72.576 L1335.41 72.576 L1335.41 45.4349 Q1335.41 38.994 1332.89 35.7938 Q1330.38 32.5936 1325.36 32.5936 Q1319.32 32.5936 1315.84 36.4419 Q1312.36 40.2903 1312.36 46.9338 L1312.36 72.576 L1304.86 72.576 L1304.86 9.54393 L1312.36 9.54393 L1312.36 34.2544 Q1315.03 30.163 1318.63 28.1376 Q1322.28 26.1121 1327.02 26.1121 Q1334.84 26.1121 1338.85 30.9732 Q1342.86 35.7938 1342.86 45.1919 Z" fill="#000000" fill-rule="evenodd" fill-opacity="1" /><path clip-path="url(#clip950)" d="M1396.53 48.0275 L1396.53 51.6733 L1362.26 51.6733 Q1362.75 59.3701 1366.88 63.421 Q1371.05 67.4314 1378.47 67.4314 Q1382.76 67.4314 1386.77 66.3781 Q1390.82 65.3249 1394.79 63.2184 L1394.79 70.267 Q1390.78 71.9684 1386.57 72.8596 Q1382.36 73.7508 1378.02 73.7508 Q1367.16 73.7508 1360.8 67.4314 Q1354.48 61.1119 1354.48 50.3365 Q1354.48 39.1965 1360.48 32.6746 Q1366.52 26.1121 1376.72 26.1121 Q1385.88 26.1121 1391.19 32.0264 Q1396.53 37.9003 1396.53 48.0275 M1389.08 45.84 Q1389 39.7232 1385.64 36.0774 Q1382.31 32.4315 1376.81 32.4315 Q1370.57 32.4315 1366.8 35.9558 Q1363.07 39.4801 1362.51 45.8805 L1389.08 45.84 Z" fill="#000000" fill-rule="evenodd" fill-opacity="1" /><path clip-path="url(#clip950)" d="M1435.46 12.096 L1470.22 12.096 L1470.22 18.9825 L1443.65 18.9825 L1443.65 36.8065 L1467.63 36.8065 L1467.63 43.6931 L1443.65 43.6931 L1443.65 72.576 L1435.46 72.576 L1435.46 12.096 Z" fill="#000000" fill-rule="evenodd" fill-opacity="1" /><path clip-path="url(#clip950)" d="M1477.55 54.671 L1477.55 27.2059 L1485.01 27.2059 L1485.01 54.3874 Q1485.01 60.8284 1487.52 64.0691 Q1490.03 67.2693 1495.05 67.2693 Q1501.09 67.2693 1504.57 63.421 Q1508.1 59.5726 1508.1 52.9291 L1508.1 27.2059 L1515.55 27.2059 L1515.55 72.576 L1508.1 72.576 L1508.1 65.6084 Q1505.38 69.7404 1501.78 71.7658 Q1498.21 73.7508 1493.47 73.7508 Q1485.65 73.7508 1481.6 68.8897 Q1477.55 64.0286 1477.55 54.671 M1496.31 26.1121 L1496.31 26.1121 Z" fill="#000000" fill-rule="evenodd" fill-opacity="1" /><path clip-path="url(#clip950)" d="M1568.62 45.1919 L1568.62 72.576 L1561.16 72.576 L1561.16 45.4349 Q1561.16 38.994 1558.65 35.7938 Q1556.14 32.5936 1551.12 32.5936 Q1545.08 32.5936 1541.6 36.4419 Q1538.11 40.2903 1538.11 46.9338 L1538.11 72.576 L1530.62 72.576 L1530.62 27.2059 L1538.11 27.2059 L1538.11 34.2544 Q1540.79 30.163 1544.39 28.1376 Q1548.04 26.1121 1552.78 26.1121 Q1560.59 26.1121 1564.61 30.9732 Q1568.62 35.7938 1568.62 45.1919 Z" fill="#000000" fill-rule="evenodd" fill-opacity="1" /><path clip-path="url(#clip950)" d="M1583.2 9.54393 L1590.69 9.54393 L1590.69 46.7717 L1612.93 27.2059 L1622.45 27.2059 L1598.39 48.4326 L1623.46 72.576 L1613.74 72.576 L1590.69 50.4176 L1590.69 72.576 L1583.2 72.576 L1583.2 9.54393 Z" fill="#000000" fill-rule="evenodd" fill-opacity="1" /><path clip-path="url(#clip950)" d="M1638.9 14.324 L1638.9 27.2059 L1654.25 27.2059 L1654.25 32.9987 L1638.9 32.9987 L1638.9 57.6282 Q1638.9 63.1779 1640.4 64.7578 Q1641.94 66.3376 1646.6 66.3376 L1654.25 66.3376 L1654.25 72.576 L1646.6 72.576 Q1637.97 72.576 1634.69 69.3758 Q1631.4 66.1351 1631.4 57.6282 L1631.4 32.9987 L1625.94 32.9987 L1625.94 27.2059 L1631.4 27.2059 L1631.4 14.324 L1638.9 14.324 Z" fill="#000000" fill-rule="evenodd" fill-opacity="1" /><path clip-path="url(#clip950)" d="M1664.06 27.2059 L1671.51 27.2059 L1671.51 72.576 L1664.06 72.576 L1664.06 27.2059 M1664.06 9.54393 L1671.51 9.54393 L1671.51 18.9825 L1664.06 18.9825 L1664.06 9.54393 Z" fill="#000000" fill-rule="evenodd" fill-opacity="1" /><path clip-path="url(#clip950)" d="M1704.69 32.4315 Q1698.69 32.4315 1695.21 37.1306 Q1691.72 41.7891 1691.72 49.9314 Q1691.72 58.0738 1695.17 62.7728 Q1698.65 67.4314 1704.69 67.4314 Q1710.64 67.4314 1714.12 62.7323 Q1717.61 58.0333 1717.61 49.9314 Q1717.61 41.8701 1714.12 37.1711 Q1710.64 32.4315 1704.69 32.4315 M1704.69 26.1121 Q1714.41 26.1121 1719.96 32.4315 Q1725.51 38.7509 1725.51 49.9314 Q1725.51 61.0714 1719.96 67.4314 Q1714.41 73.7508 1704.69 73.7508 Q1694.92 73.7508 1689.37 67.4314 Q1683.86 61.0714 1683.86 49.9314 Q1683.86 38.7509 1689.37 32.4315 Q1694.92 26.1121 1704.69 26.1121 Z" fill="#000000" fill-rule="evenodd" fill-opacity="1" /><path clip-path="url(#clip950)" d="M1775.58 45.1919 L1775.58 72.576 L1768.12 72.576 L1768.12 45.4349 Q1768.12 38.994 1765.61 35.7938 Q1763.1 32.5936 1758.08 32.5936 Q1752.04 32.5936 1748.56 36.4419 Q1745.07 40.2903 1745.07 46.9338 L1745.07 72.576 L1737.58 72.576 L1737.58 27.2059 L1745.07 27.2059 L1745.07 34.2544 Q1747.75 30.163 1751.35 28.1376 Q1755 26.1121 1759.74 26.1121 Q1767.56 26.1121 1771.57 30.9732 Q1775.58 35.7938 1775.58 45.1919 Z" fill="#000000" fill-rule="evenodd" fill-opacity="1" /><path clip-path="url(#clip950)" d="M1829.25 48.0275 L1829.25 51.6733 L1794.98 51.6733 Q1795.47 59.3701 1799.6 63.421 Q1803.77 67.4314 1811.18 67.4314 Q1815.48 67.4314 1819.49 66.3781 Q1823.54 65.3249 1827.51 63.2184 L1827.51 70.267 Q1823.5 71.9684 1819.29 72.8596 Q1815.07 73.7508 1810.74 73.7508 Q1799.88 73.7508 1793.52 67.4314 Q1787.2 61.1119 1787.2 50.3365 Q1787.2 39.1965 1793.2 32.6746 Q1799.23 26.1121 1809.44 26.1121 Q1818.6 26.1121 1823.9 32.0264 Q1829.25 37.9003 1829.25 48.0275 M1821.8 45.84 Q1821.72 39.7232 1818.35 36.0774 Q1815.03 32.4315 1809.52 32.4315 Q1803.28 32.4315 1799.52 35.9558 Q1795.79 39.4801 1795.22 45.8805 L1821.8 45.84 Z" fill="#000000" fill-rule="evenodd" fill-opacity="1" /><path clip-path="url(#clip950)" d="M1879.2 45.1919 L1879.2 72.576 L1871.74 72.576 L1871.74 45.4349 Q1871.74 38.994 1869.23 35.7938 Q1866.72 32.5936 1861.7 32.5936 Q1855.66 32.5936 1852.18 36.4419 Q1848.7 40.2903 1848.7 46.9338 L1848.7 72.576 L1841.2 72.576 L1841.2 27.2059 L1848.7 27.2059 L1848.7 34.2544 Q1851.37 30.163 1854.97 28.1376 Q1858.62 26.1121 1863.36 26.1121 Q1871.18 26.1121 1875.19 30.9732 Q1879.2 35.7938 1879.2 45.1919 Z" fill="#000000" fill-rule="evenodd" fill-opacity="1" /><polyline clip-path="url(#clip952)" style="stroke:#009af9; stroke-linecap:butt; stroke-linejoin:round; stroke-width:4; stroke-opacity:1; fill:none" points="
  271.369,773.326 277.947,766.681 284.525,760.038 314.937,729.443 345.35,699.241 375.762,669.7 406.174,641.086 424.45,624.442 442.727,608.279 461.003,592.649 
  479.28,577.602 494.732,565.371 510.185,553.62 525.637,542.376 541.09,531.665 557.876,520.663 574.661,510.349 591.447,500.751 608.233,491.896 623.708,484.41 
  639.183,477.593 654.658,471.461 670.133,466.028 686.724,460.993 703.315,456.789 719.905,453.427 736.496,450.917 755.718,449.081 774.94,448.403 794.162,448.886 
  813.385,450.527 830.467,452.953 847.549,456.282 864.632,460.506 881.714,465.612 896.694,470.805 911.673,476.653 926.653,483.145 941.633,490.267 957.964,498.73 
  974.296,507.901 990.628,517.757 1006.96,528.271 1023.39,539.486 1039.82,551.31 1056.25,563.713 1072.68,576.664 1090.84,591.578 1109,607.072 1127.17,623.096 
  1145.33,639.599 1179.9,672.136 1214.46,705.841 1286.34,777.967 1346.85,838.65 1383.79,874.695 1420.73,909.404 1437.64,924.73 1454.56,939.637 1471.48,954.084 
  1488.4,968.031 1504.02,980.434 1519.65,992.349 1535.28,1003.75 1550.9,1014.6 1566.73,1025.01 1582.56,1034.82 1598.38,1043.99 1614.21,1052.51 1631.95,1061.25 
  1649.69,1069.11 1667.43,1076.08 1685.17,1082.12 1701.24,1086.79 1717.32,1090.67 1733.39,1093.76 1749.46,1096.05 1767.87,1097.68 1786.27,1098.25 1804.67,1097.76 
  1823.08,1096.2 1840.12,1093.82 1857.16,1090.54 1874.2,1086.37 1891.24,1081.32 1908.04,1075.49 1924.84,1068.84 1941.64,1061.38 1958.44,1053.14 1974.75,1044.41 
  1991.06,1034.98 2007.37,1024.88 2023.68,1014.13 2040.4,1002.46 2057.12,990.183 2073.84,977.316 2090.57,963.897 2108.89,948.605 2127.21,932.745 2145.53,916.367 
  2163.84,899.526 2217.07,848.476 2270.29,795.372 2281.21,784.356 2292.13,773.326 
  "/>
<polyline clip-path="url(#clip952)" style="stroke:#e26f46; stroke-linecap:butt; stroke-linejoin:round; stroke-width:4; stroke-opacity:1; fill:none" points="
  271.369,448.399 274.658,448.416 277.947,448.467 281.236,448.552 284.525,448.671 299.731,449.662 314.937,451.376 330.143,453.81 345.35,456.958 360.556,460.813 
  375.762,465.366 390.968,470.608 406.174,476.526 424.45,484.516 442.727,493.439 461.003,503.265 479.28,513.962 494.732,523.662 510.185,533.938 525.637,544.766 
  541.09,556.122 557.876,569.025 574.661,582.484 591.447,596.463 608.233,610.924 639.183,638.716 670.133,667.755 736.496,732.954 813.385,810.449 847.549,844.465 
  881.714,877.68 911.673,905.851 941.633,932.872 957.964,947.034 974.296,960.749 990.628,973.98 1006.96,986.693 1023.39,998.928 1039.82,1010.57 1056.25,1021.6 
  1072.68,1031.98 1090.84,1042.67 1109,1052.5 1127.17,1061.44 1145.33,1069.46 1162.62,1076.21 1179.9,1082.09 1197.18,1087.08 1214.46,1091.17 1232.43,1094.44 
  1250.4,1096.71 1268.37,1097.97 1286.34,1098.22 1301.47,1097.64 1316.6,1096.35 1331.73,1094.34 1346.85,1091.62 1365.32,1087.34 1383.79,1082.04 1402.26,1075.71 
  1420.73,1068.39 1437.64,1060.82 1454.56,1052.46 1471.48,1043.33 1488.4,1033.46 1504.02,1023.69 1519.65,1013.34 1535.28,1002.42 1550.9,990.959 1566.73,978.826 
  1582.56,966.196 1598.38,953.098 1614.21,939.565 1649.69,907.821 1685.17,874.442 1717.32,843.122 1749.46,811.105 1823.08,736.894 1891.24,669.792 1924.84,638.239 
  1958.44,608.159 1974.75,594.186 1991.06,580.674 2007.37,567.657 2023.68,555.169 2040.4,542.95 2057.12,531.354 2073.84,520.411 2090.57,510.152 2108.89,499.73 
  2127.21,490.195 2145.53,481.578 2163.84,473.908 2177.15,468.944 2190.46,464.502 2203.76,460.588 2217.07,457.209 2243.68,452.079 2270.29,449.148 2275.75,448.82 
  2281.21,448.586 2286.67,448.446 2292.13,448.399 
  "/>
<polyline clip-path="url(#clip952)" style="stroke:#3da44d; stroke-linecap:butt; stroke-linejoin:round; stroke-width:4; stroke-opacity:1; fill:none" points="
  271.369,773.326 284.525,760.027 406.174,628.553 479.28,528.125 541.09,411.813 574.661,325.582 608.233,210.253 639.183,59.4732 670.133,-172.474 686.724,-359.503 
  703.315,-628.65 711.61,-813.691 719.905,-1052.09 728.201,-1371.3 736.496,-1821.54 741.302,-2178.67 746.107,-2648.01 750.913,-3292.61 755.718,-4233.71 758.121,-4887.9 
  760.524,-5737.89 762.927,-6887.2 765.329,-8527.94 766.531,-9642.98 767.732,-11061.4 768.933,-12926.6 770.135,-15489.1 770.736,-17166.7 771.336,-19230.2 771.937,-21829.8 
  772.538,-25205.7 773.138,-29767 773.739,-36270.7 774.34,-46293.5 774.94,-63751.1 775.541,-101793 776.142,-249130 776.742,573308 777.343,134199 777.944,76284.7 
  778.544,53428.8 779.145,41194 779.746,33572.6 780.347,28369.2 780.947,24590.6 781.548,21722 782.149,19470 783.35,16161.2 784.551,13847.2 785.753,12137.9 
  786.954,10823.6 788.156,9781.53 789.357,8935.07 791.76,7643.38 794.162,6704.11 796.565,5990.26 798.968,5429.33 801.371,4976.89 803.773,4604.19 808.579,4026.25 
  813.385,3598.72 821.926,3061.55 830.467,2693.69 839.008,2425.65 847.549,2221.41 864.632,1930.07 881.714,1731.45 911.673,1500.71 941.633,1349.8 974.296,1233.48 
  1006.96,1146.51 1039.82,1077.39 1072.68,1020.38 1145.33,920.056 1214.46,842.315 1286.34,768.685 1346.85,706.64 1420.73,623.474 1488.4,530.121 1550.9,413.102 
  1614.21,227.647 1649.69,58.7389 1685.17,-218.955 1701.24,-417.046 1717.32,-704.028 1725.35,-902.612 1733.39,-1159.98 1741.43,-1507.26 1749.46,-2002.33 1754.06,-2394.08 
  1758.67,-2912.8 1763.27,-3632.53 1767.87,-4698.72 1770.17,-5450.82 1772.47,-6441.74 1774.77,-7806.89 1777.07,-9807.86 1778.22,-11204 1779.37,-13024.1 1779.94,-14158.5 
  1780.52,-15496 1781.09,-17096.7 1781.67,-19046.5 1782.24,-21473.7 1782.82,-24578.2 1783.4,-28689.4 1783.97,-34391.9 1784.55,-42831.3 1785.12,-56600.2 1785.7,-83076.6 
  1786.27,-154927 1786.85,-1.08722e+06 1787.42,218908 1788,99903 1788.57,64911.5 1789.15,48178 1789.72,38369.1 1790.3,31923.3 1790.87,27364.2 1791.45,23969.1 
  1792.02,21342.7 1792.6,19250.5 1793.17,17544.5 1794.32,14930 1795.47,13020.5 1796.62,11564.6 1797.77,10417.9 1798.92,9491.25 1800.07,8726.88 1802.37,7539.81 
  1804.67,6660.53 1806.97,5983.02 1809.28,5444.93 1811.58,5007.19 1813.88,4644.09 1818.48,4076.48 1823.08,3653.01 1831.6,3098.38 1840.12,2720.56 1848.64,2446.29 
  1857.16,2237.87 1874.2,1941.42 1891.24,1739.91 1924.84,1484.13 1958.44,1323.8 1991.06,1214.63 2023.68,1131.98 2090.57,1008.61 2163.84,910.277 2270.29,795.423 
  2292.13,773.326 
  "/>
<path clip-path="url(#clip950)" d="
M1851.32 374.156 L2281.36 374.156 L2281.36 166.796 L1851.32 166.796  Z
  " fill="#ffffff" fill-rule="evenodd" fill-opacity="1"/>
<polyline clip-path="url(#clip950)" style="stroke:#000000; stroke-linecap:butt; stroke-linejoin:round; stroke-width:4; stroke-opacity:1; fill:none" points="
  1851.32,374.156 2281.36,374.156 2281.36,166.796 1851.32,166.796 1851.32,374.156 
  "/>
<polyline clip-path="url(#clip950)" style="stroke:#009af9; stroke-linecap:butt; stroke-linejoin:round; stroke-width:4; stroke-opacity:1; fill:none" points="
  1875.12,218.636 2017.92,218.636 
  "/>
<path clip-path="url(#clip950)" d="M2063.96 202.49 L2063.96 207.05 Q2061.3 205.777 2058.94 205.152 Q2056.58 204.527 2054.38 204.527 Q2050.56 204.527 2048.48 206.008 Q2046.42 207.49 2046.42 210.221 Q2046.42 212.513 2047.78 213.694 Q2049.17 214.851 2053.02 215.569 L2055.84 216.147 Q2061.07 217.143 2063.55 219.666 Q2066.05 222.166 2066.05 226.379 Q2066.05 231.402 2062.67 233.994 Q2059.31 236.587 2052.81 236.587 Q2050.35 236.587 2047.58 236.031 Q2044.82 235.476 2041.86 234.388 L2041.86 229.573 Q2044.71 231.17 2047.44 231.981 Q2050.17 232.791 2052.81 232.791 Q2056.81 232.791 2058.99 231.217 Q2061.16 229.643 2061.16 226.726 Q2061.16 224.18 2059.59 222.744 Q2058.04 221.309 2054.47 220.592 L2051.63 220.036 Q2046.4 218.995 2044.06 216.772 Q2041.72 214.55 2041.72 210.592 Q2041.72 206.008 2044.94 203.37 Q2048.18 200.731 2053.85 200.731 Q2056.28 200.731 2058.8 201.171 Q2061.33 201.61 2063.96 202.49 Z" fill="#000000" fill-rule="evenodd" fill-opacity="1" /><path clip-path="url(#clip950)" d="M2073.15 209.99 L2077.41 209.99 L2077.41 235.916 L2073.15 235.916 L2073.15 209.99 M2073.15 199.897 L2077.41 199.897 L2077.41 205.291 L2073.15 205.291 L2073.15 199.897 Z" fill="#000000" fill-rule="evenodd" fill-opacity="1" /><path clip-path="url(#clip950)" d="M2107.88 220.268 L2107.88 235.916 L2103.62 235.916 L2103.62 220.407 Q2103.62 216.726 2102.18 214.897 Q2100.75 213.069 2097.88 213.069 Q2094.43 213.069 2092.44 215.268 Q2090.45 217.467 2090.45 221.263 L2090.45 235.916 L2086.16 235.916 L2086.16 209.99 L2090.45 209.99 L2090.45 214.018 Q2091.97 211.68 2094.03 210.522 Q2096.12 209.365 2098.83 209.365 Q2103.29 209.365 2105.58 212.143 Q2107.88 214.897 2107.88 220.268 Z" fill="#000000" fill-rule="evenodd" fill-opacity="1" /><path clip-path="url(#clip950)" d="M2115.93 225.684 L2115.93 209.99 L2120.19 209.99 L2120.19 225.522 Q2120.19 229.203 2121.63 231.055 Q2123.06 232.883 2125.93 232.883 Q2129.38 232.883 2131.37 230.684 Q2133.39 228.485 2133.39 224.689 L2133.39 209.99 L2137.64 209.99 L2137.64 235.916 L2133.39 235.916 L2133.39 231.934 Q2131.83 234.295 2129.77 235.453 Q2127.74 236.587 2125.03 236.587 Q2120.56 236.587 2118.25 233.809 Q2115.93 231.031 2115.93 225.684 M2126.65 209.365 L2126.65 209.365 Z" fill="#000000" fill-rule="evenodd" fill-opacity="1" /><path clip-path="url(#clip950)" d="M2162.95 210.754 L2162.95 214.782 Q2161.14 213.856 2159.2 213.393 Q2157.25 212.93 2155.17 212.93 Q2152 212.93 2150.4 213.902 Q2148.83 214.874 2148.83 216.819 Q2148.83 218.3 2149.96 219.157 Q2151.09 219.99 2154.52 220.754 L2155.98 221.078 Q2160.52 222.05 2162.41 223.832 Q2164.33 225.592 2164.33 228.763 Q2164.33 232.374 2161.46 234.481 Q2158.62 236.587 2153.62 236.587 Q2151.53 236.587 2149.27 236.17 Q2147.02 235.777 2144.52 234.967 L2144.52 230.569 Q2146.88 231.795 2149.17 232.42 Q2151.46 233.022 2153.71 233.022 Q2156.72 233.022 2158.34 232.004 Q2159.96 230.962 2159.96 229.087 Q2159.96 227.351 2158.78 226.425 Q2157.62 225.499 2153.66 224.643 L2152.18 224.295 Q2148.22 223.462 2146.46 221.749 Q2144.7 220.013 2144.7 217.004 Q2144.7 213.346 2147.3 211.356 Q2149.89 209.365 2154.66 209.365 Q2157.02 209.365 2159.1 209.712 Q2161.19 210.059 2162.95 210.754 Z" fill="#000000" fill-rule="evenodd" fill-opacity="1" /><polyline clip-path="url(#clip950)" style="stroke:#e26f46; stroke-linecap:butt; stroke-linejoin:round; stroke-width:4; stroke-opacity:1; fill:none" points="
  1875.12,270.476 2017.92,270.476 
  "/>
<path clip-path="url(#clip950)" d="M2041.72 253.196 L2046.4 253.196 L2046.4 267.802 L2061.9 253.196 L2067.92 253.196 L2050.77 269.307 L2069.15 287.756 L2062.99 287.756 L2046.4 271.112 L2046.4 287.756 L2041.72 287.756 L2041.72 253.196 Z" fill="#000000" fill-rule="evenodd" fill-opacity="1" /><path clip-path="url(#clip950)" d="M2080.31 264.816 Q2076.88 264.816 2074.89 267.501 Q2072.9 270.163 2072.9 274.816 Q2072.9 279.469 2074.87 282.154 Q2076.86 284.816 2080.31 284.816 Q2083.71 284.816 2085.7 282.131 Q2087.69 279.446 2087.69 274.816 Q2087.69 270.21 2085.7 267.524 Q2083.71 264.816 2080.31 264.816 M2080.31 261.205 Q2085.86 261.205 2089.03 264.816 Q2092.21 268.427 2092.21 274.816 Q2092.21 281.182 2089.03 284.816 Q2085.86 288.427 2080.31 288.427 Q2074.73 288.427 2071.56 284.816 Q2068.41 281.182 2068.41 274.816 Q2068.41 268.427 2071.56 264.816 Q2074.73 261.205 2080.31 261.205 Z" fill="#000000" fill-rule="evenodd" fill-opacity="1" /><path clip-path="url(#clip950)" d="M2115.79 262.594 L2115.79 266.622 Q2113.99 265.696 2112.04 265.233 Q2110.1 264.77 2108.02 264.77 Q2104.84 264.77 2103.25 265.742 Q2101.67 266.714 2101.67 268.659 Q2101.67 270.14 2102.81 270.997 Q2103.94 271.83 2107.37 272.594 L2108.83 272.918 Q2113.36 273.89 2115.26 275.672 Q2117.18 277.432 2117.18 280.603 Q2117.18 284.214 2114.31 286.321 Q2111.46 288.427 2106.46 288.427 Q2104.38 288.427 2102.11 288.01 Q2099.87 287.617 2097.37 286.807 L2097.37 282.409 Q2099.73 283.635 2102.02 284.26 Q2104.31 284.862 2106.56 284.862 Q2109.57 284.862 2111.19 283.844 Q2112.81 282.802 2112.81 280.927 Q2112.81 279.191 2111.63 278.265 Q2110.47 277.339 2106.51 276.483 L2105.03 276.135 Q2101.07 275.302 2099.31 273.589 Q2097.55 271.853 2097.55 268.844 Q2097.55 265.186 2100.14 263.196 Q2102.74 261.205 2107.51 261.205 Q2109.87 261.205 2111.95 261.552 Q2114.03 261.899 2115.79 262.594 Z" fill="#000000" fill-rule="evenodd" fill-opacity="1" /><path clip-path="url(#clip950)" d="M2123.96 261.83 L2128.22 261.83 L2128.22 287.756 L2123.96 287.756 L2123.96 261.83 M2123.96 251.737 L2128.22 251.737 L2128.22 257.131 L2123.96 257.131 L2123.96 251.737 Z" fill="#000000" fill-rule="evenodd" fill-opacity="1" /><path clip-path="url(#clip950)" d="M2158.69 272.108 L2158.69 287.756 L2154.43 287.756 L2154.43 272.247 Q2154.43 268.566 2152.99 266.737 Q2151.56 264.909 2148.69 264.909 Q2145.24 264.909 2143.25 267.108 Q2141.26 269.307 2141.26 273.103 L2141.26 287.756 L2136.97 287.756 L2136.97 261.83 L2141.26 261.83 L2141.26 265.858 Q2142.78 263.52 2144.84 262.362 Q2146.93 261.205 2149.64 261.205 Q2154.1 261.205 2156.39 263.983 Q2158.69 266.737 2158.69 272.108 Z" fill="#000000" fill-rule="evenodd" fill-opacity="1" /><path clip-path="url(#clip950)" d="M2166.74 277.524 L2166.74 261.83 L2171 261.83 L2171 277.362 Q2171 281.043 2172.44 282.895 Q2173.87 284.723 2176.74 284.723 Q2180.19 284.723 2182.18 282.524 Q2184.2 280.325 2184.2 276.529 L2184.2 261.83 L2188.45 261.83 L2188.45 287.756 L2184.2 287.756 L2184.2 283.774 Q2182.64 286.135 2180.58 287.293 Q2178.55 288.427 2175.84 288.427 Q2171.37 288.427 2169.06 285.649 Q2166.74 282.871 2166.74 277.524 M2177.46 261.205 L2177.46 261.205 Z" fill="#000000" fill-rule="evenodd" fill-opacity="1" /><path clip-path="url(#clip950)" d="M2213.76 262.594 L2213.76 266.622 Q2211.95 265.696 2210.01 265.233 Q2208.06 264.77 2205.98 264.77 Q2202.81 264.77 2201.21 265.742 Q2199.64 266.714 2199.64 268.659 Q2199.64 270.14 2200.77 270.997 Q2201.9 271.83 2205.33 272.594 L2206.79 272.918 Q2211.32 273.89 2213.22 275.672 Q2215.14 277.432 2215.14 280.603 Q2215.14 284.214 2212.27 286.321 Q2209.43 288.427 2204.43 288.427 Q2202.34 288.427 2200.07 288.01 Q2197.83 287.617 2195.33 286.807 L2195.33 282.409 Q2197.69 283.635 2199.98 284.26 Q2202.27 284.862 2204.52 284.862 Q2207.53 284.862 2209.15 283.844 Q2210.77 282.802 2210.77 280.927 Q2210.77 279.191 2209.59 278.265 Q2208.43 277.339 2204.47 276.483 L2202.99 276.135 Q2199.03 275.302 2197.27 273.589 Q2195.51 271.853 2195.51 268.844 Q2195.51 265.186 2198.11 263.196 Q2200.7 261.205 2205.47 261.205 Q2207.83 261.205 2209.91 261.552 Q2212 261.899 2213.76 262.594 Z" fill="#000000" fill-rule="evenodd" fill-opacity="1" /><polyline clip-path="url(#clip950)" style="stroke:#3da44d; stroke-linecap:butt; stroke-linejoin:round; stroke-width:4; stroke-opacity:1; fill:none" points="
  1875.12,322.316 2017.92,322.316 
  "/>
<path clip-path="url(#clip950)" d="M2041.72 305.036 L2070.96 305.036 L2070.96 308.971 L2058.69 308.971 L2058.69 339.596 L2053.99 339.596 L2053.99 308.971 L2041.72 308.971 L2041.72 305.036 Z" fill="#000000" fill-rule="evenodd" fill-opacity="1" /><path clip-path="url(#clip950)" d="M2079.22 326.563 Q2074.06 326.563 2072.07 327.744 Q2070.08 328.924 2070.08 331.772 Q2070.08 334.04 2071.56 335.383 Q2073.06 336.702 2075.63 336.702 Q2079.17 336.702 2081.3 334.202 Q2083.46 331.679 2083.46 327.512 L2083.46 326.563 L2079.22 326.563 M2087.71 324.804 L2087.71 339.596 L2083.46 339.596 L2083.46 335.661 Q2082 338.022 2079.82 339.156 Q2077.65 340.267 2074.5 340.267 Q2070.52 340.267 2068.15 338.045 Q2065.82 335.799 2065.82 332.049 Q2065.82 327.674 2068.73 325.452 Q2071.67 323.23 2077.48 323.23 L2083.46 323.23 L2083.46 322.813 Q2083.46 319.874 2081.51 318.276 Q2079.59 316.656 2076.09 316.656 Q2073.87 316.656 2071.77 317.188 Q2069.66 317.721 2067.71 318.786 L2067.71 314.85 Q2070.05 313.948 2072.25 313.508 Q2074.45 313.045 2076.53 313.045 Q2082.16 313.045 2084.94 315.962 Q2087.71 318.878 2087.71 324.804 Z" fill="#000000" fill-rule="evenodd" fill-opacity="1" /><path clip-path="url(#clip950)" d="M2118.04 323.948 L2118.04 339.596 L2113.78 339.596 L2113.78 324.087 Q2113.78 320.406 2112.34 318.577 Q2110.91 316.749 2108.04 316.749 Q2104.59 316.749 2102.6 318.948 Q2100.61 321.147 2100.61 324.943 L2100.61 339.596 L2096.33 339.596 L2096.33 313.67 L2100.61 313.67 L2100.61 317.698 Q2102.14 315.36 2104.2 314.202 Q2106.28 313.045 2108.99 313.045 Q2113.46 313.045 2115.75 315.823 Q2118.04 318.577 2118.04 323.948 Z" fill="#000000" fill-rule="evenodd" fill-opacity="1" /><path clip-path="url(#clip950)" d="M2143.59 326.332 Q2143.59 321.702 2141.67 319.156 Q2139.77 316.61 2136.33 316.61 Q2132.9 316.61 2130.98 319.156 Q2129.08 321.702 2129.08 326.332 Q2129.08 330.938 2130.98 333.485 Q2132.9 336.031 2136.33 336.031 Q2139.77 336.031 2141.67 333.485 Q2143.59 330.938 2143.59 326.332 M2147.85 336.378 Q2147.85 342.998 2144.91 346.216 Q2141.97 349.457 2135.91 349.457 Q2133.66 349.457 2131.67 349.11 Q2129.68 348.785 2127.81 348.091 L2127.81 343.948 Q2129.68 344.966 2131.51 345.452 Q2133.34 345.938 2135.24 345.938 Q2139.43 345.938 2141.51 343.739 Q2143.59 341.563 2143.59 337.142 L2143.59 335.036 Q2142.27 337.327 2140.21 338.461 Q2138.15 339.596 2135.28 339.596 Q2130.52 339.596 2127.6 335.961 Q2124.68 332.327 2124.68 326.332 Q2124.68 320.313 2127.6 316.679 Q2130.52 313.045 2135.28 313.045 Q2138.15 313.045 2140.21 314.179 Q2142.27 315.313 2143.59 317.605 L2143.59 313.67 L2147.85 313.67 L2147.85 336.378 Z" fill="#000000" fill-rule="evenodd" fill-opacity="1" /><path clip-path="url(#clip950)" d="M2178.8 325.568 L2178.8 327.651 L2159.22 327.651 Q2159.5 332.049 2161.86 334.364 Q2164.24 336.656 2168.48 336.656 Q2170.93 336.656 2173.22 336.054 Q2175.54 335.452 2177.81 334.249 L2177.81 338.276 Q2175.51 339.248 2173.11 339.758 Q2170.7 340.267 2168.22 340.267 Q2162.02 340.267 2158.39 336.656 Q2154.77 333.045 2154.77 326.887 Q2154.77 320.522 2158.2 316.795 Q2161.65 313.045 2167.48 313.045 Q2172.71 313.045 2175.75 316.425 Q2178.8 319.781 2178.8 325.568 M2174.54 324.318 Q2174.5 320.823 2172.58 318.739 Q2170.68 316.656 2167.53 316.656 Q2163.96 316.656 2161.81 318.67 Q2159.68 320.684 2159.36 324.341 L2174.54 324.318 Z" fill="#000000" fill-rule="evenodd" fill-opacity="1" /><path clip-path="url(#clip950)" d="M2207.34 323.948 L2207.34 339.596 L2203.08 339.596 L2203.08 324.087 Q2203.08 320.406 2201.65 318.577 Q2200.21 316.749 2197.34 316.749 Q2193.89 316.749 2191.9 318.948 Q2189.91 321.147 2189.91 324.943 L2189.91 339.596 L2185.63 339.596 L2185.63 313.67 L2189.91 313.67 L2189.91 317.698 Q2191.44 315.36 2193.5 314.202 Q2195.58 313.045 2198.29 313.045 Q2202.76 313.045 2205.05 315.823 Q2207.34 318.577 2207.34 323.948 Z" fill="#000000" fill-rule="evenodd" fill-opacity="1" /><path clip-path="url(#clip950)" d="M2232.37 314.434 L2232.37 318.462 Q2230.56 317.536 2228.62 317.073 Q2226.67 316.61 2224.59 316.61 Q2221.42 316.61 2219.82 317.582 Q2218.25 318.554 2218.25 320.499 Q2218.25 321.98 2219.38 322.837 Q2220.51 323.67 2223.94 324.434 L2225.4 324.758 Q2229.94 325.73 2231.83 327.512 Q2233.76 329.272 2233.76 332.443 Q2233.76 336.054 2230.88 338.161 Q2228.04 340.267 2223.04 340.267 Q2220.95 340.267 2218.69 339.85 Q2216.44 339.457 2213.94 338.647 L2213.94 334.249 Q2216.3 335.475 2218.59 336.1 Q2220.89 336.702 2223.13 336.702 Q2226.14 336.702 2227.76 335.684 Q2229.38 334.642 2229.38 332.767 Q2229.38 331.031 2228.2 330.105 Q2227.04 329.179 2223.08 328.323 L2221.6 327.975 Q2217.64 327.142 2215.89 325.429 Q2214.13 323.693 2214.13 320.684 Q2214.13 317.026 2216.72 315.036 Q2219.31 313.045 2224.08 313.045 Q2226.44 313.045 2228.52 313.392 Q2230.61 313.739 2232.37 314.434 Z" fill="#000000" fill-rule="evenodd" fill-opacity="1" /></svg>
