<?xml version="1.0" encoding="utf-8"?>
<svg xmlns="http://www.w3.org/2000/svg" xmlns:xlink="http://www.w3.org/1999/xlink" width="600" height="400" viewBox="0 0 2400 1600">
<defs>
  <clipPath id="clip380">
    <rect x="0" y="0" width="2400" height="1600"/>
  </clipPath>
</defs>
<path clip-path="url(#clip380)" d="
M0 1600 L2400 1600 L2400 0 L0 0  Z
  " fill="#ffffff" fill-rule="evenodd" fill-opacity="1"/>
<defs>
  <clipPath id="clip381">
    <rect x="480" y="0" width="1681" height="1600"/>
  </clipPath>
</defs>
<path clip-path="url(#clip380)" d="
M193.936 1486.45 L2352.76 1486.45 L2352.76 123.472 L193.936 123.472  Z
  " fill="#ffffff" fill-rule="evenodd" fill-opacity="1"/>
<defs>
  <clipPath id="clip382">
    <rect x="193" y="123" width="2160" height="1364"/>
  </clipPath>
</defs>
<polyline clip-path="url(#clip382)" style="stroke:#000000; stroke-linecap:butt; stroke-linejoin:round; stroke-width:2; stroke-opacity:0.1; fill:none" points="
  255.035,1486.45 255.035,123.472 
  "/>
<polyline clip-path="url(#clip382)" style="stroke:#000000; stroke-linecap:butt; stroke-linejoin:round; stroke-width:2; stroke-opacity:0.1; fill:none" points="
  579.173,1486.45 579.173,123.472 
  "/>
<polyline clip-path="url(#clip382)" style="stroke:#000000; stroke-linecap:butt; stroke-linejoin:round; stroke-width:2; stroke-opacity:0.1; fill:none" points="
  903.312,1486.45 903.312,123.472 
  "/>
<polyline clip-path="url(#clip382)" style="stroke:#000000; stroke-linecap:butt; stroke-linejoin:round; stroke-width:2; stroke-opacity:0.1; fill:none" points="
  1227.45,1486.45 1227.45,123.472 
  "/>
<polyline clip-path="url(#clip382)" style="stroke:#000000; stroke-linecap:butt; stroke-linejoin:round; stroke-width:2; stroke-opacity:0.1; fill:none" points="
  1551.59,1486.45 1551.59,123.472 
  "/>
<polyline clip-path="url(#clip382)" style="stroke:#000000; stroke-linecap:butt; stroke-linejoin:round; stroke-width:2; stroke-opacity:0.1; fill:none" points="
  1875.73,1486.45 1875.73,123.472 
  "/>
<polyline clip-path="url(#clip382)" style="stroke:#000000; stroke-linecap:butt; stroke-linejoin:round; stroke-width:2; stroke-opacity:0.1; fill:none" points="
  2199.87,1486.45 2199.87,123.472 
  "/>
<polyline clip-path="url(#clip380)" style="stroke:#000000; stroke-linecap:butt; stroke-linejoin:round; stroke-width:4; stroke-opacity:1; fill:none" points="
  193.936,1486.45 2352.76,1486.45 
  "/>
<polyline clip-path="url(#clip380)" style="stroke:#000000; stroke-linecap:butt; stroke-linejoin:round; stroke-width:4; stroke-opacity:1; fill:none" points="
  255.035,1486.45 255.035,1467.55 
  "/>
<polyline clip-path="url(#clip380)" style="stroke:#000000; stroke-linecap:butt; stroke-linejoin:round; stroke-width:4; stroke-opacity:1; fill:none" points="
  579.173,1486.45 579.173,1467.55 
  "/>
<polyline clip-path="url(#clip380)" style="stroke:#000000; stroke-linecap:butt; stroke-linejoin:round; stroke-width:4; stroke-opacity:1; fill:none" points="
  903.312,1486.45 903.312,1467.55 
  "/>
<polyline clip-path="url(#clip380)" style="stroke:#000000; stroke-linecap:butt; stroke-linejoin:round; stroke-width:4; stroke-opacity:1; fill:none" points="
  1227.45,1486.45 1227.45,1467.55 
  "/>
<polyline clip-path="url(#clip380)" style="stroke:#000000; stroke-linecap:butt; stroke-linejoin:round; stroke-width:4; stroke-opacity:1; fill:none" points="
  1551.59,1486.45 1551.59,1467.55 
  "/>
<polyline clip-path="url(#clip380)" style="stroke:#000000; stroke-linecap:butt; stroke-linejoin:round; stroke-width:4; stroke-opacity:1; fill:none" points="
  1875.73,1486.45 1875.73,1467.55 
  "/>
<polyline clip-path="url(#clip380)" style="stroke:#000000; stroke-linecap:butt; stroke-linejoin:round; stroke-width:4; stroke-opacity:1; fill:none" points="
  2199.87,1486.45 2199.87,1467.55 
  "/>
<path clip-path="url(#clip380)" d="M255.035 1517.37 Q251.424 1517.37 249.595 1520.93 Q247.789 1524.47 247.789 1531.6 Q247.789 1538.71 249.595 1542.27 Q251.424 1545.82 255.035 1545.82 Q258.669 1545.82 260.474 1542.27 Q262.303 1538.71 262.303 1531.6 Q262.303 1524.47 260.474 1520.93 Q258.669 1517.37 255.035 1517.37 M255.035 1513.66 Q260.845 1513.66 263.9 1518.27 Q266.979 1522.85 266.979 1531.6 Q266.979 1540.33 263.9 1544.94 Q260.845 1549.52 255.035 1549.52 Q249.225 1549.52 246.146 1544.94 Q243.09 1540.33 243.09 1531.6 Q243.09 1522.85 246.146 1518.27 Q249.225 1513.66 255.035 1513.66 Z" fill="#000000" fill-rule="evenodd" fill-opacity="1" /><path clip-path="url(#clip380)" d="M569.555 1544.91 L577.194 1544.91 L577.194 1518.55 L568.884 1520.21 L568.884 1515.95 L577.148 1514.29 L581.824 1514.29 L581.824 1544.91 L589.463 1544.91 L589.463 1548.85 L569.555 1548.85 L569.555 1544.91 Z" fill="#000000" fill-rule="evenodd" fill-opacity="1" /><path clip-path="url(#clip380)" d="M897.965 1544.91 L914.284 1544.91 L914.284 1548.85 L892.34 1548.85 L892.34 1544.91 Q895.002 1542.16 899.585 1537.53 Q904.191 1532.88 905.372 1531.53 Q907.617 1529.01 908.497 1527.27 Q909.4 1525.51 909.4 1523.82 Q909.4 1521.07 907.455 1519.33 Q905.534 1517.6 902.432 1517.6 Q900.233 1517.6 897.779 1518.36 Q895.349 1519.13 892.571 1520.68 L892.571 1515.95 Q895.395 1514.82 897.849 1514.24 Q900.303 1513.66 902.34 1513.66 Q907.71 1513.66 910.904 1516.35 Q914.099 1519.03 914.099 1523.52 Q914.099 1525.65 913.289 1527.57 Q912.502 1529.47 910.395 1532.07 Q909.816 1532.74 906.715 1535.95 Q903.613 1539.15 897.965 1544.91 Z" fill="#000000" fill-rule="evenodd" fill-opacity="1" /><path clip-path="url(#clip380)" d="M1231.7 1530.21 Q1235.05 1530.93 1236.93 1533.2 Q1238.83 1535.47 1238.83 1538.8 Q1238.83 1543.92 1235.31 1546.72 Q1231.79 1549.52 1225.31 1549.52 Q1223.13 1549.52 1220.82 1549.08 Q1218.53 1548.66 1216.07 1547.81 L1216.07 1543.29 Q1218.02 1544.43 1220.33 1545.01 Q1222.65 1545.58 1225.17 1545.58 Q1229.57 1545.58 1231.86 1543.85 Q1234.17 1542.11 1234.17 1538.8 Q1234.17 1535.75 1232.02 1534.03 Q1229.89 1532.3 1226.07 1532.3 L1222.05 1532.3 L1222.05 1528.45 L1226.26 1528.45 Q1229.71 1528.45 1231.54 1527.09 Q1233.36 1525.7 1233.36 1523.11 Q1233.36 1520.45 1231.47 1519.03 Q1229.59 1517.6 1226.07 1517.6 Q1224.15 1517.6 1221.95 1518.01 Q1219.75 1518.43 1217.11 1519.31 L1217.11 1515.14 Q1219.78 1514.4 1222.09 1514.03 Q1224.43 1513.66 1226.49 1513.66 Q1231.81 1513.66 1234.92 1516.09 Q1238.02 1518.5 1238.02 1522.62 Q1238.02 1525.49 1236.37 1527.48 Q1234.73 1529.45 1231.7 1530.21 Z" fill="#000000" fill-rule="evenodd" fill-opacity="1" /><path clip-path="url(#clip380)" d="M1554.6 1518.36 L1542.79 1536.81 L1554.6 1536.81 L1554.6 1518.36 M1553.37 1514.29 L1559.25 1514.29 L1559.25 1536.81 L1564.18 1536.81 L1564.18 1540.7 L1559.25 1540.7 L1559.25 1548.85 L1554.6 1548.85 L1554.6 1540.7 L1539 1540.7 L1539 1536.19 L1553.37 1514.29 Z" fill="#000000" fill-rule="evenodd" fill-opacity="1" /><path clip-path="url(#clip380)" d="M1866.01 1514.29 L1884.36 1514.29 L1884.36 1518.22 L1870.29 1518.22 L1870.29 1526.7 Q1871.31 1526.35 1872.32 1526.19 Q1873.34 1526 1874.36 1526 Q1880.15 1526 1883.53 1529.17 Q1886.91 1532.34 1886.91 1537.76 Q1886.91 1543.34 1883.44 1546.44 Q1879.96 1549.52 1873.64 1549.52 Q1871.47 1549.52 1869.2 1549.15 Q1866.95 1548.78 1864.55 1548.04 L1864.55 1543.34 Q1866.63 1544.47 1868.85 1545.03 Q1871.07 1545.58 1873.55 1545.58 Q1877.56 1545.58 1879.89 1543.48 Q1882.23 1541.37 1882.23 1537.76 Q1882.23 1534.15 1879.89 1532.04 Q1877.56 1529.94 1873.55 1529.94 Q1871.68 1529.94 1869.8 1530.35 Q1867.95 1530.77 1866.01 1531.65 L1866.01 1514.29 Z" fill="#000000" fill-rule="evenodd" fill-opacity="1" /><path clip-path="url(#clip380)" d="M2200.27 1529.7 Q2197.12 1529.7 2195.27 1531.86 Q2193.44 1534.01 2193.44 1537.76 Q2193.44 1541.49 2195.27 1543.66 Q2197.12 1545.82 2200.27 1545.82 Q2203.42 1545.82 2205.25 1543.66 Q2207.1 1541.49 2207.1 1537.76 Q2207.1 1534.01 2205.25 1531.86 Q2203.42 1529.7 2200.27 1529.7 M2209.55 1515.05 L2209.55 1519.31 Q2207.79 1518.48 2205.99 1518.04 Q2204.21 1517.6 2202.45 1517.6 Q2197.82 1517.6 2195.36 1520.72 Q2192.93 1523.85 2192.59 1530.17 Q2193.95 1528.15 2196.01 1527.09 Q2198.07 1526 2200.55 1526 Q2205.76 1526 2208.77 1529.17 Q2211.8 1532.32 2211.8 1537.76 Q2211.8 1543.08 2208.65 1546.3 Q2205.5 1549.52 2200.27 1549.52 Q2194.28 1549.52 2191.1 1544.94 Q2187.93 1540.33 2187.93 1531.6 Q2187.93 1523.41 2191.82 1518.55 Q2195.71 1513.66 2202.26 1513.66 Q2204.02 1513.66 2205.8 1514.01 Q2207.61 1514.36 2209.55 1515.05 Z" fill="#000000" fill-rule="evenodd" fill-opacity="1" /><polyline clip-path="url(#clip382)" style="stroke:#000000; stroke-linecap:butt; stroke-linejoin:round; stroke-width:2; stroke-opacity:0.1; fill:none" points="
  193.936,1447.87 2352.76,1447.87 
  "/>
<polyline clip-path="url(#clip382)" style="stroke:#000000; stroke-linecap:butt; stroke-linejoin:round; stroke-width:2; stroke-opacity:0.1; fill:none" points="
  193.936,1126.42 2352.76,1126.42 
  "/>
<polyline clip-path="url(#clip382)" style="stroke:#000000; stroke-linecap:butt; stroke-linejoin:round; stroke-width:2; stroke-opacity:0.1; fill:none" points="
  193.936,804.961 2352.76,804.961 
  "/>
<polyline clip-path="url(#clip382)" style="stroke:#000000; stroke-linecap:butt; stroke-linejoin:round; stroke-width:2; stroke-opacity:0.1; fill:none" points="
  193.936,483.504 2352.76,483.504 
  "/>
<polyline clip-path="url(#clip382)" style="stroke:#000000; stroke-linecap:butt; stroke-linejoin:round; stroke-width:2; stroke-opacity:0.1; fill:none" points="
  193.936,162.047 2352.76,162.047 
  "/>
<polyline clip-path="url(#clip380)" style="stroke:#000000; stroke-linecap:butt; stroke-linejoin:round; stroke-width:4; stroke-opacity:1; fill:none" points="
  193.936,1486.45 193.936,123.472 
  "/>
<polyline clip-path="url(#clip380)" style="stroke:#000000; stroke-linecap:butt; stroke-linejoin:round; stroke-width:4; stroke-opacity:1; fill:none" points="
  193.936,1447.87 212.834,1447.87 
  "/>
<polyline clip-path="url(#clip380)" style="stroke:#000000; stroke-linecap:butt; stroke-linejoin:round; stroke-width:4; stroke-opacity:1; fill:none" points="
  193.936,1126.42 212.834,1126.42 
  "/>
<polyline clip-path="url(#clip380)" style="stroke:#000000; stroke-linecap:butt; stroke-linejoin:round; stroke-width:4; stroke-opacity:1; fill:none" points="
  193.936,804.961 212.834,804.961 
  "/>
<polyline clip-path="url(#clip380)" style="stroke:#000000; stroke-linecap:butt; stroke-linejoin:round; stroke-width:4; stroke-opacity:1; fill:none" points="
  193.936,483.504 212.834,483.504 
  "/>
<polyline clip-path="url(#clip380)" style="stroke:#000000; stroke-linecap:butt; stroke-linejoin:round; stroke-width:4; stroke-opacity:1; fill:none" points="
  193.936,162.047 212.834,162.047 
  "/>
<path clip-path="url(#clip380)" d="M50.9921 1448.33 L80.6679 1448.33 L80.6679 1452.26 L50.9921 1452.26 L50.9921 1448.33 Z" fill="#000000" fill-rule="evenodd" fill-opacity="1" /><path clip-path="url(#clip380)" d="M91.5706 1461.22 L99.2095 1461.22 L99.2095 1434.85 L90.8993 1436.52 L90.8993 1432.26 L99.1632 1430.59 L103.839 1430.59 L103.839 1461.22 L111.478 1461.22 L111.478 1465.15 L91.5706 1465.15 L91.5706 1461.22 Z" fill="#000000" fill-rule="evenodd" fill-opacity="1" /><path clip-path="url(#clip380)" d="M120.922 1459.27 L125.807 1459.27 L125.807 1465.15 L120.922 1465.15 L120.922 1459.27 Z" fill="#000000" fill-rule="evenodd" fill-opacity="1" /><path clip-path="url(#clip380)" d="M145.992 1433.67 Q142.381 1433.67 140.552 1437.24 Q138.746 1440.78 138.746 1447.91 Q138.746 1455.02 140.552 1458.58 Q142.381 1462.12 145.992 1462.12 Q149.626 1462.12 151.431 1458.58 Q153.26 1455.02 153.26 1447.91 Q153.26 1440.78 151.431 1437.24 Q149.626 1433.67 145.992 1433.67 M145.992 1429.97 Q151.802 1429.97 154.857 1434.58 Q157.936 1439.16 157.936 1447.91 Q157.936 1456.64 154.857 1461.24 Q151.802 1465.83 145.992 1465.83 Q140.181 1465.83 137.103 1461.24 Q134.047 1456.64 134.047 1447.91 Q134.047 1439.16 137.103 1434.58 Q140.181 1429.97 145.992 1429.97 Z" fill="#000000" fill-rule="evenodd" fill-opacity="1" /><path clip-path="url(#clip380)" d="M51.9875 1126.87 L81.6633 1126.87 L81.6633 1130.8 L51.9875 1130.8 L51.9875 1126.87 Z" fill="#000000" fill-rule="evenodd" fill-opacity="1" /><path clip-path="url(#clip380)" d="M101.756 1112.22 Q98.1447 1112.22 96.316 1115.78 Q94.5104 1119.32 94.5104 1126.45 Q94.5104 1133.56 96.316 1137.12 Q98.1447 1140.67 101.756 1140.67 Q105.39 1140.67 107.196 1137.12 Q109.024 1133.56 109.024 1126.45 Q109.024 1119.32 107.196 1115.78 Q105.39 1112.22 101.756 1112.22 M101.756 1108.51 Q107.566 1108.51 110.621 1113.12 Q113.7 1117.7 113.7 1126.45 Q113.7 1135.18 110.621 1139.79 Q107.566 1144.37 101.756 1144.37 Q95.9456 1144.37 92.8669 1139.79 Q89.8114 1135.18 89.8114 1126.45 Q89.8114 1117.7 92.8669 1113.12 Q95.9456 1108.51 101.756 1108.51 Z" fill="#000000" fill-rule="evenodd" fill-opacity="1" /><path clip-path="url(#clip380)" d="M121.918 1137.82 L126.802 1137.82 L126.802 1143.7 L121.918 1143.7 L121.918 1137.82 Z" fill="#000000" fill-rule="evenodd" fill-opacity="1" /><path clip-path="url(#clip380)" d="M137.033 1109.14 L155.39 1109.14 L155.39 1113.07 L141.316 1113.07 L141.316 1121.54 Q142.334 1121.2 143.353 1121.04 Q144.371 1120.85 145.39 1120.85 Q151.177 1120.85 154.556 1124.02 Q157.936 1127.19 157.936 1132.61 Q157.936 1138.19 154.464 1141.29 Q150.992 1144.37 144.672 1144.37 Q142.496 1144.37 140.228 1144 Q137.982 1143.63 135.575 1142.89 L135.575 1138.19 Q137.658 1139.32 139.881 1139.88 Q142.103 1140.43 144.58 1140.43 Q148.584 1140.43 150.922 1138.33 Q153.26 1136.22 153.26 1132.61 Q153.26 1129 150.922 1126.89 Q148.584 1124.79 144.58 1124.79 Q142.705 1124.79 140.83 1125.2 Q138.978 1125.62 137.033 1126.5 L137.033 1109.14 Z" fill="#000000" fill-rule="evenodd" fill-opacity="1" /><path clip-path="url(#clip380)" d="M100.76 790.759 Q97.1493 790.759 95.3206 794.324 Q93.515 797.866 93.515 804.995 Q93.515 812.102 95.3206 815.667 Q97.1493 819.208 100.76 819.208 Q104.395 819.208 106.2 815.667 Q108.029 812.102 108.029 804.995 Q108.029 797.866 106.2 794.324 Q104.395 790.759 100.76 790.759 M100.76 787.056 Q106.571 787.056 109.626 791.662 Q112.705 796.245 112.705 804.995 Q112.705 813.722 109.626 818.329 Q106.571 822.912 100.76 822.912 Q94.9502 822.912 91.8715 818.329 Q88.816 813.722 88.816 804.995 Q88.816 796.245 91.8715 791.662 Q94.9502 787.056 100.76 787.056 Z" fill="#000000" fill-rule="evenodd" fill-opacity="1" /><path clip-path="url(#clip380)" d="M120.922 816.361 L125.807 816.361 L125.807 822.241 L120.922 822.241 L120.922 816.361 Z" fill="#000000" fill-rule="evenodd" fill-opacity="1" /><path clip-path="url(#clip380)" d="M145.992 790.759 Q142.381 790.759 140.552 794.324 Q138.746 797.866 138.746 804.995 Q138.746 812.102 140.552 815.667 Q142.381 819.208 145.992 819.208 Q149.626 819.208 151.431 815.667 Q153.26 812.102 153.26 804.995 Q153.26 797.866 151.431 794.324 Q149.626 790.759 145.992 790.759 M145.992 787.056 Q151.802 787.056 154.857 791.662 Q157.936 796.245 157.936 804.995 Q157.936 813.722 154.857 818.329 Q151.802 822.912 145.992 822.912 Q140.181 822.912 137.103 818.329 Q134.047 813.722 134.047 804.995 Q134.047 796.245 137.103 791.662 Q140.181 787.056 145.992 787.056 Z" fill="#000000" fill-rule="evenodd" fill-opacity="1" /><path clip-path="url(#clip380)" d="M101.756 469.302 Q98.1447 469.302 96.316 472.867 Q94.5104 476.409 94.5104 483.539 Q94.5104 490.645 96.316 494.21 Q98.1447 497.751 101.756 497.751 Q105.39 497.751 107.196 494.21 Q109.024 490.645 109.024 483.539 Q109.024 476.409 107.196 472.867 Q105.39 469.302 101.756 469.302 M101.756 465.599 Q107.566 465.599 110.621 470.205 Q113.7 474.789 113.7 483.539 Q113.7 492.265 110.621 496.872 Q107.566 501.455 101.756 501.455 Q95.9456 501.455 92.8669 496.872 Q89.8114 492.265 89.8114 483.539 Q89.8114 474.789 92.8669 470.205 Q95.9456 465.599 101.756 465.599 Z" fill="#000000" fill-rule="evenodd" fill-opacity="1" /><path clip-path="url(#clip380)" d="M121.918 494.904 L126.802 494.904 L126.802 500.784 L121.918 500.784 L121.918 494.904 Z" fill="#000000" fill-rule="evenodd" fill-opacity="1" /><path clip-path="url(#clip380)" d="M137.033 466.224 L155.39 466.224 L155.39 470.159 L141.316 470.159 L141.316 478.631 Q142.334 478.284 143.353 478.122 Q144.371 477.937 145.39 477.937 Q151.177 477.937 154.556 481.108 Q157.936 484.279 157.936 489.696 Q157.936 495.275 154.464 498.376 Q150.992 501.455 144.672 501.455 Q142.496 501.455 140.228 501.085 Q137.982 500.714 135.575 499.974 L135.575 495.275 Q137.658 496.409 139.881 496.964 Q142.103 497.52 144.58 497.52 Q148.584 497.52 150.922 495.413 Q153.26 493.307 153.26 489.696 Q153.26 486.085 150.922 483.978 Q148.584 481.872 144.58 481.872 Q142.705 481.872 140.83 482.289 Q138.978 482.705 137.033 483.585 L137.033 466.224 Z" fill="#000000" fill-rule="evenodd" fill-opacity="1" /><path clip-path="url(#clip380)" d="M91.5706 175.392 L99.2095 175.392 L99.2095 149.026 L90.8993 150.693 L90.8993 146.434 L99.1632 144.767 L103.839 144.767 L103.839 175.392 L111.478 175.392 L111.478 179.327 L91.5706 179.327 L91.5706 175.392 Z" fill="#000000" fill-rule="evenodd" fill-opacity="1" /><path clip-path="url(#clip380)" d="M120.922 173.447 L125.807 173.447 L125.807 179.327 L120.922 179.327 L120.922 173.447 Z" fill="#000000" fill-rule="evenodd" fill-opacity="1" /><path clip-path="url(#clip380)" d="M145.992 147.846 Q142.381 147.846 140.552 151.41 Q138.746 154.952 138.746 162.082 Q138.746 169.188 140.552 172.753 Q142.381 176.295 145.992 176.295 Q149.626 176.295 151.431 172.753 Q153.26 169.188 153.26 162.082 Q153.26 154.952 151.431 151.41 Q149.626 147.846 145.992 147.846 M145.992 144.142 Q151.802 144.142 154.857 148.748 Q157.936 153.332 157.936 162.082 Q157.936 170.808 154.857 175.415 Q151.802 179.998 145.992 179.998 Q140.181 179.998 137.103 175.415 Q134.047 170.808 134.047 162.082 Q134.047 153.332 137.103 148.748 Q140.181 144.142 145.992 144.142 Z" fill="#000000" fill-rule="evenodd" fill-opacity="1" /><path clip-path="url(#clip380)" d="M675.898 12.096 L727.061 12.096 L727.061 18.9825 L705.591 18.9825 L705.591 72.576 L697.368 72.576 L697.368 18.9825 L675.898 18.9825 L675.898 12.096 Z" fill="#000000" fill-rule="evenodd" fill-opacity="1" /><path clip-path="url(#clip380)" d="M748.734 34.1734 Q747.478 33.4443 745.979 33.1202 Q744.521 32.7556 742.738 32.7556 Q736.419 32.7556 733.016 36.8875 Q729.654 40.9789 729.654 48.6757 L729.654 72.576 L722.16 72.576 L722.16 27.2059 L729.654 27.2059 L729.654 34.2544 Q732.003 30.1225 735.771 28.1376 Q739.538 26.1121 744.926 26.1121 Q745.695 26.1121 746.627 26.2337 Q747.559 26.3147 748.693 26.5172 L748.734 34.1734 Z" fill="#000000" fill-rule="evenodd" fill-opacity="1" /><path clip-path="url(#clip380)" d="M756.552 27.2059 L764.006 27.2059 L764.006 72.576 L756.552 72.576 L756.552 27.2059 M756.552 9.54393 L764.006 9.54393 L764.006 18.9825 L756.552 18.9825 L756.552 9.54393 Z" fill="#000000" fill-rule="evenodd" fill-opacity="1" /><path clip-path="url(#clip380)" d="M809.457 49.3643 Q809.457 41.2625 806.094 36.8065 Q802.773 32.3505 796.737 32.3505 Q790.741 32.3505 787.379 36.8065 Q784.057 41.2625 784.057 49.3643 Q784.057 57.4256 787.379 61.8816 Q790.741 66.3376 796.737 66.3376 Q802.773 66.3376 806.094 61.8816 Q809.457 57.4256 809.457 49.3643 M816.91 66.9452 Q816.91 78.5308 811.766 84.1616 Q806.621 89.8329 796.008 89.8329 Q792.078 89.8329 788.594 89.2252 Q785.111 88.6581 781.829 87.4428 L781.829 80.1917 Q785.111 81.9741 788.311 82.8248 Q791.511 83.6755 794.833 83.6755 Q802.165 83.6755 805.811 79.8271 Q809.457 76.0193 809.457 68.282 L809.457 64.5957 Q807.148 68.6061 803.542 70.5911 Q799.937 72.576 794.914 72.576 Q786.569 72.576 781.465 66.2161 Q776.361 59.8562 776.361 49.3643 Q776.361 38.832 781.465 32.472 Q786.569 26.1121 794.914 26.1121 Q799.937 26.1121 803.542 28.0971 Q807.148 30.082 809.457 34.0924 L809.457 27.2059 L816.91 27.2059 L816.91 66.9452 Z" fill="#000000" fill-rule="evenodd" fill-opacity="1" /><path clip-path="url(#clip380)" d="M849.844 32.4315 Q843.849 32.4315 840.365 37.1306 Q836.881 41.7891 836.881 49.9314 Q836.881 58.0738 840.325 62.7728 Q843.808 67.4314 849.844 67.4314 Q855.799 67.4314 859.283 62.7323 Q862.767 58.0333 862.767 49.9314 Q862.767 41.8701 859.283 37.1711 Q855.799 32.4315 849.844 32.4315 M849.844 26.1121 Q859.566 26.1121 865.116 32.4315 Q870.666 38.7509 870.666 49.9314 Q870.666 61.0714 865.116 67.4314 Q859.566 73.7508 849.844 73.7508 Q840.081 73.7508 834.532 67.4314 Q829.023 61.0714 829.023 49.9314 Q829.023 38.7509 834.532 32.4315 Q840.081 26.1121 849.844 26.1121 Z" fill="#000000" fill-rule="evenodd" fill-opacity="1" /><path clip-path="url(#clip380)" d="M920.735 45.1919 L920.735 72.576 L913.281 72.576 L913.281 45.4349 Q913.281 38.994 910.77 35.7938 Q908.258 32.5936 903.235 32.5936 Q897.199 32.5936 893.715 36.4419 Q890.232 40.2903 890.232 46.9338 L890.232 72.576 L882.738 72.576 L882.738 27.2059 L890.232 27.2059 L890.232 34.2544 Q892.905 30.163 896.511 28.1376 Q900.156 26.1121 904.896 26.1121 Q912.714 26.1121 916.725 30.9732 Q920.735 35.7938 920.735 45.1919 Z" fill="#000000" fill-rule="evenodd" fill-opacity="1" /><path clip-path="url(#clip380)" d="M953.183 32.4315 Q947.187 32.4315 943.704 37.1306 Q940.22 41.7891 940.22 49.9314 Q940.22 58.0738 943.663 62.7728 Q947.147 67.4314 953.183 67.4314 Q959.138 67.4314 962.621 62.7323 Q966.105 58.0333 966.105 49.9314 Q966.105 41.8701 962.621 37.1711 Q959.138 32.4315 953.183 32.4315 M953.183 26.1121 Q962.905 26.1121 968.455 32.4315 Q974.004 38.7509 974.004 49.9314 Q974.004 61.0714 968.455 67.4314 Q962.905 73.7508 953.183 73.7508 Q943.42 73.7508 937.87 67.4314 Q932.361 61.0714 932.361 49.9314 Q932.361 38.7509 937.87 32.4315 Q943.42 26.1121 953.183 26.1121 Z" fill="#000000" fill-rule="evenodd" fill-opacity="1" /><path clip-path="url(#clip380)" d="M1021.68 35.9153 Q1024.48 30.8922 1028.37 28.5022 Q1032.26 26.1121 1037.52 26.1121 Q1044.61 26.1121 1048.46 31.0947 Q1052.31 36.0368 1052.31 45.1919 L1052.31 72.576 L1044.81 72.576 L1044.81 45.4349 Q1044.81 38.913 1042.51 35.7533 Q1040.2 32.5936 1035.46 32.5936 Q1029.66 32.5936 1026.3 36.4419 Q1022.94 40.2903 1022.94 46.9338 L1022.94 72.576 L1015.45 72.576 L1015.45 45.4349 Q1015.45 38.8725 1013.14 35.7533 Q1010.83 32.5936 1006.01 32.5936 Q1000.29 32.5936 996.933 36.4824 Q993.57 40.3308 993.57 46.9338 L993.57 72.576 L986.076 72.576 L986.076 27.2059 L993.57 27.2059 L993.57 34.2544 Q996.122 30.082 999.687 28.0971 Q1003.25 26.1121 1008.15 26.1121 Q1013.1 26.1121 1016.54 28.6237 Q1020.02 31.1352 1021.68 35.9153 Z" fill="#000000" fill-rule="evenodd" fill-opacity="1" /><path clip-path="url(#clip380)" d="M1105.98 48.0275 L1105.98 51.6733 L1071.71 51.6733 Q1072.2 59.3701 1076.33 63.421 Q1080.5 67.4314 1087.92 67.4314 Q1092.21 67.4314 1096.22 66.3781 Q1100.27 65.3249 1104.24 63.2184 L1104.24 70.267 Q1100.23 71.9684 1096.02 72.8596 Q1091.8 73.7508 1087.47 73.7508 Q1076.61 73.7508 1070.25 67.4314 Q1063.93 61.1119 1063.93 50.3365 Q1063.93 39.1965 1069.93 32.6746 Q1075.97 26.1121 1086.17 26.1121 Q1095.33 26.1121 1100.64 32.0264 Q1105.98 37.9003 1105.98 48.0275 M1098.53 45.84 Q1098.45 39.7232 1095.09 36.0774 Q1091.76 32.4315 1086.25 32.4315 Q1080.02 32.4315 1076.25 35.9558 Q1072.52 39.4801 1071.96 45.8805 L1098.53 45.84 Z" fill="#000000" fill-rule="evenodd" fill-opacity="1" /><path clip-path="url(#clip380)" d="M1125.59 14.324 L1125.59 27.2059 L1140.94 27.2059 L1140.94 32.9987 L1125.59 32.9987 L1125.59 57.6282 Q1125.59 63.1779 1127.09 64.7578 Q1128.63 66.3376 1133.29 66.3376 L1140.94 66.3376 L1140.94 72.576 L1133.29 72.576 Q1124.66 72.576 1121.38 69.3758 Q1118.1 66.1351 1118.1 57.6282 L1118.1 32.9987 L1112.63 32.9987 L1112.63 27.2059 L1118.1 27.2059 L1118.1 14.324 L1125.59 14.324 Z" fill="#000000" fill-rule="evenodd" fill-opacity="1" /><path clip-path="url(#clip380)" d="M1177.04 34.1734 Q1175.78 33.4443 1174.28 33.1202 Q1172.82 32.7556 1171.04 32.7556 Q1164.72 32.7556 1161.32 36.8875 Q1157.96 40.9789 1157.96 48.6757 L1157.96 72.576 L1150.46 72.576 L1150.46 27.2059 L1157.96 27.2059 L1157.96 34.2544 Q1160.31 30.1225 1164.07 28.1376 Q1167.84 26.1121 1173.23 26.1121 Q1174 26.1121 1174.93 26.2337 Q1175.86 26.3147 1177 26.5172 L1177.04 34.1734 Z" fill="#000000" fill-rule="evenodd" fill-opacity="1" /><path clip-path="url(#clip380)" d="M1184.85 27.2059 L1192.31 27.2059 L1192.31 72.576 L1184.85 72.576 L1184.85 27.2059 M1184.85 9.54393 L1192.31 9.54393 L1192.31 18.9825 L1184.85 18.9825 L1184.85 9.54393 Z" fill="#000000" fill-rule="evenodd" fill-opacity="1" /><path clip-path="url(#clip380)" d="M1236.83 28.5427 L1236.83 35.5912 Q1233.67 33.9709 1230.26 33.1607 Q1226.86 32.3505 1223.22 32.3505 Q1217.67 32.3505 1214.87 34.0519 Q1212.12 35.7533 1212.12 39.156 Q1212.12 41.7486 1214.1 43.2475 Q1216.09 44.7058 1222.08 46.0426 L1224.63 46.6097 Q1232.57 48.3111 1235.9 51.4303 Q1239.26 54.509 1239.26 60.0587 Q1239.26 66.3781 1234.23 70.0644 Q1229.25 73.7508 1220.5 73.7508 Q1216.86 73.7508 1212.89 73.0216 Q1208.96 72.3329 1204.58 70.9151 L1204.58 63.2184 Q1208.71 65.3654 1212.72 66.4591 Q1216.73 67.5124 1220.66 67.5124 Q1225.93 67.5124 1228.77 65.73 Q1231.6 63.9071 1231.6 60.6258 Q1231.6 57.5877 1229.54 55.9673 Q1227.51 54.3469 1220.58 52.8481 L1217.99 52.2405 Q1211.06 50.7821 1207.98 47.7845 Q1204.91 44.7463 1204.91 39.4801 Q1204.91 33.0797 1209.44 29.5959 Q1213.98 26.1121 1222.32 26.1121 Q1226.46 26.1121 1230.1 26.7198 Q1233.75 27.3274 1236.83 28.5427 Z" fill="#000000" fill-rule="evenodd" fill-opacity="1" /><path clip-path="url(#clip380)" d="M1283.78 28.9478 L1283.78 35.9153 Q1280.62 34.1734 1277.42 33.3227 Q1274.26 32.4315 1271.02 32.4315 Q1263.77 32.4315 1259.76 37.0496 Q1255.74 41.6271 1255.74 49.9314 Q1255.74 58.2358 1259.76 62.8538 Q1263.77 67.4314 1271.02 67.4314 Q1274.26 67.4314 1277.42 66.5807 Q1280.62 65.6895 1283.78 63.9476 L1283.78 70.8341 Q1280.66 72.2924 1277.3 73.0216 Q1273.97 73.7508 1270.21 73.7508 Q1259.96 73.7508 1253.92 67.3098 Q1247.89 60.8689 1247.89 49.9314 Q1247.89 38.832 1253.96 32.472 Q1260.08 26.1121 1270.69 26.1121 Q1274.14 26.1121 1277.42 26.8413 Q1280.7 27.5299 1283.78 28.9478 Z" fill="#000000" fill-rule="evenodd" fill-opacity="1" /><path clip-path="url(#clip380)" d="M1334.45 45.1919 L1334.45 72.576 L1327 72.576 L1327 45.4349 Q1327 38.994 1324.49 35.7938 Q1321.98 32.5936 1316.95 32.5936 Q1310.92 32.5936 1307.43 36.4419 Q1303.95 40.2903 1303.95 46.9338 L1303.95 72.576 L1296.46 72.576 L1296.46 9.54393 L1303.95 9.54393 L1303.95 34.2544 Q1306.62 30.163 1310.23 28.1376 Q1313.88 26.1121 1318.61 26.1121 Q1326.43 26.1121 1330.44 30.9732 Q1334.45 35.7938 1334.45 45.1919 Z" fill="#000000" fill-rule="evenodd" fill-opacity="1" /><path clip-path="url(#clip380)" d="M1388.13 48.0275 L1388.13 51.6733 L1353.86 51.6733 Q1354.34 59.3701 1358.48 63.421 Q1362.65 67.4314 1370.06 67.4314 Q1374.36 67.4314 1378.37 66.3781 Q1382.42 65.3249 1386.39 63.2184 L1386.39 70.267 Q1382.38 71.9684 1378.16 72.8596 Q1373.95 73.7508 1369.62 73.7508 Q1358.76 73.7508 1352.4 67.4314 Q1346.08 61.1119 1346.08 50.3365 Q1346.08 39.1965 1352.08 32.6746 Q1358.11 26.1121 1368.32 26.1121 Q1377.47 26.1121 1382.78 32.0264 Q1388.13 37.9003 1388.13 48.0275 M1380.67 45.84 Q1380.59 39.7232 1377.23 36.0774 Q1373.91 32.4315 1368.4 32.4315 Q1362.16 32.4315 1358.39 35.9558 Q1354.67 39.4801 1354.1 45.8805 L1380.67 45.84 Z" fill="#000000" fill-rule="evenodd" fill-opacity="1" /><path clip-path="url(#clip380)" d="M1427.06 12.096 L1461.81 12.096 L1461.81 18.9825 L1435.24 18.9825 L1435.24 36.8065 L1459.22 36.8065 L1459.22 43.6931 L1435.24 43.6931 L1435.24 72.576 L1427.06 72.576 L1427.06 12.096 Z" fill="#000000" fill-rule="evenodd" fill-opacity="1" /><path clip-path="url(#clip380)" d="M1469.15 54.671 L1469.15 27.2059 L1476.6 27.2059 L1476.6 54.3874 Q1476.6 60.8284 1479.11 64.0691 Q1481.62 67.2693 1486.65 67.2693 Q1492.68 67.2693 1496.17 63.421 Q1499.69 59.5726 1499.69 52.9291 L1499.69 27.2059 L1507.14 27.2059 L1507.14 72.576 L1499.69 72.576 L1499.69 65.6084 Q1496.98 69.7404 1493.37 71.7658 Q1489.81 73.7508 1485.07 73.7508 Q1477.25 73.7508 1473.2 68.8897 Q1469.15 64.0286 1469.15 54.671 M1487.9 26.1121 L1487.9 26.1121 Z" fill="#000000" fill-rule="evenodd" fill-opacity="1" /><path clip-path="url(#clip380)" d="M1560.21 45.1919 L1560.21 72.576 L1552.76 72.576 L1552.76 45.4349 Q1552.76 38.994 1550.25 35.7938 Q1547.73 32.5936 1542.71 32.5936 Q1536.67 32.5936 1533.19 36.4419 Q1529.71 40.2903 1529.71 46.9338 L1529.71 72.576 L1522.21 72.576 L1522.21 27.2059 L1529.71 27.2059 L1529.71 34.2544 Q1532.38 30.163 1535.99 28.1376 Q1539.63 26.1121 1544.37 26.1121 Q1552.19 26.1121 1556.2 30.9732 Q1560.21 35.7938 1560.21 45.1919 Z" fill="#000000" fill-rule="evenodd" fill-opacity="1" /><path clip-path="url(#clip380)" d="M1574.79 9.54393 L1582.29 9.54393 L1582.29 46.7717 L1604.53 27.2059 L1614.05 27.2059 L1589.98 48.4326 L1615.06 72.576 L1605.34 72.576 L1582.29 50.4176 L1582.29 72.576 L1574.79 72.576 L1574.79 9.54393 Z" fill="#000000" fill-rule="evenodd" fill-opacity="1" /><path clip-path="url(#clip380)" d="M1630.49 14.324 L1630.49 27.2059 L1645.85 27.2059 L1645.85 32.9987 L1630.49 32.9987 L1630.49 57.6282 Q1630.49 63.1779 1631.99 64.7578 Q1633.53 66.3376 1638.19 66.3376 L1645.85 66.3376 L1645.85 72.576 L1638.19 72.576 Q1629.56 72.576 1626.28 69.3758 Q1623 66.1351 1623 57.6282 L1623 32.9987 L1617.53 32.9987 L1617.53 27.2059 L1623 27.2059 L1623 14.324 L1630.49 14.324 Z" fill="#000000" fill-rule="evenodd" fill-opacity="1" /><path clip-path="url(#clip380)" d="M1655.65 27.2059 L1663.1 27.2059 L1663.1 72.576 L1655.65 72.576 L1655.65 27.2059 M1655.65 9.54393 L1663.1 9.54393 L1663.1 18.9825 L1655.65 18.9825 L1655.65 9.54393 Z" fill="#000000" fill-rule="evenodd" fill-opacity="1" /><path clip-path="url(#clip380)" d="M1696.28 32.4315 Q1690.29 32.4315 1686.8 37.1306 Q1683.32 41.7891 1683.32 49.9314 Q1683.32 58.0738 1686.76 62.7728 Q1690.24 67.4314 1696.28 67.4314 Q1702.24 67.4314 1705.72 62.7323 Q1709.2 58.0333 1709.2 49.9314 Q1709.2 41.8701 1705.72 37.1711 Q1702.24 32.4315 1696.28 32.4315 M1696.28 26.1121 Q1706 26.1121 1711.55 32.4315 Q1717.1 38.7509 1717.1 49.9314 Q1717.1 61.0714 1711.55 67.4314 Q1706 73.7508 1696.28 73.7508 Q1686.52 73.7508 1680.97 67.4314 Q1675.46 61.0714 1675.46 49.9314 Q1675.46 38.7509 1680.97 32.4315 Q1686.52 26.1121 1696.28 26.1121 Z" fill="#000000" fill-rule="evenodd" fill-opacity="1" /><path clip-path="url(#clip380)" d="M1767.17 45.1919 L1767.17 72.576 L1759.72 72.576 L1759.72 45.4349 Q1759.72 38.994 1757.21 35.7938 Q1754.69 32.5936 1749.67 32.5936 Q1743.64 32.5936 1740.15 36.4419 Q1736.67 40.2903 1736.67 46.9338 L1736.67 72.576 L1729.17 72.576 L1729.17 27.2059 L1736.67 27.2059 L1736.67 34.2544 Q1739.34 30.163 1742.95 28.1376 Q1746.59 26.1121 1751.33 26.1121 Q1759.15 26.1121 1763.16 30.9732 Q1767.17 35.7938 1767.17 45.1919 Z" fill="#000000" fill-rule="evenodd" fill-opacity="1" /><path clip-path="url(#clip380)" d="M1820.85 48.0275 L1820.85 51.6733 L1786.58 51.6733 Q1787.06 59.3701 1791.19 63.421 Q1795.37 67.4314 1802.78 67.4314 Q1807.07 67.4314 1811.08 66.3781 Q1815.13 65.3249 1819.1 63.2184 L1819.1 70.267 Q1815.09 71.9684 1810.88 72.8596 Q1806.67 73.7508 1802.33 73.7508 Q1791.48 73.7508 1785.12 67.4314 Q1778.8 61.1119 1778.8 50.3365 Q1778.8 39.1965 1784.79 32.6746 Q1790.83 26.1121 1801.04 26.1121 Q1810.19 26.1121 1815.5 32.0264 Q1820.85 37.9003 1820.85 48.0275 M1813.39 45.84 Q1813.31 39.7232 1809.95 36.0774 Q1806.63 32.4315 1801.12 32.4315 Q1794.88 32.4315 1791.11 35.9558 Q1787.39 39.4801 1786.82 45.8805 L1813.39 45.84 Z" fill="#000000" fill-rule="evenodd" fill-opacity="1" /><path clip-path="url(#clip380)" d="M1870.79 45.1919 L1870.79 72.576 L1863.34 72.576 L1863.34 45.4349 Q1863.34 38.994 1860.83 35.7938 Q1858.32 32.5936 1853.29 32.5936 Q1847.26 32.5936 1843.77 36.4419 Q1840.29 40.2903 1840.29 46.9338 L1840.29 72.576 L1832.8 72.576 L1832.8 27.2059 L1840.29 27.2059 L1840.29 34.2544 Q1842.96 30.163 1846.57 28.1376 Q1850.21 26.1121 1854.95 26.1121 Q1862.77 26.1121 1866.78 30.9732 Q1870.79 35.7938 1870.79 45.1919 Z" fill="#000000" fill-rule="evenodd" fill-opacity="1" /><polyline clip-path="url(#clip382)" style="stroke:#009af9; stroke-linecap:butt; stroke-linejoin:round; stroke-width:4; stroke-opacity:1; fill:none" points="
  255.035,804.961 261.664,791.812 268.294,778.668 298.945,718.133 329.596,658.373 360.247,599.923 390.898,543.304 409.318,510.372 427.737,478.391 446.157,447.465 
  464.577,417.692 480.151,393.492 495.725,370.241 511.299,347.993 526.872,326.801 543.79,305.031 560.707,284.624 577.625,265.633 594.542,248.111 610.139,233.3 
  625.735,219.812 641.332,207.679 656.928,196.928 673.649,186.966 690.37,178.648 707.091,171.996 723.812,167.029 743.185,163.396 762.558,162.055 781.931,163.01 
  801.304,166.257 818.52,171.057 835.737,177.645 852.953,186.003 870.17,196.106 885.267,206.38 900.364,217.952 915.461,230.797 930.558,244.888 947.018,261.634 
  963.478,279.78 979.938,299.281 996.398,320.085 1012.96,342.274 1029.51,365.671 1046.07,390.213 1062.63,415.837 1080.94,445.347 1099.24,476.003 1117.55,507.709 
  1135.86,540.362 1170.69,604.742 1205.53,671.432 1277.98,814.143 1338.96,934.214 1376.19,1005.53 1413.41,1074.21 1430.46,1104.53 1447.51,1134.03 1464.57,1162.62 
  1481.62,1190.21 1497.36,1214.75 1513.11,1238.33 1528.86,1260.88 1544.61,1282.36 1560.56,1302.96 1576.51,1322.36 1592.46,1340.51 1608.42,1357.36 1626.29,1374.65 
  1644.17,1390.21 1662.05,1403.99 1679.93,1415.95 1696.13,1425.18 1712.33,1432.87 1728.53,1438.98 1744.73,1443.51 1763.28,1446.74 1781.83,1447.87 1800.37,1446.9 
  1818.92,1443.82 1836.1,1439.11 1853.27,1432.61 1870.44,1424.36 1887.62,1414.36 1904.55,1402.84 1921.48,1389.68 1938.41,1374.93 1955.34,1358.62 1971.78,1341.34 
  1988.22,1322.68 2004.66,1302.69 2021.1,1281.42 2037.95,1258.34 2054.8,1234.04 2071.66,1208.58 2088.51,1182.03 2106.97,1151.77 2125.44,1120.39 2143.9,1087.99 
  2162.36,1054.66 2216,953.655 2269.65,848.583 2280.65,826.784 2291.66,804.961 
  "/>
<polyline clip-path="url(#clip382)" style="stroke:#e26f46; stroke-linecap:butt; stroke-linejoin:round; stroke-width:4; stroke-opacity:1; fill:none" points="
  255.035,162.047 258.35,162.081 261.664,162.181 264.979,162.349 268.294,162.585 283.62,164.545 298.945,167.937 314.27,172.753 329.596,178.981 344.921,186.609 
  360.247,195.619 375.572,205.99 390.898,217.701 409.318,233.51 427.737,251.164 446.157,270.606 464.577,291.773 480.151,310.965 495.725,331.297 511.299,352.723 
  526.872,375.192 543.79,400.722 560.707,427.353 577.625,455.013 594.542,483.625 625.735,538.616 656.928,596.073 723.812,725.079 801.304,878.413 835.737,945.72 
  870.17,1011.44 900.364,1067.18 930.558,1120.65 947.018,1148.67 963.478,1175.8 979.938,1201.98 996.398,1227.14 1012.96,1251.35 1029.51,1274.39 1046.07,1296.21 
  1062.63,1316.74 1080.94,1337.89 1099.24,1357.34 1117.55,1375.03 1135.86,1390.9 1153.28,1404.27 1170.69,1415.9 1188.11,1425.78 1205.53,1433.86 1223.64,1440.33 
  1241.75,1444.82 1259.86,1447.32 1277.98,1447.81 1293.22,1446.67 1308.47,1444.1 1323.71,1440.13 1338.96,1434.75 1357.57,1426.29 1376.19,1415.79 1394.8,1403.27 
  1413.41,1388.78 1430.46,1373.81 1447.51,1357.28 1464.57,1339.21 1481.62,1319.66 1497.36,1300.35 1513.11,1279.86 1528.86,1258.25 1544.61,1235.58 1560.56,1211.57 
  1576.51,1186.58 1592.46,1160.67 1608.42,1133.89 1644.17,1071.08 1679.93,1005.03 1712.33,943.061 1744.73,879.712 1818.92,732.875 1887.62,600.104 1921.48,537.672 
  1955.34,478.154 1971.78,450.507 1988.22,423.771 2004.66,398.016 2021.1,373.307 2037.95,349.13 2054.8,326.185 2071.66,304.534 2088.51,284.235 2106.97,263.612 
  2125.44,244.746 2143.9,227.697 2162.36,212.52 2175.77,202.699 2189.18,193.908 2202.59,186.164 2216,179.478 2242.83,169.329 2269.65,163.528 2275.15,162.88 
  2280.65,162.417 2286.15,162.14 2291.66,162.047 
  "/>
<path clip-path="url(#clip380)" d="
M1988.5 324.425 L2280.8 324.425 L2280.8 168.905 L1988.5 168.905  Z
  " fill="#ffffff" fill-rule="evenodd" fill-opacity="1"/>
<polyline clip-path="url(#clip380)" style="stroke:#000000; stroke-linecap:butt; stroke-linejoin:round; stroke-width:4; stroke-opacity:1; fill:none" points="
  1988.5,324.425 2280.8,324.425 2280.8,168.905 1988.5,168.905 1988.5,324.425 
  "/>
<polyline clip-path="url(#clip380)" style="stroke:#009af9; stroke-linecap:butt; stroke-linejoin:round; stroke-width:4; stroke-opacity:1; fill:none" points="
  2012.48,220.745 2156.4,220.745 
  "/>
<path clip-path="url(#clip380)" d="M2194.23 240.432 Q2192.43 245.062 2190.72 246.474 Q2189 247.886 2186.13 247.886 L2182.73 247.886 L2182.73 244.321 L2185.23 244.321 Q2186.99 244.321 2187.96 243.488 Q2188.93 242.654 2190.11 239.552 L2190.88 237.608 L2180.39 212.099 L2184.91 212.099 L2193.01 232.377 L2201.11 212.099 L2205.62 212.099 L2194.23 240.432 Z" fill="#000000" fill-rule="evenodd" fill-opacity="1" /><path clip-path="url(#clip380)" d="M2212.91 234.089 L2220.55 234.089 L2220.55 207.724 L2212.24 209.391 L2212.24 205.131 L2220.51 203.465 L2225.18 203.465 L2225.18 234.089 L2232.82 234.089 L2232.82 238.025 L2212.91 238.025 L2212.91 234.089 Z" fill="#000000" fill-rule="evenodd" fill-opacity="1" /><polyline clip-path="url(#clip380)" style="stroke:#e26f46; stroke-linecap:butt; stroke-linejoin:round; stroke-width:4; stroke-opacity:1; fill:none" points="
  2012.48,272.585 2156.4,272.585 
  "/>
<path clip-path="url(#clip380)" d="M2194.23 292.272 Q2192.43 296.902 2190.72 298.314 Q2189 299.726 2186.13 299.726 L2182.73 299.726 L2182.73 296.161 L2185.23 296.161 Q2186.99 296.161 2187.96 295.328 Q2188.93 294.494 2190.11 291.392 L2190.88 289.448 L2180.39 263.939 L2184.91 263.939 L2193.01 284.217 L2201.11 263.939 L2205.62 263.939 L2194.23 292.272 Z" fill="#000000" fill-rule="evenodd" fill-opacity="1" /><path clip-path="url(#clip380)" d="M2216.13 285.929 L2232.45 285.929 L2232.45 289.865 L2210.51 289.865 L2210.51 285.929 Q2213.17 283.175 2217.75 278.545 Q2222.36 273.893 2223.54 272.55 Q2225.78 270.027 2226.66 268.291 Q2227.57 266.531 2227.57 264.842 Q2227.57 262.087 2225.62 260.351 Q2223.7 258.615 2220.6 258.615 Q2218.4 258.615 2215.95 259.379 Q2213.52 260.143 2210.74 261.694 L2210.74 256.971 Q2213.56 255.837 2216.02 255.258 Q2218.47 254.68 2220.51 254.68 Q2225.88 254.68 2229.07 257.365 Q2232.27 260.05 2232.27 264.541 Q2232.27 266.67 2231.46 268.592 Q2230.67 270.49 2228.56 273.082 Q2227.98 273.754 2224.88 276.971 Q2221.78 280.166 2216.13 285.929 Z" fill="#000000" fill-rule="evenodd" fill-opacity="1" /></svg>
