<?xml version="1.0" encoding="utf-8"?>
<svg xmlns="http://www.w3.org/2000/svg" xmlns:xlink="http://www.w3.org/1999/xlink" width="600" height="400" viewBox="0 0 2400 1600">
<defs>
  <clipPath id="clip130">
    <rect x="0" y="0" width="2400" height="1600"/>
  </clipPath>
</defs>
<path clip-path="url(#clip130)" d="
M0 1600 L2400 1600 L2400 0 L0 0  Z
  " fill="#ffffff" fill-rule="evenodd" fill-opacity="1"/>
<defs>
  <clipPath id="clip131">
    <rect x="480" y="0" width="1681" height="1600"/>
  </clipPath>
</defs>
<path clip-path="url(#clip130)" d="
M193.936 1486.45 L2352.76 1486.45 L2352.76 47.2441 L193.936 47.2441  Z
  " fill="#ffffff" fill-rule="evenodd" fill-opacity="1"/>
<defs>
  <clipPath id="clip132">
    <rect x="193" y="47" width="2160" height="1440"/>
  </clipPath>
</defs>
<polyline clip-path="url(#clip132)" style="stroke:#000000; stroke-linecap:butt; stroke-linejoin:round; stroke-width:2; stroke-opacity:0.1; fill:none" points="
  255.035,1486.45 255.035,47.2441 
  "/>
<polyline clip-path="url(#clip132)" style="stroke:#000000; stroke-linecap:butt; stroke-linejoin:round; stroke-width:2; stroke-opacity:0.1; fill:none" points="
  662.359,1486.45 662.359,47.2441 
  "/>
<polyline clip-path="url(#clip132)" style="stroke:#000000; stroke-linecap:butt; stroke-linejoin:round; stroke-width:2; stroke-opacity:0.1; fill:none" points="
  1069.68,1486.45 1069.68,47.2441 
  "/>
<polyline clip-path="url(#clip132)" style="stroke:#000000; stroke-linecap:butt; stroke-linejoin:round; stroke-width:2; stroke-opacity:0.1; fill:none" points="
  1477.01,1486.45 1477.01,47.2441 
  "/>
<polyline clip-path="url(#clip132)" style="stroke:#000000; stroke-linecap:butt; stroke-linejoin:round; stroke-width:2; stroke-opacity:0.1; fill:none" points="
  1884.33,1486.45 1884.33,47.2441 
  "/>
<polyline clip-path="url(#clip132)" style="stroke:#000000; stroke-linecap:butt; stroke-linejoin:round; stroke-width:2; stroke-opacity:0.1; fill:none" points="
  2291.66,1486.45 2291.66,47.2441 
  "/>
<polyline clip-path="url(#clip130)" style="stroke:#000000; stroke-linecap:butt; stroke-linejoin:round; stroke-width:4; stroke-opacity:1; fill:none" points="
  193.936,1486.45 2352.76,1486.45 
  "/>
<polyline clip-path="url(#clip130)" style="stroke:#000000; stroke-linecap:butt; stroke-linejoin:round; stroke-width:4; stroke-opacity:1; fill:none" points="
  255.035,1486.45 255.035,1467.55 
  "/>
<polyline clip-path="url(#clip130)" style="stroke:#000000; stroke-linecap:butt; stroke-linejoin:round; stroke-width:4; stroke-opacity:1; fill:none" points="
  662.359,1486.45 662.359,1467.55 
  "/>
<polyline clip-path="url(#clip130)" style="stroke:#000000; stroke-linecap:butt; stroke-linejoin:round; stroke-width:4; stroke-opacity:1; fill:none" points="
  1069.68,1486.45 1069.68,1467.55 
  "/>
<polyline clip-path="url(#clip130)" style="stroke:#000000; stroke-linecap:butt; stroke-linejoin:round; stroke-width:4; stroke-opacity:1; fill:none" points="
  1477.01,1486.45 1477.01,1467.55 
  "/>
<polyline clip-path="url(#clip130)" style="stroke:#000000; stroke-linecap:butt; stroke-linejoin:round; stroke-width:4; stroke-opacity:1; fill:none" points="
  1884.33,1486.45 1884.33,1467.55 
  "/>
<polyline clip-path="url(#clip130)" style="stroke:#000000; stroke-linecap:butt; stroke-linejoin:round; stroke-width:4; stroke-opacity:1; fill:none" points="
  2291.66,1486.45 2291.66,1467.55 
  "/>
<path clip-path="url(#clip130)" d="M255.035 1517.37 Q251.424 1517.37 249.595 1520.93 Q247.789 1524.47 247.789 1531.6 Q247.789 1538.71 249.595 1542.27 Q251.424 1545.82 255.035 1545.82 Q258.669 1545.82 260.474 1542.27 Q262.303 1538.71 262.303 1531.6 Q262.303 1524.47 260.474 1520.93 Q258.669 1517.37 255.035 1517.37 M255.035 1513.66 Q260.845 1513.66 263.9 1518.27 Q266.979 1522.85 266.979 1531.6 Q266.979 1540.33 263.9 1544.94 Q260.845 1549.52 255.035 1549.52 Q249.225 1549.52 246.146 1544.94 Q243.09 1540.33 243.09 1531.6 Q243.09 1522.85 246.146 1518.27 Q249.225 1513.66 255.035 1513.66 Z" fill="#000000" fill-rule="evenodd" fill-opacity="1" /><path clip-path="url(#clip130)" d="M652.741 1544.91 L660.38 1544.91 L660.38 1518.55 L652.07 1520.21 L652.07 1515.95 L660.334 1514.29 L665.01 1514.29 L665.01 1544.91 L672.648 1544.91 L672.648 1548.85 L652.741 1548.85 L652.741 1544.91 Z" fill="#000000" fill-rule="evenodd" fill-opacity="1" /><path clip-path="url(#clip130)" d="M1064.34 1544.91 L1080.66 1544.91 L1080.66 1548.85 L1058.71 1548.85 L1058.71 1544.91 Q1061.37 1542.16 1065.96 1537.53 Q1070.56 1532.88 1071.74 1531.53 Q1073.99 1529.01 1074.87 1527.27 Q1075.77 1525.51 1075.77 1523.82 Q1075.77 1521.07 1073.83 1519.33 Q1071.91 1517.6 1068.8 1517.6 Q1066.61 1517.6 1064.15 1518.36 Q1061.72 1519.13 1058.94 1520.68 L1058.94 1515.95 Q1061.77 1514.82 1064.22 1514.24 Q1066.67 1513.66 1068.71 1513.66 Q1074.08 1513.66 1077.28 1516.35 Q1080.47 1519.03 1080.47 1523.52 Q1080.47 1525.65 1079.66 1527.57 Q1078.87 1529.47 1076.77 1532.07 Q1076.19 1532.74 1073.09 1535.95 Q1069.98 1539.15 1064.34 1544.91 Z" fill="#000000" fill-rule="evenodd" fill-opacity="1" /><path clip-path="url(#clip130)" d="M1481.26 1530.21 Q1484.61 1530.93 1486.49 1533.2 Q1488.39 1535.47 1488.39 1538.8 Q1488.39 1543.92 1484.87 1546.72 Q1481.35 1549.52 1474.87 1549.52 Q1472.69 1549.52 1470.38 1549.08 Q1468.08 1548.66 1465.63 1547.81 L1465.63 1543.29 Q1467.58 1544.43 1469.89 1545.01 Q1472.2 1545.58 1474.73 1545.58 Q1479.13 1545.58 1481.42 1543.85 Q1483.73 1542.11 1483.73 1538.8 Q1483.73 1535.75 1481.58 1534.03 Q1479.45 1532.3 1475.63 1532.3 L1471.6 1532.3 L1471.6 1528.45 L1475.82 1528.45 Q1479.27 1528.45 1481.09 1527.09 Q1482.92 1525.7 1482.92 1523.11 Q1482.92 1520.45 1481.02 1519.03 Q1479.15 1517.6 1475.63 1517.6 Q1473.71 1517.6 1471.51 1518.01 Q1469.31 1518.43 1466.67 1519.31 L1466.67 1515.14 Q1469.33 1514.4 1471.65 1514.03 Q1473.99 1513.66 1476.05 1513.66 Q1481.37 1513.66 1484.47 1516.09 Q1487.58 1518.5 1487.58 1522.62 Q1487.58 1525.49 1485.93 1527.48 Q1484.29 1529.45 1481.26 1530.21 Z" fill="#000000" fill-rule="evenodd" fill-opacity="1" /><path clip-path="url(#clip130)" d="M1887.34 1518.36 L1875.54 1536.81 L1887.34 1536.81 L1887.34 1518.36 M1886.12 1514.29 L1891.99 1514.29 L1891.99 1536.81 L1896.93 1536.81 L1896.93 1540.7 L1891.99 1540.7 L1891.99 1548.85 L1887.34 1548.85 L1887.34 1540.7 L1871.74 1540.7 L1871.74 1536.19 L1886.12 1514.29 Z" fill="#000000" fill-rule="evenodd" fill-opacity="1" /><path clip-path="url(#clip130)" d="M2281.94 1514.29 L2300.29 1514.29 L2300.29 1518.22 L2286.22 1518.22 L2286.22 1526.7 Q2287.24 1526.35 2288.25 1526.19 Q2289.27 1526 2290.29 1526 Q2296.08 1526 2299.46 1529.17 Q2302.84 1532.34 2302.84 1537.76 Q2302.84 1543.34 2299.37 1546.44 Q2295.89 1549.52 2289.57 1549.52 Q2287.4 1549.52 2285.13 1549.15 Q2282.88 1548.78 2280.48 1548.04 L2280.48 1543.34 Q2282.56 1544.47 2284.78 1545.03 Q2287 1545.58 2289.48 1545.58 Q2293.49 1545.58 2295.82 1543.48 Q2298.16 1541.37 2298.16 1537.76 Q2298.16 1534.15 2295.82 1532.04 Q2293.49 1529.94 2289.48 1529.94 Q2287.61 1529.94 2285.73 1530.35 Q2283.88 1530.77 2281.94 1531.65 L2281.94 1514.29 Z" fill="#000000" fill-rule="evenodd" fill-opacity="1" /><polyline clip-path="url(#clip132)" style="stroke:#000000; stroke-linecap:butt; stroke-linejoin:round; stroke-width:2; stroke-opacity:0.1; fill:none" points="
  193.936,1445.72 2352.76,1445.72 
  "/>
<polyline clip-path="url(#clip132)" style="stroke:#000000; stroke-linecap:butt; stroke-linejoin:round; stroke-width:2; stroke-opacity:0.1; fill:none" points="
  193.936,1106.28 2352.76,1106.28 
  "/>
<polyline clip-path="url(#clip132)" style="stroke:#000000; stroke-linecap:butt; stroke-linejoin:round; stroke-width:2; stroke-opacity:0.1; fill:none" points="
  193.936,766.846 2352.76,766.846 
  "/>
<polyline clip-path="url(#clip132)" style="stroke:#000000; stroke-linecap:butt; stroke-linejoin:round; stroke-width:2; stroke-opacity:0.1; fill:none" points="
  193.936,427.411 2352.76,427.411 
  "/>
<polyline clip-path="url(#clip132)" style="stroke:#000000; stroke-linecap:butt; stroke-linejoin:round; stroke-width:2; stroke-opacity:0.1; fill:none" points="
  193.936,87.9757 2352.76,87.9757 
  "/>
<polyline clip-path="url(#clip130)" style="stroke:#000000; stroke-linecap:butt; stroke-linejoin:round; stroke-width:4; stroke-opacity:1; fill:none" points="
  193.936,1486.45 193.936,47.2441 
  "/>
<polyline clip-path="url(#clip130)" style="stroke:#000000; stroke-linecap:butt; stroke-linejoin:round; stroke-width:4; stroke-opacity:1; fill:none" points="
  193.936,1445.72 212.834,1445.72 
  "/>
<polyline clip-path="url(#clip130)" style="stroke:#000000; stroke-linecap:butt; stroke-linejoin:round; stroke-width:4; stroke-opacity:1; fill:none" points="
  193.936,1106.28 212.834,1106.28 
  "/>
<polyline clip-path="url(#clip130)" style="stroke:#000000; stroke-linecap:butt; stroke-linejoin:round; stroke-width:4; stroke-opacity:1; fill:none" points="
  193.936,766.846 212.834,766.846 
  "/>
<polyline clip-path="url(#clip130)" style="stroke:#000000; stroke-linecap:butt; stroke-linejoin:round; stroke-width:4; stroke-opacity:1; fill:none" points="
  193.936,427.411 212.834,427.411 
  "/>
<polyline clip-path="url(#clip130)" style="stroke:#000000; stroke-linecap:butt; stroke-linejoin:round; stroke-width:4; stroke-opacity:1; fill:none" points="
  193.936,87.9757 212.834,87.9757 
  "/>
<path clip-path="url(#clip130)" d="M50.9921 1446.17 L80.6679 1446.17 L80.6679 1450.1 L50.9921 1450.1 L50.9921 1446.17 Z" fill="#000000" fill-rule="evenodd" fill-opacity="1" /><path clip-path="url(#clip130)" d="M91.5706 1459.06 L99.2095 1459.06 L99.2095 1432.7 L90.8993 1434.36 L90.8993 1430.1 L99.1632 1428.44 L103.839 1428.44 L103.839 1459.06 L111.478 1459.06 L111.478 1463 L91.5706 1463 L91.5706 1459.06 Z" fill="#000000" fill-rule="evenodd" fill-opacity="1" /><path clip-path="url(#clip130)" d="M120.922 1457.12 L125.807 1457.12 L125.807 1463 L120.922 1463 L120.922 1457.12 Z" fill="#000000" fill-rule="evenodd" fill-opacity="1" /><path clip-path="url(#clip130)" d="M145.992 1431.51 Q142.381 1431.51 140.552 1435.08 Q138.746 1438.62 138.746 1445.75 Q138.746 1452.86 140.552 1456.42 Q142.381 1459.96 145.992 1459.96 Q149.626 1459.96 151.431 1456.42 Q153.26 1452.86 153.26 1445.75 Q153.26 1438.62 151.431 1435.08 Q149.626 1431.51 145.992 1431.51 M145.992 1427.81 Q151.802 1427.81 154.857 1432.42 Q157.936 1437 157.936 1445.75 Q157.936 1454.48 154.857 1459.08 Q151.802 1463.67 145.992 1463.67 Q140.181 1463.67 137.103 1459.08 Q134.047 1454.48 134.047 1445.75 Q134.047 1437 137.103 1432.42 Q140.181 1427.81 145.992 1427.81 Z" fill="#000000" fill-rule="evenodd" fill-opacity="1" /><path clip-path="url(#clip130)" d="M51.9875 1106.73 L81.6633 1106.73 L81.6633 1110.67 L51.9875 1110.67 L51.9875 1106.73 Z" fill="#000000" fill-rule="evenodd" fill-opacity="1" /><path clip-path="url(#clip130)" d="M101.756 1092.08 Q98.1447 1092.08 96.316 1095.64 Q94.5104 1099.19 94.5104 1106.32 Q94.5104 1113.42 96.316 1116.99 Q98.1447 1120.53 101.756 1120.53 Q105.39 1120.53 107.196 1116.99 Q109.024 1113.42 109.024 1106.32 Q109.024 1099.19 107.196 1095.64 Q105.39 1092.08 101.756 1092.08 M101.756 1088.38 Q107.566 1088.38 110.621 1092.98 Q113.7 1097.57 113.7 1106.32 Q113.7 1115.04 110.621 1119.65 Q107.566 1124.23 101.756 1124.23 Q95.9456 1124.23 92.8669 1119.65 Q89.8114 1115.04 89.8114 1106.32 Q89.8114 1097.57 92.8669 1092.98 Q95.9456 1088.38 101.756 1088.38 Z" fill="#000000" fill-rule="evenodd" fill-opacity="1" /><path clip-path="url(#clip130)" d="M121.918 1117.68 L126.802 1117.68 L126.802 1123.56 L121.918 1123.56 L121.918 1117.68 Z" fill="#000000" fill-rule="evenodd" fill-opacity="1" /><path clip-path="url(#clip130)" d="M137.033 1089 L155.39 1089 L155.39 1092.94 L141.316 1092.94 L141.316 1101.41 Q142.334 1101.06 143.353 1100.9 Q144.371 1100.71 145.39 1100.71 Q151.177 1100.71 154.556 1103.89 Q157.936 1107.06 157.936 1112.47 Q157.936 1118.05 154.464 1121.15 Q150.992 1124.23 144.672 1124.23 Q142.496 1124.23 140.228 1123.86 Q137.982 1123.49 135.575 1122.75 L135.575 1118.05 Q137.658 1119.19 139.881 1119.74 Q142.103 1120.3 144.58 1120.3 Q148.584 1120.3 150.922 1118.19 Q153.26 1116.08 153.26 1112.47 Q153.26 1108.86 150.922 1106.76 Q148.584 1104.65 144.58 1104.65 Q142.705 1104.65 140.83 1105.07 Q138.978 1105.48 137.033 1106.36 L137.033 1089 Z" fill="#000000" fill-rule="evenodd" fill-opacity="1" /><path clip-path="url(#clip130)" d="M100.76 752.645 Q97.1493 752.645 95.3206 756.209 Q93.515 759.751 93.515 766.881 Q93.515 773.987 95.3206 777.552 Q97.1493 781.094 100.76 781.094 Q104.395 781.094 106.2 777.552 Q108.029 773.987 108.029 766.881 Q108.029 759.751 106.2 756.209 Q104.395 752.645 100.76 752.645 M100.76 748.941 Q106.571 748.941 109.626 753.547 Q112.705 758.131 112.705 766.881 Q112.705 775.607 109.626 780.214 Q106.571 784.797 100.76 784.797 Q94.9502 784.797 91.8715 780.214 Q88.816 775.607 88.816 766.881 Q88.816 758.131 91.8715 753.547 Q94.9502 748.941 100.76 748.941 Z" fill="#000000" fill-rule="evenodd" fill-opacity="1" /><path clip-path="url(#clip130)" d="M120.922 778.246 L125.807 778.246 L125.807 784.126 L120.922 784.126 L120.922 778.246 Z" fill="#000000" fill-rule="evenodd" fill-opacity="1" /><path clip-path="url(#clip130)" d="M145.992 752.645 Q142.381 752.645 140.552 756.209 Q138.746 759.751 138.746 766.881 Q138.746 773.987 140.552 777.552 Q142.381 781.094 145.992 781.094 Q149.626 781.094 151.431 777.552 Q153.26 773.987 153.26 766.881 Q153.26 759.751 151.431 756.209 Q149.626 752.645 145.992 752.645 M145.992 748.941 Q151.802 748.941 154.857 753.547 Q157.936 758.131 157.936 766.881 Q157.936 775.607 154.857 780.214 Q151.802 784.797 145.992 784.797 Q140.181 784.797 137.103 780.214 Q134.047 775.607 134.047 766.881 Q134.047 758.131 137.103 753.547 Q140.181 748.941 145.992 748.941 Z" fill="#000000" fill-rule="evenodd" fill-opacity="1" /><path clip-path="url(#clip130)" d="M101.756 413.21 Q98.1447 413.21 96.316 416.774 Q94.5104 420.316 94.5104 427.446 Q94.5104 434.552 96.316 438.117 Q98.1447 441.658 101.756 441.658 Q105.39 441.658 107.196 438.117 Q109.024 434.552 109.024 427.446 Q109.024 420.316 107.196 416.774 Q105.39 413.21 101.756 413.21 M101.756 409.506 Q107.566 409.506 110.621 414.112 Q113.7 418.696 113.7 427.446 Q113.7 436.172 110.621 440.779 Q107.566 445.362 101.756 445.362 Q95.9456 445.362 92.8669 440.779 Q89.8114 436.172 89.8114 427.446 Q89.8114 418.696 92.8669 414.112 Q95.9456 409.506 101.756 409.506 Z" fill="#000000" fill-rule="evenodd" fill-opacity="1" /><path clip-path="url(#clip130)" d="M121.918 438.811 L126.802 438.811 L126.802 444.691 L121.918 444.691 L121.918 438.811 Z" fill="#000000" fill-rule="evenodd" fill-opacity="1" /><path clip-path="url(#clip130)" d="M137.033 410.131 L155.39 410.131 L155.39 414.066 L141.316 414.066 L141.316 422.538 Q142.334 422.191 143.353 422.029 Q144.371 421.844 145.39 421.844 Q151.177 421.844 154.556 425.015 Q157.936 428.186 157.936 433.603 Q157.936 439.182 154.464 442.283 Q150.992 445.362 144.672 445.362 Q142.496 445.362 140.228 444.992 Q137.982 444.621 135.575 443.881 L135.575 439.182 Q137.658 440.316 139.881 440.871 Q142.103 441.427 144.58 441.427 Q148.584 441.427 150.922 439.321 Q153.26 437.214 153.26 433.603 Q153.26 429.992 150.922 427.885 Q148.584 425.779 144.58 425.779 Q142.705 425.779 140.83 426.196 Q138.978 426.612 137.033 427.492 L137.033 410.131 Z" fill="#000000" fill-rule="evenodd" fill-opacity="1" /><path clip-path="url(#clip130)" d="M91.5706 101.321 L99.2095 101.321 L99.2095 74.955 L90.8993 76.6216 L90.8993 72.3624 L99.1632 70.6957 L103.839 70.6957 L103.839 101.321 L111.478 101.321 L111.478 105.256 L91.5706 105.256 L91.5706 101.321 Z" fill="#000000" fill-rule="evenodd" fill-opacity="1" /><path clip-path="url(#clip130)" d="M120.922 99.3761 L125.807 99.3761 L125.807 105.256 L120.922 105.256 L120.922 99.3761 Z" fill="#000000" fill-rule="evenodd" fill-opacity="1" /><path clip-path="url(#clip130)" d="M145.992 73.7744 Q142.381 73.7744 140.552 77.3392 Q138.746 80.8809 138.746 88.0105 Q138.746 95.1169 140.552 98.6817 Q142.381 102.223 145.992 102.223 Q149.626 102.223 151.431 98.6817 Q153.26 95.1169 153.26 88.0105 Q153.26 80.8809 151.431 77.3392 Q149.626 73.7744 145.992 73.7744 M145.992 70.0707 Q151.802 70.0707 154.857 74.6772 Q157.936 79.2605 157.936 88.0105 Q157.936 96.7373 154.857 101.344 Q151.802 105.927 145.992 105.927 Q140.181 105.927 137.103 101.344 Q134.047 96.7373 134.047 88.0105 Q134.047 79.2605 137.103 74.6772 Q140.181 70.0707 145.992 70.0707 Z" fill="#000000" fill-rule="evenodd" fill-opacity="1" /><polyline clip-path="url(#clip132)" style="stroke:#009af9; stroke-linecap:butt; stroke-linejoin:round; stroke-width:4; stroke-opacity:1; fill:none" points="
  255.035,766.846 258.35,766.846 261.664,766.843 264.979,766.836 268.294,766.823 298.945,765.995 329.596,762.682 344.921,759.551 360.247,755.147 375.572,749.255 
  390.898,741.659 409.318,729.973 427.737,715.152 436.947,706.454 446.157,696.841 455.367,686.272 464.577,674.708 480.151,652.789 495.725,627.769 511.299,599.533 
  526.872,568.017 535.331,549.524 543.79,530.075 552.249,509.692 560.707,488.408 577.625,443.32 594.542,395.34 625.735,302.225 656.928,210.515 665.289,187.761 
  673.649,166.367 682.01,146.693 690.37,129.129 694.55,121.268 698.731,114.093 702.911,107.661 707.091,102.03 711.271,97.2586 715.452,93.407 719.632,90.5365 
  723.812,88.7085 728.655,87.9763 733.499,88.8238 738.342,91.3476 743.185,95.643 748.028,101.803 752.872,109.919 757.715,120.077 762.558,132.36 767.401,146.843 
  772.245,163.595 777.088,182.678 781.931,204.141 786.774,228.024 791.617,254.355 796.461,283.146 801.304,314.394 805.608,344.21 809.912,375.923 814.216,409.494 
  818.52,444.871 822.824,481.985 827.129,520.754 831.433,561.079 835.737,602.845 844.345,690.153 852.953,781.402 861.561,875.025 870.17,969.161 877.718,1050.45 
  885.267,1128.88 889.041,1166.49 892.815,1202.72 896.59,1237.35 900.364,1270.14 904.138,1300.85 907.913,1329.24 911.687,1355.08 915.461,1378.13 919.235,1398.16 
  923.01,1414.96 924.897,1422.07 926.784,1428.3 928.671,1433.62 930.558,1437.99 932.616,1441.68 934.673,1444.19 936.731,1445.51 938.788,1445.61 940.846,1444.47 
  942.903,1442.07 944.961,1438.39 947.018,1433.41 949.076,1427.13 951.133,1419.53 953.191,1410.6 955.248,1400.34 957.306,1388.75 959.363,1375.82 961.421,1361.56 
  963.478,1345.98 965.536,1329.09 967.593,1310.9 969.651,1291.44 971.708,1270.71 973.766,1248.76 975.823,1225.6 977.881,1201.28 979.938,1175.83 981.996,1149.28 
  984.053,1121.69 986.111,1093.11 988.168,1063.59 992.283,1001.96 996.398,937.304 1000.54,869.802 1004.68,800.47 1008.82,730.011 1012.96,659.18 1017.1,588.778 
  1021.24,519.648 1025.37,452.659 1029.51,388.702 1031.58,358.14 1033.65,328.673 1035.72,300.412 1037.79,273.467 1039.86,247.947 1041.93,223.957 1044,201.603 
  1046.07,180.984 1048.14,162.198 1050.21,145.338 1052.28,130.493 1054.35,117.746 1056.42,107.175 1058.49,98.8505 1060.56,92.8388 1062.63,89.1972 1063.77,88.2199 
  1064.92,87.9898 1066.06,88.5135 1067.21,89.7968 1069.49,94.6614 1071.78,102.613 1074.07,113.667 1076.36,127.822 1078.65,145.065 1080.94,165.363 1083.23,188.669 
  1085.51,214.917 1087.8,244.025 1090.09,275.895 1092.38,310.408 1094.67,347.431 1096.96,386.812 1099.24,428.382 1101.53,471.956 1103.82,517.331 1106.11,564.291 
  1108.4,612.603 1112.97,712.282 1117.55,814.247 1122.13,916.206 1126.7,1015.74 1128.99,1063.82 1131.28,1110.37 1133.57,1155.06 1135.86,1197.6 1138.03,1235.79 
  1140.21,1271.5 1142.39,1304.48 1144.57,1334.51 1146.74,1361.36 1148.92,1384.82 1150.01,1395.22 1151.1,1404.71 1152.19,1413.25 1153.28,1420.84 1154.36,1427.45 
  1155.45,1433.06 1156.54,1437.66 1157.63,1441.24 1158.72,1443.79 1159.81,1445.28 1160.9,1445.71 1161.98,1445.08 1163.07,1443.37 1164.16,1440.58 1165.25,1436.71 
  1166.34,1431.75 1167.43,1425.71 1168.52,1418.59 1169.61,1410.39 1170.69,1401.12 1171.78,1390.79 1172.87,1379.39 1173.96,1366.96 1175.05,1353.5 1176.14,1339.02 
  1177.23,1323.54 1178.31,1307.09 1179.4,1289.68 1181.58,1252.08 1183.76,1210.96 1184.85,1189.15 1185.94,1166.56 1187.02,1143.21 1188.11,1119.14 1190.29,1068.99 
  1192.47,1016.46 1194.64,961.87 1196.82,905.608 1201.18,789.652 1205.53,671.951 1207.79,611.251 1210.06,551.559 1212.32,493.396 1214.59,437.281 1215.72,410.153 
  1216.85,383.728 1217.98,358.07 1219.11,333.24 1220.25,309.299 1221.38,286.305 1222.51,264.316 1223.64,243.388 1224.77,223.576 1225.91,204.932 1227.04,187.506 
  1228.17,171.347 1229.3,156.5 1230.43,143.008 1231.57,130.912 1232.7,120.25 1233.83,111.056 1234.96,103.362 1236.09,97.1959 1237.23,92.5838 1238.36,89.547 
  1239.49,88.1036 1240.62,88.2681 1241.75,90.0512 1242.89,93.4598 1244.02,98.497 1245.15,105.162 1246.28,113.448 1247.41,123.349 1248.55,134.849 1249.68,147.931 
  1250.81,162.574 1251.94,178.752 1253.07,196.435 1254.2,215.588 1255.34,236.173 1256.47,258.148 1257.6,281.465 1258.73,306.074 1259.86,331.921 1261,358.946 
  1262.13,387.088 1263.26,416.28 1264.39,446.454 1266.66,509.449 1268.92,575.452 1273.45,713.768 1277.98,855.61 1279.88,914.875 1281.79,973.189 1283.69,1030.08 
  1285.6,1085.06 1287.5,1137.68 1289.41,1187.47 1290.36,1211.17 1291.32,1234 1292.27,1255.9 1293.22,1276.83 1294.17,1296.74 1295.13,1315.58 1296.08,1333.31 
  1297.03,1349.87 1297.99,1365.24 1298.94,1379.36 1299.89,1392.21 1300.84,1403.75 1301.8,1413.94 1302.75,1422.77 1303.7,1430.19 1304.66,1436.19 1305.61,1440.75 
  1306.56,1443.84 1307.51,1445.46 1308.47,1445.59 1309.42,1444.22 1310.37,1441.36 1311.33,1436.99 1312.28,1431.11 1313.23,1423.74 1314.18,1414.89 1315.14,1404.55 
  1316.09,1392.76 1317.04,1379.53 1318,1364.87 1318.95,1348.82 1319.9,1331.41 1320.85,1312.67 1321.81,1292.63 1322.76,1271.34 1323.71,1248.84 1324.67,1225.17 
  1325.62,1200.38 1326.57,1174.53 1327.52,1147.67 1328.48,1119.87 1329.43,1091.17 1330.38,1061.65 1331.34,1031.37 1333.24,968.815 1335.15,904.085 1337.05,837.788 
  1338.96,770.561 1341.29,688.182 1343.61,606.62 1345.94,527.113 1348.27,450.893 1349.43,414.394 1350.59,379.168 1351.76,345.357 1352.92,313.101 1354.08,282.537 
  1355.25,253.794 1356.41,226.997 1357.57,202.262 1358.74,179.703 1359.9,159.421 1361.06,141.512 1362.23,126.062 1363.39,113.151 1364.55,102.844 1365.72,95.2021 
  1366.88,90.2716 1368.04,88.0901 1369.21,88.6839 1370.37,92.068 1371.53,98.2459 1372.7,107.209 1373.86,118.938 1375.02,133.401 1376.19,150.554 1377.35,170.341 
  1378.51,192.695 1379.68,217.536 1380.84,244.773 1382,274.305 1383.17,306.018 1384.33,339.789 1385.49,375.482 1386.66,412.955 1387.82,452.054 1388.98,492.616 
  1390.15,534.471 1392.47,621.342 1394.8,711.167 1397.13,802.36 1399.45,893.278 1401.78,982.25 1404.11,1067.61 1405.27,1108.41 1406.43,1147.71 1407.6,1185.3 
  1408.76,1220.99 1409.92,1254.61 1411.09,1285.98 1412.25,1314.94 1413.41,1341.34 1414.48,1363.14 1415.54,1382.58 1416.61,1399.54 1417.67,1413.97 1418.74,1425.76 
  1419.81,1434.88 1420.87,1441.26 1421.94,1444.86 1423,1445.65 1424.07,1443.61 1425.13,1438.74 1426.2,1431.04 1427.27,1420.53 1428.33,1407.24 1429.4,1391.2 
  1430.46,1372.48 1431.53,1351.13 1432.59,1327.24 1433.66,1300.89 1434.73,1272.19 1435.79,1241.24 1436.86,1208.17 1437.92,1173.12 1438.99,1136.22 1440.05,1097.63 
  1441.12,1057.51 1442.19,1016.03 1443.25,973.365 1445.38,885.234 1447.51,794.66 1449.65,703.261 1451.78,612.696 1452.84,568.251 1453.91,524.642 1454.97,482.075 
  1456.04,440.756 1457.11,400.881 1458.17,362.648 1459.24,326.243 1460.3,291.848 1461.37,259.636 1462.43,229.773 1463.5,202.413 1464.57,177.7 1465.1,166.378 
  1465.63,155.767 1466.16,145.88 1466.7,136.733 1467.76,120.708 1468.83,107.783 1469.89,98.0393 1470.96,91.5401 1472.02,88.3345 1473.09,88.4559 1474.16,91.921 
  1475.22,98.7302 1476.29,108.867 1477.35,122.299 1478.42,138.976 1479.48,158.831 1480.02,169.925 1480.55,181.78 1481.08,194.385 1481.62,207.725 1482.6,234.246 
  1483.58,263.12 1484.57,294.231 1485.55,327.455 1486.54,362.657 1487.52,399.69 1488.51,438.4 1489.49,478.624 1491.46,562.919 1493.43,651.122 1495.4,741.683 
  1497.36,832.984 1499.33,923.37 1501.3,1011.18 1502.29,1053.6 1503.27,1094.76 1504.25,1134.46 1505.24,1172.52 1506.22,1208.75 1507.21,1242.96 1508.19,1275 
  1509.17,1304.69 1510.16,1331.88 1511.14,1356.44 1512.13,1378.24 1513.11,1397.15 1514.1,1413.08 1515.08,1425.93 1516.06,1435.63 1517.05,1442.11 1518.03,1445.34 
  1519.02,1445.27 1520,1441.89 1520.99,1435.21 1521.97,1425.24 1522.95,1412.01 1523.94,1395.58 1524.92,1376.02 1525.91,1353.39 1526.89,1327.81 1527.88,1299.39 
  1528.86,1268.25 1529.84,1234.54 1530.83,1198.43 1531.81,1160.07 1532.8,1119.66 1533.78,1077.39 1534.77,1033.47 1535.75,988.12 1536.73,941.56 1538.7,845.768 
  1540.67,748.048 1542.64,650.422 1544.61,554.942 1545.6,508.053 1546.6,462.499 1547.6,418.533 1548.6,376.405 1549.59,336.354 1550.59,298.611 1551.59,263.394 
  1552.58,230.911 1553.08,215.756 1553.58,201.355 1554.08,187.731 1554.58,174.904 1555.57,151.721 1556.57,131.95 1557.57,115.719 1558.57,103.135 1559.06,98.2394 
  1559.56,94.287 1560.06,91.2857 1560.56,89.242 1561.06,88.1609 1561.56,88.0462 1562.06,88.9002 1562.55,90.724 1563.05,93.5172 1563.55,97.278 1564.05,102.003 
  1564.55,107.688 1565.05,114.327 1565.54,121.912 1566.04,130.435 1566.54,139.885 1567.54,161.519 1568.54,186.707 1569.53,215.316 1570.53,247.194 1571.03,264.307 
  1571.53,282.17 1572.03,300.761 1572.52,320.052 1573.52,360.628 1574.52,403.671 1575.52,448.936 1576.51,496.163 1577.51,545.079 1578.51,595.397 1579.5,646.822 
  1580.5,699.048 1582.49,804.647 1584.49,909.642 1585.49,961.107 1586.48,1011.46 1587.48,1060.37 1588.48,1107.55 1589.47,1152.69 1590.47,1195.5 1591.47,1235.7 
  1592.46,1273.04 1592.96,1290.55 1593.46,1307.25 1593.96,1323.11 1594.46,1338.12 1594.96,1352.23 1595.46,1365.43 1595.95,1377.69 1596.45,1388.99 1596.95,1399.32 
  1597.45,1408.64 1597.95,1416.96 1598.45,1424.24 1598.94,1430.48 1599.44,1435.67 1599.94,1439.79 1600.44,1442.83 1600.94,1444.79 1601.44,1445.67 1601.94,1445.45 
  1602.43,1444.13 1602.93,1441.73 1603.43,1438.23 1603.93,1433.64 1604.43,1427.96 1604.93,1421.21 1605.43,1413.39 1605.92,1404.51 1606.42,1394.58 1606.92,1383.62 
  1607.42,1371.64 1607.92,1358.66 1608.42,1344.7 1608.98,1327.92 1609.53,1309.96 1610.09,1290.87 1610.65,1270.67 1611.21,1249.41 1611.77,1227.12 1612.33,1203.86 
  1612.89,1179.67 1614,1128.68 1615.12,1074.57 1616.24,1017.79 1617.36,958.788 1619.59,836.127 1621.82,710.707 1622.94,648.297 1624.06,586.807 1625.18,526.773 
  1626.29,468.723 1626.85,440.603 1627.41,413.172 1627.97,386.49 1628.53,360.617 1629.09,335.613 1629.65,311.535 1630.2,288.437 1630.76,266.372 1631.32,245.393 
  1631.88,225.548 1632.44,206.883 1633,189.444 1633.56,173.271 1634.12,158.403 1634.67,144.878 1635.23,132.728 1635.79,121.983 1636.35,112.672 1636.91,104.819 
  1637.47,98.4442 1638.03,93.5664 1638.59,90.2 1639.14,88.3561 1639.7,88.0428 1640.26,89.2643 1640.82,92.0217 1641.38,96.3124 1641.94,102.13 1642.5,109.466 
  1643.05,118.306 1643.61,128.635 1644.17,140.431 1644.73,153.672 1645.29,168.33 1645.85,184.376 1646.41,201.776 1646.97,220.492 1647.52,240.485 1648.08,261.712 
  1648.64,284.126 1649.2,307.678 1649.76,332.316 1650.32,357.986 1650.88,384.629 1651.43,412.187 1651.99,440.596 1652.55,469.792 1653.11,499.708 1654.23,561.426 
  1655.35,625.179 1656.46,690.374 1657.58,756.399 1659.82,888.429 1662.05,1016.22 1663.17,1076.97 1664.28,1134.81 1664.84,1162.47 1665.4,1189.18 1665.96,1214.89 
  1666.52,1239.52 1667.08,1263.02 1667.64,1285.32 1668.2,1306.37 1668.75,1326.12 1669.31,1344.51 1669.87,1361.48 1670.43,1377.01 1670.99,1391.04 1671.55,1403.54 
  1672.11,1414.48 1672.66,1423.81 1673.22,1431.52 1673.78,1437.58 1674.34,1441.98 1674.9,1444.69 1675.46,1445.71 1676.02,1445.03 1676.58,1442.65 1677.13,1438.57 
  1677.69,1432.79 1678.25,1425.34 1678.81,1416.21 1679.37,1405.44 1679.93,1393.04 1680.43,1380.42 1680.94,1366.52 1681.45,1351.35 1681.95,1334.95 1682.46,1317.35 
  1682.97,1298.58 1683.47,1278.69 1683.98,1257.7 1684.48,1235.66 1684.99,1212.62 1685.5,1188.62 1686,1163.71 1686.51,1137.95 1687.02,1111.37 1687.52,1084.05 
  1688.03,1056.03 1689.04,998.153 1690.05,938.215 1691.07,876.725 1692.08,814.203 1694.1,688.216 1696.13,564.598 1697.14,505.034 1698.15,447.675 1699.17,393.031 
  1700.18,341.596 1700.68,317.228 1701.19,293.836 1701.7,271.472 1702.2,250.188 1702.71,230.034 1703.22,211.058 1703.72,193.302 1704.23,176.811 1704.73,161.622 
  1705.24,147.773 1705.75,135.298 1706.25,124.227 1706.76,114.588 1707.27,106.406 1707.77,99.7019 1708.28,94.4942 1708.78,90.7976 1709.29,88.6238 1709.8,87.9808 
  1710.3,88.8732 1710.81,91.3022 1711.32,95.2656 1711.82,100.758 1712.33,107.769 1712.83,116.286 1713.34,126.294 1713.85,137.772 1714.35,150.697 1714.86,165.043 
  1715.37,180.779 1715.87,197.872 1716.38,216.286 1716.88,235.982 1717.39,256.915 1717.9,279.041 1718.4,302.311 1718.91,326.673 1719.42,352.072 1719.92,378.453 
  1720.43,405.756 1721.44,462.876 1722.45,522.915 1723.47,585.321 1724.48,649.518 1726.5,780.879 1728.53,912.067 1729.54,976.033 1730.55,1038.09 1731.57,1097.63 
  1732.58,1154.08 1733.08,1180.97 1733.59,1206.88 1734.1,1231.75 1734.6,1255.5 1735.11,1278.09 1735.62,1299.46 1736.12,1319.55 1736.63,1338.31 1737.13,1355.69 
  1737.64,1371.65 1738.15,1386.14 1738.65,1399.13 1739.16,1410.58 1739.67,1420.46 1740.17,1428.75 1740.68,1435.41 1741.19,1440.43 1741.69,1443.8 1742.2,1445.5 
  1742.7,1445.52 1743.21,1443.86 1743.72,1440.52 1744.22,1435.52 1744.73,1428.84 1745.31,1419.17 1745.89,1407.37 1746.47,1393.46 1747.05,1377.49 1747.63,1359.5 
  1748.21,1339.54 1748.79,1317.69 1749.37,1294.01 1749.95,1268.56 1750.53,1241.44 1751.1,1212.73 1751.68,1182.51 1752.26,1150.89 1752.84,1117.97 1753.42,1083.85 
  1754,1048.64 1755.16,975.449 1756.32,899.344 1757.48,821.341 1758.64,742.482 1759.8,663.832 1760.96,586.46 1762.12,511.425 1763.28,439.763 1763.86,405.51 
  1764.44,372.472 1765.02,340.763 1765.6,310.497 1766.18,281.78 1766.75,254.717 1767.33,229.404 1767.91,205.932 1768.49,184.389 1769.07,164.852 1769.65,147.395 
  1770.23,132.083 1770.81,118.974 1771.39,108.12 1771.97,99.5639 1772.55,93.3406 1773.13,89.4774 1773.71,87.9933 1774.29,88.8992 1774.87,92.1971 1775.45,97.881 
  1776.03,105.936 1776.61,116.339 1777.19,129.059 1777.77,144.056 1778.35,161.281 1778.93,180.678 1779.51,202.183 1780.09,225.723 1780.67,251.22 1781.25,278.585 
  1781.83,307.726 1782.4,338.54 1782.98,370.921 1783.56,404.755 1784.14,439.924 1784.72,476.303 1785.3,513.762 1785.88,552.169 1786.46,591.386 1788.78,753.487 
  1791.1,916.849 1791.68,956.76 1792.26,995.999 1792.84,1034.42 1793.42,1071.88 1794,1108.24 1794.58,1143.35 1795.16,1177.1 1795.74,1209.33 1796.32,1239.95 
  1796.9,1268.81 1797.48,1295.83 1798.05,1320.88 1798.63,1343.86 1799.21,1364.7 1799.79,1383.3 1800.37,1399.59 1800.95,1413.51 1801.53,1424.99 1802.11,1433.98 
  1802.69,1440.45 1803.27,1444.37 1803.85,1445.72 1804.43,1444.47 1805.01,1440.64 1805.59,1434.24 1806.17,1425.27 1806.75,1413.78 1807.33,1399.79 1807.91,1383.36 
  1808.49,1364.54 1809.07,1343.4 1809.65,1320.03 1810.23,1294.49 1810.81,1266.89 1811.39,1237.34 1811.97,1205.93 1812.55,1172.79 1813.13,1138.05 1813.7,1101.83 
  1814.28,1064.27 1815.44,985.733 1816.6,903.645 1817.76,819.282 1818.92,733.967 1819.99,655.296 1821.07,578.035 1822.14,503.245 1823.21,431.962 1823.75,397.947 
  1824.29,365.177 1824.83,333.767 1825.36,303.829 1825.9,275.468 1826.44,248.786 1826.97,223.879 1827.51,200.837 1828.05,179.744 1828.58,160.676 1829.12,143.705 
  1829.66,128.894 1830.19,116.299 1830.73,105.969 1831.27,97.9436 1831.8,92.2568 1832.34,88.933 1832.88,87.9887 1833.41,89.4321 1833.95,93.2629 1834.49,99.4725 
  1835.02,108.044 1835.56,118.951 1836.1,132.161 1836.63,147.631 1837.17,165.311 1837.71,185.142 1838.24,207.059 1838.78,230.986 1839.32,256.843 1839.85,284.542 
  1840.39,313.986 1840.93,345.074 1841.46,377.697 1842,411.742 1842.54,447.088 1843.07,483.61 1843.61,521.18 1844.15,559.663 1844.68,598.922 1846.83,760.863 
  1848.98,923.581 1849.51,963.264 1850.05,1002.25 1850.59,1040.4 1851.12,1077.57 1851.66,1113.62 1852.2,1148.42 1852.73,1181.83 1853.27,1213.72 1853.81,1243.99 
  1854.34,1272.5 1854.88,1299.16 1855.42,1323.85 1855.95,1346.49 1856.49,1366.98 1857.03,1385.24 1857.56,1401.21 1858.1,1414.81 1858.64,1425.99 1859.17,1434.7 
  1859.71,1440.91 1860.25,1444.59 1860.78,1445.71 1861.32,1444.28 1861.86,1440.28 1862.39,1433.73 1862.93,1424.65 1863.47,1413.07 1864,1399.03 1864.54,1382.57 
  1865.08,1363.76 1865.61,1342.66 1866.15,1319.34 1866.69,1293.9 1867.22,1266.42 1867.76,1237 1868.3,1205.77 1868.83,1172.82 1869.37,1138.29 1869.91,1102.3 
  1870.44,1065 1871.52,987.003 1872.59,905.495 1873.66,821.725 1874.74,736.99 1875.81,652.61 1876.88,569.906 1877.42,529.593 1877.96,490.186 1878.49,451.842 
  1879.03,414.715 1879.57,378.954 1880.1,344.702 1880.64,312.099 1881.18,281.277 1881.71,252.362 1882.25,225.472 1882.79,200.719 1883.32,178.206 1883.86,158.026 
  1884.4,140.265 1884.93,124.999 1885.47,112.295 1886.01,102.207 1886.54,94.7821 1887.08,90.055 1887.62,88.0502 1888.15,88.7516 1888.68,92.1145 1889.2,98.1309 
  1889.73,106.782 1890.26,118.039 1890.79,131.863 1891.32,148.203 1891.85,167.001 1892.38,188.186 1892.91,211.68 1893.44,237.392 1893.97,265.226 1894.5,295.075 
  1895.02,326.823 1895.55,360.347 1896.08,395.517 1896.61,432.196 1897.14,470.239 1897.67,509.497 1898.2,549.813 1899.26,632.977 1900.32,718.406 1901.37,804.727 
  1902.43,890.544 1903.49,974.463 1904.55,1055.11 1905.08,1093.78 1905.61,1131.15 1906.14,1167.05 1906.67,1201.33 1907.19,1233.84 1907.72,1264.46 1908.25,1293.05 
  1908.78,1319.49 1909.31,1343.67 1909.84,1365.48 1910.37,1384.82 1910.9,1401.62 1911.43,1415.8 1911.96,1427.29 1912.49,1436.04 1913.01,1442.02 1913.54,1445.18 
  1914.07,1445.51 1914.6,1443 1915.13,1437.67 1915.66,1429.52 1916.19,1418.58 1916.72,1404.91 1917.25,1388.53 1917.78,1369.53 1918.31,1347.98 1918.83,1323.96 
  1919.36,1297.57 1919.89,1268.91 1920.42,1238.11 1920.95,1205.29 1921.48,1170.59 1922.01,1134.14 1922.54,1096.11 1923.07,1056.65 1923.6,1015.93 1924.65,931.388 
  1925.71,843.921 1926.77,755.02 1927.83,666.211 1928.89,579.027 1929.95,494.985 1930.48,454.604 1931,415.554 1931.53,378.009 1932.06,342.135 1932.59,308.091 
  1933.12,276.031 1933.65,246.097 1934.18,218.425 1934.71,193.141 1935.24,170.36 1935.77,150.187 1936.3,132.716 1936.82,118.029 1937.35,106.197 1937.88,97.2757 
  1938.41,91.3116 1938.94,88.3363 1939.47,88.3687 1940,91.4142 1940.53,97.465 1941.06,106.5 1941.59,118.484 1942.12,133.369 1942.64,151.095 1943.17,171.587 
  1943.7,194.759 1944.23,220.512 1944.76,248.735 1945.29,279.305 1945.82,312.089 1946.35,346.945 1946.88,383.717 1947.41,422.244 1947.94,462.355 1948.46,503.87 
  1948.99,546.604 1950.05,634.956 1951.11,725.819 1952.17,817.542 1953.23,908.453 1953.76,953.08 1954.29,996.879 1954.81,1039.65 1955.34,1081.19 1955.86,1120.16 
  1956.37,1157.61 1956.88,1193.39 1957.4,1227.33 1957.91,1259.27 1958.43,1289.09 1958.94,1316.63 1959.45,1341.78 1959.97,1364.43 1960.48,1384.46 1960.99,1401.78 
  1961.51,1416.32 1962.02,1428.01 1962.54,1436.78 1963.05,1442.59 1963.56,1445.42 1964.08,1445.25 1964.59,1442.06 1965.1,1435.87 1965.62,1426.71 1966.13,1414.6 
  1966.65,1399.59 1967.16,1381.76 1967.67,1361.16 1968.19,1337.89 1968.7,1312.05 1969.21,1283.75 1969.73,1253.12 1970.24,1220.27 1970.75,1185.37 1971.27,1148.56 
  1971.78,1110.01 1972.3,1069.88 1972.81,1028.36 1973.32,985.634 1973.84,941.887 1974.86,852.133 1975.89,760.721 1976.92,669.313 1977.95,579.577 1978.46,535.854 
  1978.97,493.165 1979.49,451.707 1980,411.674 1980.52,373.253 1981.03,336.622 1981.54,301.956 1982.06,269.417 1982.57,239.159 1983.08,211.328 1983.6,186.056 
  1984.11,163.465 1984.63,143.666 1985.14,126.755 1985.65,112.816 1986.17,101.92 1986.68,94.1223 1987.19,89.4657 1987.71,87.9773 1988.22,89.6699 1988.74,94.541 
  1989.25,102.573 1989.76,113.735 1990.28,127.979 1990.79,145.243 1991.3,165.452 1991.82,188.514 1992.33,214.327 1992.84,242.772 1993.36,273.72 1993.87,307.027 
  1994.39,342.54 1994.9,380.093 1995.41,419.511 1995.93,460.61 1996.44,503.195 1997.47,592.016 1998.5,684.29 1999.52,778.257 2000.55,872.115 2001.06,918.436 
  2001.58,964.052 2002.09,1008.74 2002.61,1052.28 2003.12,1094.47 2003.63,1135.08 2004.15,1173.94 2004.66,1210.83 2005.17,1245.58 2005.69,1278.02 2006.2,1307.97 
  2006.72,1335.3 2007.23,1359.87 2007.74,1381.54 2008.26,1400.2 2008.77,1415.77 2009.28,1428.15 2009.8,1437.28 2010.31,1443.12 2010.83,1445.62 2011.34,1444.76 
  2011.85,1440.55 2012.37,1433 2012.88,1422.15 2013.39,1408.03 2013.91,1390.72 2014.42,1370.29 2014.93,1346.84 2015.45,1320.49 2015.96,1291.36 2016.48,1259.59 
  2016.99,1225.33 2017.5,1188.75 2018.02,1150.04 2018.53,1109.38 2019.04,1066.97 2019.56,1023.03 2020.07,977.77 2020.59,931.419 2021.1,884.21 2022.15,785.741 
  2023.21,686.753 2024.26,589.358 2025.31,495.644 2025.84,450.804 2026.37,407.635 2026.89,366.373 2027.42,327.244 2027.95,290.462 2028.47,256.23 2029,224.737 
  2029.53,196.16 2030.05,170.657 2030.58,148.374 2031.11,129.436 2031.63,113.953 2032.16,102.014 2032.69,93.6924 2033.21,89.0388 2033.74,88.0853 2034.27,90.8439 
  2034.79,97.3059 2035.32,107.443 2035.85,121.205 2036.37,138.523 2036.9,159.309 2037.43,183.453 2037.95,210.83 2038.48,241.292 2039.01,274.678 2039.53,310.807 
  2040.06,349.485 2040.58,390.501 2041.11,433.632 2041.64,478.64 2042.16,525.28 2043.22,622.416 2044.27,722.889 2045.32,824.464 2046.38,924.865 2046.9,973.917 
  2047.43,1021.83 2047.96,1068.33 2048.48,1113.16 2049.01,1156.06 2049.54,1196.78 2050.06,1235.09 2050.59,1270.76 2051.12,1303.59 2051.64,1333.39 2052.17,1359.98 
  2052.7,1383.21 2053.22,1402.93 2053.75,1419.03 2054.28,1431.41 2054.8,1439.99 2055.33,1444.72 2055.86,1445.56 2056.38,1442.5 2056.91,1435.55 2057.44,1424.74 
  2057.96,1410.13 2058.49,1391.8 2059.02,1369.85 2059.54,1344.4 2060.07,1315.58 2060.6,1283.56 2061.12,1248.53 2061.65,1210.67 2062.18,1170.21 2062.7,1127.38 
  2063.23,1082.41 2063.76,1035.58 2064.28,987.146 2064.81,937.395 2065.34,886.616 2066.39,783.163 2067.44,679.206 2067.97,627.805 2068.5,577.194 2069.02,527.675 
  2069.55,479.542 2070.08,433.083 2070.6,388.577 2071.13,346.29 2071.66,306.479 2072.18,269.384 2072.71,235.232 2073.24,204.23 2073.76,176.571 2074.29,152.424 
  2074.82,131.941 2075.34,115.251 2075.87,102.46 2076.4,93.6524 2076.92,88.8876 2077.45,88.2014 2077.98,91.6051 2078.5,99.0851 2079.03,110.603 2079.56,126.097 
  2080.08,145.48 2080.61,168.64 2081.14,195.445 2081.66,225.736 2082.19,259.337 2082.72,296.047 2083.24,335.649 2083.77,377.906 2084.3,422.564 2084.82,469.354 
  2085.35,517.993 2085.88,568.187 2086.4,619.628 2087.46,724.994 2088.51,831.509 2089.09,889.402 2089.66,946.422 2090.24,1002.14 2090.82,1056.15 2091.39,1108.03 
  2091.97,1157.41 2092.55,1203.89 2093.12,1247.14 2093.7,1286.82 2094.28,1322.63 2094.86,1354.29 2095.43,1381.55 2096.01,1404.21 2096.59,1422.08 2097.16,1435.02 
  2097.74,1442.92 2098.32,1445.71 2098.89,1443.37 2099.47,1435.89 2100.05,1423.33 2100.62,1405.78 2101.2,1383.35 2101.78,1356.21 2102.36,1324.56 2102.93,1288.63 
  2103.51,1248.69 2104.09,1205.03 2104.66,1157.99 2105.24,1107.92 2105.82,1055.19 2106.39,1000.21 2106.97,943.399 2108.13,826.033 2109.28,706.693 2109.86,647.436 
  2110.43,589.069 2111.01,532.048 2111.59,476.818 2112.16,423.813 2112.74,373.452 2113.32,326.132 2113.9,282.23 2114.47,242.095 2115.05,206.049 2115.63,174.382 
  2116.2,147.353 2116.78,125.181 2117.36,108.051 2117.93,96.1079 2118.51,89.4548 2119.09,88.1545 2119.67,92.2271 2120.24,101.65 2120.82,116.36 2121.4,136.247 
  2121.97,161.165 2122.55,190.924 2123.13,225.295 2123.7,264.012 2124.28,306.774 2124.86,353.246 2125.44,403.063 2126.01,455.829 2126.59,511.128 2127.17,568.518 
  2127.74,627.541 2128.9,748.582 2130.05,870.361 2130.63,930.295 2131.21,988.938 2131.78,1045.81 2132.36,1100.45 2132.94,1152.41 2133.51,1201.25 2134.09,1246.58 
  2134.67,1288.01 2135.24,1325.2 2135.82,1357.84 2136.4,1385.65 2136.98,1408.39 2137.55,1425.87 2138.13,1437.93 2138.71,1444.46 2139.28,1445.41 2139.86,1440.74 
  2140.44,1430.5 2141.01,1414.75 2141.59,1393.61 2142.17,1367.26 2142.74,1335.89 2143.32,1299.77 2143.9,1259.18 2144.48,1214.46 2145.05,1165.97 2145.63,1114.11 
  2146.21,1059.31 2146.78,1002.02 2147.36,942.72 2147.94,881.908 2148.51,820.089 2149.67,695.519 2150.82,573.204 2151.4,514.194 2151.98,457.291 2152.55,402.982 
  2153.13,351.734 2153.71,303.988 2154.28,260.157 2154.86,220.623 2155.44,185.732 2156.02,155.79 2156.59,131.062 2157.17,111.771 2157.75,98.0917 2158.32,90.152 
  2158.9,88.0306 2159.48,91.7565 2160.05,101.308 2160.63,116.613 2161.21,137.55 2161.79,163.948 2162.36,195.588 2163.2,250.335 2164.04,314.598 2164.88,387.224 
  2165.71,466.897 2166.55,552.168 2167.39,641.477 2168.23,733.182 2169.07,825.591 2169.91,916.99 2170.74,1005.68 2171.58,1089.99 2172.42,1168.35 2173.26,1239.28 
  2174.1,1301.42 2174.93,1353.59 2175.77,1394.78 2176.61,1424.19 2177.45,1441.23 2178.29,1445.54 2179.13,1437.03 2179.96,1415.8 2180.8,1382.23 2181.64,1336.93 
  2182.48,1280.73 2183.32,1214.68 2184.15,1140.01 2184.99,1058.12 2185.83,970.579 2186.67,879.045 2187.51,785.273 2188.35,691.064 2189.18,598.238 2190.02,508.595 
  2190.86,423.88 2191.7,345.753 2192.54,275.749 2193.37,215.254 2194.21,165.474 2195.05,127.409 2195.89,101.836 2196.73,89.2885 2197.57,90.0472 2198.4,104.131 
  2199.24,131.298 2200.08,171.043 2200.92,222.613 2201.76,285.017 2202.59,357.042 2203.43,437.281 2204.27,524.155 2205.11,615.948 2205.95,710.836 2206.79,806.928 
  2207.62,902.297 2208.46,995.025 2209.3,1083.24 2210.14,1165.15 2210.98,1239.08 2211.81,1303.52 2212.65,1357.13 2213.49,1398.8 2214.33,1427.66 2215.17,1443.07 
  2216,1444.7 2216.84,1432.47 2217.68,1406.6 2218.52,1367.58 2219.36,1316.18 2220.2,1253.43 2221.03,1180.59 2221.87,1099.15 2222.71,1010.76 2223.55,917.245 
  2224.39,820.526 2225.22,722.609 2226.06,625.53 2226.9,531.319 2227.74,441.95 2228.58,359.309 2229.42,285.146 2230.25,221.04 2231.09,168.366 2231.93,128.264 
  2232.77,101.612 2233.61,89.0088 2234.44,90.7566 2235.28,106.855 2236.12,136.997 2236.96,180.578 2237.8,236.701 2238.64,304.199 2239.47,381.656 2240.31,467.436 
  2241.15,559.718 2241.99,656.533 2242.83,755.806 2243.66,855.401 2244.5,953.165 2245.34,1046.97 2246.18,1134.79 2247.02,1214.68 2247.86,1284.88 2248.69,1343.86 
  2249.53,1390.28 2250.37,1423.1 2251.21,1441.56 2252.05,1445.24 2252.88,1433.99 2253.72,1408.05 2254.56,1367.94 2255.4,1314.51 2256.24,1248.92 2257.07,1172.59 
  2257.91,1087.17 2258.75,994.567 2259.59,896.808 2260.43,796.067 2261.27,694.59 2262.1,594.646 2262.94,498.482 2263.78,408.268 2264.62,326.051 2265.46,253.703 
  2266.29,192.882 2267.13,144.995 2267.97,111.158 2268.81,92.1731 2269.65,88.5104 2269.82,89.6704 2269.99,91.4808 2270.16,93.9402 2270.34,97.0465 2270.68,105.189 
  2271.02,115.879 2271.37,129.078 2271.71,144.738 2272.05,162.802 2272.4,183.201 2272.74,205.86 2273.09,230.693 2273.43,257.607 2273.77,286.5 2274.12,317.262 
  2274.46,349.775 2274.81,383.915 2275.15,419.552 2275.49,456.549 2275.84,494.764 2276.18,534.048 2276.53,574.252 2277.21,656.789 2277.9,741.097 2278.59,825.863 
  2279.28,909.764 2279.96,991.488 2280.65,1069.75 2281,1107.19 2281.34,1143.31 2281.68,1177.97 2282.03,1211.02 2282.37,1242.33 2282.72,1271.78 2283.06,1299.26 
  2283.4,1324.64 2283.75,1347.83 2284.09,1368.74 2284.44,1387.28 2284.78,1403.37 2285.12,1416.94 2285.47,1427.95 2285.81,1436.35 2286.15,1442.1 2286.5,1445.16 
  2286.84,1445.54 2287.19,1443.22 2287.53,1438.22 2287.87,1430.54 2288.22,1420.22 2288.56,1407.29 2288.91,1391.81 2289.25,1373.83 2289.59,1353.42 2289.94,1330.67 
  2290.28,1305.65 2290.63,1278.47 2290.97,1249.23 2291.31,1218.05 2291.66,1185.06 
  "/>
<path clip-path="url(#clip130)" d="
M1988.5 198.898 L2280.8 198.898 L2280.8 95.2176 L1988.5 95.2176  Z
  " fill="#ffffff" fill-rule="evenodd" fill-opacity="1"/>
<polyline clip-path="url(#clip130)" style="stroke:#000000; stroke-linecap:butt; stroke-linejoin:round; stroke-width:4; stroke-opacity:1; fill:none" points="
  1988.5,198.898 2280.8,198.898 2280.8,95.2176 1988.5,95.2176 1988.5,198.898 
  "/>
<polyline clip-path="url(#clip130)" style="stroke:#009af9; stroke-linecap:butt; stroke-linejoin:round; stroke-width:4; stroke-opacity:1; fill:none" points="
  2012.48,147.058 2156.4,147.058 
  "/>
<path clip-path="url(#clip130)" d="M2194.23 166.745 Q2192.43 171.375 2190.72 172.787 Q2189 174.199 2186.13 174.199 L2182.73 174.199 L2182.73 170.634 L2185.23 170.634 Q2186.99 170.634 2187.96 169.8 Q2188.93 168.967 2190.11 165.865 L2190.88 163.921 L2180.39 138.412 L2184.91 138.412 L2193.01 158.689 L2201.11 138.412 L2205.62 138.412 L2194.23 166.745 Z" fill="#000000" fill-rule="evenodd" fill-opacity="1" /><path clip-path="url(#clip130)" d="M2212.91 160.402 L2220.55 160.402 L2220.55 134.037 L2212.24 135.703 L2212.24 131.444 L2220.51 129.778 L2225.18 129.778 L2225.18 160.402 L2232.82 160.402 L2232.82 164.338 L2212.91 164.338 L2212.91 160.402 Z" fill="#000000" fill-rule="evenodd" fill-opacity="1" /></svg>
