<?xml version="1.0" encoding="utf-8"?>
<svg xmlns="http://www.w3.org/2000/svg" xmlns:xlink="http://www.w3.org/1999/xlink" width="600" height="400" viewBox="0 0 2400 1600">
<defs>
  <clipPath id="clip420">
    <rect x="0" y="0" width="2400" height="1600"/>
  </clipPath>
</defs>
<path clip-path="url(#clip420)" d="
M0 1600 L2400 1600 L2400 0 L0 0  Z
  " fill="#ffffff" fill-rule="evenodd" fill-opacity="1"/>
<defs>
  <clipPath id="clip421">
    <rect x="480" y="0" width="1681" height="1600"/>
  </clipPath>
</defs>
<path clip-path="url(#clip420)" d="
M193.936 1486.45 L2352.76 1486.45 L2352.76 47.2441 L193.936 47.2441  Z
  " fill="#ffffff" fill-rule="evenodd" fill-opacity="1"/>
<defs>
  <clipPath id="clip422">
    <rect x="193" y="47" width="2160" height="1440"/>
  </clipPath>
</defs>
<polyline clip-path="url(#clip422)" style="stroke:#000000; stroke-linecap:butt; stroke-linejoin:round; stroke-width:2; stroke-opacity:0.1; fill:none" points="
  255.035,1486.45 255.035,47.2441 
  "/>
<polyline clip-path="url(#clip422)" style="stroke:#000000; stroke-linecap:butt; stroke-linejoin:round; stroke-width:2; stroke-opacity:0.1; fill:none" points="
  579.173,1486.45 579.173,47.2441 
  "/>
<polyline clip-path="url(#clip422)" style="stroke:#000000; stroke-linecap:butt; stroke-linejoin:round; stroke-width:2; stroke-opacity:0.1; fill:none" points="
  903.312,1486.45 903.312,47.2441 
  "/>
<polyline clip-path="url(#clip422)" style="stroke:#000000; stroke-linecap:butt; stroke-linejoin:round; stroke-width:2; stroke-opacity:0.1; fill:none" points="
  1227.45,1486.45 1227.45,47.2441 
  "/>
<polyline clip-path="url(#clip422)" style="stroke:#000000; stroke-linecap:butt; stroke-linejoin:round; stroke-width:2; stroke-opacity:0.1; fill:none" points="
  1551.59,1486.45 1551.59,47.2441 
  "/>
<polyline clip-path="url(#clip422)" style="stroke:#000000; stroke-linecap:butt; stroke-linejoin:round; stroke-width:2; stroke-opacity:0.1; fill:none" points="
  1875.73,1486.45 1875.73,47.2441 
  "/>
<polyline clip-path="url(#clip422)" style="stroke:#000000; stroke-linecap:butt; stroke-linejoin:round; stroke-width:2; stroke-opacity:0.1; fill:none" points="
  2199.87,1486.45 2199.87,47.2441 
  "/>
<polyline clip-path="url(#clip420)" style="stroke:#000000; stroke-linecap:butt; stroke-linejoin:round; stroke-width:4; stroke-opacity:1; fill:none" points="
  193.936,1486.45 2352.76,1486.45 
  "/>
<polyline clip-path="url(#clip420)" style="stroke:#000000; stroke-linecap:butt; stroke-linejoin:round; stroke-width:4; stroke-opacity:1; fill:none" points="
  255.035,1486.45 255.035,1467.55 
  "/>
<polyline clip-path="url(#clip420)" style="stroke:#000000; stroke-linecap:butt; stroke-linejoin:round; stroke-width:4; stroke-opacity:1; fill:none" points="
  579.173,1486.45 579.173,1467.55 
  "/>
<polyline clip-path="url(#clip420)" style="stroke:#000000; stroke-linecap:butt; stroke-linejoin:round; stroke-width:4; stroke-opacity:1; fill:none" points="
  903.312,1486.45 903.312,1467.55 
  "/>
<polyline clip-path="url(#clip420)" style="stroke:#000000; stroke-linecap:butt; stroke-linejoin:round; stroke-width:4; stroke-opacity:1; fill:none" points="
  1227.45,1486.45 1227.45,1467.55 
  "/>
<polyline clip-path="url(#clip420)" style="stroke:#000000; stroke-linecap:butt; stroke-linejoin:round; stroke-width:4; stroke-opacity:1; fill:none" points="
  1551.59,1486.45 1551.59,1467.55 
  "/>
<polyline clip-path="url(#clip420)" style="stroke:#000000; stroke-linecap:butt; stroke-linejoin:round; stroke-width:4; stroke-opacity:1; fill:none" points="
  1875.73,1486.45 1875.73,1467.55 
  "/>
<polyline clip-path="url(#clip420)" style="stroke:#000000; stroke-linecap:butt; stroke-linejoin:round; stroke-width:4; stroke-opacity:1; fill:none" points="
  2199.87,1486.45 2199.87,1467.55 
  "/>
<path clip-path="url(#clip420)" d="M255.035 1517.37 Q251.424 1517.37 249.595 1520.93 Q247.789 1524.47 247.789 1531.6 Q247.789 1538.71 249.595 1542.27 Q251.424 1545.82 255.035 1545.82 Q258.669 1545.82 260.474 1542.27 Q262.303 1538.71 262.303 1531.6 Q262.303 1524.47 260.474 1520.93 Q258.669 1517.37 255.035 1517.37 M255.035 1513.66 Q260.845 1513.66 263.9 1518.27 Q266.979 1522.85 266.979 1531.6 Q266.979 1540.33 263.9 1544.94 Q260.845 1549.52 255.035 1549.52 Q249.225 1549.52 246.146 1544.94 Q243.09 1540.33 243.09 1531.6 Q243.09 1522.85 246.146 1518.27 Q249.225 1513.66 255.035 1513.66 Z" fill="#000000" fill-rule="evenodd" fill-opacity="1" /><path clip-path="url(#clip420)" d="M569.555 1544.91 L577.194 1544.91 L577.194 1518.55 L568.884 1520.21 L568.884 1515.95 L577.148 1514.29 L581.824 1514.29 L581.824 1544.91 L589.463 1544.91 L589.463 1548.85 L569.555 1548.85 L569.555 1544.91 Z" fill="#000000" fill-rule="evenodd" fill-opacity="1" /><path clip-path="url(#clip420)" d="M897.965 1544.91 L914.284 1544.91 L914.284 1548.85 L892.34 1548.85 L892.34 1544.91 Q895.002 1542.16 899.585 1537.53 Q904.191 1532.88 905.372 1531.53 Q907.617 1529.01 908.497 1527.27 Q909.4 1525.51 909.4 1523.82 Q909.4 1521.07 907.455 1519.33 Q905.534 1517.6 902.432 1517.6 Q900.233 1517.6 897.779 1518.36 Q895.349 1519.13 892.571 1520.68 L892.571 1515.95 Q895.395 1514.82 897.849 1514.24 Q900.303 1513.66 902.34 1513.66 Q907.71 1513.66 910.904 1516.35 Q914.099 1519.03 914.099 1523.52 Q914.099 1525.65 913.289 1527.57 Q912.502 1529.47 910.395 1532.07 Q909.816 1532.74 906.715 1535.95 Q903.613 1539.15 897.965 1544.91 Z" fill="#000000" fill-rule="evenodd" fill-opacity="1" /><path clip-path="url(#clip420)" d="M1231.7 1530.21 Q1235.05 1530.93 1236.93 1533.2 Q1238.83 1535.47 1238.83 1538.8 Q1238.83 1543.92 1235.31 1546.72 Q1231.79 1549.52 1225.31 1549.52 Q1223.13 1549.52 1220.82 1549.08 Q1218.53 1548.66 1216.07 1547.81 L1216.07 1543.29 Q1218.02 1544.43 1220.33 1545.01 Q1222.65 1545.58 1225.17 1545.58 Q1229.57 1545.58 1231.86 1543.85 Q1234.17 1542.11 1234.17 1538.8 Q1234.17 1535.75 1232.02 1534.03 Q1229.89 1532.3 1226.07 1532.3 L1222.05 1532.3 L1222.05 1528.45 L1226.26 1528.45 Q1229.71 1528.45 1231.54 1527.09 Q1233.36 1525.7 1233.36 1523.11 Q1233.36 1520.45 1231.47 1519.03 Q1229.59 1517.6 1226.07 1517.6 Q1224.15 1517.6 1221.95 1518.01 Q1219.75 1518.43 1217.11 1519.31 L1217.11 1515.14 Q1219.78 1514.4 1222.09 1514.03 Q1224.43 1513.66 1226.49 1513.66 Q1231.81 1513.66 1234.92 1516.09 Q1238.02 1518.5 1238.02 1522.62 Q1238.02 1525.49 1236.37 1527.48 Q1234.73 1529.45 1231.7 1530.21 Z" fill="#000000" fill-rule="evenodd" fill-opacity="1" /><path clip-path="url(#clip420)" d="M1554.6 1518.36 L1542.79 1536.81 L1554.6 1536.81 L1554.6 1518.36 M1553.37 1514.29 L1559.25 1514.29 L1559.25 1536.81 L1564.18 1536.81 L1564.18 1540.7 L1559.25 1540.7 L1559.25 1548.85 L1554.6 1548.85 L1554.6 1540.7 L1539 1540.7 L1539 1536.19 L1553.37 1514.29 Z" fill="#000000" fill-rule="evenodd" fill-opacity="1" /><path clip-path="url(#clip420)" d="M1866.01 1514.29 L1884.36 1514.29 L1884.36 1518.22 L1870.29 1518.22 L1870.29 1526.7 Q1871.31 1526.35 1872.32 1526.19 Q1873.34 1526 1874.36 1526 Q1880.15 1526 1883.53 1529.17 Q1886.91 1532.34 1886.91 1537.76 Q1886.91 1543.34 1883.44 1546.44 Q1879.96 1549.52 1873.64 1549.52 Q1871.47 1549.52 1869.2 1549.15 Q1866.95 1548.78 1864.55 1548.04 L1864.55 1543.34 Q1866.63 1544.47 1868.85 1545.03 Q1871.07 1545.58 1873.55 1545.58 Q1877.56 1545.58 1879.89 1543.48 Q1882.23 1541.37 1882.23 1537.76 Q1882.23 1534.15 1879.89 1532.04 Q1877.56 1529.94 1873.55 1529.94 Q1871.68 1529.94 1869.8 1530.35 Q1867.95 1530.77 1866.01 1531.65 L1866.01 1514.29 Z" fill="#000000" fill-rule="evenodd" fill-opacity="1" /><path clip-path="url(#clip420)" d="M2200.27 1529.7 Q2197.12 1529.7 2195.27 1531.86 Q2193.44 1534.01 2193.44 1537.76 Q2193.44 1541.49 2195.27 1543.66 Q2197.12 1545.82 2200.27 1545.82 Q2203.42 1545.82 2205.25 1543.66 Q2207.1 1541.49 2207.1 1537.76 Q2207.1 1534.01 2205.25 1531.86 Q2203.42 1529.7 2200.27 1529.7 M2209.55 1515.05 L2209.55 1519.31 Q2207.79 1518.48 2205.99 1518.04 Q2204.21 1517.6 2202.45 1517.6 Q2197.82 1517.6 2195.36 1520.72 Q2192.93 1523.85 2192.59 1530.17 Q2193.95 1528.15 2196.01 1527.09 Q2198.07 1526 2200.55 1526 Q2205.76 1526 2208.77 1529.17 Q2211.8 1532.32 2211.8 1537.76 Q2211.8 1543.08 2208.65 1546.3 Q2205.5 1549.52 2200.27 1549.52 Q2194.28 1549.52 2191.1 1544.94 Q2187.93 1540.33 2187.93 1531.6 Q2187.93 1523.41 2191.82 1518.55 Q2195.71 1513.66 2202.26 1513.66 Q2204.02 1513.66 2205.8 1514.01 Q2207.61 1514.36 2209.55 1515.05 Z" fill="#000000" fill-rule="evenodd" fill-opacity="1" /><polyline clip-path="url(#clip422)" style="stroke:#000000; stroke-linecap:butt; stroke-linejoin:round; stroke-width:2; stroke-opacity:0.1; fill:none" points="
  193.936,1445.72 2352.76,1445.72 
  "/>
<polyline clip-path="url(#clip422)" style="stroke:#000000; stroke-linecap:butt; stroke-linejoin:round; stroke-width:2; stroke-opacity:0.1; fill:none" points="
  193.936,1106.28 2352.76,1106.28 
  "/>
<polyline clip-path="url(#clip422)" style="stroke:#000000; stroke-linecap:butt; stroke-linejoin:round; stroke-width:2; stroke-opacity:0.1; fill:none" points="
  193.936,766.846 2352.76,766.846 
  "/>
<polyline clip-path="url(#clip422)" style="stroke:#000000; stroke-linecap:butt; stroke-linejoin:round; stroke-width:2; stroke-opacity:0.1; fill:none" points="
  193.936,427.411 2352.76,427.411 
  "/>
<polyline clip-path="url(#clip422)" style="stroke:#000000; stroke-linecap:butt; stroke-linejoin:round; stroke-width:2; stroke-opacity:0.1; fill:none" points="
  193.936,87.9763 2352.76,87.9763 
  "/>
<polyline clip-path="url(#clip420)" style="stroke:#000000; stroke-linecap:butt; stroke-linejoin:round; stroke-width:4; stroke-opacity:1; fill:none" points="
  193.936,1486.45 193.936,47.2441 
  "/>
<polyline clip-path="url(#clip420)" style="stroke:#000000; stroke-linecap:butt; stroke-linejoin:round; stroke-width:4; stroke-opacity:1; fill:none" points="
  193.936,1445.72 212.834,1445.72 
  "/>
<polyline clip-path="url(#clip420)" style="stroke:#000000; stroke-linecap:butt; stroke-linejoin:round; stroke-width:4; stroke-opacity:1; fill:none" points="
  193.936,1106.28 212.834,1106.28 
  "/>
<polyline clip-path="url(#clip420)" style="stroke:#000000; stroke-linecap:butt; stroke-linejoin:round; stroke-width:4; stroke-opacity:1; fill:none" points="
  193.936,766.846 212.834,766.846 
  "/>
<polyline clip-path="url(#clip420)" style="stroke:#000000; stroke-linecap:butt; stroke-linejoin:round; stroke-width:4; stroke-opacity:1; fill:none" points="
  193.936,427.411 212.834,427.411 
  "/>
<polyline clip-path="url(#clip420)" style="stroke:#000000; stroke-linecap:butt; stroke-linejoin:round; stroke-width:4; stroke-opacity:1; fill:none" points="
  193.936,87.9763 212.834,87.9763 
  "/>
<path clip-path="url(#clip420)" d="M50.9921 1446.17 L80.6679 1446.17 L80.6679 1450.1 L50.9921 1450.1 L50.9921 1446.17 Z" fill="#000000" fill-rule="evenodd" fill-opacity="1" /><path clip-path="url(#clip420)" d="M91.5706 1459.06 L99.2095 1459.06 L99.2095 1432.69 L90.8993 1434.36 L90.8993 1430.1 L99.1632 1428.44 L103.839 1428.44 L103.839 1459.06 L111.478 1459.06 L111.478 1463 L91.5706 1463 L91.5706 1459.06 Z" fill="#000000" fill-rule="evenodd" fill-opacity="1" /><path clip-path="url(#clip420)" d="M120.922 1457.12 L125.807 1457.12 L125.807 1463 L120.922 1463 L120.922 1457.12 Z" fill="#000000" fill-rule="evenodd" fill-opacity="1" /><path clip-path="url(#clip420)" d="M145.992 1431.51 Q142.381 1431.51 140.552 1435.08 Q138.746 1438.62 138.746 1445.75 Q138.746 1452.86 140.552 1456.42 Q142.381 1459.96 145.992 1459.96 Q149.626 1459.96 151.431 1456.42 Q153.26 1452.86 153.26 1445.75 Q153.26 1438.62 151.431 1435.08 Q149.626 1431.51 145.992 1431.51 M145.992 1427.81 Q151.802 1427.81 154.857 1432.42 Q157.936 1437 157.936 1445.75 Q157.936 1454.48 154.857 1459.08 Q151.802 1463.67 145.992 1463.67 Q140.181 1463.67 137.103 1459.08 Q134.047 1454.48 134.047 1445.75 Q134.047 1437 137.103 1432.42 Q140.181 1427.81 145.992 1427.81 Z" fill="#000000" fill-rule="evenodd" fill-opacity="1" /><path clip-path="url(#clip420)" d="M51.9875 1106.73 L81.6633 1106.73 L81.6633 1110.67 L51.9875 1110.67 L51.9875 1106.73 Z" fill="#000000" fill-rule="evenodd" fill-opacity="1" /><path clip-path="url(#clip420)" d="M101.756 1092.08 Q98.1447 1092.08 96.316 1095.64 Q94.5104 1099.19 94.5104 1106.32 Q94.5104 1113.42 96.316 1116.99 Q98.1447 1120.53 101.756 1120.53 Q105.39 1120.53 107.196 1116.99 Q109.024 1113.42 109.024 1106.32 Q109.024 1099.19 107.196 1095.64 Q105.39 1092.08 101.756 1092.08 M101.756 1088.38 Q107.566 1088.38 110.621 1092.98 Q113.7 1097.57 113.7 1106.32 Q113.7 1115.04 110.621 1119.65 Q107.566 1124.23 101.756 1124.23 Q95.9456 1124.23 92.8669 1119.65 Q89.8114 1115.04 89.8114 1106.32 Q89.8114 1097.57 92.8669 1092.98 Q95.9456 1088.38 101.756 1088.38 Z" fill="#000000" fill-rule="evenodd" fill-opacity="1" /><path clip-path="url(#clip420)" d="M121.918 1117.68 L126.802 1117.68 L126.802 1123.56 L121.918 1123.56 L121.918 1117.68 Z" fill="#000000" fill-rule="evenodd" fill-opacity="1" /><path clip-path="url(#clip420)" d="M137.033 1089 L155.39 1089 L155.39 1092.94 L141.316 1092.94 L141.316 1101.41 Q142.334 1101.06 143.353 1100.9 Q144.371 1100.71 145.39 1100.71 Q151.177 1100.71 154.556 1103.89 Q157.936 1107.06 157.936 1112.47 Q157.936 1118.05 154.464 1121.15 Q150.992 1124.23 144.672 1124.23 Q142.496 1124.23 140.228 1123.86 Q137.982 1123.49 135.575 1122.75 L135.575 1118.05 Q137.658 1119.19 139.881 1119.74 Q142.103 1120.3 144.58 1120.3 Q148.584 1120.3 150.922 1118.19 Q153.26 1116.08 153.26 1112.47 Q153.26 1108.86 150.922 1106.76 Q148.584 1104.65 144.58 1104.65 Q142.705 1104.65 140.83 1105.07 Q138.978 1105.48 137.033 1106.36 L137.033 1089 Z" fill="#000000" fill-rule="evenodd" fill-opacity="1" /><path clip-path="url(#clip420)" d="M100.76 752.645 Q97.1493 752.645 95.3206 756.209 Q93.515 759.751 93.515 766.881 Q93.515 773.987 95.3206 777.552 Q97.1493 781.094 100.76 781.094 Q104.395 781.094 106.2 777.552 Q108.029 773.987 108.029 766.881 Q108.029 759.751 106.2 756.209 Q104.395 752.645 100.76 752.645 M100.76 748.941 Q106.571 748.941 109.626 753.547 Q112.705 758.131 112.705 766.881 Q112.705 775.608 109.626 780.214 Q106.571 784.797 100.76 784.797 Q94.9502 784.797 91.8715 780.214 Q88.816 775.608 88.816 766.881 Q88.816 758.131 91.8715 753.547 Q94.9502 748.941 100.76 748.941 Z" fill="#000000" fill-rule="evenodd" fill-opacity="1" /><path clip-path="url(#clip420)" d="M120.922 778.246 L125.807 778.246 L125.807 784.126 L120.922 784.126 L120.922 778.246 Z" fill="#000000" fill-rule="evenodd" fill-opacity="1" /><path clip-path="url(#clip420)" d="M145.992 752.645 Q142.381 752.645 140.552 756.209 Q138.746 759.751 138.746 766.881 Q138.746 773.987 140.552 777.552 Q142.381 781.094 145.992 781.094 Q149.626 781.094 151.431 777.552 Q153.26 773.987 153.26 766.881 Q153.26 759.751 151.431 756.209 Q149.626 752.645 145.992 752.645 M145.992 748.941 Q151.802 748.941 154.857 753.547 Q157.936 758.131 157.936 766.881 Q157.936 775.608 154.857 780.214 Q151.802 784.797 145.992 784.797 Q140.181 784.797 137.103 780.214 Q134.047 775.608 134.047 766.881 Q134.047 758.131 137.103 753.547 Q140.181 748.941 145.992 748.941 Z" fill="#000000" fill-rule="evenodd" fill-opacity="1" /><path clip-path="url(#clip420)" d="M101.756 413.21 Q98.1447 413.21 96.316 416.775 Q94.5104 420.316 94.5104 427.446 Q94.5104 434.552 96.316 438.117 Q98.1447 441.659 101.756 441.659 Q105.39 441.659 107.196 438.117 Q109.024 434.552 109.024 427.446 Q109.024 420.316 107.196 416.775 Q105.39 413.21 101.756 413.21 M101.756 409.506 Q107.566 409.506 110.621 414.113 Q113.7 418.696 113.7 427.446 Q113.7 436.173 110.621 440.779 Q107.566 445.362 101.756 445.362 Q95.9456 445.362 92.8669 440.779 Q89.8114 436.173 89.8114 427.446 Q89.8114 418.696 92.8669 414.113 Q95.9456 409.506 101.756 409.506 Z" fill="#000000" fill-rule="evenodd" fill-opacity="1" /><path clip-path="url(#clip420)" d="M121.918 438.812 L126.802 438.812 L126.802 444.691 L121.918 444.691 L121.918 438.812 Z" fill="#000000" fill-rule="evenodd" fill-opacity="1" /><path clip-path="url(#clip420)" d="M137.033 410.131 L155.39 410.131 L155.39 414.066 L141.316 414.066 L141.316 422.538 Q142.334 422.191 143.353 422.029 Q144.371 421.844 145.39 421.844 Q151.177 421.844 154.556 425.015 Q157.936 428.187 157.936 433.603 Q157.936 439.182 154.464 442.284 Q150.992 445.362 144.672 445.362 Q142.496 445.362 140.228 444.992 Q137.982 444.622 135.575 443.881 L135.575 439.182 Q137.658 440.316 139.881 440.872 Q142.103 441.427 144.58 441.427 Q148.584 441.427 150.922 439.321 Q153.26 437.214 153.26 433.603 Q153.26 429.992 150.922 427.886 Q148.584 425.779 144.58 425.779 Q142.705 425.779 140.83 426.196 Q138.978 426.613 137.033 427.492 L137.033 410.131 Z" fill="#000000" fill-rule="evenodd" fill-opacity="1" /><path clip-path="url(#clip420)" d="M91.5706 101.321 L99.2095 101.321 L99.2095 74.9555 L90.8993 76.6222 L90.8993 72.3629 L99.1632 70.6963 L103.839 70.6963 L103.839 101.321 L111.478 101.321 L111.478 105.256 L91.5706 105.256 L91.5706 101.321 Z" fill="#000000" fill-rule="evenodd" fill-opacity="1" /><path clip-path="url(#clip420)" d="M120.922 99.3767 L125.807 99.3767 L125.807 105.256 L120.922 105.256 L120.922 99.3767 Z" fill="#000000" fill-rule="evenodd" fill-opacity="1" /><path clip-path="url(#clip420)" d="M145.992 73.775 Q142.381 73.775 140.552 77.3398 Q138.746 80.8814 138.746 88.011 Q138.746 95.1174 140.552 98.6822 Q142.381 102.224 145.992 102.224 Q149.626 102.224 151.431 98.6822 Q153.26 95.1174 153.26 88.011 Q153.26 80.8814 151.431 77.3398 Q149.626 73.775 145.992 73.775 M145.992 70.0713 Q151.802 70.0713 154.857 74.6777 Q157.936 79.261 157.936 88.011 Q157.936 96.7378 154.857 101.344 Q151.802 105.928 145.992 105.928 Q140.181 105.928 137.103 101.344 Q134.047 96.7378 134.047 88.011 Q134.047 79.261 137.103 74.6777 Q140.181 70.0713 145.992 70.0713 Z" fill="#000000" fill-rule="evenodd" fill-opacity="1" /><polyline clip-path="url(#clip422)" style="stroke:#009af9; stroke-linecap:butt; stroke-linejoin:round; stroke-width:4; stroke-opacity:1; fill:none" points="
  255.035,1445.72 268.294,1436.88 390.898,1355.14 464.577,1306.02 526.872,1264.49 594.542,1219.38 656.928,1177.79 723.812,1133.2 801.304,1081.54 870.17,1035.63 
  930.558,995.37 996.398,951.476 1062.63,907.322 1135.86,858.505 1205.53,812.056 1277.98,763.759 1338.96,723.104 1413.41,673.469 1481.62,628 1544.61,586.006 
  1608.42,543.467 1679.93,495.793 1744.73,452.593 1818.92,403.131 1887.62,357.334 1955.34,312.184 2021.1,268.347 2088.51,223.408 2162.36,174.172 2269.65,102.649 
  2291.66,87.9763 
  "/>
<polyline clip-path="url(#clip422)" style="stroke:#e26f46; stroke-linecap:butt; stroke-linejoin:round; stroke-width:4; stroke-opacity:1; fill:none" points="
  255.035,766.846 261.664,752.962 268.294,739.083 298.945,675.162 329.596,612.06 360.247,550.341 390.898,490.556 409.318,455.782 427.737,422.013 446.157,389.357 
  464.577,357.919 480.151,332.365 495.725,307.814 511.299,284.322 526.872,261.944 543.79,238.957 560.707,217.408 577.625,197.355 594.542,178.854 610.139,163.214 
  625.735,148.972 641.332,136.16 656.928,124.808 673.649,114.289 690.37,105.506 707.091,98.4821 723.812,93.2368 743.185,89.4012 762.558,87.9849 781.931,88.9928 
  801.304,92.4214 818.52,97.4902 835.737,104.447 852.953,113.272 870.17,123.94 885.267,134.788 900.364,147.008 915.461,160.572 930.558,175.45 947.018,193.133 
  963.478,212.294 979.938,232.885 996.398,254.853 1012.96,278.283 1029.51,302.988 1046.07,328.903 1062.63,355.96 1080.94,387.12 1099.24,419.491 1117.55,452.97 
  1135.86,487.449 1170.69,555.43 1205.53,625.85 1277.98,776.542 1338.96,903.328 1376.19,978.636 1413.41,1051.15 1430.46,1083.17 1447.51,1114.32 1464.57,1144.5 
  1481.62,1173.64 1497.36,1199.56 1513.11,1224.45 1528.86,1248.26 1544.61,1270.94 1560.56,1292.7 1576.51,1313.18 1592.46,1332.35 1608.42,1350.14 1626.29,1368.4 
  1644.17,1384.83 1662.05,1399.38 1679.93,1412.01 1696.13,1421.76 1712.33,1429.87 1728.53,1436.33 1744.73,1441.11 1763.28,1444.52 1781.83,1445.71 1800.37,1444.68 
  1818.92,1441.43 1836.1,1436.46 1853.27,1429.6 1870.44,1420.88 1887.62,1410.33 1904.55,1398.16 1921.48,1384.26 1938.41,1368.69 1955.34,1351.47 1971.78,1333.22 
  1988.22,1313.52 2004.66,1292.41 2021.1,1269.95 2037.95,1245.59 2054.8,1219.93 2071.66,1193.04 2088.51,1165.01 2106.97,1133.06 2125.44,1099.92 2143.9,1065.7 
  2162.36,1030.51 2216,923.856 2269.65,812.908 2280.65,789.89 2291.66,766.846 
  "/>
<polyline clip-path="url(#clip422)" style="stroke:#3da44d; stroke-linecap:butt; stroke-linejoin:round; stroke-width:4; stroke-opacity:1; fill:none" points="
  255.035,766.846 258.35,752.962 261.664,739.083 264.979,725.216 268.294,711.367 283.62,647.73 298.945,585.158 314.27,524.209 329.596,465.428 337.259,437.015 
  344.921,409.34 352.584,382.464 360.247,356.447 367.91,331.347 375.572,307.22 383.235,284.121 390.898,262.101 400.108,237.131 409.318,213.871 418.527,192.397 
  427.737,172.778 436.947,155.076 446.157,139.349 455.367,125.648 464.577,114.018 472.364,105.827 480.151,99.1621 487.938,94.0382 495.725,90.4671 503.512,88.4572 
  511.299,88.013 519.085,89.1356 526.872,91.8224 535.331,96.5061 543.79,103.015 552.249,111.333 560.707,121.435 569.166,133.295 577.625,146.881 586.084,162.155 
  594.542,179.075 602.341,196.094 610.139,214.434 617.937,234.053 625.735,254.904 633.533,276.941 641.332,300.112 649.13,324.363 656.928,349.639 665.289,377.808 
  673.649,407.012 682.01,437.174 690.37,468.212 707.091,532.588 723.812,599.456 762.558,760.009 801.304,920.951 818.52,990.183 835.737,1056.9 844.345,1089.07 
  852.953,1120.34 861.561,1150.61 870.17,1179.8 877.718,1204.44 885.267,1228.13 892.815,1250.82 900.364,1272.46 907.913,1293 915.461,1312.41 923.01,1330.63 
  930.558,1347.62 938.788,1364.72 947.018,1380.27 955.248,1394.24 963.478,1406.59 971.708,1417.3 979.938,1426.32 988.168,1433.65 996.398,1439.26 1004.68,1443.15 
  1012.96,1445.28 1021.24,1445.64 1029.51,1444.22 1037.79,1441.04 1046.07,1436.1 1054.35,1429.42 1062.63,1421.01 1071.78,1409.72 1080.94,1396.38 1090.09,1381.03 
  1099.24,1363.73 1108.4,1344.52 1117.55,1323.47 1126.7,1300.65 1135.86,1276.12 1144.57,1251.27 1153.28,1225.03 1161.98,1197.46 1170.69,1168.65 1179.4,1138.68 
  1188.11,1107.64 1196.82,1075.61 1205.53,1042.69 1223.64,971.795 1241.75,898.343 1259.86,823.251 1277.98,747.455 1293.22,683.8 1308.47,620.88 1323.71,559.25 
  1338.96,499.456 1348.27,464.084 1357.57,429.71 1366.88,396.448 1376.19,364.407 1385.49,333.692 1394.8,304.406 1404.11,276.644 1413.41,250.498 1421.94,228.038 
  1430.46,207.069 1438.99,187.649 1447.51,169.831 1456.04,153.665 1464.57,139.195 1473.09,126.462 1481.62,115.5 1489.49,106.976 1497.36,100.009 1505.24,94.6161 
  1513.11,90.8094 1520.99,88.5982 1528.86,87.9876 1536.73,88.9791 1544.61,91.5702 1552.58,95.8197 1560.56,101.694 1568.54,109.179 1576.51,118.257 1584.49,128.905 
  1592.46,141.098 1600.44,154.806 1608.42,169.996 1617.36,188.736 1626.29,209.234 1635.23,231.428 1644.17,255.25 1653.11,280.628 1662.05,307.485 1670.99,335.739 
  1679.93,365.304 1688.03,393.152 1696.13,421.933 1704.23,451.576 1712.33,482.006 1728.53,544.922 1744.73,610.053 1781.83,764.013 1818.92,918.12 1836.1,987.269 
  1853.27,1053.95 1861.86,1086.12 1870.44,1117.4 1879.03,1147.7 1887.62,1176.92 1896.08,1204.61 1904.55,1231.11 1913.01,1256.33 1921.48,1280.23 1929.95,1302.72 
  1938.41,1323.75 1946.88,1343.26 1955.34,1361.2 1963.56,1377.06 1971.78,1391.36 1980,1404.05 1988.22,1415.1 1996.44,1424.49 2004.66,1432.18 2012.88,1438.16 
  2021.1,1442.42 2029.53,1444.98 2037.95,1445.71 2046.38,1444.6 2054.8,1441.66 2063.23,1436.9 2071.66,1430.32 2080.08,1421.96 2088.51,1411.82 2097.74,1398.72 
  2106.97,1383.56 2116.2,1366.41 2125.44,1347.3 2134.67,1326.32 2143.9,1303.52 2153.13,1278.98 2162.36,1252.78 2175.77,1211.94 2189.18,1168.05 2202.59,1121.41 
  2216,1072.35 2229.42,1021.2 2242.83,968.307 2256.24,914.036 2269.65,858.757 2275.15,835.872 2280.65,812.908 2286.15,789.89 2291.66,766.846 
  "/>
<polyline clip-path="url(#clip422)" style="stroke:#c271d2; stroke-linecap:butt; stroke-linejoin:round; stroke-width:4; stroke-opacity:1; fill:none" points="
  255.035,766.846 258.35,746.021 261.664,725.216 264.979,704.451 268.294,683.743 283.62,589.33 298.945,498.483 306.608,454.97 314.27,413.025 321.933,372.86 
  329.596,334.675 337.259,298.663 344.921,265.004 352.584,233.869 360.247,205.413 367.91,179.78 375.572,157.099 383.235,137.483 390.898,121.032 395.503,112.702 
  400.108,105.561 404.713,99.6206 409.318,94.8922 413.923,91.3842 418.527,89.103 423.132,88.0527 427.737,88.2352 432.342,89.6503 436.947,92.2952 441.552,96.1654 
  446.157,101.254 450.762,107.551 455.367,115.045 459.972,123.724 464.577,133.57 472.364,152.826 480.151,175.271 487.938,200.787 495.725,229.241 503.512,260.487 
  511.299,294.362 519.085,330.69 526.872,369.282 535.331,413.536 543.79,459.954 552.249,508.253 560.707,558.135 577.625,661.423 594.542,767.289 610.139,864.939 
  625.735,960.549 633.533,1006.96 641.332,1052.13 649.13,1095.81 656.928,1137.78 665.289,1180.62 673.649,1220.98 682.01,1258.63 690.37,1293.34 698.731,1324.89 
  707.091,1353.1 715.452,1377.81 723.812,1398.86 728.655,1409.33 733.499,1418.51 738.342,1426.38 743.185,1432.93 748.028,1438.13 752.872,1441.99 757.715,1444.5 
  762.558,1445.64 767.401,1445.42 772.245,1443.83 777.088,1440.88 781.931,1436.59 786.774,1430.94 791.617,1423.96 796.461,1415.66 801.304,1406.06 805.608,1396.45 
  809.912,1385.83 814.216,1374.24 818.52,1361.68 822.824,1348.18 827.129,1333.76 831.433,1318.44 835.737,1302.24 844.345,1267.32 852.953,1229.23 861.561,1188.2 
  870.17,1144.5 877.718,1104.2 885.267,1062.25 892.815,1018.86 900.364,974.244 915.461,882.193 930.558,787.894 947.018,684.679 963.478,583.367 971.708,534.161 
  979.938,486.304 988.168,440.075 996.398,395.741 1004.68,353.315 1012.96,313.315 1021.24,275.978 1029.51,241.52 1037.79,210.146 1046.07,182.038 1054.35,157.363 
  1062.63,136.264 1067.21,126.181 1071.78,117.248 1076.36,109.48 1080.94,102.892 1085.51,97.4943 1090.09,93.2978 1094.67,90.3095 1099.24,88.535 1103.82,87.9774 
  1108.4,88.6376 1112.97,90.5146 1117.55,93.6049 1122.13,97.9029 1126.7,103.401 1131.28,110.09 1135.86,117.956 1140.21,126.522 1144.57,136.128 1148.92,146.758 
  1153.28,158.395 1157.63,171.021 1161.98,184.614 1166.34,199.153 1170.69,214.614 1179.4,248.2 1188.11,285.154 1192.47,304.819 1196.82,325.236 1201.18,346.369 
  1205.53,368.185 1214.59,415.584 1223.64,465.449 1232.7,517.43 1241.75,571.162 1259.86,682.36 1277.98,795.927 1293.22,891.024 1308.47,983.653 1316.09,1028.46 
  1323.71,1071.97 1331.34,1113.96 1338.96,1154.23 1343.61,1177.87 1348.27,1200.75 1352.92,1222.83 1357.57,1244.06 1362.23,1264.4 1366.88,1283.83 1371.53,1302.29 
  1376.19,1319.76 1380.84,1336.21 1385.49,1351.6 1390.15,1365.9 1394.8,1379.1 1399.45,1391.16 1404.11,1402.06 1408.76,1411.78 1413.41,1420.31 1417.67,1427.06 
  1421.94,1432.78 1426.2,1437.46 1430.46,1441.1 1434.73,1443.69 1438.99,1445.23 1443.25,1445.71 1447.51,1445.14 1451.78,1443.51 1456.04,1440.83 1460.3,1437.09 
  1464.57,1432.32 1468.83,1426.51 1473.09,1419.67 1477.35,1411.82 1481.62,1402.96 1489.49,1384.01 1497.36,1361.78 1505.24,1336.39 1513.11,1307.98 1520.99,1276.69 
  1528.86,1242.7 1536.73,1206.19 1544.61,1167.34 1552.58,1125.82 1560.56,1082.34 1568.54,1037.15 1576.51,990.486 1592.46,893.761 1608.42,794.275 1626.29,682.174 
  1644.17,572.387 1653.11,519.302 1662.05,467.911 1670.99,418.564 1679.93,371.601 1688.03,331.371 1696.13,293.587 1704.23,258.462 1712.33,226.193 1720.43,196.961 
  1728.53,170.931 1736.63,148.248 1744.73,129.041 1749.37,119.652 1754,111.455 1758.64,104.464 1763.28,98.6941 1767.91,94.1542 1772.55,90.8532 1777.19,88.797 
  1781.83,87.9896 1786.46,88.4323 1791.1,90.1244 1795.74,93.0628 1800.37,97.242 1805.01,102.654 1809.65,109.29 1814.28,117.136 1818.92,126.179 1823.21,135.605 
  1827.51,146.027 1831.8,157.429 1836.1,169.793 1840.39,183.101 1844.68,197.329 1848.98,212.457 1853.27,228.46 1861.86,262.99 1870.44,300.701 1879.03,341.355 
  1887.62,384.694 1896.08,429.785 1904.55,476.944 1913.01,525.882 1921.48,576.298 1938.41,680.322 1955.34,786.467 1971.78,889.088 1988.22,988.885 1996.44,1037 
  2004.66,1083.55 2012.88,1128.27 2021.1,1170.9 2029.53,1212.17 2037.95,1250.74 2046.38,1286.36 2054.8,1318.83 2059.02,1333.82 2063.23,1347.94 2067.44,1361.18 
  2071.66,1373.52 2075.87,1384.93 2080.08,1395.41 2084.3,1404.93 2088.51,1413.48 2093.12,1421.72 2097.74,1428.76 2102.36,1434.6 2106.97,1439.21 2111.59,1442.6 
  2116.2,1444.76 2120.82,1445.68 2125.44,1445.36 2130.05,1443.8 2134.67,1441.01 2139.28,1436.99 2143.9,1431.74 2148.51,1425.28 2153.13,1417.62 2157.75,1408.77 
  2162.36,1398.75 2169.07,1382.15 2175.77,1363.18 2182.48,1341.91 2189.18,1318.43 2195.89,1292.82 2202.59,1265.19 2209.3,1235.64 2216,1204.28 2222.71,1171.24 
  2229.42,1136.65 2236.12,1100.63 2242.83,1063.32 2256.24,985.433 2269.65,904.182 2275.15,870.161 2280.65,835.872 2286.15,801.404 2291.66,766.846 
  "/>
<polyline clip-path="url(#clip422)" style="stroke:#ac8d18; stroke-linecap:butt; stroke-linejoin:round; stroke-width:4; stroke-opacity:1; fill:none" points="
  255.035,766.846 258.35,739.083 261.664,711.367 264.979,683.743 268.294,656.259 275.957,593.51 283.62,532.31 291.282,473.206 298.945,416.725 302.776,389.628 
  306.608,363.373 310.439,338.02 314.27,313.626 318.102,290.244 321.933,267.928 325.765,246.727 329.596,226.689 333.427,207.857 337.259,190.275 341.09,173.982 
  344.921,159.014 348.753,145.404 352.584,133.183 356.415,122.378 360.247,113.014 364.078,105.111 367.91,98.6876 371.741,93.7571 375.572,90.331 379.404,88.417 
  383.235,88.0192 387.066,89.1386 390.898,91.7728 395.503,96.9346 400.108,104.259 404.713,113.723 409.318,125.295 413.923,138.939 418.527,154.609 423.132,172.257 
  427.737,191.824 432.342,213.247 436.947,236.457 441.552,261.38 446.157,287.935 450.762,316.036 455.367,345.593 459.972,376.509 464.577,408.686 472.364,465.67 
  480.151,525.433 487.938,587.424 495.725,651.07 511.299,780.97 526.872,910.35 535.331,978.705 543.79,1044.75 548.019,1076.69 552.249,1107.78 556.478,1137.94 
  560.707,1167.09 564.937,1195.15 569.166,1222.04 573.395,1247.7 577.625,1272.04 581.854,1295.01 586.084,1316.54 590.313,1336.58 594.542,1355.06 598.441,1370.68 
  602.341,1384.9 606.24,1397.7 610.139,1409.03 614.038,1418.87 617.937,1427.21 621.836,1434.02 625.735,1439.28 629.634,1442.99 633.533,1445.13 637.433,1445.7 
  641.332,1444.7 645.231,1442.13 649.13,1438 653.029,1432.32 656.928,1425.09 661.108,1415.65 665.289,1404.49 669.469,1391.62 673.649,1377.1 677.829,1360.95 
  682.01,1343.23 686.19,1323.96 690.37,1303.22 694.55,1281.05 698.731,1257.51 702.911,1232.67 707.091,1206.58 711.271,1179.33 715.452,1150.98 719.632,1121.61 
  723.812,1091.29 728.655,1055.09 733.499,1017.86 738.342,979.738 743.185,940.854 752.872,861.361 762.558,780.519 772.245,699.483 781.931,619.407 791.617,541.436 
  801.304,466.682 805.608,434.779 809.912,403.812 814.216,373.87 818.52,345.036 822.824,317.391 827.129,291.014 831.433,265.98 835.737,242.358 840.041,220.215 
  844.345,199.614 848.649,180.613 852.953,163.265 857.257,147.62 861.561,133.721 865.865,121.608 870.17,111.314 873.944,103.809 877.718,97.7414 881.492,93.1252 
  885.267,89.9703 889.041,88.2835 892.815,88.0686 896.59,89.3258 900.364,92.0526 904.138,96.243 907.913,101.888 911.687,108.975 915.461,117.489 919.235,127.412 
  923.01,138.721 926.784,151.393 930.558,165.4 934.673,182.156 938.788,200.42 942.903,220.144 947.018,241.278 951.133,263.767 955.248,287.552 959.363,312.574 
  963.478,338.766 967.593,366.062 971.708,394.392 975.823,423.681 979.938,453.856 988.168,516.546 996.398,581.815 1012.96,718.199 1029.51,856.608 1037.79,924.768 
  1046.07,991.282 1054.35,1055.45 1062.63,1116.62 1067.21,1148.9 1071.78,1179.97 1076.36,1209.72 1080.94,1238.06 1085.51,1264.89 1090.09,1290.14 1094.67,1313.72 
  1099.24,1335.55 1103.82,1355.57 1108.4,1373.71 1112.97,1389.92 1117.55,1404.14 1122.13,1416.33 1126.7,1426.45 1131.28,1434.46 1135.86,1440.34 1140.21,1443.95 
  1144.57,1445.6 1148.92,1445.29 1153.28,1443.02 1157.63,1438.8 1161.98,1432.64 1166.34,1424.56 1170.69,1414.58 1175.05,1402.73 1179.4,1389.04 1183.76,1373.56 
  1188.11,1356.32 1192.47,1337.39 1196.82,1316.8 1201.18,1294.63 1205.53,1270.94 1210.06,1244.76 1214.59,1217.09 1219.11,1188.01 1223.64,1157.62 1228.17,1126.01 
  1232.7,1093.27 1237.23,1059.52 1241.75,1024.86 1250.81,953.225 1259.86,879.266 1268.92,803.904 1277.98,728.08 1285.6,664.589 1293.22,602.002 1300.84,540.873 
  1308.47,481.741 1312.28,453.089 1316.09,425.131 1319.9,397.929 1323.71,371.543 1327.52,346.031 1331.34,321.45 1335.15,297.854 1338.96,275.295 1343.61,249.232 
  1348.27,224.876 1352.92,202.306 1357.57,181.597 1362.23,162.818 1366.88,146.03 1371.53,131.288 1376.19,118.642 1380.84,108.133 1385.49,99.7947 1390.15,93.6558 
  1394.8,89.7361 1399.45,88.0486 1404.11,88.5988 1408.76,91.385 1413.41,96.3978 1417.67,102.93 1421.94,111.299 1426.2,121.482 1430.46,133.45 1434.73,147.171 
  1438.99,162.605 1443.25,179.712 1447.51,198.443 1451.78,218.746 1456.04,240.566 1460.3,263.841 1464.57,288.509 1468.83,314.499 1473.09,341.741 1477.35,370.159 
  1481.62,399.675 1489.49,456.803 1497.36,516.856 1505.24,579.268 1513.11,643.449 1528.86,774.688 1544.61,905.631 1552.58,970.262 1560.56,1032.92 1568.54,1093.01 
  1576.51,1149.94 1580.5,1177.05 1584.49,1203.16 1588.48,1228.22 1592.46,1252.16 1596.45,1274.92 1600.44,1296.46 1604.43,1316.71 1608.42,1335.63 1612.89,1355.19 
  1617.36,1372.97 1621.82,1388.9 1626.29,1402.94 1630.76,1415.05 1635.23,1425.19 1639.7,1433.32 1644.17,1439.42 1648.64,1443.48 1653.11,1445.49 1657.58,1445.43 
  1662.05,1443.3 1666.52,1439.12 1670.99,1432.89 1675.46,1424.64 1679.93,1414.38 1683.98,1403.39 1688.03,1390.81 1692.08,1376.67 1696.13,1361 1700.18,1343.86 
  1704.23,1325.27 1708.28,1305.28 1712.33,1283.96 1716.38,1261.34 1720.43,1237.48 1724.48,1212.45 1728.53,1186.31 1732.58,1159.12 1736.63,1130.95 1740.68,1101.87 
  1744.73,1071.95 1754,1000.7 1763.28,926.394 1772.55,849.997 1781.83,772.513 1791.1,694.954 1800.37,618.336 1809.65,543.661 1818.92,471.906 1823.21,439.938 
  1827.51,408.888 1831.8,378.842 1836.1,349.885 1840.39,322.099 1844.68,295.561 1848.98,270.345 1853.27,246.523 1857.56,224.161 1861.86,203.323 1866.15,184.066 
  1870.44,166.444 1874.74,150.508 1879.03,136.301 1883.32,123.864 1887.62,113.232 1891.85,104.545 1896.08,97.6656 1900.32,92.6112 1904.55,89.396 1908.78,88.0289 
  1913.01,88.5135 1917.25,90.8486 1921.48,95.0277 1925.71,101.039 1929.95,108.868 1934.18,118.49 1938.41,129.882 1942.64,143.011 1946.88,157.842 1951.11,174.335 
  1955.34,192.443 1959.45,211.525 1963.56,232.034 1967.67,253.92 1971.78,277.124 1975.89,301.587 1980,327.247 1984.11,354.037 1988.22,381.889 1996.44,440.489 
  2004.66,502.443 2012.88,567.115 2021.1,633.841 2037.95,774.154 2054.8,914.153 2063.23,982.141 2071.66,1047.8 2080.08,1110.43 2088.51,1169.35 2093.12,1199.82 
  2097.74,1228.88 2102.36,1256.45 2106.97,1282.43 2111.59,1306.73 2116.2,1329.29 2120.82,1350.02 2125.44,1368.86 2130.05,1385.75 2134.67,1400.62 2139.28,1413.45 
  2143.9,1424.17 2148.51,1432.77 2153.13,1439.2 2157.75,1443.45 2162.36,1445.51 2165.71,1445.62 2169.07,1444.57 2172.42,1442.37 2175.77,1439 2179.13,1434.49 
  2182.48,1428.83 2185.83,1422.04 2189.18,1414.13 2192.54,1405.11 2195.89,1395 2199.24,1383.82 2202.59,1371.57 2205.95,1358.3 2209.3,1344.01 2212.65,1328.73 
  2216,1312.49 2219.36,1295.32 2222.71,1277.24 2226.06,1258.29 2229.42,1238.5 2236.12,1196.53 2242.83,1151.62 2249.53,1104.07 2256.24,1054.22 2262.94,1002.4 
  2269.65,948.975 2275.15,904.182 2280.65,858.757 2286.15,812.908 2291.66,766.846 
  "/>
<path clip-path="url(#clip420)" d="
M1934.86 406.258 L2280.8 406.258 L2280.8 95.2176 L1934.86 95.2176  Z
  " fill="#ffffff" fill-rule="evenodd" fill-opacity="1"/>
<polyline clip-path="url(#clip420)" style="stroke:#000000; stroke-linecap:butt; stroke-linejoin:round; stroke-width:4; stroke-opacity:1; fill:none" points="
  1934.86,406.258 2280.8,406.258 2280.8,95.2176 1934.86,95.2176 1934.86,406.258 
  "/>
<polyline clip-path="url(#clip420)" style="stroke:#009af9; stroke-linecap:butt; stroke-linejoin:round; stroke-width:4; stroke-opacity:1; fill:none" points="
  1958.85,147.058 2102.77,147.058 
  "/>
<path clip-path="url(#clip420)" d="M2140.6 166.745 Q2138.79 171.375 2137.08 172.787 Q2135.37 174.199 2132.5 174.199 L2129.1 174.199 L2129.1 170.634 L2131.6 170.634 Q2133.35 170.634 2134.33 169.8 Q2135.3 168.967 2136.48 165.865 L2137.24 163.921 L2126.76 138.412 L2131.27 138.412 L2139.37 158.689 L2147.47 138.412 L2151.99 138.412 L2140.6 166.745 Z" fill="#000000" fill-rule="evenodd" fill-opacity="1" /><path clip-path="url(#clip420)" d="M2159.28 160.402 L2166.92 160.402 L2166.92 134.037 L2158.61 135.703 L2158.61 131.444 L2166.87 129.778 L2171.55 129.778 L2171.55 160.402 L2179.19 160.402 L2179.19 164.338 L2159.28 164.338 L2159.28 160.402 Z" fill="#000000" fill-rule="evenodd" fill-opacity="1" /><polyline clip-path="url(#clip420)" style="stroke:#e26f46; stroke-linecap:butt; stroke-linejoin:round; stroke-width:4; stroke-opacity:1; fill:none" points="
  1958.85,198.898 2102.77,198.898 
  "/>
<path clip-path="url(#clip420)" d="M2126.76 190.252 L2131.02 190.252 L2131.02 216.178 L2126.76 216.178 L2126.76 190.252 M2126.76 180.159 L2131.02 180.159 L2131.02 185.553 L2126.76 185.553 L2126.76 180.159 Z" fill="#000000" fill-rule="evenodd" fill-opacity="1" /><path clip-path="url(#clip420)" d="M2155.55 194.65 L2185.23 194.65 L2185.23 198.539 L2155.55 198.539 L2155.55 194.65 M2155.55 204.094 L2185.23 204.094 L2185.23 208.029 L2155.55 208.029 L2155.55 204.094 Z" fill="#000000" fill-rule="evenodd" fill-opacity="1" /><path clip-path="url(#clip420)" d="M2211.2 212.242 L2218.84 212.242 L2218.84 185.877 L2210.53 187.543 L2210.53 183.284 L2218.79 181.618 L2223.47 181.618 L2223.47 212.242 L2231.11 212.242 L2231.11 216.178 L2211.2 216.178 L2211.2 212.242 Z" fill="#000000" fill-rule="evenodd" fill-opacity="1" /><polyline clip-path="url(#clip420)" style="stroke:#3da44d; stroke-linecap:butt; stroke-linejoin:round; stroke-width:4; stroke-opacity:1; fill:none" points="
  1958.85,250.738 2102.77,250.738 
  "/>
<path clip-path="url(#clip420)" d="M2126.76 242.092 L2131.02 242.092 L2131.02 268.018 L2126.76 268.018 L2126.76 242.092 M2126.76 231.999 L2131.02 231.999 L2131.02 237.393 L2126.76 237.393 L2126.76 231.999 Z" fill="#000000" fill-rule="evenodd" fill-opacity="1" /><path clip-path="url(#clip420)" d="M2155.55 246.49 L2185.23 246.49 L2185.23 250.379 L2155.55 250.379 L2155.55 246.49 M2155.55 255.934 L2185.23 255.934 L2185.23 259.869 L2155.55 259.869 L2155.55 255.934 Z" fill="#000000" fill-rule="evenodd" fill-opacity="1" /><path clip-path="url(#clip420)" d="M2214.42 264.082 L2230.74 264.082 L2230.74 268.018 L2208.79 268.018 L2208.79 264.082 Q2211.46 261.328 2216.04 256.698 Q2220.65 252.045 2221.83 250.703 Q2224.07 248.18 2224.95 246.444 Q2225.85 244.684 2225.85 242.995 Q2225.85 240.24 2223.91 238.504 Q2221.99 236.768 2218.89 236.768 Q2216.69 236.768 2214.23 237.532 Q2211.8 238.295 2209.03 239.846 L2209.03 235.124 Q2211.85 233.99 2214.3 233.411 Q2216.76 232.833 2218.79 232.833 Q2224.16 232.833 2227.36 235.518 Q2230.55 238.203 2230.55 242.694 Q2230.55 244.823 2229.74 246.745 Q2228.96 248.643 2226.85 251.235 Q2226.27 251.907 2223.17 255.124 Q2220.07 258.319 2214.42 264.082 Z" fill="#000000" fill-rule="evenodd" fill-opacity="1" /><polyline clip-path="url(#clip420)" style="stroke:#c271d2; stroke-linecap:butt; stroke-linejoin:round; stroke-width:4; stroke-opacity:1; fill:none" points="
  1958.85,302.578 2102.77,302.578 
  "/>
<path clip-path="url(#clip420)" d="M2126.76 293.932 L2131.02 293.932 L2131.02 319.858 L2126.76 319.858 L2126.76 293.932 M2126.76 283.839 L2131.02 283.839 L2131.02 289.233 L2126.76 289.233 L2126.76 283.839 Z" fill="#000000" fill-rule="evenodd" fill-opacity="1" /><path clip-path="url(#clip420)" d="M2155.55 298.33 L2185.23 298.33 L2185.23 302.219 L2155.55 302.219 L2155.55 298.33 M2155.55 307.774 L2185.23 307.774 L2185.23 311.709 L2155.55 311.709 L2155.55 307.774 Z" fill="#000000" fill-rule="evenodd" fill-opacity="1" /><path clip-path="url(#clip420)" d="M2224.56 301.223 Q2227.91 301.941 2229.79 304.209 Q2231.69 306.478 2231.69 309.811 Q2231.69 314.927 2228.17 317.728 Q2224.65 320.529 2218.17 320.529 Q2215.99 320.529 2213.68 320.089 Q2211.39 319.672 2208.93 318.816 L2208.93 314.302 Q2210.88 315.436 2213.19 316.015 Q2215.51 316.594 2218.03 316.594 Q2222.43 316.594 2224.72 314.858 Q2227.03 313.121 2227.03 309.811 Q2227.03 306.756 2224.88 305.043 Q2222.75 303.307 2218.93 303.307 L2214.9 303.307 L2214.9 299.464 L2219.12 299.464 Q2222.57 299.464 2224.4 298.098 Q2226.22 296.71 2226.22 294.117 Q2226.22 291.455 2224.33 290.043 Q2222.45 288.608 2218.93 288.608 Q2217.01 288.608 2214.81 289.024 Q2212.61 289.441 2209.97 290.321 L2209.97 286.154 Q2212.64 285.413 2214.95 285.043 Q2217.29 284.673 2219.35 284.673 Q2224.67 284.673 2227.78 287.103 Q2230.88 289.51 2230.88 293.631 Q2230.88 296.501 2229.23 298.492 Q2227.59 300.46 2224.56 301.223 Z" fill="#000000" fill-rule="evenodd" fill-opacity="1" /><polyline clip-path="url(#clip420)" style="stroke:#ac8d18; stroke-linecap:butt; stroke-linejoin:round; stroke-width:4; stroke-opacity:1; fill:none" points="
  1958.85,354.418 2102.77,354.418 
  "/>
<path clip-path="url(#clip420)" d="M2126.76 345.772 L2131.02 345.772 L2131.02 371.698 L2126.76 371.698 L2126.76 345.772 M2126.76 335.679 L2131.02 335.679 L2131.02 341.073 L2126.76 341.073 L2126.76 335.679 Z" fill="#000000" fill-rule="evenodd" fill-opacity="1" /><path clip-path="url(#clip420)" d="M2155.55 350.17 L2185.23 350.17 L2185.23 354.059 L2155.55 354.059 L2155.55 350.17 M2155.55 359.614 L2185.23 359.614 L2185.23 363.549 L2155.55 363.549 L2155.55 359.614 Z" fill="#000000" fill-rule="evenodd" fill-opacity="1" /><path clip-path="url(#clip420)" d="M2223.24 341.212 L2211.43 359.661 L2223.24 359.661 L2223.24 341.212 M2222.01 337.138 L2227.89 337.138 L2227.89 359.661 L2232.82 359.661 L2232.82 363.549 L2227.89 363.549 L2227.89 371.698 L2223.24 371.698 L2223.24 363.549 L2207.64 363.549 L2207.64 359.036 L2222.01 337.138 Z" fill="#000000" fill-rule="evenodd" fill-opacity="1" /></svg>
