<?xml version="1.0" encoding="utf-8"?>
<svg xmlns="http://www.w3.org/2000/svg" xmlns:xlink="http://www.w3.org/1999/xlink" width="600" height="400" viewBox="0 0 2400 1600">
<defs>
  <clipPath id="clip140">
    <rect x="0" y="0" width="2400" height="1600"/>
  </clipPath>
</defs>
<path clip-path="url(#clip140)" d="
M0 1600 L2400 1600 L2400 0 L0 0  Z
  " fill="#ffffff" fill-rule="evenodd" fill-opacity="1"/>
<defs>
  <clipPath id="clip141">
    <rect x="480" y="0" width="1681" height="1600"/>
  </clipPath>
</defs>
<path clip-path="url(#clip140)" d="
M156.112 1486.45 L2352.76 1486.45 L2352.76 47.2441 L156.112 47.2441  Z
  " fill="#ffffff" fill-rule="evenodd" fill-opacity="1"/>
<defs>
  <clipPath id="clip142">
    <rect x="156" y="47" width="2198" height="1440"/>
  </clipPath>
</defs>
<polyline clip-path="url(#clip142)" style="stroke:#000000; stroke-linecap:butt; stroke-linejoin:round; stroke-width:2; stroke-opacity:0.1; fill:none" points="
  218.281,1486.45 218.281,47.2441 
  "/>
<polyline clip-path="url(#clip142)" style="stroke:#000000; stroke-linecap:butt; stroke-linejoin:round; stroke-width:2; stroke-opacity:0.1; fill:none" points="
  909.05,1486.45 909.05,47.2441 
  "/>
<polyline clip-path="url(#clip142)" style="stroke:#000000; stroke-linecap:butt; stroke-linejoin:round; stroke-width:2; stroke-opacity:0.1; fill:none" points="
  1599.82,1486.45 1599.82,47.2441 
  "/>
<polyline clip-path="url(#clip142)" style="stroke:#000000; stroke-linecap:butt; stroke-linejoin:round; stroke-width:2; stroke-opacity:0.1; fill:none" points="
  2290.59,1486.45 2290.59,47.2441 
  "/>
<polyline clip-path="url(#clip140)" style="stroke:#000000; stroke-linecap:butt; stroke-linejoin:round; stroke-width:4; stroke-opacity:1; fill:none" points="
  156.112,1486.45 2352.76,1486.45 
  "/>
<polyline clip-path="url(#clip140)" style="stroke:#000000; stroke-linecap:butt; stroke-linejoin:round; stroke-width:4; stroke-opacity:1; fill:none" points="
  218.281,1486.45 218.281,1467.55 
  "/>
<polyline clip-path="url(#clip140)" style="stroke:#000000; stroke-linecap:butt; stroke-linejoin:round; stroke-width:4; stroke-opacity:1; fill:none" points="
  909.05,1486.45 909.05,1467.55 
  "/>
<polyline clip-path="url(#clip140)" style="stroke:#000000; stroke-linecap:butt; stroke-linejoin:round; stroke-width:4; stroke-opacity:1; fill:none" points="
  1599.82,1486.45 1599.82,1467.55 
  "/>
<polyline clip-path="url(#clip140)" style="stroke:#000000; stroke-linecap:butt; stroke-linejoin:round; stroke-width:4; stroke-opacity:1; fill:none" points="
  2290.59,1486.45 2290.59,1467.55 
  "/>
<path clip-path="url(#clip140)" d="M218.281 1517.37 Q214.67 1517.37 212.842 1520.93 Q211.036 1524.47 211.036 1531.6 Q211.036 1538.71 212.842 1542.27 Q214.67 1545.82 218.281 1545.82 Q221.916 1545.82 223.721 1542.27 Q225.55 1538.71 225.55 1531.6 Q225.55 1524.47 223.721 1520.93 Q221.916 1517.37 218.281 1517.37 M218.281 1513.66 Q224.091 1513.66 227.147 1518.27 Q230.226 1522.85 230.226 1531.6 Q230.226 1540.33 227.147 1544.94 Q224.091 1549.52 218.281 1549.52 Q212.471 1549.52 209.392 1544.94 Q206.337 1540.33 206.337 1531.6 Q206.337 1522.85 209.392 1518.27 Q212.471 1513.66 218.281 1513.66 Z" fill="#000000" fill-rule="evenodd" fill-opacity="1" /><path clip-path="url(#clip140)" d="M899.432 1544.91 L907.071 1544.91 L907.071 1518.55 L898.76 1520.21 L898.76 1515.95 L907.024 1514.29 L911.7 1514.29 L911.7 1544.91 L919.339 1544.91 L919.339 1548.85 L899.432 1548.85 L899.432 1544.91 Z" fill="#000000" fill-rule="evenodd" fill-opacity="1" /><path clip-path="url(#clip140)" d="M1594.47 1544.91 L1610.79 1544.91 L1610.79 1548.85 L1588.85 1548.85 L1588.85 1544.91 Q1591.51 1542.16 1596.09 1537.53 Q1600.7 1532.88 1601.88 1531.53 Q1604.12 1529.01 1605 1527.27 Q1605.91 1525.51 1605.91 1523.82 Q1605.91 1521.07 1603.96 1519.33 Q1602.04 1517.6 1598.94 1517.6 Q1596.74 1517.6 1594.29 1518.36 Q1591.86 1519.13 1589.08 1520.68 L1589.08 1515.95 Q1591.9 1514.82 1594.36 1514.24 Q1596.81 1513.66 1598.85 1513.66 Q1604.22 1513.66 1607.41 1516.35 Q1610.61 1519.03 1610.61 1523.52 Q1610.61 1525.65 1609.8 1527.57 Q1609.01 1529.47 1606.9 1532.07 Q1606.32 1532.74 1603.22 1535.95 Q1600.12 1539.15 1594.47 1544.91 Z" fill="#000000" fill-rule="evenodd" fill-opacity="1" /><path clip-path="url(#clip140)" d="M2294.83 1530.21 Q2298.19 1530.93 2300.07 1533.2 Q2301.96 1535.47 2301.96 1538.8 Q2301.96 1543.92 2298.45 1546.72 Q2294.93 1549.52 2288.45 1549.52 Q2286.27 1549.52 2283.95 1549.08 Q2281.66 1548.66 2279.21 1547.81 L2279.21 1543.29 Q2281.15 1544.43 2283.47 1545.01 Q2285.78 1545.58 2288.31 1545.58 Q2292.7 1545.58 2295 1543.85 Q2297.31 1542.11 2297.31 1538.8 Q2297.31 1535.75 2295.16 1534.03 Q2293.03 1532.3 2289.21 1532.3 L2285.18 1532.3 L2285.18 1528.45 L2289.39 1528.45 Q2292.84 1528.45 2294.67 1527.09 Q2296.5 1525.7 2296.5 1523.11 Q2296.5 1520.45 2294.6 1519.03 Q2292.73 1517.6 2289.21 1517.6 Q2287.29 1517.6 2285.09 1518.01 Q2282.89 1518.43 2280.25 1519.31 L2280.25 1515.14 Q2282.91 1514.4 2285.23 1514.03 Q2287.57 1513.66 2289.63 1513.66 Q2294.95 1513.66 2298.05 1516.09 Q2301.15 1518.5 2301.15 1522.62 Q2301.15 1525.49 2299.51 1527.48 Q2297.87 1529.45 2294.83 1530.21 Z" fill="#000000" fill-rule="evenodd" fill-opacity="1" /><polyline clip-path="url(#clip142)" style="stroke:#000000; stroke-linecap:butt; stroke-linejoin:round; stroke-width:2; stroke-opacity:0.1; fill:none" points="
  156.112,1445.72 2352.76,1445.72 
  "/>
<polyline clip-path="url(#clip142)" style="stroke:#000000; stroke-linecap:butt; stroke-linejoin:round; stroke-width:2; stroke-opacity:0.1; fill:none" points="
  156.112,1106.28 2352.76,1106.28 
  "/>
<polyline clip-path="url(#clip142)" style="stroke:#000000; stroke-linecap:butt; stroke-linejoin:round; stroke-width:2; stroke-opacity:0.1; fill:none" points="
  156.112,766.846 2352.76,766.846 
  "/>
<polyline clip-path="url(#clip142)" style="stroke:#000000; stroke-linecap:butt; stroke-linejoin:round; stroke-width:2; stroke-opacity:0.1; fill:none" points="
  156.112,427.411 2352.76,427.411 
  "/>
<polyline clip-path="url(#clip142)" style="stroke:#000000; stroke-linecap:butt; stroke-linejoin:round; stroke-width:2; stroke-opacity:0.1; fill:none" points="
  156.112,87.9763 2352.76,87.9763 
  "/>
<polyline clip-path="url(#clip140)" style="stroke:#000000; stroke-linecap:butt; stroke-linejoin:round; stroke-width:4; stroke-opacity:1; fill:none" points="
  156.112,1486.45 156.112,47.2441 
  "/>
<polyline clip-path="url(#clip140)" style="stroke:#000000; stroke-linecap:butt; stroke-linejoin:round; stroke-width:4; stroke-opacity:1; fill:none" points="
  156.112,1445.72 175.01,1445.72 
  "/>
<polyline clip-path="url(#clip140)" style="stroke:#000000; stroke-linecap:butt; stroke-linejoin:round; stroke-width:4; stroke-opacity:1; fill:none" points="
  156.112,1106.28 175.01,1106.28 
  "/>
<polyline clip-path="url(#clip140)" style="stroke:#000000; stroke-linecap:butt; stroke-linejoin:round; stroke-width:4; stroke-opacity:1; fill:none" points="
  156.112,766.846 175.01,766.846 
  "/>
<polyline clip-path="url(#clip140)" style="stroke:#000000; stroke-linecap:butt; stroke-linejoin:round; stroke-width:4; stroke-opacity:1; fill:none" points="
  156.112,427.411 175.01,427.411 
  "/>
<polyline clip-path="url(#clip140)" style="stroke:#000000; stroke-linecap:butt; stroke-linejoin:round; stroke-width:4; stroke-opacity:1; fill:none" points="
  156.112,87.9763 175.01,87.9763 
  "/>
<path clip-path="url(#clip140)" d="M62.9365 1431.51 Q59.3254 1431.51 57.4967 1435.08 Q55.6912 1438.62 55.6912 1445.75 Q55.6912 1452.86 57.4967 1456.42 Q59.3254 1459.96 62.9365 1459.96 Q66.5707 1459.96 68.3763 1456.42 Q70.205 1452.86 70.205 1445.75 Q70.205 1438.62 68.3763 1435.08 Q66.5707 1431.51 62.9365 1431.51 M62.9365 1427.81 Q68.7467 1427.81 71.8022 1432.42 Q74.8809 1437 74.8809 1445.75 Q74.8809 1454.48 71.8022 1459.08 Q68.7467 1463.67 62.9365 1463.67 Q57.1264 1463.67 54.0477 1459.08 Q50.9921 1454.48 50.9921 1445.75 Q50.9921 1437 54.0477 1432.42 Q57.1264 1427.81 62.9365 1427.81 Z" fill="#000000" fill-rule="evenodd" fill-opacity="1" /><path clip-path="url(#clip140)" d="M83.0984 1457.12 L87.9827 1457.12 L87.9827 1463 L83.0984 1463 L83.0984 1457.12 Z" fill="#000000" fill-rule="evenodd" fill-opacity="1" /><path clip-path="url(#clip140)" d="M108.168 1431.51 Q104.557 1431.51 102.728 1435.08 Q100.922 1438.62 100.922 1445.75 Q100.922 1452.86 102.728 1456.42 Q104.557 1459.96 108.168 1459.96 Q111.802 1459.96 113.608 1456.42 Q115.436 1452.86 115.436 1445.75 Q115.436 1438.62 113.608 1435.08 Q111.802 1431.51 108.168 1431.51 M108.168 1427.81 Q113.978 1427.81 117.033 1432.42 Q120.112 1437 120.112 1445.75 Q120.112 1454.48 117.033 1459.08 Q113.978 1463.67 108.168 1463.67 Q102.358 1463.67 99.2789 1459.08 Q96.2234 1454.48 96.2234 1445.75 Q96.2234 1437 99.2789 1432.42 Q102.358 1427.81 108.168 1427.81 Z" fill="#000000" fill-rule="evenodd" fill-opacity="1" /><path clip-path="url(#clip140)" d="M63.9319 1092.08 Q60.3208 1092.08 58.4921 1095.64 Q56.6865 1099.19 56.6865 1106.32 Q56.6865 1113.42 58.4921 1116.99 Q60.3208 1120.53 63.9319 1120.53 Q67.5661 1120.53 69.3717 1116.99 Q71.2004 1113.42 71.2004 1106.32 Q71.2004 1099.19 69.3717 1095.64 Q67.5661 1092.08 63.9319 1092.08 M63.9319 1088.38 Q69.742 1088.38 72.7976 1092.98 Q75.8763 1097.57 75.8763 1106.32 Q75.8763 1115.04 72.7976 1119.65 Q69.742 1124.23 63.9319 1124.23 Q58.1217 1124.23 55.043 1119.65 Q51.9875 1115.04 51.9875 1106.32 Q51.9875 1097.57 55.043 1092.98 Q58.1217 1088.38 63.9319 1088.38 Z" fill="#000000" fill-rule="evenodd" fill-opacity="1" /><path clip-path="url(#clip140)" d="M84.0938 1117.68 L88.978 1117.68 L88.978 1123.56 L84.0938 1123.56 L84.0938 1117.68 Z" fill="#000000" fill-rule="evenodd" fill-opacity="1" /><path clip-path="url(#clip140)" d="M99.2095 1089 L117.566 1089 L117.566 1092.94 L103.492 1092.94 L103.492 1101.41 Q104.51 1101.06 105.529 1100.9 Q106.547 1100.71 107.566 1100.71 Q113.353 1100.71 116.733 1103.89 Q120.112 1107.06 120.112 1112.47 Q120.112 1118.05 116.64 1121.15 Q113.168 1124.23 106.848 1124.23 Q104.672 1124.23 102.404 1123.86 Q100.159 1123.49 97.7511 1122.75 L97.7511 1118.05 Q99.8345 1119.19 102.057 1119.74 Q104.279 1120.3 106.756 1120.3 Q110.76 1120.3 113.098 1118.19 Q115.436 1116.08 115.436 1112.47 Q115.436 1108.86 113.098 1106.76 Q110.76 1104.65 106.756 1104.65 Q104.881 1104.65 103.006 1105.07 Q101.154 1105.48 99.2095 1106.36 L99.2095 1089 Z" fill="#000000" fill-rule="evenodd" fill-opacity="1" /><path clip-path="url(#clip140)" d="M53.7467 780.191 L61.3856 780.191 L61.3856 753.825 L53.0754 755.492 L53.0754 751.233 L61.3393 749.566 L66.0152 749.566 L66.0152 780.191 L73.654 780.191 L73.654 784.126 L53.7467 784.126 L53.7467 780.191 Z" fill="#000000" fill-rule="evenodd" fill-opacity="1" /><path clip-path="url(#clip140)" d="M83.0984 778.246 L87.9827 778.246 L87.9827 784.126 L83.0984 784.126 L83.0984 778.246 Z" fill="#000000" fill-rule="evenodd" fill-opacity="1" /><path clip-path="url(#clip140)" d="M108.168 752.645 Q104.557 752.645 102.728 756.209 Q100.922 759.751 100.922 766.881 Q100.922 773.987 102.728 777.552 Q104.557 781.094 108.168 781.094 Q111.802 781.094 113.608 777.552 Q115.436 773.987 115.436 766.881 Q115.436 759.751 113.608 756.209 Q111.802 752.645 108.168 752.645 M108.168 748.941 Q113.978 748.941 117.033 753.547 Q120.112 758.131 120.112 766.881 Q120.112 775.608 117.033 780.214 Q113.978 784.797 108.168 784.797 Q102.358 784.797 99.2789 780.214 Q96.2234 775.608 96.2234 766.881 Q96.2234 758.131 99.2789 753.547 Q102.358 748.941 108.168 748.941 Z" fill="#000000" fill-rule="evenodd" fill-opacity="1" /><path clip-path="url(#clip140)" d="M54.7421 440.756 L62.381 440.756 L62.381 414.39 L54.0708 416.057 L54.0708 411.798 L62.3347 410.131 L67.0106 410.131 L67.0106 440.756 L74.6494 440.756 L74.6494 444.691 L54.7421 444.691 L54.7421 440.756 Z" fill="#000000" fill-rule="evenodd" fill-opacity="1" /><path clip-path="url(#clip140)" d="M84.0938 438.812 L88.978 438.812 L88.978 444.691 L84.0938 444.691 L84.0938 438.812 Z" fill="#000000" fill-rule="evenodd" fill-opacity="1" /><path clip-path="url(#clip140)" d="M99.2095 410.131 L117.566 410.131 L117.566 414.066 L103.492 414.066 L103.492 422.538 Q104.51 422.191 105.529 422.029 Q106.547 421.844 107.566 421.844 Q113.353 421.844 116.733 425.015 Q120.112 428.187 120.112 433.603 Q120.112 439.182 116.64 442.284 Q113.168 445.362 106.848 445.362 Q104.672 445.362 102.404 444.992 Q100.159 444.622 97.7511 443.881 L97.7511 439.182 Q99.8345 440.316 102.057 440.872 Q104.279 441.427 106.756 441.427 Q110.76 441.427 113.098 439.321 Q115.436 437.214 115.436 433.603 Q115.436 429.992 113.098 427.886 Q110.76 425.779 106.756 425.779 Q104.881 425.779 103.006 426.196 Q101.154 426.613 99.2095 427.492 L99.2095 410.131 Z" fill="#000000" fill-rule="evenodd" fill-opacity="1" /><path clip-path="url(#clip140)" d="M56.9643 101.321 L73.2837 101.321 L73.2837 105.256 L51.3393 105.256 L51.3393 101.321 Q54.0014 98.5665 58.5847 93.9369 Q63.1911 89.2841 64.3717 87.9416 Q66.617 85.4184 67.4967 83.6823 Q68.3994 81.9231 68.3994 80.2333 Q68.3994 77.4786 66.455 75.7425 Q64.5337 74.0064 61.4319 74.0064 Q59.2328 74.0064 56.7791 74.7703 Q54.3486 75.5342 51.5708 77.0851 L51.5708 72.3629 Q54.3949 71.2287 56.8486 70.65 Q59.3023 70.0713 61.3393 70.0713 Q66.7096 70.0713 69.9041 72.7565 Q73.0985 75.4416 73.0985 79.9323 Q73.0985 82.062 72.2883 83.9832 Q71.5013 85.8814 69.3948 88.474 Q68.8161 89.1453 65.7143 92.3628 Q62.6124 95.5573 56.9643 101.321 Z" fill="#000000" fill-rule="evenodd" fill-opacity="1" /><path clip-path="url(#clip140)" d="M83.0984 99.3767 L87.9827 99.3767 L87.9827 105.256 L83.0984 105.256 L83.0984 99.3767 Z" fill="#000000" fill-rule="evenodd" fill-opacity="1" /><path clip-path="url(#clip140)" d="M108.168 73.775 Q104.557 73.775 102.728 77.3398 Q100.922 80.8814 100.922 88.011 Q100.922 95.1174 102.728 98.6822 Q104.557 102.224 108.168 102.224 Q111.802 102.224 113.608 98.6822 Q115.436 95.1174 115.436 88.011 Q115.436 80.8814 113.608 77.3398 Q111.802 73.775 108.168 73.775 M108.168 70.0713 Q113.978 70.0713 117.033 74.6777 Q120.112 79.261 120.112 88.011 Q120.112 96.7378 117.033 101.344 Q113.978 105.928 108.168 105.928 Q102.358 105.928 99.2789 101.344 Q96.2234 96.7378 96.2234 88.011 Q96.2234 79.261 99.2789 74.6777 Q102.358 70.0713 108.168 70.0713 Z" fill="#000000" fill-rule="evenodd" fill-opacity="1" /><polyline clip-path="url(#clip142)" style="stroke:#009af9; stroke-linecap:butt; stroke-linejoin:round; stroke-width:4; stroke-opacity:1; fill:none" points="
  218.281,1445.72 2290.59,1445.72 2290.59,87.9763 1599.82,87.9763 909.05,766.846 
  "/>
<path clip-path="url(#clip140)" d="
M1983.03 198.898 L2279.53 198.898 L2279.53 95.2176 L1983.03 95.2176  Z
  " fill="#ffffff" fill-rule="evenodd" fill-opacity="1"/>
<polyline clip-path="url(#clip140)" style="stroke:#000000; stroke-linecap:butt; stroke-linejoin:round; stroke-width:4; stroke-opacity:1; fill:none" points="
  1983.03,198.898 2279.53,198.898 2279.53,95.2176 1983.03,95.2176 1983.03,198.898 
  "/>
<polyline clip-path="url(#clip140)" style="stroke:#009af9; stroke-linecap:butt; stroke-linejoin:round; stroke-width:4; stroke-opacity:1; fill:none" points="
  2007.44,147.058 2153.88,147.058 
  "/>
<path clip-path="url(#clip140)" d="M2192.13 166.745 Q2190.33 171.375 2188.61 172.787 Q2186.9 174.199 2184.03 174.199 L2180.63 174.199 L2180.63 170.634 L2183.13 170.634 Q2184.89 170.634 2185.86 169.8 Q2186.83 168.967 2188.01 165.865 L2188.78 163.921 L2178.29 138.412 L2182.8 138.412 L2190.91 158.689 L2199.01 138.412 L2203.52 138.412 L2192.13 166.745 Z" fill="#000000" fill-rule="evenodd" fill-opacity="1" /><path clip-path="url(#clip140)" d="M2210.81 160.402 L2218.45 160.402 L2218.45 134.037 L2210.14 135.703 L2210.14 131.444 L2218.41 129.778 L2223.08 129.778 L2223.08 160.402 L2230.72 160.402 L2230.72 164.338 L2210.81 164.338 L2210.81 160.402 Z" fill="#000000" fill-rule="evenodd" fill-opacity="1" /></svg>
