<?xml version="1.0" encoding="utf-8"?>
<svg xmlns="http://www.w3.org/2000/svg" xmlns:xlink="http://www.w3.org/1999/xlink" width="600" height="400" viewBox="0 0 2400 1600">
<defs>
  <clipPath id="clip760">
    <rect x="0" y="0" width="2400" height="1600"/>
  </clipPath>
</defs>
<path clip-path="url(#clip760)" d="
M0 1600 L2400 1600 L2400 0 L0 0  Z
  " fill="#ffffff" fill-rule="evenodd" fill-opacity="1"/>
<defs>
  <clipPath id="clip761">
    <rect x="480" y="0" width="1681" height="1600"/>
  </clipPath>
</defs>
<path clip-path="url(#clip760)" d="
M155.765 1486.45 L2352.76 1486.45 L2352.76 47.2441 L155.765 47.2441  Z
  " fill="#ffffff" fill-rule="evenodd" fill-opacity="1"/>
<defs>
  <clipPath id="clip762">
    <rect x="155" y="47" width="2198" height="1440"/>
  </clipPath>
</defs>
<polyline clip-path="url(#clip762)" style="stroke:#000000; stroke-linecap:round; stroke-linejoin:round; stroke-width:2; stroke-opacity:0.1; fill:none" points="
  217.944,1486.45 217.944,47.2441 
  "/>
<polyline clip-path="url(#clip762)" style="stroke:#000000; stroke-linecap:round; stroke-linejoin:round; stroke-width:2; stroke-opacity:0.1; fill:none" points="
  736.102,1486.45 736.102,47.2441 
  "/>
<polyline clip-path="url(#clip762)" style="stroke:#000000; stroke-linecap:round; stroke-linejoin:round; stroke-width:2; stroke-opacity:0.1; fill:none" points="
  1254.26,1486.45 1254.26,47.2441 
  "/>
<polyline clip-path="url(#clip762)" style="stroke:#000000; stroke-linecap:round; stroke-linejoin:round; stroke-width:2; stroke-opacity:0.1; fill:none" points="
  1772.42,1486.45 1772.42,47.2441 
  "/>
<polyline clip-path="url(#clip762)" style="stroke:#000000; stroke-linecap:round; stroke-linejoin:round; stroke-width:2; stroke-opacity:0.1; fill:none" points="
  2290.58,1486.45 2290.58,47.2441 
  "/>
<polyline clip-path="url(#clip760)" style="stroke:#000000; stroke-linecap:round; stroke-linejoin:round; stroke-width:4; stroke-opacity:1; fill:none" points="
  155.765,1486.45 2352.76,1486.45 
  "/>
<polyline clip-path="url(#clip760)" style="stroke:#000000; stroke-linecap:round; stroke-linejoin:round; stroke-width:4; stroke-opacity:1; fill:none" points="
  217.944,1486.45 217.944,1467.55 
  "/>
<polyline clip-path="url(#clip760)" style="stroke:#000000; stroke-linecap:round; stroke-linejoin:round; stroke-width:4; stroke-opacity:1; fill:none" points="
  736.102,1486.45 736.102,1467.55 
  "/>
<polyline clip-path="url(#clip760)" style="stroke:#000000; stroke-linecap:round; stroke-linejoin:round; stroke-width:4; stroke-opacity:1; fill:none" points="
  1254.26,1486.45 1254.26,1467.55 
  "/>
<polyline clip-path="url(#clip760)" style="stroke:#000000; stroke-linecap:round; stroke-linejoin:round; stroke-width:4; stroke-opacity:1; fill:none" points="
  1772.42,1486.45 1772.42,1467.55 
  "/>
<polyline clip-path="url(#clip760)" style="stroke:#000000; stroke-linecap:round; stroke-linejoin:round; stroke-width:4; stroke-opacity:1; fill:none" points="
  2290.58,1486.45 2290.58,1467.55 
  "/>
<path clip-path="url(#clip760)" d="M180.247 1517.37 Q176.636 1517.37 174.808 1520.93 Q173.002 1524.47 173.002 1531.6 Q173.002 1538.71 174.808 1542.27 Q176.636 1545.82 180.247 1545.82 Q183.882 1545.82 185.687 1542.27 Q187.516 1538.71 187.516 1531.6 Q187.516 1524.47 185.687 1520.93 Q183.882 1517.37 180.247 1517.37 M180.247 1513.66 Q186.057 1513.66 189.113 1518.27 Q192.192 1522.85 192.192 1531.6 Q192.192 1540.33 189.113 1544.94 Q186.057 1549.52 180.247 1549.52 Q174.437 1549.52 171.358 1544.94 Q168.303 1540.33 168.303 1531.6 Q168.303 1522.85 171.358 1518.27 Q174.437 1513.66 180.247 1513.66 Z" fill="#000000" fill-rule="evenodd" fill-opacity="1" /><path clip-path="url(#clip760)" d="M200.409 1542.97 L205.294 1542.97 L205.294 1548.85 L200.409 1548.85 L200.409 1542.97 Z" fill="#000000" fill-rule="evenodd" fill-opacity="1" /><path clip-path="url(#clip760)" d="M225.479 1517.37 Q221.867 1517.37 220.039 1520.93 Q218.233 1524.47 218.233 1531.6 Q218.233 1538.71 220.039 1542.27 Q221.867 1545.82 225.479 1545.82 Q229.113 1545.82 230.918 1542.27 Q232.747 1538.71 232.747 1531.6 Q232.747 1524.47 230.918 1520.93 Q229.113 1517.37 225.479 1517.37 M225.479 1513.66 Q231.289 1513.66 234.344 1518.27 Q237.423 1522.85 237.423 1531.6 Q237.423 1540.33 234.344 1544.94 Q231.289 1549.52 225.479 1549.52 Q219.668 1549.52 216.59 1544.94 Q213.534 1540.33 213.534 1531.6 Q213.534 1522.85 216.59 1518.27 Q219.668 1513.66 225.479 1513.66 Z" fill="#000000" fill-rule="evenodd" fill-opacity="1" /><path clip-path="url(#clip760)" d="M255.64 1517.37 Q252.029 1517.37 250.201 1520.93 Q248.395 1524.47 248.395 1531.6 Q248.395 1538.71 250.201 1542.27 Q252.029 1545.82 255.64 1545.82 Q259.275 1545.82 261.08 1542.27 Q262.909 1538.71 262.909 1531.6 Q262.909 1524.47 261.08 1520.93 Q259.275 1517.37 255.64 1517.37 M255.64 1513.66 Q261.451 1513.66 264.506 1518.27 Q267.585 1522.85 267.585 1531.6 Q267.585 1540.33 264.506 1544.94 Q261.451 1549.52 255.64 1549.52 Q249.83 1549.52 246.752 1544.94 Q243.696 1540.33 243.696 1531.6 Q243.696 1522.85 246.752 1518.27 Q249.83 1513.66 255.64 1513.66 Z" fill="#000000" fill-rule="evenodd" fill-opacity="1" /><path clip-path="url(#clip760)" d="M698.903 1517.37 Q695.292 1517.37 693.463 1520.93 Q691.658 1524.47 691.658 1531.6 Q691.658 1538.71 693.463 1542.27 Q695.292 1545.82 698.903 1545.82 Q702.538 1545.82 704.343 1542.27 Q706.172 1538.71 706.172 1531.6 Q706.172 1524.47 704.343 1520.93 Q702.538 1517.37 698.903 1517.37 M698.903 1513.66 Q704.713 1513.66 707.769 1518.27 Q710.848 1522.85 710.848 1531.6 Q710.848 1540.33 707.769 1544.94 Q704.713 1549.52 698.903 1549.52 Q693.093 1549.52 690.014 1544.94 Q686.959 1540.33 686.959 1531.6 Q686.959 1522.85 690.014 1518.27 Q693.093 1513.66 698.903 1513.66 Z" fill="#000000" fill-rule="evenodd" fill-opacity="1" /><path clip-path="url(#clip760)" d="M719.065 1542.97 L723.949 1542.97 L723.949 1548.85 L719.065 1548.85 L719.065 1542.97 Z" fill="#000000" fill-rule="evenodd" fill-opacity="1" /><path clip-path="url(#clip760)" d="M738.162 1544.91 L754.482 1544.91 L754.482 1548.85 L732.537 1548.85 L732.537 1544.91 Q735.199 1542.16 739.783 1537.53 Q744.389 1532.88 745.57 1531.53 Q747.815 1529.01 748.695 1527.27 Q749.597 1525.51 749.597 1523.82 Q749.597 1521.07 747.653 1519.33 Q745.732 1517.6 742.63 1517.6 Q740.431 1517.6 737.977 1518.36 Q735.547 1519.13 732.769 1520.68 L732.769 1515.95 Q735.593 1514.82 738.047 1514.24 Q740.5 1513.66 742.537 1513.66 Q747.908 1513.66 751.102 1516.35 Q754.296 1519.03 754.296 1523.52 Q754.296 1525.65 753.486 1527.57 Q752.699 1529.47 750.593 1532.07 Q750.014 1532.74 746.912 1535.95 Q743.81 1539.15 738.162 1544.91 Z" fill="#000000" fill-rule="evenodd" fill-opacity="1" /><path clip-path="url(#clip760)" d="M764.343 1514.29 L782.699 1514.29 L782.699 1518.22 L768.625 1518.22 L768.625 1526.7 Q769.644 1526.35 770.662 1526.19 Q771.681 1526 772.699 1526 Q778.486 1526 781.866 1529.17 Q785.245 1532.34 785.245 1537.76 Q785.245 1543.34 781.773 1546.44 Q778.301 1549.52 771.982 1549.52 Q769.806 1549.52 767.537 1549.15 Q765.292 1548.78 762.884 1548.04 L762.884 1543.34 Q764.968 1544.47 767.19 1545.03 Q769.412 1545.58 771.889 1545.58 Q775.894 1545.58 778.232 1543.48 Q780.57 1541.37 780.57 1537.76 Q780.57 1534.15 778.232 1532.04 Q775.894 1529.94 771.889 1529.94 Q770.014 1529.94 768.139 1530.35 Q766.287 1530.77 764.343 1531.65 L764.343 1514.29 Z" fill="#000000" fill-rule="evenodd" fill-opacity="1" /><path clip-path="url(#clip760)" d="M1216.56 1517.37 Q1212.95 1517.37 1211.12 1520.93 Q1209.32 1524.47 1209.32 1531.6 Q1209.32 1538.71 1211.12 1542.27 Q1212.95 1545.82 1216.56 1545.82 Q1220.2 1545.82 1222 1542.27 Q1223.83 1538.71 1223.83 1531.6 Q1223.83 1524.47 1222 1520.93 Q1220.2 1517.37 1216.56 1517.37 M1216.56 1513.66 Q1222.37 1513.66 1225.43 1518.27 Q1228.51 1522.85 1228.51 1531.6 Q1228.51 1540.33 1225.43 1544.94 Q1222.37 1549.52 1216.56 1549.52 Q1210.75 1549.52 1207.68 1544.94 Q1204.62 1540.33 1204.62 1531.6 Q1204.62 1522.85 1207.68 1518.27 Q1210.75 1513.66 1216.56 1513.66 Z" fill="#000000" fill-rule="evenodd" fill-opacity="1" /><path clip-path="url(#clip760)" d="M1236.73 1542.97 L1241.61 1542.97 L1241.61 1548.85 L1236.73 1548.85 L1236.73 1542.97 Z" fill="#000000" fill-rule="evenodd" fill-opacity="1" /><path clip-path="url(#clip760)" d="M1251.84 1514.29 L1270.2 1514.29 L1270.2 1518.22 L1256.12 1518.22 L1256.12 1526.7 Q1257.14 1526.35 1258.16 1526.19 Q1259.18 1526 1260.2 1526 Q1265.98 1526 1269.36 1529.17 Q1272.74 1532.34 1272.74 1537.76 Q1272.74 1543.34 1269.27 1546.44 Q1265.8 1549.52 1259.48 1549.52 Q1257.3 1549.52 1255.04 1549.15 Q1252.79 1548.78 1250.38 1548.04 L1250.38 1543.34 Q1252.47 1544.47 1254.69 1545.03 Q1256.91 1545.58 1259.39 1545.58 Q1263.39 1545.58 1265.73 1543.48 Q1268.07 1541.37 1268.07 1537.76 Q1268.07 1534.15 1265.73 1532.04 Q1263.39 1529.94 1259.39 1529.94 Q1257.51 1529.94 1255.64 1530.35 Q1253.79 1530.77 1251.84 1531.65 L1251.84 1514.29 Z" fill="#000000" fill-rule="evenodd" fill-opacity="1" /><path clip-path="url(#clip760)" d="M1291.96 1517.37 Q1288.35 1517.37 1286.52 1520.93 Q1284.71 1524.47 1284.71 1531.6 Q1284.71 1538.71 1286.52 1542.27 Q1288.35 1545.82 1291.96 1545.82 Q1295.59 1545.82 1297.4 1542.27 Q1299.23 1538.71 1299.23 1531.6 Q1299.23 1524.47 1297.4 1520.93 Q1295.59 1517.37 1291.96 1517.37 M1291.96 1513.66 Q1297.77 1513.66 1300.82 1518.27 Q1303.9 1522.85 1303.9 1531.6 Q1303.9 1540.33 1300.82 1544.94 Q1297.77 1549.52 1291.96 1549.52 Q1286.15 1549.52 1283.07 1544.94 Q1280.01 1540.33 1280.01 1531.6 Q1280.01 1522.85 1283.07 1518.27 Q1286.15 1513.66 1291.96 1513.66 Z" fill="#000000" fill-rule="evenodd" fill-opacity="1" /><path clip-path="url(#clip760)" d="M1735.22 1517.37 Q1731.61 1517.37 1729.78 1520.93 Q1727.97 1524.47 1727.97 1531.6 Q1727.97 1538.71 1729.78 1542.27 Q1731.61 1545.82 1735.22 1545.82 Q1738.85 1545.82 1740.66 1542.27 Q1742.49 1538.71 1742.49 1531.6 Q1742.49 1524.47 1740.66 1520.93 Q1738.85 1517.37 1735.22 1517.37 M1735.22 1513.66 Q1741.03 1513.66 1744.09 1518.27 Q1747.16 1522.85 1747.16 1531.6 Q1747.16 1540.33 1744.09 1544.94 Q1741.03 1549.52 1735.22 1549.52 Q1729.41 1549.52 1726.33 1544.94 Q1723.28 1540.33 1723.28 1531.6 Q1723.28 1522.85 1726.33 1518.27 Q1729.41 1513.66 1735.22 1513.66 Z" fill="#000000" fill-rule="evenodd" fill-opacity="1" /><path clip-path="url(#clip760)" d="M1755.38 1542.97 L1760.27 1542.97 L1760.27 1548.85 L1755.38 1548.85 L1755.38 1542.97 Z" fill="#000000" fill-rule="evenodd" fill-opacity="1" /><path clip-path="url(#clip760)" d="M1769.27 1514.29 L1791.49 1514.29 L1791.49 1516.28 L1778.95 1548.85 L1774.06 1548.85 L1785.87 1518.22 L1769.27 1518.22 L1769.27 1514.29 Z" fill="#000000" fill-rule="evenodd" fill-opacity="1" /><path clip-path="url(#clip760)" d="M1800.66 1514.29 L1819.02 1514.29 L1819.02 1518.22 L1804.94 1518.22 L1804.94 1526.7 Q1805.96 1526.35 1806.98 1526.19 Q1808 1526 1809.02 1526 Q1814.8 1526 1818.18 1529.17 Q1821.56 1532.34 1821.56 1537.76 Q1821.56 1543.34 1818.09 1546.44 Q1814.62 1549.52 1808.3 1549.52 Q1806.12 1549.52 1803.85 1549.15 Q1801.61 1548.78 1799.2 1548.04 L1799.2 1543.34 Q1801.28 1544.47 1803.51 1545.03 Q1805.73 1545.58 1808.21 1545.58 Q1812.21 1545.58 1814.55 1543.48 Q1816.89 1541.37 1816.89 1537.76 Q1816.89 1534.15 1814.55 1532.04 Q1812.21 1529.94 1808.21 1529.94 Q1806.33 1529.94 1804.46 1530.35 Q1802.6 1530.77 1800.66 1531.65 L1800.66 1514.29 Z" fill="#000000" fill-rule="evenodd" fill-opacity="1" /><path clip-path="url(#clip760)" d="M2242.65 1544.91 L2250.29 1544.91 L2250.29 1518.55 L2241.98 1520.21 L2241.98 1515.95 L2250.24 1514.29 L2254.92 1514.29 L2254.92 1544.91 L2262.56 1544.91 L2262.56 1548.85 L2242.65 1548.85 L2242.65 1544.91 Z" fill="#000000" fill-rule="evenodd" fill-opacity="1" /><path clip-path="url(#clip760)" d="M2272 1542.97 L2276.88 1542.97 L2276.88 1548.85 L2272 1548.85 L2272 1542.97 Z" fill="#000000" fill-rule="evenodd" fill-opacity="1" /><path clip-path="url(#clip760)" d="M2297.07 1517.37 Q2293.46 1517.37 2291.63 1520.93 Q2289.82 1524.47 2289.82 1531.6 Q2289.82 1538.71 2291.63 1542.27 Q2293.46 1545.82 2297.07 1545.82 Q2300.7 1545.82 2302.51 1542.27 Q2304.34 1538.71 2304.34 1531.6 Q2304.34 1524.47 2302.51 1520.93 Q2300.7 1517.37 2297.07 1517.37 M2297.07 1513.66 Q2302.88 1513.66 2305.94 1518.27 Q2309.01 1522.85 2309.01 1531.6 Q2309.01 1540.33 2305.94 1544.94 Q2302.88 1549.52 2297.07 1549.52 Q2291.26 1549.52 2288.18 1544.94 Q2285.13 1540.33 2285.13 1531.6 Q2285.13 1522.85 2288.18 1518.27 Q2291.26 1513.66 2297.07 1513.66 Z" fill="#000000" fill-rule="evenodd" fill-opacity="1" /><path clip-path="url(#clip760)" d="M2327.23 1517.37 Q2323.62 1517.37 2321.79 1520.93 Q2319.99 1524.47 2319.99 1531.6 Q2319.99 1538.71 2321.79 1542.27 Q2323.62 1545.82 2327.23 1545.82 Q2330.87 1545.82 2332.67 1542.27 Q2334.5 1538.71 2334.5 1531.6 Q2334.5 1524.47 2332.67 1520.93 Q2330.87 1517.37 2327.23 1517.37 M2327.23 1513.66 Q2333.04 1513.66 2336.1 1518.27 Q2339.18 1522.85 2339.18 1531.6 Q2339.18 1540.33 2336.1 1544.94 Q2333.04 1549.52 2327.23 1549.52 Q2321.42 1549.52 2318.34 1544.94 Q2315.29 1540.33 2315.29 1531.6 Q2315.29 1522.85 2318.34 1518.27 Q2321.42 1513.66 2327.23 1513.66 Z" fill="#000000" fill-rule="evenodd" fill-opacity="1" /><polyline clip-path="url(#clip762)" style="stroke:#000000; stroke-linecap:round; stroke-linejoin:round; stroke-width:2; stroke-opacity:0.1; fill:none" points="
  155.765,1445.72 2352.76,1445.72 
  "/>
<polyline clip-path="url(#clip762)" style="stroke:#000000; stroke-linecap:round; stroke-linejoin:round; stroke-width:2; stroke-opacity:0.1; fill:none" points="
  155.765,1050.63 2352.76,1050.63 
  "/>
<polyline clip-path="url(#clip762)" style="stroke:#000000; stroke-linecap:round; stroke-linejoin:round; stroke-width:2; stroke-opacity:0.1; fill:none" points="
  155.765,655.543 2352.76,655.543 
  "/>
<polyline clip-path="url(#clip762)" style="stroke:#000000; stroke-linecap:round; stroke-linejoin:round; stroke-width:2; stroke-opacity:0.1; fill:none" points="
  155.765,260.457 2352.76,260.457 
  "/>
<polyline clip-path="url(#clip760)" style="stroke:#000000; stroke-linecap:round; stroke-linejoin:round; stroke-width:4; stroke-opacity:1; fill:none" points="
  155.765,1486.45 155.765,47.2441 
  "/>
<polyline clip-path="url(#clip760)" style="stroke:#000000; stroke-linecap:round; stroke-linejoin:round; stroke-width:4; stroke-opacity:1; fill:none" points="
  155.765,1445.72 174.663,1445.72 
  "/>
<polyline clip-path="url(#clip760)" style="stroke:#000000; stroke-linecap:round; stroke-linejoin:round; stroke-width:4; stroke-opacity:1; fill:none" points="
  155.765,1050.63 174.663,1050.63 
  "/>
<polyline clip-path="url(#clip760)" style="stroke:#000000; stroke-linecap:round; stroke-linejoin:round; stroke-width:4; stroke-opacity:1; fill:none" points="
  155.765,655.543 174.663,655.543 
  "/>
<polyline clip-path="url(#clip760)" style="stroke:#000000; stroke-linecap:round; stroke-linejoin:round; stroke-width:4; stroke-opacity:1; fill:none" points="
  155.765,260.457 174.663,260.457 
  "/>
<path clip-path="url(#clip760)" d="M53.3995 1459.06 L61.0384 1459.06 L61.0384 1432.69 L52.7282 1434.36 L52.7282 1430.1 L60.9921 1428.44 L65.668 1428.44 L65.668 1459.06 L73.3068 1459.06 L73.3068 1463 L53.3995 1463 L53.3995 1459.06 Z" fill="#000000" fill-rule="evenodd" fill-opacity="1" /><path clip-path="url(#clip760)" d="M82.7512 1457.12 L87.6354 1457.12 L87.6354 1463 L82.7512 1463 L82.7512 1457.12 Z" fill="#000000" fill-rule="evenodd" fill-opacity="1" /><path clip-path="url(#clip760)" d="M107.821 1431.51 Q104.209 1431.51 102.381 1435.08 Q100.575 1438.62 100.575 1445.75 Q100.575 1452.86 102.381 1456.42 Q104.209 1459.96 107.821 1459.96 Q111.455 1459.96 113.26 1456.42 Q115.089 1452.86 115.089 1445.75 Q115.089 1438.62 113.26 1435.08 Q111.455 1431.51 107.821 1431.51 M107.821 1427.81 Q113.631 1427.81 116.686 1432.42 Q119.765 1437 119.765 1445.75 Q119.765 1454.48 116.686 1459.08 Q113.631 1463.67 107.821 1463.67 Q102.01 1463.67 98.9317 1459.08 Q95.8761 1454.48 95.8761 1445.75 Q95.8761 1437 98.9317 1432.42 Q102.01 1427.81 107.821 1427.81 Z" fill="#000000" fill-rule="evenodd" fill-opacity="1" /><path clip-path="url(#clip760)" d="M54.3949 1063.97 L62.0337 1063.97 L62.0337 1037.61 L53.7236 1039.28 L53.7236 1035.02 L61.9874 1033.35 L66.6633 1033.35 L66.6633 1063.97 L74.3022 1063.97 L74.3022 1067.91 L54.3949 1067.91 L54.3949 1063.97 Z" fill="#000000" fill-rule="evenodd" fill-opacity="1" /><path clip-path="url(#clip760)" d="M83.7466 1062.03 L88.6308 1062.03 L88.6308 1067.91 L83.7466 1067.91 L83.7466 1062.03 Z" fill="#000000" fill-rule="evenodd" fill-opacity="1" /><path clip-path="url(#clip760)" d="M98.8622 1033.35 L117.219 1033.35 L117.219 1037.28 L103.145 1037.28 L103.145 1045.76 Q104.163 1045.41 105.182 1045.25 Q106.2 1045.06 107.219 1045.06 Q113.006 1045.06 116.385 1048.23 Q119.765 1051.4 119.765 1056.82 Q119.765 1062.4 116.293 1065.5 Q112.82 1068.58 106.501 1068.58 Q104.325 1068.58 102.057 1068.21 Q99.8113 1067.84 97.4039 1067.1 L97.4039 1062.4 Q99.4872 1063.53 101.709 1064.09 Q103.932 1064.65 106.408 1064.65 Q110.413 1064.65 112.751 1062.54 Q115.089 1060.43 115.089 1056.82 Q115.089 1053.21 112.751 1051.1 Q110.413 1049 106.408 1049 Q104.534 1049 102.659 1049.41 Q100.807 1049.83 98.8622 1050.71 L98.8622 1033.35 Z" fill="#000000" fill-rule="evenodd" fill-opacity="1" /><path clip-path="url(#clip760)" d="M56.6171 668.888 L72.9365 668.888 L72.9365 672.823 L50.9921 672.823 L50.9921 668.888 Q53.6541 666.133 58.2375 661.504 Q62.8439 656.851 64.0245 655.508 Q66.2698 652.985 67.1494 651.249 Q68.0522 649.49 68.0522 647.8 Q68.0522 645.045 66.1078 643.309 Q64.1865 641.573 61.0847 641.573 Q58.8856 641.573 56.4319 642.337 Q54.0014 643.101 51.2236 644.652 L51.2236 639.93 Q54.0477 638.795 56.5014 638.217 Q58.955 637.638 60.9921 637.638 Q66.3624 637.638 69.5568 640.323 Q72.7513 643.008 72.7513 647.499 Q72.7513 649.629 71.9411 651.55 Q71.1541 653.448 69.0476 656.041 Q68.4689 656.712 65.367 659.93 Q62.2652 663.124 56.6171 668.888 Z" fill="#000000" fill-rule="evenodd" fill-opacity="1" /><path clip-path="url(#clip760)" d="M82.7512 666.943 L87.6354 666.943 L87.6354 672.823 L82.7512 672.823 L82.7512 666.943 Z" fill="#000000" fill-rule="evenodd" fill-opacity="1" /><path clip-path="url(#clip760)" d="M107.821 641.342 Q104.209 641.342 102.381 644.906 Q100.575 648.448 100.575 655.578 Q100.575 662.684 102.381 666.249 Q104.209 669.791 107.821 669.791 Q111.455 669.791 113.26 666.249 Q115.089 662.684 115.089 655.578 Q115.089 648.448 113.26 644.906 Q111.455 641.342 107.821 641.342 M107.821 637.638 Q113.631 637.638 116.686 642.244 Q119.765 646.828 119.765 655.578 Q119.765 664.305 116.686 668.911 Q113.631 673.494 107.821 673.494 Q102.01 673.494 98.9317 668.911 Q95.8761 664.305 95.8761 655.578 Q95.8761 646.828 98.9317 642.244 Q102.01 637.638 107.821 637.638 Z" fill="#000000" fill-rule="evenodd" fill-opacity="1" /><path clip-path="url(#clip760)" d="M57.6125 273.801 L73.9318 273.801 L73.9318 277.737 L51.9875 277.737 L51.9875 273.801 Q54.6495 271.047 59.2328 266.417 Q63.8393 261.764 65.0198 260.422 Q67.2652 257.899 68.1448 256.163 Q69.0476 254.403 69.0476 252.714 Q69.0476 249.959 67.1032 248.223 Q65.1819 246.487 62.08 246.487 Q59.881 246.487 57.4273 247.251 Q54.9967 248.015 52.219 249.565 L52.219 244.843 Q55.043 243.709 57.4967 243.13 Q59.9504 242.552 61.9874 242.552 Q67.3578 242.552 70.5522 245.237 Q73.7466 247.922 73.7466 252.413 Q73.7466 254.542 72.9365 256.464 Q72.1494 258.362 70.0429 260.954 Q69.4642 261.626 66.3624 264.843 Q63.2606 268.038 57.6125 273.801 Z" fill="#000000" fill-rule="evenodd" fill-opacity="1" /><path clip-path="url(#clip760)" d="M83.7466 271.857 L88.6308 271.857 L88.6308 277.737 L83.7466 277.737 L83.7466 271.857 Z" fill="#000000" fill-rule="evenodd" fill-opacity="1" /><path clip-path="url(#clip760)" d="M98.8622 243.177 L117.219 243.177 L117.219 247.112 L103.145 247.112 L103.145 255.584 Q104.163 255.237 105.182 255.075 Q106.2 254.89 107.219 254.89 Q113.006 254.89 116.385 258.061 Q119.765 261.232 119.765 266.649 Q119.765 272.227 116.293 275.329 Q112.82 278.408 106.501 278.408 Q104.325 278.408 102.057 278.038 Q99.8113 277.667 97.4039 276.926 L97.4039 272.227 Q99.4872 273.362 101.709 273.917 Q103.932 274.473 106.408 274.473 Q110.413 274.473 112.751 272.366 Q115.089 270.26 115.089 266.649 Q115.089 263.038 112.751 260.931 Q110.413 258.825 106.408 258.825 Q104.534 258.825 102.659 259.241 Q100.807 259.658 98.8622 260.538 L98.8622 243.177 Z" fill="#000000" fill-rule="evenodd" fill-opacity="1" /><polyline clip-path="url(#clip762)" style="stroke:#009af9; stroke-linecap:round; stroke-linejoin:round; stroke-width:12; stroke-opacity:1; fill:none" points="
  217.944,1445.72 327.03,1443.52 436.116,1436.91 545.202,1425.77 654.288,1409.91 763.374,1389.06 872.46,1362.85 981.546,1330.84 1090.63,1292.44 1199.72,1246.95 
  1308.8,1193.51 1417.89,1131.08 1526.98,1058.39 1636.06,973.961 1745.15,875.959 1854.23,762.205 1963.32,630.064 2072.41,476.352 2181.49,297.216 2290.58,87.9763 
  
  "/>
<polyline clip-path="url(#clip762)" style="stroke:#e26f46; stroke-linecap:round; stroke-linejoin:round; stroke-width:4; stroke-opacity:1; fill:none" points="
  217.944,1445.72 632.47,1445.72 1047,1382.5 1461.52,1245.96 1876.05,1008.38 2290.58,615.574 
  "/>
<circle clip-path="url(#clip762)" cx="217.944" cy="1445.72" r="10.8" fill="#e26f46" fill-rule="evenodd" fill-opacity="1" stroke="#000000" stroke-opacity="1" stroke-width="3.2"/>
<circle clip-path="url(#clip762)" cx="632.47" cy="1445.72" r="10.8" fill="#e26f46" fill-rule="evenodd" fill-opacity="1" stroke="#000000" stroke-opacity="1" stroke-width="3.2"/>
<circle clip-path="url(#clip762)" cx="1047" cy="1382.5" r="10.8" fill="#e26f46" fill-rule="evenodd" fill-opacity="1" stroke="#000000" stroke-opacity="1" stroke-width="3.2"/>
<circle clip-path="url(#clip762)" cx="1461.52" cy="1245.96" r="10.8" fill="#e26f46" fill-rule="evenodd" fill-opacity="1" stroke="#000000" stroke-opacity="1" stroke-width="3.2"/>
<circle clip-path="url(#clip762)" cx="1876.05" cy="1008.38" r="10.8" fill="#e26f46" fill-rule="evenodd" fill-opacity="1" stroke="#000000" stroke-opacity="1" stroke-width="3.2"/>
<circle clip-path="url(#clip762)" cx="2290.58" cy="615.574" r="10.8" fill="#e26f46" fill-rule="evenodd" fill-opacity="1" stroke="#000000" stroke-opacity="1" stroke-width="3.2"/>
<polyline clip-path="url(#clip762)" style="stroke:#3da44d; stroke-linecap:round; stroke-linejoin:round; stroke-width:4; stroke-opacity:1; fill:none" points="
  217.944,1445.72 259.397,1445.72 300.849,1445.08 342.302,1443.82 383.755,1441.92 425.207,1439.38 466.66,1436.19 508.113,1432.35 549.565,1427.85 591.018,1422.68 
  632.47,1416.83 673.923,1410.27 715.376,1403.01 756.828,1395.01 798.281,1386.27 839.734,1376.75 881.186,1366.44 922.639,1355.31 964.092,1343.34 1005.54,1330.48 
  1047,1316.72 1088.45,1302.02 1129.9,1286.33 1171.36,1269.61 1212.81,1251.83 1254.26,1232.94 1295.71,1212.88 1337.17,1191.6 1378.62,1169.05 1420.07,1145.15 
  1461.52,1119.84 1502.98,1093.06 1544.43,1064.72 1585.88,1034.73 1627.33,1003.02 1668.79,969.491 1710.24,934.031 1751.69,896.538 1793.14,856.893 1834.6,814.972 
  1876.05,770.639 1917.5,723.751 1958.96,674.153 2000.41,621.679 2041.86,566.15 2083.31,507.375 2124.77,445.149 2166.22,379.249 2207.67,309.44 2249.12,235.464 
  2290.58,157.048 
  "/>
<circle clip-path="url(#clip762)" cx="217.944" cy="1445.72" r="10.8" fill="#3da44d" fill-rule="evenodd" fill-opacity="1" stroke="#000000" stroke-opacity="1" stroke-width="3.2"/>
<circle clip-path="url(#clip762)" cx="259.397" cy="1445.72" r="10.8" fill="#3da44d" fill-rule="evenodd" fill-opacity="1" stroke="#000000" stroke-opacity="1" stroke-width="3.2"/>
<circle clip-path="url(#clip762)" cx="300.849" cy="1445.08" r="10.8" fill="#3da44d" fill-rule="evenodd" fill-opacity="1" stroke="#000000" stroke-opacity="1" stroke-width="3.2"/>
<circle clip-path="url(#clip762)" cx="342.302" cy="1443.82" r="10.8" fill="#3da44d" fill-rule="evenodd" fill-opacity="1" stroke="#000000" stroke-opacity="1" stroke-width="3.2"/>
<circle clip-path="url(#clip762)" cx="383.755" cy="1441.92" r="10.8" fill="#3da44d" fill-rule="evenodd" fill-opacity="1" stroke="#000000" stroke-opacity="1" stroke-width="3.2"/>
<circle clip-path="url(#clip762)" cx="425.207" cy="1439.38" r="10.8" fill="#3da44d" fill-rule="evenodd" fill-opacity="1" stroke="#000000" stroke-opacity="1" stroke-width="3.2"/>
<circle clip-path="url(#clip762)" cx="466.66" cy="1436.19" r="10.8" fill="#3da44d" fill-rule="evenodd" fill-opacity="1" stroke="#000000" stroke-opacity="1" stroke-width="3.2"/>
<circle clip-path="url(#clip762)" cx="508.113" cy="1432.35" r="10.8" fill="#3da44d" fill-rule="evenodd" fill-opacity="1" stroke="#000000" stroke-opacity="1" stroke-width="3.2"/>
<circle clip-path="url(#clip762)" cx="549.565" cy="1427.85" r="10.8" fill="#3da44d" fill-rule="evenodd" fill-opacity="1" stroke="#000000" stroke-opacity="1" stroke-width="3.2"/>
<circle clip-path="url(#clip762)" cx="591.018" cy="1422.68" r="10.8" fill="#3da44d" fill-rule="evenodd" fill-opacity="1" stroke="#000000" stroke-opacity="1" stroke-width="3.2"/>
<circle clip-path="url(#clip762)" cx="632.47" cy="1416.83" r="10.8" fill="#3da44d" fill-rule="evenodd" fill-opacity="1" stroke="#000000" stroke-opacity="1" stroke-width="3.2"/>
<circle clip-path="url(#clip762)" cx="673.923" cy="1410.27" r="10.8" fill="#3da44d" fill-rule="evenodd" fill-opacity="1" stroke="#000000" stroke-opacity="1" stroke-width="3.2"/>
<circle clip-path="url(#clip762)" cx="715.376" cy="1403.01" r="10.8" fill="#3da44d" fill-rule="evenodd" fill-opacity="1" stroke="#000000" stroke-opacity="1" stroke-width="3.2"/>
<circle clip-path="url(#clip762)" cx="756.828" cy="1395.01" r="10.8" fill="#3da44d" fill-rule="evenodd" fill-opacity="1" stroke="#000000" stroke-opacity="1" stroke-width="3.2"/>
<circle clip-path="url(#clip762)" cx="798.281" cy="1386.27" r="10.8" fill="#3da44d" fill-rule="evenodd" fill-opacity="1" stroke="#000000" stroke-opacity="1" stroke-width="3.2"/>
<circle clip-path="url(#clip762)" cx="839.734" cy="1376.75" r="10.8" fill="#3da44d" fill-rule="evenodd" fill-opacity="1" stroke="#000000" stroke-opacity="1" stroke-width="3.2"/>
<circle clip-path="url(#clip762)" cx="881.186" cy="1366.44" r="10.8" fill="#3da44d" fill-rule="evenodd" fill-opacity="1" stroke="#000000" stroke-opacity="1" stroke-width="3.2"/>
<circle clip-path="url(#clip762)" cx="922.639" cy="1355.31" r="10.8" fill="#3da44d" fill-rule="evenodd" fill-opacity="1" stroke="#000000" stroke-opacity="1" stroke-width="3.2"/>
<circle clip-path="url(#clip762)" cx="964.092" cy="1343.34" r="10.8" fill="#3da44d" fill-rule="evenodd" fill-opacity="1" stroke="#000000" stroke-opacity="1" stroke-width="3.2"/>
<circle clip-path="url(#clip762)" cx="1005.54" cy="1330.48" r="10.8" fill="#3da44d" fill-rule="evenodd" fill-opacity="1" stroke="#000000" stroke-opacity="1" stroke-width="3.2"/>
<circle clip-path="url(#clip762)" cx="1047" cy="1316.72" r="10.8" fill="#3da44d" fill-rule="evenodd" fill-opacity="1" stroke="#000000" stroke-opacity="1" stroke-width="3.2"/>
<circle clip-path="url(#clip762)" cx="1088.45" cy="1302.02" r="10.8" fill="#3da44d" fill-rule="evenodd" fill-opacity="1" stroke="#000000" stroke-opacity="1" stroke-width="3.2"/>
<circle clip-path="url(#clip762)" cx="1129.9" cy="1286.33" r="10.8" fill="#3da44d" fill-rule="evenodd" fill-opacity="1" stroke="#000000" stroke-opacity="1" stroke-width="3.2"/>
<circle clip-path="url(#clip762)" cx="1171.36" cy="1269.61" r="10.8" fill="#3da44d" fill-rule="evenodd" fill-opacity="1" stroke="#000000" stroke-opacity="1" stroke-width="3.2"/>
<circle clip-path="url(#clip762)" cx="1212.81" cy="1251.83" r="10.8" fill="#3da44d" fill-rule="evenodd" fill-opacity="1" stroke="#000000" stroke-opacity="1" stroke-width="3.2"/>
<circle clip-path="url(#clip762)" cx="1254.26" cy="1232.94" r="10.8" fill="#3da44d" fill-rule="evenodd" fill-opacity="1" stroke="#000000" stroke-opacity="1" stroke-width="3.2"/>
<circle clip-path="url(#clip762)" cx="1295.71" cy="1212.88" r="10.8" fill="#3da44d" fill-rule="evenodd" fill-opacity="1" stroke="#000000" stroke-opacity="1" stroke-width="3.2"/>
<circle clip-path="url(#clip762)" cx="1337.17" cy="1191.6" r="10.8" fill="#3da44d" fill-rule="evenodd" fill-opacity="1" stroke="#000000" stroke-opacity="1" stroke-width="3.2"/>
<circle clip-path="url(#clip762)" cx="1378.62" cy="1169.05" r="10.8" fill="#3da44d" fill-rule="evenodd" fill-opacity="1" stroke="#000000" stroke-opacity="1" stroke-width="3.2"/>
<circle clip-path="url(#clip762)" cx="1420.07" cy="1145.15" r="10.8" fill="#3da44d" fill-rule="evenodd" fill-opacity="1" stroke="#000000" stroke-opacity="1" stroke-width="3.2"/>
<circle clip-path="url(#clip762)" cx="1461.52" cy="1119.84" r="10.8" fill="#3da44d" fill-rule="evenodd" fill-opacity="1" stroke="#000000" stroke-opacity="1" stroke-width="3.2"/>
<circle clip-path="url(#clip762)" cx="1502.98" cy="1093.06" r="10.8" fill="#3da44d" fill-rule="evenodd" fill-opacity="1" stroke="#000000" stroke-opacity="1" stroke-width="3.2"/>
<circle clip-path="url(#clip762)" cx="1544.43" cy="1064.72" r="10.8" fill="#3da44d" fill-rule="evenodd" fill-opacity="1" stroke="#000000" stroke-opacity="1" stroke-width="3.2"/>
<circle clip-path="url(#clip762)" cx="1585.88" cy="1034.73" r="10.8" fill="#3da44d" fill-rule="evenodd" fill-opacity="1" stroke="#000000" stroke-opacity="1" stroke-width="3.2"/>
<circle clip-path="url(#clip762)" cx="1627.33" cy="1003.02" r="10.8" fill="#3da44d" fill-rule="evenodd" fill-opacity="1" stroke="#000000" stroke-opacity="1" stroke-width="3.2"/>
<circle clip-path="url(#clip762)" cx="1668.79" cy="969.491" r="10.8" fill="#3da44d" fill-rule="evenodd" fill-opacity="1" stroke="#000000" stroke-opacity="1" stroke-width="3.2"/>
<circle clip-path="url(#clip762)" cx="1710.24" cy="934.031" r="10.8" fill="#3da44d" fill-rule="evenodd" fill-opacity="1" stroke="#000000" stroke-opacity="1" stroke-width="3.2"/>
<circle clip-path="url(#clip762)" cx="1751.69" cy="896.538" r="10.8" fill="#3da44d" fill-rule="evenodd" fill-opacity="1" stroke="#000000" stroke-opacity="1" stroke-width="3.2"/>
<circle clip-path="url(#clip762)" cx="1793.14" cy="856.893" r="10.8" fill="#3da44d" fill-rule="evenodd" fill-opacity="1" stroke="#000000" stroke-opacity="1" stroke-width="3.2"/>
<circle clip-path="url(#clip762)" cx="1834.6" cy="814.972" r="10.8" fill="#3da44d" fill-rule="evenodd" fill-opacity="1" stroke="#000000" stroke-opacity="1" stroke-width="3.2"/>
<circle clip-path="url(#clip762)" cx="1876.05" cy="770.639" r="10.8" fill="#3da44d" fill-rule="evenodd" fill-opacity="1" stroke="#000000" stroke-opacity="1" stroke-width="3.2"/>
<circle clip-path="url(#clip762)" cx="1917.5" cy="723.751" r="10.8" fill="#3da44d" fill-rule="evenodd" fill-opacity="1" stroke="#000000" stroke-opacity="1" stroke-width="3.2"/>
<circle clip-path="url(#clip762)" cx="1958.96" cy="674.153" r="10.8" fill="#3da44d" fill-rule="evenodd" fill-opacity="1" stroke="#000000" stroke-opacity="1" stroke-width="3.2"/>
<circle clip-path="url(#clip762)" cx="2000.41" cy="621.679" r="10.8" fill="#3da44d" fill-rule="evenodd" fill-opacity="1" stroke="#000000" stroke-opacity="1" stroke-width="3.2"/>
<circle clip-path="url(#clip762)" cx="2041.86" cy="566.15" r="10.8" fill="#3da44d" fill-rule="evenodd" fill-opacity="1" stroke="#000000" stroke-opacity="1" stroke-width="3.2"/>
<circle clip-path="url(#clip762)" cx="2083.31" cy="507.375" r="10.8" fill="#3da44d" fill-rule="evenodd" fill-opacity="1" stroke="#000000" stroke-opacity="1" stroke-width="3.2"/>
<circle clip-path="url(#clip762)" cx="2124.77" cy="445.149" r="10.8" fill="#3da44d" fill-rule="evenodd" fill-opacity="1" stroke="#000000" stroke-opacity="1" stroke-width="3.2"/>
<circle clip-path="url(#clip762)" cx="2166.22" cy="379.249" r="10.8" fill="#3da44d" fill-rule="evenodd" fill-opacity="1" stroke="#000000" stroke-opacity="1" stroke-width="3.2"/>
<circle clip-path="url(#clip762)" cx="2207.67" cy="309.44" r="10.8" fill="#3da44d" fill-rule="evenodd" fill-opacity="1" stroke="#000000" stroke-opacity="1" stroke-width="3.2"/>
<circle clip-path="url(#clip762)" cx="2249.12" cy="235.464" r="10.8" fill="#3da44d" fill-rule="evenodd" fill-opacity="1" stroke="#000000" stroke-opacity="1" stroke-width="3.2"/>
<circle clip-path="url(#clip762)" cx="2290.58" cy="157.048" r="10.8" fill="#3da44d" fill-rule="evenodd" fill-opacity="1" stroke="#000000" stroke-opacity="1" stroke-width="3.2"/>
<path clip-path="url(#clip760)" d="
M228.998 302.578 L806.069 302.578 L806.069 95.2176 L228.998 95.2176  Z
  " fill="#ffffff" fill-rule="evenodd" fill-opacity="1"/>
<polyline clip-path="url(#clip760)" style="stroke:#000000; stroke-linecap:round; stroke-linejoin:round; stroke-width:4; stroke-opacity:1; fill:none" points="
  228.998,302.578 806.069,302.578 806.069,95.2176 228.998,95.2176 228.998,302.578 
  "/>
<polyline clip-path="url(#clip760)" style="stroke:#009af9; stroke-linecap:round; stroke-linejoin:round; stroke-width:4; stroke-opacity:1; fill:none" points="
  253.409,147.058 399.875,147.058 
  "/>
<path clip-path="url(#clip760)" d="M424.286 129.778 L446.138 129.778 L446.138 133.713 L428.962 133.713 L428.962 143.944 L445.42 143.944 L445.42 147.879 L428.962 147.879 L428.962 160.402 L446.554 160.402 L446.554 164.338 L424.286 164.338 L424.286 129.778 Z" fill="#000000" fill-rule="evenodd" fill-opacity="1" /><path clip-path="url(#clip760)" d="M475.605 138.412 L466.23 151.027 L476.091 164.338 L471.068 164.338 L463.522 154.152 L455.976 164.338 L450.953 164.338 L461.022 150.773 L451.809 138.412 L456.832 138.412 L463.707 147.648 L470.582 138.412 L475.605 138.412 Z" fill="#000000" fill-rule="evenodd" fill-opacity="1" /><path clip-path="url(#clip760)" d="M493.892 151.305 Q488.73 151.305 486.739 152.486 Q484.749 153.666 484.749 156.514 Q484.749 158.782 486.23 160.125 Q487.735 161.444 490.304 161.444 Q493.846 161.444 495.975 158.944 Q498.128 156.421 498.128 152.254 L498.128 151.305 L493.892 151.305 M502.387 149.546 L502.387 164.338 L498.128 164.338 L498.128 160.402 Q496.67 162.763 494.494 163.898 Q492.318 165.009 489.17 165.009 Q485.188 165.009 482.827 162.787 Q480.489 160.541 480.489 156.791 Q480.489 152.416 483.406 150.194 Q486.346 147.972 492.156 147.972 L498.128 147.972 L498.128 147.555 Q498.128 144.615 496.184 143.018 Q494.263 141.398 490.767 141.398 Q488.545 141.398 486.438 141.93 Q484.332 142.463 482.388 143.527 L482.388 139.592 Q484.726 138.69 486.925 138.25 Q489.124 137.787 491.207 137.787 Q496.832 137.787 499.61 140.703 Q502.387 143.62 502.387 149.546 Z" fill="#000000" fill-rule="evenodd" fill-opacity="1" /><path clip-path="url(#clip760)" d="M510.999 128.319 L515.281 128.319 L515.281 149.592 L527.989 138.412 L533.429 138.412 L519.679 150.541 L534.008 164.338 L528.452 164.338 L515.281 151.676 L515.281 164.338 L510.999 164.338 L510.999 128.319 Z" fill="#000000" fill-rule="evenodd" fill-opacity="1" /><path clip-path="url(#clip760)" d="M542.827 131.051 L542.827 138.412 L551.6 138.412 L551.6 141.722 L542.827 141.722 L542.827 155.796 Q542.827 158.967 543.684 159.87 Q544.563 160.773 547.225 160.773 L551.6 160.773 L551.6 164.338 L547.225 164.338 Q542.295 164.338 540.42 162.509 Q538.545 160.657 538.545 155.796 L538.545 141.722 L535.42 141.722 L535.42 138.412 L538.545 138.412 L538.545 131.051 L542.827 131.051 Z" fill="#000000" fill-rule="evenodd" fill-opacity="1" /><polyline clip-path="url(#clip760)" style="stroke:#e26f46; stroke-linecap:round; stroke-linejoin:round; stroke-width:4; stroke-opacity:1; fill:none" points="
  253.409,198.898 399.875,198.898 
  "/>
<circle clip-path="url(#clip760)" cx="326.642" cy="198.898" r="20.3425" fill="#e26f46" fill-rule="evenodd" fill-opacity="1" stroke="#000000" stroke-opacity="1" stroke-width="6.82667"/>
<path clip-path="url(#clip760)" d="M424.286 181.618 L446.138 181.618 L446.138 185.553 L428.962 185.553 L428.962 195.784 L445.42 195.784 L445.42 199.719 L428.962 199.719 L428.962 212.242 L446.554 212.242 L446.554 216.178 L424.286 216.178 L424.286 181.618 Z" fill="#000000" fill-rule="evenodd" fill-opacity="1" /><path clip-path="url(#clip760)" d="M453.615 205.946 L453.615 190.252 L457.874 190.252 L457.874 205.784 Q457.874 209.465 459.309 211.316 Q460.744 213.145 463.615 213.145 Q467.064 213.145 469.054 210.946 Q471.068 208.747 471.068 204.951 L471.068 190.252 L475.327 190.252 L475.327 216.178 L471.068 216.178 L471.068 212.196 Q469.517 214.557 467.457 215.715 Q465.42 216.849 462.712 216.849 Q458.244 216.849 455.929 214.071 Q453.615 211.293 453.615 205.946 M464.332 189.627 L464.332 189.627 Z" fill="#000000" fill-rule="evenodd" fill-opacity="1" /><path clip-path="url(#clip760)" d="M484.101 180.159 L488.36 180.159 L488.36 216.178 L484.101 216.178 L484.101 180.159 Z" fill="#000000" fill-rule="evenodd" fill-opacity="1" /><path clip-path="url(#clip760)" d="M519.448 202.15 L519.448 204.233 L499.864 204.233 Q500.142 208.631 502.503 210.946 Q504.887 213.238 509.124 213.238 Q511.577 213.238 513.869 212.636 Q516.184 212.034 518.452 210.83 L518.452 214.858 Q516.161 215.83 513.753 216.34 Q511.346 216.849 508.869 216.849 Q502.665 216.849 499.031 213.238 Q495.42 209.627 495.42 203.469 Q495.42 197.104 498.846 193.377 Q502.295 189.627 508.128 189.627 Q513.36 189.627 516.392 193.006 Q519.448 196.363 519.448 202.15 M515.188 200.9 Q515.142 197.405 513.221 195.321 Q511.323 193.238 508.174 193.238 Q504.61 193.238 502.457 195.252 Q500.327 197.266 500.003 200.923 L515.188 200.9 Z" fill="#000000" fill-rule="evenodd" fill-opacity="1" /><path clip-path="url(#clip760)" d="M541.461 194.233 Q540.744 193.817 539.887 193.631 Q539.054 193.423 538.035 193.423 Q534.424 193.423 532.48 195.784 Q530.559 198.122 530.559 202.52 L530.559 216.178 L526.276 216.178 L526.276 190.252 L530.559 190.252 L530.559 194.28 Q531.901 191.918 534.054 190.784 Q536.207 189.627 539.285 189.627 Q539.725 189.627 540.258 189.696 Q540.79 189.743 541.438 189.858 L541.461 194.233 Z" fill="#000000" fill-rule="evenodd" fill-opacity="1" /><path clip-path="url(#clip760)" d="M582.549 200.529 L582.549 216.178 L578.29 216.178 L578.29 200.668 Q578.29 196.988 576.855 195.159 Q575.419 193.33 572.549 193.33 Q569.1 193.33 567.109 195.53 Q565.119 197.729 565.119 201.525 L565.119 216.178 L560.836 216.178 L560.836 180.159 L565.119 180.159 L565.119 194.28 Q566.646 191.942 568.707 190.784 Q570.79 189.627 573.498 189.627 Q577.966 189.627 580.257 192.405 Q582.549 195.159 582.549 200.529 Z" fill="#000000" fill-rule="evenodd" fill-opacity="1" /><path clip-path="url(#clip760)" d="M606.669 194.65 L636.345 194.65 L636.345 198.539 L606.669 198.539 L606.669 194.65 M606.669 204.094 L636.345 204.094 L636.345 208.029 L606.669 208.029 L606.669 204.094 Z" fill="#000000" fill-rule="evenodd" fill-opacity="1" /><path clip-path="url(#clip760)" d="M671.507 184.696 Q667.896 184.696 666.067 188.261 Q664.262 191.803 664.262 198.932 Q664.262 206.039 666.067 209.604 Q667.896 213.145 671.507 213.145 Q675.141 213.145 676.947 209.604 Q678.775 206.039 678.775 198.932 Q678.775 191.803 676.947 188.261 Q675.141 184.696 671.507 184.696 M671.507 180.993 Q677.317 180.993 680.373 185.599 Q683.451 190.182 683.451 198.932 Q683.451 207.659 680.373 212.266 Q677.317 216.849 671.507 216.849 Q665.697 216.849 662.618 212.266 Q659.563 207.659 659.563 198.932 Q659.563 190.182 662.618 185.599 Q665.697 180.993 671.507 180.993 Z" fill="#000000" fill-rule="evenodd" fill-opacity="1" /><path clip-path="url(#clip760)" d="M691.669 210.298 L696.553 210.298 L696.553 216.178 L691.669 216.178 L691.669 210.298 Z" fill="#000000" fill-rule="evenodd" fill-opacity="1" /><path clip-path="url(#clip760)" d="M710.766 212.242 L727.085 212.242 L727.085 216.178 L705.141 216.178 L705.141 212.242 Q707.803 209.488 712.386 204.858 Q716.993 200.205 718.173 198.863 Q720.419 196.34 721.298 194.604 Q722.201 192.844 722.201 191.155 Q722.201 188.4 720.257 186.664 Q718.335 184.928 715.234 184.928 Q713.034 184.928 710.581 185.692 Q708.15 186.455 705.372 188.006 L705.372 183.284 Q708.197 182.15 710.65 181.571 Q713.104 180.993 715.141 180.993 Q720.511 180.993 723.706 183.678 Q726.9 186.363 726.9 190.854 Q726.9 192.983 726.09 194.905 Q725.303 196.803 723.196 199.395 Q722.618 200.067 719.516 203.284 Q716.414 206.479 710.766 212.242 Z" fill="#000000" fill-rule="evenodd" fill-opacity="1" /><polyline clip-path="url(#clip760)" style="stroke:#3da44d; stroke-linecap:round; stroke-linejoin:round; stroke-width:4; stroke-opacity:1; fill:none" points="
  253.409,250.738 399.875,250.738 
  "/>
<circle clip-path="url(#clip760)" cx="326.642" cy="250.738" r="20.3425" fill="#3da44d" fill-rule="evenodd" fill-opacity="1" stroke="#000000" stroke-opacity="1" stroke-width="6.82667"/>
<path clip-path="url(#clip760)" d="M424.286 233.458 L446.138 233.458 L446.138 237.393 L428.962 237.393 L428.962 247.624 L445.42 247.624 L445.42 251.559 L428.962 251.559 L428.962 264.082 L446.554 264.082 L446.554 268.018 L424.286 268.018 L424.286 233.458 Z" fill="#000000" fill-rule="evenodd" fill-opacity="1" /><path clip-path="url(#clip760)" d="M453.615 257.786 L453.615 242.092 L457.874 242.092 L457.874 257.624 Q457.874 261.305 459.309 263.156 Q460.744 264.985 463.615 264.985 Q467.064 264.985 469.054 262.786 Q471.068 260.587 471.068 256.791 L471.068 242.092 L475.327 242.092 L475.327 268.018 L471.068 268.018 L471.068 264.036 Q469.517 266.397 467.457 267.555 Q465.42 268.689 462.712 268.689 Q458.244 268.689 455.929 265.911 Q453.615 263.133 453.615 257.786 M464.332 241.467 L464.332 241.467 Z" fill="#000000" fill-rule="evenodd" fill-opacity="1" /><path clip-path="url(#clip760)" d="M484.101 231.999 L488.36 231.999 L488.36 268.018 L484.101 268.018 L484.101 231.999 Z" fill="#000000" fill-rule="evenodd" fill-opacity="1" /><path clip-path="url(#clip760)" d="M519.448 253.99 L519.448 256.073 L499.864 256.073 Q500.142 260.471 502.503 262.786 Q504.887 265.078 509.124 265.078 Q511.577 265.078 513.869 264.476 Q516.184 263.874 518.452 262.67 L518.452 266.698 Q516.161 267.67 513.753 268.18 Q511.346 268.689 508.869 268.689 Q502.665 268.689 499.031 265.078 Q495.42 261.467 495.42 255.309 Q495.42 248.944 498.846 245.217 Q502.295 241.467 508.128 241.467 Q513.36 241.467 516.392 244.846 Q519.448 248.203 519.448 253.99 M515.188 252.74 Q515.142 249.245 513.221 247.161 Q511.323 245.078 508.174 245.078 Q504.61 245.078 502.457 247.092 Q500.327 249.106 500.003 252.763 L515.188 252.74 Z" fill="#000000" fill-rule="evenodd" fill-opacity="1" /><path clip-path="url(#clip760)" d="M541.461 246.073 Q540.744 245.657 539.887 245.471 Q539.054 245.263 538.035 245.263 Q534.424 245.263 532.48 247.624 Q530.559 249.962 530.559 254.36 L530.559 268.018 L526.276 268.018 L526.276 242.092 L530.559 242.092 L530.559 246.12 Q531.901 243.758 534.054 242.624 Q536.207 241.467 539.285 241.467 Q539.725 241.467 540.258 241.536 Q540.79 241.583 541.438 241.698 L541.461 246.073 Z" fill="#000000" fill-rule="evenodd" fill-opacity="1" /><path clip-path="url(#clip760)" d="M582.549 252.369 L582.549 268.018 L578.29 268.018 L578.29 252.508 Q578.29 248.828 576.855 246.999 Q575.419 245.17 572.549 245.17 Q569.1 245.17 567.109 247.37 Q565.119 249.569 565.119 253.365 L565.119 268.018 L560.836 268.018 L560.836 231.999 L565.119 231.999 L565.119 246.12 Q566.646 243.782 568.707 242.624 Q570.79 241.467 573.498 241.467 Q577.966 241.467 580.257 244.245 Q582.549 246.999 582.549 252.369 Z" fill="#000000" fill-rule="evenodd" fill-opacity="1" /><path clip-path="url(#clip760)" d="M606.669 246.49 L636.345 246.49 L636.345 250.379 L606.669 250.379 L606.669 246.49 M606.669 255.934 L636.345 255.934 L636.345 259.869 L606.669 259.869 L606.669 255.934 Z" fill="#000000" fill-rule="evenodd" fill-opacity="1" /><path clip-path="url(#clip760)" d="M671.507 236.536 Q667.896 236.536 666.067 240.101 Q664.262 243.643 664.262 250.772 Q664.262 257.879 666.067 261.444 Q667.896 264.985 671.507 264.985 Q675.141 264.985 676.947 261.444 Q678.775 257.879 678.775 250.772 Q678.775 243.643 676.947 240.101 Q675.141 236.536 671.507 236.536 M671.507 232.833 Q677.317 232.833 680.373 237.439 Q683.451 242.022 683.451 250.772 Q683.451 259.499 680.373 264.106 Q677.317 268.689 671.507 268.689 Q665.697 268.689 662.618 264.106 Q659.563 259.499 659.563 250.772 Q659.563 242.022 662.618 237.439 Q665.697 232.833 671.507 232.833 Z" fill="#000000" fill-rule="evenodd" fill-opacity="1" /><path clip-path="url(#clip760)" d="M691.669 262.138 L696.553 262.138 L696.553 268.018 L691.669 268.018 L691.669 262.138 Z" fill="#000000" fill-rule="evenodd" fill-opacity="1" /><path clip-path="url(#clip760)" d="M716.738 236.536 Q713.127 236.536 711.298 240.101 Q709.493 243.643 709.493 250.772 Q709.493 257.879 711.298 261.444 Q713.127 264.985 716.738 264.985 Q720.372 264.985 722.178 261.444 Q724.007 257.879 724.007 250.772 Q724.007 243.643 722.178 240.101 Q720.372 236.536 716.738 236.536 M716.738 232.833 Q722.548 232.833 725.604 237.439 Q728.683 242.022 728.683 250.772 Q728.683 259.499 725.604 264.106 Q722.548 268.689 716.738 268.689 Q710.928 268.689 707.849 264.106 Q704.794 259.499 704.794 250.772 Q704.794 242.022 707.849 237.439 Q710.928 232.833 716.738 232.833 Z" fill="#000000" fill-rule="evenodd" fill-opacity="1" /><path clip-path="url(#clip760)" d="M740.928 264.082 L757.247 264.082 L757.247 268.018 L735.303 268.018 L735.303 264.082 Q737.965 261.328 742.548 256.698 Q747.155 252.045 748.335 250.703 Q750.581 248.18 751.46 246.444 Q752.363 244.684 752.363 242.995 Q752.363 240.24 750.419 238.504 Q748.497 236.768 745.395 236.768 Q743.196 236.768 740.743 237.532 Q738.312 238.295 735.534 239.846 L735.534 235.124 Q738.358 233.99 740.812 233.411 Q743.266 232.833 745.303 232.833 Q750.673 232.833 753.868 235.518 Q757.062 238.203 757.062 242.694 Q757.062 244.823 756.252 246.745 Q755.465 248.643 753.358 251.235 Q752.78 251.907 749.678 255.124 Q746.576 258.319 740.928 264.082 Z" fill="#000000" fill-rule="evenodd" fill-opacity="1" /></svg>
