<?xml version="1.0" encoding="utf-8"?>
<svg xmlns="http://www.w3.org/2000/svg" xmlns:xlink="http://www.w3.org/1999/xlink" width="600" height="400" viewBox="0 0 2400 1600">
<defs>
  <clipPath id="clip210">
    <rect x="0" y="0" width="2400" height="1600"/>
  </clipPath>
</defs>
<path clip-path="url(#clip210)" d="
M0 1600 L2400 1600 L2400 0 L0 0  Z
  " fill="#ffffff" fill-rule="evenodd" fill-opacity="1"/>
<defs>
  <clipPath id="clip211">
    <rect x="480" y="0" width="1681" height="1600"/>
  </clipPath>
</defs>
<path clip-path="url(#clip210)" d="
M184.191 1423.18 L2352.76 1423.18 L2352.76 47.2441 L184.191 47.2441  Z
  " fill="#ffffff" fill-rule="evenodd" fill-opacity="1"/>
<defs>
  <clipPath id="clip212">
    <rect x="184" y="47" width="2170" height="1377"/>
  </clipPath>
</defs>
<polyline clip-path="url(#clip212)" style="stroke:#000000; stroke-linecap:round; stroke-linejoin:round; stroke-width:2; stroke-opacity:0.1; fill:none" points="
  184.191,1423.18 184.191,47.2441 
  "/>
<polyline clip-path="url(#clip212)" style="stroke:#000000; stroke-linecap:round; stroke-linejoin:round; stroke-width:2; stroke-opacity:0.1; fill:none" points="
  786.57,1423.18 786.57,47.2441 
  "/>
<polyline clip-path="url(#clip212)" style="stroke:#000000; stroke-linecap:round; stroke-linejoin:round; stroke-width:2; stroke-opacity:0.1; fill:none" points="
  1388.95,1423.18 1388.95,47.2441 
  "/>
<polyline clip-path="url(#clip212)" style="stroke:#000000; stroke-linecap:round; stroke-linejoin:round; stroke-width:2; stroke-opacity:0.1; fill:none" points="
  1991.33,1423.18 1991.33,47.2441 
  "/>
<polyline clip-path="url(#clip210)" style="stroke:#000000; stroke-linecap:round; stroke-linejoin:round; stroke-width:4; stroke-opacity:1; fill:none" points="
  184.191,1423.18 2352.76,1423.18 
  "/>
<polyline clip-path="url(#clip210)" style="stroke:#000000; stroke-linecap:round; stroke-linejoin:round; stroke-width:4; stroke-opacity:1; fill:none" points="
  184.191,1423.18 184.191,1404.28 
  "/>
<polyline clip-path="url(#clip210)" style="stroke:#000000; stroke-linecap:round; stroke-linejoin:round; stroke-width:4; stroke-opacity:1; fill:none" points="
  786.57,1423.18 786.57,1404.28 
  "/>
<polyline clip-path="url(#clip210)" style="stroke:#000000; stroke-linecap:round; stroke-linejoin:round; stroke-width:4; stroke-opacity:1; fill:none" points="
  1388.95,1423.18 1388.95,1404.28 
  "/>
<polyline clip-path="url(#clip210)" style="stroke:#000000; stroke-linecap:round; stroke-linejoin:round; stroke-width:4; stroke-opacity:1; fill:none" points="
  1991.33,1423.18 1991.33,1404.28 
  "/>
<path clip-path="url(#clip210)" d="M184.191 1454.1 Q180.58 1454.1 178.751 1457.66 Q176.945 1461.2 176.945 1468.33 Q176.945 1475.44 178.751 1479.01 Q180.58 1482.55 184.191 1482.55 Q187.825 1482.55 189.63 1479.01 Q191.459 1475.44 191.459 1468.33 Q191.459 1461.2 189.63 1457.66 Q187.825 1454.1 184.191 1454.1 M184.191 1450.39 Q190.001 1450.39 193.056 1455 Q196.135 1459.58 196.135 1468.33 Q196.135 1477.06 193.056 1481.67 Q190.001 1486.25 184.191 1486.25 Q178.381 1486.25 175.302 1481.67 Q172.246 1477.06 172.246 1468.33 Q172.246 1459.58 175.302 1455 Q178.381 1450.39 184.191 1450.39 Z" fill="#000000" fill-rule="evenodd" fill-opacity="1" /><path clip-path="url(#clip210)" d="M735.181 1481.64 L751.501 1481.64 L751.501 1485.58 L729.556 1485.58 L729.556 1481.64 Q732.218 1478.89 736.802 1474.26 Q741.408 1469.61 742.589 1468.27 Q744.834 1465.74 745.714 1464.01 Q746.616 1462.25 746.616 1460.56 Q746.616 1457.8 744.672 1456.07 Q742.751 1454.33 739.649 1454.33 Q737.45 1454.33 734.996 1455.09 Q732.566 1455.86 729.788 1457.41 L729.788 1452.69 Q732.612 1451.55 735.066 1450.97 Q737.519 1450.39 739.556 1450.39 Q744.927 1450.39 748.121 1453.08 Q751.315 1455.77 751.315 1460.26 Q751.315 1462.39 750.505 1464.31 Q749.718 1466.2 747.612 1468.8 Q747.033 1469.47 743.931 1472.69 Q740.829 1475.88 735.181 1481.64 Z" fill="#000000" fill-rule="evenodd" fill-opacity="1" /><path clip-path="url(#clip210)" d="M771.315 1454.1 Q767.704 1454.1 765.876 1457.66 Q764.07 1461.2 764.07 1468.33 Q764.07 1475.44 765.876 1479.01 Q767.704 1482.55 771.315 1482.55 Q774.95 1482.55 776.755 1479.01 Q778.584 1475.44 778.584 1468.33 Q778.584 1461.2 776.755 1457.66 Q774.95 1454.1 771.315 1454.1 M771.315 1450.39 Q777.126 1450.39 780.181 1455 Q783.26 1459.58 783.26 1468.33 Q783.26 1477.06 780.181 1481.67 Q777.126 1486.25 771.315 1486.25 Q765.505 1486.25 762.427 1481.67 Q759.371 1477.06 759.371 1468.33 Q759.371 1459.58 762.427 1455 Q765.505 1450.39 771.315 1450.39 Z" fill="#000000" fill-rule="evenodd" fill-opacity="1" /><path clip-path="url(#clip210)" d="M801.477 1454.1 Q797.866 1454.1 796.037 1457.66 Q794.232 1461.2 794.232 1468.33 Q794.232 1475.44 796.037 1479.01 Q797.866 1482.55 801.477 1482.55 Q805.111 1482.55 806.917 1479.01 Q808.746 1475.44 808.746 1468.33 Q808.746 1461.2 806.917 1457.66 Q805.111 1454.1 801.477 1454.1 M801.477 1450.39 Q807.287 1450.39 810.343 1455 Q813.422 1459.58 813.422 1468.33 Q813.422 1477.06 810.343 1481.67 Q807.287 1486.25 801.477 1486.25 Q795.667 1486.25 792.588 1481.67 Q789.533 1477.06 789.533 1468.33 Q789.533 1459.58 792.588 1455 Q795.667 1450.39 801.477 1450.39 Z" fill="#000000" fill-rule="evenodd" fill-opacity="1" /><path clip-path="url(#clip210)" d="M831.639 1454.1 Q828.028 1454.1 826.199 1457.66 Q824.394 1461.2 824.394 1468.33 Q824.394 1475.44 826.199 1479.01 Q828.028 1482.55 831.639 1482.55 Q835.273 1482.55 837.079 1479.01 Q838.908 1475.44 838.908 1468.33 Q838.908 1461.2 837.079 1457.66 Q835.273 1454.1 831.639 1454.1 M831.639 1450.39 Q837.449 1450.39 840.505 1455 Q843.583 1459.58 843.583 1468.33 Q843.583 1477.06 840.505 1481.67 Q837.449 1486.25 831.639 1486.25 Q825.829 1486.25 822.75 1481.67 Q819.695 1477.06 819.695 1468.33 Q819.695 1459.58 822.75 1455 Q825.829 1450.39 831.639 1450.39 Z" fill="#000000" fill-rule="evenodd" fill-opacity="1" /><path clip-path="url(#clip210)" d="M1346.96 1455.09 L1335.15 1473.54 L1346.96 1473.54 L1346.96 1455.09 M1345.73 1451.02 L1351.61 1451.02 L1351.61 1473.54 L1356.54 1473.54 L1356.54 1477.43 L1351.61 1477.43 L1351.61 1485.58 L1346.96 1485.58 L1346.96 1477.43 L1331.36 1477.43 L1331.36 1472.92 L1345.73 1451.02 Z" fill="#000000" fill-rule="evenodd" fill-opacity="1" /><path clip-path="url(#clip210)" d="M1374.27 1454.1 Q1370.66 1454.1 1368.83 1457.66 Q1367.03 1461.2 1367.03 1468.33 Q1367.03 1475.44 1368.83 1479.01 Q1370.66 1482.55 1374.27 1482.55 Q1377.91 1482.55 1379.71 1479.01 Q1381.54 1475.44 1381.54 1468.33 Q1381.54 1461.2 1379.71 1457.66 Q1377.91 1454.1 1374.27 1454.1 M1374.27 1450.39 Q1380.08 1450.39 1383.14 1455 Q1386.22 1459.58 1386.22 1468.33 Q1386.22 1477.06 1383.14 1481.67 Q1380.08 1486.25 1374.27 1486.25 Q1368.46 1486.25 1365.38 1481.67 Q1362.33 1477.06 1362.33 1468.33 Q1362.33 1459.58 1365.38 1455 Q1368.46 1450.39 1374.27 1450.39 Z" fill="#000000" fill-rule="evenodd" fill-opacity="1" /><path clip-path="url(#clip210)" d="M1404.44 1454.1 Q1400.82 1454.1 1399 1457.66 Q1397.19 1461.2 1397.19 1468.33 Q1397.19 1475.44 1399 1479.01 Q1400.82 1482.55 1404.44 1482.55 Q1408.07 1482.55 1409.87 1479.01 Q1411.7 1475.44 1411.7 1468.33 Q1411.7 1461.2 1409.87 1457.66 Q1408.07 1454.1 1404.44 1454.1 M1404.44 1450.39 Q1410.25 1450.39 1413.3 1455 Q1416.38 1459.58 1416.38 1468.33 Q1416.38 1477.06 1413.3 1481.67 Q1410.25 1486.25 1404.44 1486.25 Q1398.63 1486.25 1395.55 1481.67 Q1392.49 1477.06 1392.49 1468.33 Q1392.49 1459.58 1395.55 1455 Q1398.63 1450.39 1404.44 1450.39 Z" fill="#000000" fill-rule="evenodd" fill-opacity="1" /><path clip-path="url(#clip210)" d="M1434.6 1454.1 Q1430.99 1454.1 1429.16 1457.66 Q1427.35 1461.2 1427.35 1468.33 Q1427.35 1475.44 1429.16 1479.01 Q1430.99 1482.55 1434.6 1482.55 Q1438.23 1482.55 1440.04 1479.01 Q1441.87 1475.44 1441.87 1468.33 Q1441.87 1461.2 1440.04 1457.66 Q1438.23 1454.1 1434.6 1454.1 M1434.6 1450.39 Q1440.41 1450.39 1443.46 1455 Q1446.54 1459.58 1446.54 1468.33 Q1446.54 1477.06 1443.46 1481.67 Q1440.41 1486.25 1434.6 1486.25 Q1428.79 1486.25 1425.71 1481.67 Q1422.65 1477.06 1422.65 1468.33 Q1422.65 1459.58 1425.71 1455 Q1428.79 1450.39 1434.6 1450.39 Z" fill="#000000" fill-rule="evenodd" fill-opacity="1" /><path clip-path="url(#clip210)" d="M1946.57 1466.44 Q1943.42 1466.44 1941.57 1468.59 Q1939.74 1470.74 1939.74 1474.49 Q1939.74 1478.22 1941.57 1480.39 Q1943.42 1482.55 1946.57 1482.55 Q1949.72 1482.55 1951.55 1480.39 Q1953.4 1478.22 1953.4 1474.49 Q1953.4 1470.74 1951.55 1468.59 Q1949.72 1466.44 1946.57 1466.44 M1955.85 1451.78 L1955.85 1456.04 Q1954.09 1455.21 1952.29 1454.77 Q1950.51 1454.33 1948.75 1454.33 Q1944.12 1454.33 1941.66 1457.45 Q1939.23 1460.58 1938.89 1466.9 Q1940.25 1464.89 1942.31 1463.82 Q1944.37 1462.73 1946.85 1462.73 Q1952.06 1462.73 1955.07 1465.9 Q1958.1 1469.05 1958.1 1474.49 Q1958.1 1479.82 1954.95 1483.03 Q1951.8 1486.25 1946.57 1486.25 Q1940.58 1486.25 1937.41 1481.67 Q1934.23 1477.06 1934.23 1468.33 Q1934.23 1460.14 1938.12 1455.28 Q1942.01 1450.39 1948.56 1450.39 Q1950.32 1450.39 1952.1 1450.74 Q1953.91 1451.09 1955.85 1451.78 Z" fill="#000000" fill-rule="evenodd" fill-opacity="1" /><path clip-path="url(#clip210)" d="M1976.15 1454.1 Q1972.54 1454.1 1970.72 1457.66 Q1968.91 1461.2 1968.91 1468.33 Q1968.91 1475.44 1970.72 1479.01 Q1972.54 1482.55 1976.15 1482.55 Q1979.79 1482.55 1981.59 1479.01 Q1983.42 1475.44 1983.42 1468.33 Q1983.42 1461.2 1981.59 1457.66 Q1979.79 1454.1 1976.15 1454.1 M1976.15 1450.39 Q1981.96 1450.39 1985.02 1455 Q1988.1 1459.58 1988.1 1468.33 Q1988.1 1477.06 1985.02 1481.67 Q1981.96 1486.25 1976.15 1486.25 Q1970.34 1486.25 1967.27 1481.67 Q1964.21 1477.06 1964.21 1468.33 Q1964.21 1459.58 1967.27 1455 Q1970.34 1450.39 1976.15 1450.39 Z" fill="#000000" fill-rule="evenodd" fill-opacity="1" /><path clip-path="url(#clip210)" d="M2006.32 1454.1 Q2002.71 1454.1 2000.88 1457.66 Q1999.07 1461.2 1999.07 1468.33 Q1999.07 1475.44 2000.88 1479.01 Q2002.71 1482.55 2006.32 1482.55 Q2009.95 1482.55 2011.76 1479.01 Q2013.59 1475.44 2013.59 1468.33 Q2013.59 1461.2 2011.76 1457.66 Q2009.95 1454.1 2006.32 1454.1 M2006.32 1450.39 Q2012.13 1450.39 2015.18 1455 Q2018.26 1459.58 2018.26 1468.33 Q2018.26 1477.06 2015.18 1481.67 Q2012.13 1486.25 2006.32 1486.25 Q2000.51 1486.25 1997.43 1481.67 Q1994.37 1477.06 1994.37 1468.33 Q1994.37 1459.58 1997.43 1455 Q2000.51 1450.39 2006.32 1450.39 Z" fill="#000000" fill-rule="evenodd" fill-opacity="1" /><path clip-path="url(#clip210)" d="M2036.48 1454.1 Q2032.87 1454.1 2031.04 1457.66 Q2029.23 1461.2 2029.23 1468.33 Q2029.23 1475.44 2031.04 1479.01 Q2032.87 1482.55 2036.48 1482.55 Q2040.11 1482.55 2041.92 1479.01 Q2043.75 1475.44 2043.75 1468.33 Q2043.75 1461.2 2041.92 1457.66 Q2040.11 1454.1 2036.48 1454.1 M2036.48 1450.39 Q2042.29 1450.39 2045.34 1455 Q2048.42 1459.58 2048.42 1468.33 Q2048.42 1477.06 2045.34 1481.67 Q2042.29 1486.25 2036.48 1486.25 Q2030.67 1486.25 2027.59 1481.67 Q2024.53 1477.06 2024.53 1468.33 Q2024.53 1459.58 2027.59 1455 Q2030.67 1450.39 2036.48 1450.39 Z" fill="#000000" fill-rule="evenodd" fill-opacity="1" /><path clip-path="url(#clip210)" d="M1267.53 1522.27 L1267.53 1532.4 L1279.6 1532.4 L1279.6 1536.95 L1267.53 1536.95 L1267.53 1556.3 Q1267.53 1560.66 1268.71 1561.9 Q1269.92 1563.14 1273.58 1563.14 L1279.6 1563.14 L1279.6 1568.04 L1273.58 1568.04 Q1266.8 1568.04 1264.22 1565.53 Q1261.65 1562.98 1261.65 1556.3 L1261.65 1536.95 L1257.35 1536.95 L1257.35 1532.4 L1261.65 1532.4 L1261.65 1522.27 L1267.53 1522.27 Z" fill="#000000" fill-rule="evenodd" fill-opacity="1" /><polyline clip-path="url(#clip212)" style="stroke:#000000; stroke-linecap:round; stroke-linejoin:round; stroke-width:2; stroke-opacity:0.1; fill:none" points="
  184.191,1384.24 2352.76,1384.24 
  "/>
<polyline clip-path="url(#clip212)" style="stroke:#000000; stroke-linecap:round; stroke-linejoin:round; stroke-width:2; stroke-opacity:0.1; fill:none" points="
  184.191,1059.73 2352.76,1059.73 
  "/>
<polyline clip-path="url(#clip212)" style="stroke:#000000; stroke-linecap:round; stroke-linejoin:round; stroke-width:2; stroke-opacity:0.1; fill:none" points="
  184.191,735.212 2352.76,735.212 
  "/>
<polyline clip-path="url(#clip212)" style="stroke:#000000; stroke-linecap:round; stroke-linejoin:round; stroke-width:2; stroke-opacity:0.1; fill:none" points="
  184.191,410.699 2352.76,410.699 
  "/>
<polyline clip-path="url(#clip212)" style="stroke:#000000; stroke-linecap:round; stroke-linejoin:round; stroke-width:2; stroke-opacity:0.1; fill:none" points="
  184.191,86.1857 2352.76,86.1857 
  "/>
<polyline clip-path="url(#clip210)" style="stroke:#000000; stroke-linecap:round; stroke-linejoin:round; stroke-width:4; stroke-opacity:1; fill:none" points="
  184.191,1423.18 184.191,47.2441 
  "/>
<polyline clip-path="url(#clip210)" style="stroke:#000000; stroke-linecap:round; stroke-linejoin:round; stroke-width:4; stroke-opacity:1; fill:none" points="
  184.191,1384.24 203.088,1384.24 
  "/>
<polyline clip-path="url(#clip210)" style="stroke:#000000; stroke-linecap:round; stroke-linejoin:round; stroke-width:4; stroke-opacity:1; fill:none" points="
  184.191,1059.73 203.088,1059.73 
  "/>
<polyline clip-path="url(#clip210)" style="stroke:#000000; stroke-linecap:round; stroke-linejoin:round; stroke-width:4; stroke-opacity:1; fill:none" points="
  184.191,735.212 203.088,735.212 
  "/>
<polyline clip-path="url(#clip210)" style="stroke:#000000; stroke-linecap:round; stroke-linejoin:round; stroke-width:4; stroke-opacity:1; fill:none" points="
  184.191,410.699 203.088,410.699 
  "/>
<polyline clip-path="url(#clip210)" style="stroke:#000000; stroke-linecap:round; stroke-linejoin:round; stroke-width:4; stroke-opacity:1; fill:none" points="
  184.191,86.1857 203.088,86.1857 
  "/>
<path clip-path="url(#clip210)" d="M91.0151 1370.04 Q87.404 1370.04 85.5753 1373.6 Q83.7697 1377.14 83.7697 1384.27 Q83.7697 1391.38 85.5753 1394.94 Q87.404 1398.49 91.0151 1398.49 Q94.6493 1398.49 96.4548 1394.94 Q98.2835 1391.38 98.2835 1384.27 Q98.2835 1377.14 96.4548 1373.6 Q94.6493 1370.04 91.0151 1370.04 M91.0151 1366.33 Q96.8252 1366.33 99.8808 1370.94 Q102.959 1375.52 102.959 1384.27 Q102.959 1393 99.8808 1397.61 Q96.8252 1402.19 91.0151 1402.19 Q85.2049 1402.19 82.1262 1397.61 Q79.0707 1393 79.0707 1384.27 Q79.0707 1375.52 82.1262 1370.94 Q85.2049 1366.33 91.0151 1366.33 Z" fill="#000000" fill-rule="evenodd" fill-opacity="1" /><path clip-path="url(#clip210)" d="M111.177 1395.64 L116.061 1395.64 L116.061 1401.52 L111.177 1401.52 L111.177 1395.64 Z" fill="#000000" fill-rule="evenodd" fill-opacity="1" /><path clip-path="url(#clip210)" d="M136.246 1370.04 Q132.635 1370.04 130.807 1373.6 Q129.001 1377.14 129.001 1384.27 Q129.001 1391.38 130.807 1394.94 Q132.635 1398.49 136.246 1398.49 Q139.881 1398.49 141.686 1394.94 Q143.515 1391.38 143.515 1384.27 Q143.515 1377.14 141.686 1373.6 Q139.881 1370.04 136.246 1370.04 M136.246 1366.33 Q142.056 1366.33 145.112 1370.94 Q148.191 1375.52 148.191 1384.27 Q148.191 1393 145.112 1397.61 Q142.056 1402.19 136.246 1402.19 Q130.436 1402.19 127.357 1397.61 Q124.302 1393 124.302 1384.27 Q124.302 1375.52 127.357 1370.94 Q130.436 1366.33 136.246 1366.33 Z" fill="#000000" fill-rule="evenodd" fill-opacity="1" /><path clip-path="url(#clip210)" d="M86.0382 1073.07 L102.358 1073.07 L102.358 1077.01 L80.4133 1077.01 L80.4133 1073.07 Q83.0753 1070.32 87.6586 1065.69 Q92.2651 1061.03 93.4456 1059.69 Q95.691 1057.17 96.5706 1055.43 Q97.4734 1053.67 97.4734 1051.98 Q97.4734 1049.23 95.5289 1047.49 Q93.6076 1045.76 90.5058 1045.76 Q88.3067 1045.76 85.8531 1046.52 Q83.4225 1047.28 80.6447 1048.83 L80.6447 1044.11 Q83.4688 1042.98 85.9225 1042.4 Q88.3762 1041.82 90.4132 1041.82 Q95.7836 1041.82 98.978 1044.51 Q102.172 1047.19 102.172 1051.68 Q102.172 1053.81 101.362 1055.73 Q100.575 1057.63 98.4687 1060.22 Q97.89 1060.89 94.7882 1064.11 Q91.6864 1067.31 86.0382 1073.07 Z" fill="#000000" fill-rule="evenodd" fill-opacity="1" /><path clip-path="url(#clip210)" d="M112.172 1071.13 L117.057 1071.13 L117.057 1077.01 L112.172 1077.01 L112.172 1071.13 Z" fill="#000000" fill-rule="evenodd" fill-opacity="1" /><path clip-path="url(#clip210)" d="M127.288 1042.45 L145.644 1042.45 L145.644 1046.38 L131.57 1046.38 L131.57 1054.85 Q132.589 1054.51 133.607 1054.34 Q134.626 1054.16 135.644 1054.16 Q141.431 1054.16 144.811 1057.33 Q148.191 1060.5 148.191 1065.92 Q148.191 1071.5 144.718 1074.6 Q141.246 1077.68 134.927 1077.68 Q132.751 1077.68 130.482 1077.31 Q128.237 1076.94 125.83 1076.19 L125.83 1071.5 Q127.913 1072.63 130.135 1073.19 Q132.357 1073.74 134.834 1073.74 Q138.839 1073.74 141.177 1071.63 Q143.515 1069.53 143.515 1065.92 Q143.515 1062.31 141.177 1060.2 Q138.839 1058.09 134.834 1058.09 Q132.959 1058.09 131.084 1058.51 Q129.232 1058.93 127.288 1059.81 L127.288 1042.45 Z" fill="#000000" fill-rule="evenodd" fill-opacity="1" /><path clip-path="url(#clip210)" d="M81.0614 717.932 L99.4178 717.932 L99.4178 721.867 L85.3438 721.867 L85.3438 730.339 Q86.3623 729.992 87.3808 729.83 Q88.3993 729.645 89.4178 729.645 Q95.2049 729.645 98.5845 732.816 Q101.964 735.987 101.964 741.404 Q101.964 746.983 98.4919 750.085 Q95.0197 753.163 88.7003 753.163 Q86.5243 753.163 84.2558 752.793 Q82.0105 752.423 79.6031 751.682 L79.6031 746.983 Q81.6864 748.117 83.9086 748.673 Q86.1308 749.228 88.6077 749.228 Q92.6123 749.228 94.9502 747.122 Q97.2882 745.015 97.2882 741.404 Q97.2882 737.793 94.9502 735.687 Q92.6123 733.58 88.6077 733.58 Q86.7327 733.58 84.8577 733.997 Q83.0058 734.413 81.0614 735.293 L81.0614 717.932 Z" fill="#000000" fill-rule="evenodd" fill-opacity="1" /><path clip-path="url(#clip210)" d="M111.177 746.612 L116.061 746.612 L116.061 752.492 L111.177 752.492 L111.177 746.612 Z" fill="#000000" fill-rule="evenodd" fill-opacity="1" /><path clip-path="url(#clip210)" d="M136.246 721.011 Q132.635 721.011 130.807 724.575 Q129.001 728.117 129.001 735.247 Q129.001 742.353 130.807 745.918 Q132.635 749.46 136.246 749.46 Q139.881 749.46 141.686 745.918 Q143.515 742.353 143.515 735.247 Q143.515 728.117 141.686 724.575 Q139.881 721.011 136.246 721.011 M136.246 717.307 Q142.056 717.307 145.112 721.913 Q148.191 726.497 148.191 735.247 Q148.191 743.973 145.112 748.58 Q142.056 753.163 136.246 753.163 Q130.436 753.163 127.357 748.58 Q124.302 743.973 124.302 735.247 Q124.302 726.497 127.357 721.913 Q130.436 717.307 136.246 717.307 Z" fill="#000000" fill-rule="evenodd" fill-opacity="1" /><path clip-path="url(#clip210)" d="M80.8299 393.419 L103.052 393.419 L103.052 395.41 L90.5058 427.979 L85.6216 427.979 L97.4271 397.354 L80.8299 397.354 L80.8299 393.419 Z" fill="#000000" fill-rule="evenodd" fill-opacity="1" /><path clip-path="url(#clip210)" d="M112.172 422.099 L117.057 422.099 L117.057 427.979 L112.172 427.979 L112.172 422.099 Z" fill="#000000" fill-rule="evenodd" fill-opacity="1" /><path clip-path="url(#clip210)" d="M127.288 393.419 L145.644 393.419 L145.644 397.354 L131.57 397.354 L131.57 405.826 Q132.589 405.479 133.607 405.317 Q134.626 405.132 135.644 405.132 Q141.431 405.132 144.811 408.303 Q148.191 411.474 148.191 416.891 Q148.191 422.47 144.718 425.571 Q141.246 428.65 134.927 428.65 Q132.751 428.65 130.482 428.28 Q128.237 427.909 125.83 427.169 L125.83 422.47 Q127.913 423.604 130.135 424.159 Q132.357 424.715 134.834 424.715 Q138.839 424.715 141.177 422.608 Q143.515 420.502 143.515 416.891 Q143.515 413.28 141.177 411.173 Q138.839 409.067 134.834 409.067 Q132.959 409.067 131.084 409.484 Q129.232 409.9 127.288 410.78 L127.288 393.419 Z" fill="#000000" fill-rule="evenodd" fill-opacity="1" /><path clip-path="url(#clip210)" d="M51.6634 99.5305 L59.3023 99.5305 L59.3023 73.1649 L50.9921 74.8316 L50.9921 70.5723 L59.256 68.9057 L63.9319 68.9057 L63.9319 99.5305 L71.5707 99.5305 L71.5707 103.466 L51.6634 103.466 L51.6634 99.5305 Z" fill="#000000" fill-rule="evenodd" fill-opacity="1" /><path clip-path="url(#clip210)" d="M91.0151 71.9844 Q87.404 71.9844 85.5753 75.5492 Q83.7697 79.0908 83.7697 86.2204 Q83.7697 93.3268 85.5753 96.8916 Q87.404 100.433 91.0151 100.433 Q94.6493 100.433 96.4548 96.8916 Q98.2835 93.3268 98.2835 86.2204 Q98.2835 79.0908 96.4548 75.5492 Q94.6493 71.9844 91.0151 71.9844 M91.0151 68.2807 Q96.8252 68.2807 99.8808 72.8871 Q102.959 77.4704 102.959 86.2204 Q102.959 94.9472 99.8808 99.5537 Q96.8252 104.137 91.0151 104.137 Q85.2049 104.137 82.1262 99.5537 Q79.0707 94.9472 79.0707 86.2204 Q79.0707 77.4704 82.1262 72.8871 Q85.2049 68.2807 91.0151 68.2807 Z" fill="#000000" fill-rule="evenodd" fill-opacity="1" /><path clip-path="url(#clip210)" d="M111.177 97.5861 L116.061 97.5861 L116.061 103.466 L111.177 103.466 L111.177 97.5861 Z" fill="#000000" fill-rule="evenodd" fill-opacity="1" /><path clip-path="url(#clip210)" d="M136.246 71.9844 Q132.635 71.9844 130.807 75.5492 Q129.001 79.0908 129.001 86.2204 Q129.001 93.3268 130.807 96.8916 Q132.635 100.433 136.246 100.433 Q139.881 100.433 141.686 96.8916 Q143.515 93.3268 143.515 86.2204 Q143.515 79.0908 141.686 75.5492 Q139.881 71.9844 136.246 71.9844 M136.246 68.2807 Q142.056 68.2807 145.112 72.8871 Q148.191 77.4704 148.191 86.2204 Q148.191 94.9472 145.112 99.5537 Q142.056 104.137 136.246 104.137 Q130.436 104.137 127.357 99.5537 Q124.302 94.9472 124.302 86.2204 Q124.302 77.4704 127.357 72.8871 Q130.436 68.2807 136.246 68.2807 Z" fill="#000000" fill-rule="evenodd" fill-opacity="1" /><polyline clip-path="url(#clip212)" style="stroke:#009af9; stroke-linecap:round; stroke-linejoin:round; stroke-width:4; stroke-opacity:1; fill:none" points="
  184.191,86.1857 186.361,89.2966 188.532,92.3927 190.703,95.4739 192.874,98.5403 195.044,101.592 197.215,104.629 199.386,107.652 201.557,110.66 203.727,113.653 
  205.898,116.633 208.069,119.598 210.24,122.549 212.41,125.485 214.581,128.408 216.752,131.316 218.922,134.211 221.093,137.092 223.264,139.959 225.435,142.812 
  227.605,145.652 229.776,148.478 231.947,151.29 234.118,154.089 236.288,156.874 238.459,159.646 240.63,162.405 242.801,165.151 244.971,167.883 247.142,170.603 
  249.313,173.309 251.483,176.002 253.654,178.683 255.825,181.35 257.996,184.005 260.166,186.647 262.337,189.277 264.508,191.894 266.679,194.498 268.849,197.09 
  271.02,199.669 273.191,202.236 275.362,204.791 277.532,207.333 279.703,209.864 281.874,212.382 284.045,214.888 286.215,217.382 288.386,219.864 290.557,222.334 
  292.727,224.792 294.898,227.239 297.069,229.674 299.24,232.097 301.41,234.509 303.581,236.909 305.752,239.297 307.923,241.674 310.093,244.04 312.264,246.394 
  314.435,248.737 316.606,251.069 318.776,253.39 320.947,255.699 323.118,257.998 325.289,260.285 327.459,262.562 329.63,264.827 331.801,267.082 333.971,269.326 
  336.142,271.559 338.313,273.781 340.484,275.993 342.654,278.194 344.825,280.385 346.996,282.565 349.167,284.734 351.337,286.894 353.508,289.043 355.679,291.181 
  357.85,293.309 360.02,295.428 362.191,297.536 364.362,299.633 366.533,301.721 368.703,303.799 370.874,305.867 373.045,307.925 375.215,309.973 377.386,312.011 
  379.557,314.04 381.728,316.059 383.898,318.068 386.069,320.067 388.24,322.057 390.411,324.038 392.581,326.009 394.752,327.97 396.923,329.922 399.094,331.865 
  401.264,333.798 403.435,335.722 405.606,337.637 407.776,339.543 409.947,341.44 412.118,343.327 414.289,345.205 416.459,347.075 418.63,348.935 420.801,350.787 
  422.972,352.629 425.142,354.463 427.313,356.288 429.484,358.104 431.655,359.912 433.825,361.711 435.996,363.501 438.167,365.283 440.338,367.056 442.508,368.82 
  444.679,370.576 446.85,372.324 449.02,374.064 451.191,375.795 453.362,377.517 455.533,379.232 457.703,380.938 459.874,382.636 462.045,384.326 464.216,386.008 
  466.386,387.682 468.557,389.348 470.728,391.006 472.899,392.656 475.069,394.298 477.24,395.932 479.411,397.558 481.582,399.177 483.752,400.788 485.923,402.391 
  488.094,403.986 490.264,405.574 492.435,407.154 494.606,408.726 496.777,410.291 498.947,411.849 501.118,413.399 503.289,414.941 505.46,416.477 507.63,418.004 
  509.801,419.525 511.972,421.038 514.143,422.544 516.313,424.043 518.484,425.534 520.655,427.018 522.825,428.496 524.996,429.966 527.167,431.429 529.338,432.885 
  531.508,434.334 533.679,435.776 535.85,437.211 538.021,438.639 540.191,440.061 542.362,441.475 544.533,442.883 546.704,444.284 548.874,445.679 551.045,447.066 
  553.216,448.447 555.387,449.822 557.557,451.19 559.728,452.551 561.899,453.906 564.069,455.254 566.24,456.596 568.411,457.932 570.582,459.261 572.752,460.584 
  574.923,461.9 577.094,463.211 579.265,464.515 581.435,465.813 583.606,467.104 585.777,468.389 587.948,469.668 590.118,470.941 592.289,472.207 594.46,473.468 
  596.631,474.723 598.801,475.971 600.972,477.214 603.143,478.451 605.313,479.681 607.484,480.906 609.655,482.125 611.826,483.339 613.996,484.546 616.167,485.748 
  618.338,486.943 620.509,488.133 622.679,489.318 624.85,490.496 627.021,491.669 629.192,492.837 631.362,493.999 633.533,495.155 635.704,496.305 637.874,497.451 
  640.045,498.59 642.216,499.724 644.387,500.853 646.557,501.976 648.728,503.094 650.899,504.207 653.07,505.314 655.24,506.416 657.411,507.512 659.582,508.603 
  661.753,509.689 663.923,510.77 666.094,511.846 668.265,512.916 670.436,513.982 672.606,515.042 674.777,516.097 676.948,517.147 679.118,518.192 681.289,519.233 
  683.46,520.268 685.631,521.298 687.801,522.323 689.972,523.343 692.143,524.359 694.314,525.37 696.484,526.375 698.655,527.376 700.826,528.373 702.997,529.364 
  705.167,530.351 707.338,531.333 709.509,532.311 711.68,533.283 713.85,534.252 716.021,535.215 718.192,536.174 720.362,537.128 722.533,538.078 724.704,539.022 
  726.875,539.963 729.045,540.899 731.216,541.83 733.387,542.757 735.558,543.68 737.728,544.598 739.899,545.511 742.07,546.421 744.241,547.326 746.411,548.227 
  748.582,549.123 750.753,550.015 752.924,550.903 755.094,551.786 757.265,552.666 759.436,553.541 761.606,554.412 763.777,555.278 765.948,556.141 768.119,556.999 
  770.289,557.853 772.46,558.704 774.631,559.55 776.802,560.392 778.972,561.23 781.143,562.064 783.314,562.894 785.485,563.719 787.655,564.541 789.826,565.359 
  791.997,566.174 794.167,566.984 796.338,567.79 798.509,568.592 800.68,569.391 802.85,570.186 805.021,570.976 807.192,571.763 809.363,572.547 811.533,573.326 
  813.704,574.102 815.875,574.874 818.046,575.642 820.216,576.407 822.387,577.168 824.558,577.925 826.729,578.679 828.899,579.429 831.07,580.176 833.241,580.919 
  835.411,581.658 837.582,582.394 839.753,583.126 841.924,583.855 844.094,584.58 846.265,585.302 848.436,586.021 850.607,586.736 852.777,587.447 854.948,588.156 
  857.119,588.86 859.29,589.562 861.46,590.26 863.631,590.955 865.802,591.647 867.973,592.335 870.143,593.02 872.314,593.702 874.485,594.381 876.655,595.056 
  878.826,595.728 880.997,596.397 883.168,597.063 885.338,597.725 887.509,598.384 889.68,599.04 891.851,599.692 894.021,600.342 896.192,600.988 898.363,601.632 
  900.534,602.272 902.704,602.909 904.875,603.543 907.046,604.175 909.216,604.803 911.387,605.428 913.558,606.05 915.729,606.669 917.899,607.286 920.07,607.899 
  922.241,608.509 924.412,609.117 926.582,609.721 928.753,610.323 930.924,610.922 933.095,611.518 935.265,612.111 937.436,612.701 939.607,613.288 941.778,613.872 
  943.948,614.454 946.119,615.033 948.29,615.609 950.46,616.182 952.631,616.753 954.802,617.321 956.973,617.886 959.143,618.448 961.314,619.008 963.485,619.565 
  965.656,620.119 967.826,620.671 969.997,621.22 972.168,621.766 974.339,622.31 976.509,622.851 978.68,623.389 980.851,623.925 983.022,624.458 985.192,624.989 
  987.363,625.517 989.534,626.043 991.704,626.566 993.875,627.086 996.046,627.604 998.217,628.12 1000.39,628.633 1002.56,629.144 1004.73,629.652 1006.9,630.158 
  1009.07,630.661 1011.24,631.162 1013.41,631.66 1015.58,632.156 1017.75,632.65 1019.92,633.142 1022.09,633.631 1024.27,634.117 1026.44,634.602 1028.61,635.084 
  1030.78,635.563 1032.95,636.041 1035.12,636.516 1037.29,636.989 1039.46,637.46 1041.63,637.928 1043.8,638.394 1045.97,638.859 1048.14,639.32 1050.31,639.78 
  1052.49,640.238 1054.66,640.693 1056.83,641.146 1059,641.597 1061.17,642.046 1063.34,642.493 1065.51,642.938 1067.68,643.38 1069.85,643.821 1072.02,644.259 
  1074.19,644.696 1076.36,645.13 1078.53,645.562 1080.7,645.991 1082.88,646.419 1085.05,646.845 1087.22,647.268 1089.39,647.69 1091.56,648.109 1093.73,648.527 
  1095.9,648.942 1098.07,649.356 1100.24,649.767 1102.41,650.177 1104.58,650.585 1106.75,650.99 1108.92,651.394 1111.09,651.796 1113.27,652.196 1115.44,652.594 
  1117.61,652.99 1119.78,653.384 1121.95,653.777 1124.12,654.167 1126.29,654.556 1128.46,654.942 1130.63,655.327 1132.8,655.71 1134.97,656.092 1137.14,656.471 
  1139.31,656.848 1141.49,657.224 1143.66,657.598 1145.83,657.97 1148,658.34 1150.17,658.709 1152.34,659.076 1154.51,659.441 1156.68,659.804 1158.85,660.165 
  1161.02,660.525 1163.19,660.883 1165.36,661.239 1167.53,661.594 1169.7,661.947 1171.88,662.298 1174.05,662.647 1176.22,662.995 1178.39,663.341 1180.56,663.686 
  1182.73,664.028 1184.9,664.37 1187.07,664.709 1189.24,665.047 1191.41,665.383 1193.58,665.718 1195.75,666.05 1197.92,666.382 1200.1,666.712 1202.27,667.04 
  1204.44,667.366 1206.61,667.691 1208.78,668.015 1210.95,668.337 1213.12,668.657 1215.29,668.976 1217.46,669.293 1219.63,669.609 1221.8,669.923 1223.97,670.236 
  1226.14,670.547 1228.31,670.857 1230.49,671.165 1232.66,671.471 1234.83,671.777 1237,672.081 1239.17,672.383 1241.34,672.684 1243.51,672.983 1245.68,673.281 
  1247.85,673.578 1250.02,673.873 1252.19,674.167 1254.36,674.46 1256.53,674.751 1258.7,675.04 1260.88,675.329 1263.05,675.615 1265.22,675.901 1267.39,676.185 
  1269.56,676.468 1271.73,676.75 1273.9,677.03 1276.07,677.309 1278.24,677.586 1280.41,677.863 1282.58,678.138 1284.75,678.411 1286.92,678.684 1289.1,678.955 
  1291.27,679.225 1293.44,679.494 1295.61,679.761 1297.78,680.027 1299.95,680.292 1302.12,680.556 1304.29,680.819 1306.46,681.079 1308.63,681.339 1310.8,681.597 
  1312.97,681.854 1315.14,682.109 1317.31,682.364 1319.49,682.617 1321.66,682.869 1323.83,683.12 1326,683.37 1328.17,683.618 1330.34,683.866 1332.51,684.112 
  1334.68,684.357 1336.85,684.601 1339.02,684.843 1341.19,685.085 1343.36,685.325 1345.53,685.565 1347.71,685.803 1349.88,686.04 1352.05,686.275 1354.22,686.51 
  1356.39,686.744 1358.56,686.976 1360.73,687.207 1362.9,687.438 1365.07,687.667 1367.24,687.895 1369.41,688.122 1371.58,688.348 1373.75,688.572 1375.92,688.796 
  1378.1,689.019 1380.27,689.24 1382.44,689.46 1384.61,689.68 1386.78,689.898 1388.95,690.115 1391.12,690.332 1393.29,690.547 1395.46,690.761 1397.63,690.974 
  1399.8,691.186 1401.97,691.397 1404.14,691.607 1406.32,691.816 1408.49,692.024 1410.66,692.231 1412.83,692.437 1415,692.642 1417.17,692.846 1419.34,693.049 
  1421.51,693.252 1423.68,693.453 1425.85,693.653 1428.02,693.852 1430.19,694.05 1432.36,694.247 1434.53,694.443 1436.71,694.639 1438.88,694.833 1441.05,695.027 
  1443.22,695.219 1445.39,695.411 1447.56,695.601 1449.73,695.791 1451.9,695.98 1454.07,696.168 1456.24,696.355 1458.41,696.541 1460.58,696.726 1462.75,696.91 
  1464.92,697.093 1467.1,697.276 1469.27,697.458 1471.44,697.638 1473.61,697.818 1475.78,697.997 1477.95,698.175 1480.12,698.353 1482.29,698.529 1484.46,698.705 
  1486.63,698.879 1488.8,699.053 1490.97,699.226 1493.14,699.399 1495.32,699.57 1497.49,699.741 1499.66,699.911 1501.83,700.079 1504,700.248 1506.17,700.415 
  1508.34,700.582 1510.51,700.747 1512.68,700.912 1514.85,701.077 1517.02,701.24 1519.19,701.403 1521.36,701.565 1523.53,701.726 1525.71,701.886 1527.88,702.046 
  1530.05,702.205 1532.22,702.363 1534.39,702.52 1536.56,702.677 1538.73,702.833 1540.9,702.988 1543.07,703.143 1545.24,703.297 1547.41,703.45 1549.58,703.602 
  1551.75,703.754 1553.93,703.905 1556.1,704.055 1558.27,704.204 1560.44,704.353 1562.61,704.502 1564.78,704.649 1566.95,704.796 1569.12,704.942 1571.29,705.088 
  1573.46,705.233 1575.63,705.376 1577.8,705.519 1579.97,705.662 1582.14,705.803 1584.32,705.944 1586.49,706.084 1588.66,706.224 1590.83,706.363 1593,706.501 
  1595.17,706.639 1597.34,706.776 1599.51,706.912 1601.68,707.048 1603.85,707.183 1606.02,707.317 1608.19,707.451 1610.36,707.584 1612.53,707.716 1614.71,707.848 
  1616.88,707.98 1619.05,708.11 1621.22,708.24 1623.39,708.369 1625.56,708.498 1627.73,708.626 1629.9,708.754 1632.07,708.881 1634.24,709.007 1636.41,709.133 
  1638.58,709.258 1640.75,709.383 1642.93,709.506 1645.1,709.63 1647.27,709.753 1649.44,709.875 1651.61,709.996 1653.78,710.117 1655.95,710.238 1658.12,710.357 
  1660.29,710.477 1662.46,710.595 1664.63,710.713 1666.8,710.831 1668.97,710.948 1671.14,711.064 1673.32,711.18 1675.49,711.295 1677.66,711.41 1679.83,711.524 
  1682,711.638 1684.17,711.751 1686.34,711.863 1688.51,711.975 1690.68,712.087 1692.85,712.198 1695.02,712.308 1697.19,712.418 1699.36,712.527 1701.54,712.636 
  1703.71,712.744 1705.88,712.852 1708.05,712.959 1710.22,713.065 1712.39,713.171 1714.56,713.277 1716.73,713.382 1718.9,713.487 1721.07,713.591 1723.24,713.694 
  1725.41,713.797 1727.58,713.9 1729.75,714.002 1731.93,714.104 1734.1,714.205 1736.27,714.305 1738.44,714.405 1740.61,714.505 1742.78,714.604 1744.95,714.703 
  1747.12,714.801 1749.29,714.899 1751.46,714.996 1753.63,715.093 1755.8,715.189 1757.97,715.285 1760.14,715.38 1762.32,715.475 1764.49,715.569 1766.66,715.663 
  1768.83,715.757 1771,715.85 1773.17,715.942 1775.34,716.035 1777.51,716.126 1779.68,716.218 1781.85,716.308 1784.02,716.399 1786.19,716.489 1788.36,716.578 
  1790.54,716.668 1792.71,716.756 1794.88,716.844 1797.05,716.932 1799.22,717.02 1801.39,717.107 1803.56,717.193 1805.73,717.279 1807.9,717.365 1810.07,717.451 
  1812.24,717.536 1814.41,717.62 1816.58,717.704 1818.75,717.788 1820.93,717.871 1823.1,717.954 1825.27,718.037 1827.44,718.119 1829.61,718.201 1831.78,718.282 
  1833.95,718.363 1836.12,718.444 1838.29,718.524 1840.46,718.604 1842.63,718.684 1844.8,718.763 1846.97,718.842 1849.15,718.92 1851.32,718.998 1853.49,719.076 
  1855.66,719.153 1857.83,719.23 1860,719.307 1862.17,719.383 1864.34,719.459 1866.51,719.535 1868.68,719.61 1870.85,719.685 1873.02,719.76 1875.19,719.834 
  1877.36,719.908 1879.54,719.981 1881.71,720.055 1883.88,720.128 1886.05,720.2 1888.22,720.273 1890.39,720.345 1892.56,720.416 1894.73,720.487 1896.9,720.558 
  1899.07,720.628 1901.24,720.698 1903.41,720.767 1905.58,720.836 1907.76,720.905 1909.93,720.974 1912.1,721.042 1914.27,721.11 1916.44,721.177 1918.61,721.245 
  1920.78,721.312 1922.95,721.378 1925.12,721.445 1927.29,721.511 1929.46,721.576 1931.63,721.642 1933.8,721.707 1935.97,721.772 1938.15,721.836 1940.32,721.9 
  1942.49,721.964 1944.66,722.028 1946.83,722.091 1949,722.154 1951.17,722.217 1953.34,722.279 1955.51,722.341 1957.68,722.403 1959.85,722.464 1962.02,722.526 
  1964.19,722.586 1966.36,722.647 1968.54,722.707 1970.71,722.767 1972.88,722.827 1975.05,722.887 1977.22,722.946 1979.39,723.005 1981.56,723.063 1983.73,723.122 
  1985.9,723.18 1988.07,723.237 1990.24,723.295 1992.41,723.352 1994.58,723.409 1996.76,723.466 1998.93,723.522 2001.1,723.578 2003.27,723.634 2005.44,723.69 
  2007.61,723.745 2009.78,723.8 2011.95,723.855 2014.12,723.909 2016.29,723.963 2018.46,724.017 2020.63,724.071 2022.8,724.125 2024.97,724.178 2027.15,724.231 
  2029.32,724.283 2031.49,724.336 2033.66,724.388 2035.83,724.44 2038,724.491 2040.17,724.543 2042.34,724.594 2044.51,724.645 2046.68,724.696 2048.85,724.746 
  2051.02,724.796 2053.19,724.846 2055.37,724.896 2057.54,724.945 2059.71,724.994 2061.88,725.043 2064.05,725.092 2066.22,725.14 2068.39,725.189 2070.56,725.237 
  2072.73,725.284 2074.9,725.332 2077.07,725.379 2079.24,725.426 2081.41,725.473 2083.58,725.52 2085.76,725.566 2087.93,725.612 2090.1,725.658 2092.27,725.704 
  2094.44,725.749 2096.61,725.795 2098.78,725.84 2100.95,725.885 2103.12,725.929 2105.29,725.973 2107.46,726.018 2109.63,726.062 2111.8,726.105 2113.97,726.149 
  2116.15,726.192 2118.32,726.235 2120.49,726.278 2122.66,726.321 2124.83,726.363 2127,726.406 2129.17,726.448 2131.34,726.489 2133.51,726.531 2135.68,726.573 
  2137.85,726.614 2140.02,726.655 2142.19,726.696 2144.37,726.736 2146.54,726.777 2148.71,726.817 2150.88,726.857 2153.05,726.897 2155.22,726.937 2157.39,726.976 
  2159.56,727.016 2161.73,727.055 2163.9,727.094 2166.07,727.132 2168.24,727.171 2170.41,727.209 2172.58,727.247 2174.76,727.286 2176.93,727.323 2179.1,727.361 
  2181.27,727.398 2183.44,727.436 2185.61,727.473 2187.78,727.51 2189.95,727.547 2192.12,727.583 2194.29,727.62 2196.46,727.656 2198.63,727.692 2200.8,727.728 
  2202.98,727.764 2205.15,727.799 2207.32,727.835 2209.49,727.87 2211.66,727.905 2213.83,727.94 2216,727.975 2218.17,728.01 2220.34,728.044 2222.51,728.078 
  2224.68,728.113 2226.85,728.147 2229.02,728.181 2231.19,728.214 2233.37,728.248 2235.54,728.281 2237.71,728.314 2239.88,728.348 2242.05,728.381 2244.22,728.413 
  2246.39,728.446 2248.56,728.479 2250.73,728.511 2252.9,728.543 2255.07,728.575 2257.24,728.607 2259.41,728.639 2261.58,728.671 2263.76,728.703 2265.93,728.734 
  2268.1,728.765 2270.27,728.797 2272.44,728.828 2274.61,728.858 2276.78,728.889 2278.95,728.919 2281.12,728.949 2283.29,728.979 2285.46,729.009 2287.63,729.039 
  2289.8,729.068 2291.98,729.098 2294.15,729.127 2296.32,729.156 2298.49,729.185 2300.66,729.214 2302.83,729.243 2305,729.272 2307.17,729.3 2309.34,729.328 
  2311.51,729.357 2313.68,729.385 2315.85,729.413 2318.02,729.44 2320.19,729.468 2322.37,729.496 2324.54,729.523 2326.71,729.55 2328.88,729.577 2331.05,729.604 
  2333.22,729.631 2335.39,729.658 2337.56,729.685 2339.73,729.711 2341.9,729.738 2344.07,729.764 2346.24,729.79 2348.41,729.816 2350.59,729.842 2352.76,729.868 
  
  "/>
<polyline clip-path="url(#clip212)" style="stroke:#e26f46; stroke-linecap:round; stroke-linejoin:round; stroke-width:4; stroke-opacity:1; fill:none" points="
  184.191,1384.24 186.361,1381.13 188.532,1378.03 190.703,1374.95 192.874,1371.88 195.044,1368.83 197.215,1365.79 199.386,1362.77 201.557,1359.76 203.727,1356.77 
  205.898,1353.79 208.069,1350.83 210.24,1347.88 212.41,1344.94 214.581,1342.02 216.752,1339.11 218.922,1336.21 221.093,1333.33 223.264,1330.47 225.435,1327.61 
  227.605,1324.77 229.776,1321.95 231.947,1319.13 234.118,1316.34 236.288,1313.55 238.459,1310.78 240.63,1308.02 242.801,1305.27 244.971,1302.54 247.142,1299.82 
  249.313,1297.11 251.483,1294.42 253.654,1291.74 255.825,1289.07 257.996,1286.42 260.166,1283.78 262.337,1281.15 264.508,1278.53 266.679,1275.93 268.849,1273.33 
  271.02,1270.75 273.191,1268.19 275.362,1265.63 277.532,1263.09 279.703,1260.56 281.874,1258.04 284.045,1255.54 286.215,1253.04 288.386,1250.56 290.557,1248.09 
  292.727,1245.63 294.898,1243.18 297.069,1240.75 299.24,1238.33 301.41,1235.92 303.581,1233.52 305.752,1231.13 307.923,1228.75 310.093,1226.38 312.264,1224.03 
  314.435,1221.69 316.606,1219.35 318.776,1217.03 320.947,1214.72 323.118,1212.43 325.289,1210.14 327.459,1207.86 329.63,1205.6 331.801,1203.34 333.971,1201.1 
  336.142,1198.87 338.313,1196.64 340.484,1194.43 342.654,1192.23 344.825,1190.04 346.996,1187.86 349.167,1185.69 351.337,1183.53 353.508,1181.38 355.679,1179.24 
  357.85,1177.11 360.02,1175 362.191,1172.89 364.362,1170.79 366.533,1168.7 368.703,1166.62 370.874,1164.56 373.045,1162.5 375.215,1160.45 377.386,1158.41 
  379.557,1156.38 381.728,1154.37 383.898,1152.36 386.069,1150.36 388.24,1148.37 390.411,1146.39 392.581,1144.42 394.752,1142.45 396.923,1140.5 399.094,1138.56 
  401.264,1136.63 403.435,1134.7 405.606,1132.79 407.776,1130.88 409.947,1128.98 412.118,1127.1 414.289,1125.22 416.459,1123.35 418.63,1121.49 420.801,1119.64 
  422.972,1117.79 425.142,1115.96 427.313,1114.14 429.484,1112.32 431.655,1110.51 433.825,1108.71 435.996,1106.92 438.167,1105.14 440.338,1103.37 442.508,1101.6 
  444.679,1099.85 446.85,1098.1 449.02,1096.36 451.191,1094.63 453.362,1092.91 455.533,1091.19 457.703,1089.49 459.874,1087.79 462.045,1086.1 464.216,1084.42 
  466.386,1082.74 468.557,1081.08 470.728,1079.42 472.899,1077.77 475.069,1076.13 477.24,1074.49 479.411,1072.87 481.582,1071.25 483.752,1069.64 485.923,1068.03 
  488.094,1066.44 490.264,1064.85 492.435,1063.27 494.606,1061.7 496.777,1060.13 498.947,1058.58 501.118,1057.03 503.289,1055.48 505.46,1053.95 507.63,1052.42 
  509.801,1050.9 511.972,1049.39 514.143,1047.88 516.313,1046.38 518.484,1044.89 520.655,1043.41 522.825,1041.93 524.996,1040.46 527.167,1039 529.338,1037.54 
  531.508,1036.09 533.679,1034.65 535.85,1033.21 538.021,1031.78 540.191,1030.36 542.362,1028.95 544.533,1027.54 546.704,1026.14 548.874,1024.75 551.045,1023.36 
  553.216,1021.98 555.387,1020.6 557.557,1019.23 559.728,1017.87 561.899,1016.52 564.069,1015.17 566.24,1013.83 568.411,1012.49 570.582,1011.16 572.752,1009.84 
  574.923,1008.52 577.094,1007.21 579.265,1005.91 581.435,1004.61 583.606,1003.32 585.777,1002.04 587.948,1000.76 590.118,999.483 592.289,998.217 594.46,996.956 
  596.631,995.701 598.801,994.453 600.972,993.21 603.143,991.973 605.313,990.742 607.484,989.518 609.655,988.299 611.826,987.085 613.996,985.878 616.167,984.676 
  618.338,983.481 620.509,982.291 622.679,981.106 624.85,979.927 627.021,978.754 629.192,977.587 631.362,976.425 633.533,975.269 635.704,974.118 637.874,972.973 
  640.045,971.834 642.216,970.7 644.387,969.571 646.557,968.448 648.728,967.33 650.899,966.217 653.07,965.11 655.24,964.008 657.411,962.912 659.582,961.82 
  661.753,960.734 663.923,959.654 666.094,958.578 668.265,957.507 670.436,956.442 672.606,955.382 674.777,954.327 676.948,953.277 679.118,952.231 681.289,951.191 
  683.46,950.156 685.631,949.126 687.801,948.101 689.972,947.081 692.143,946.065 694.314,945.054 696.484,944.049 698.655,943.048 700.826,942.051 702.997,941.06 
  705.167,940.073 707.338,939.091 709.509,938.113 711.68,937.141 713.85,936.172 716.021,935.209 718.192,934.25 720.362,933.296 722.533,932.346 724.704,931.401 
  726.875,930.461 729.045,929.525 731.216,928.594 733.387,927.667 735.558,926.744 737.728,925.826 739.899,924.912 742.07,924.003 744.241,923.098 746.411,922.197 
  748.582,921.301 750.753,920.409 752.924,919.521 755.094,918.638 757.265,917.758 759.436,916.883 761.606,916.012 763.777,915.146 765.948,914.283 768.119,913.425 
  770.289,912.57 772.46,911.72 774.631,910.874 776.802,910.032 778.972,909.194 781.143,908.36 783.314,907.53 785.485,906.704 787.655,905.883 789.826,905.065 
  791.997,904.25 794.167,903.44 796.338,902.634 798.509,901.832 800.68,901.033 802.85,900.238 805.021,899.448 807.192,898.66 809.363,897.877 811.533,897.098 
  813.704,896.322 815.875,895.55 818.046,894.782 820.216,894.017 822.387,893.256 824.558,892.499 826.729,891.745 828.899,890.995 831.07,890.248 833.241,889.505 
  835.411,888.766 837.582,888.03 839.753,887.298 841.924,886.569 844.094,885.844 846.265,885.122 848.436,884.403 850.607,883.688 852.777,882.977 854.948,882.268 
  857.119,881.564 859.29,880.862 861.46,880.164 863.631,879.469 865.802,878.777 867.973,878.089 870.143,877.404 872.314,876.722 874.485,876.043 876.655,875.368 
  878.826,874.696 880.997,874.027 883.168,873.361 885.338,872.699 887.509,872.04 889.68,871.384 891.851,870.732 894.021,870.082 896.192,869.436 898.363,868.792 
  900.534,868.152 902.704,867.515 904.875,866.88 907.046,866.249 909.216,865.621 911.387,864.996 913.558,864.374 915.729,863.754 917.899,863.138 920.07,862.525 
  922.241,861.915 924.412,861.307 926.582,860.703 928.753,860.101 930.924,859.502 933.095,858.906 935.265,858.313 937.436,857.723 939.607,857.136 941.778,856.551 
  943.948,855.97 946.119,855.391 948.29,854.815 950.46,854.242 952.631,853.671 954.802,853.103 956.973,852.538 959.143,851.976 961.314,851.416 963.485,850.859 
  965.656,850.305 967.826,849.753 969.997,849.204 972.168,848.658 974.339,848.114 976.509,847.573 978.68,847.035 980.851,846.499 983.022,845.966 985.192,845.435 
  987.363,844.907 989.534,844.381 991.704,843.858 993.875,843.338 996.046,842.82 998.217,842.304 1000.39,841.791 1002.56,841.28 1004.73,840.772 1006.9,840.266 
  1009.07,839.763 1011.24,839.262 1013.41,838.764 1015.58,838.268 1017.75,837.774 1019.92,837.282 1022.09,836.793 1024.27,836.307 1026.44,835.822 1028.61,835.34 
  1030.78,834.86 1032.95,834.383 1035.12,833.908 1037.29,833.435 1039.46,832.964 1041.63,832.496 1043.8,832.029 1045.97,831.565 1048.14,831.104 1050.31,830.644 
  1052.49,830.186 1054.66,829.731 1056.83,829.278 1059,828.827 1061.17,828.378 1063.34,827.931 1065.51,827.486 1067.68,827.044 1069.85,826.603 1072.02,826.165 
  1074.19,825.728 1076.36,825.294 1078.53,824.862 1080.7,824.432 1082.88,824.005 1085.05,823.579 1087.22,823.156 1089.39,822.734 1091.56,822.315 1093.73,821.897 
  1095.9,821.482 1098.07,821.068 1100.24,820.657 1102.41,820.247 1104.58,819.839 1106.75,819.434 1108.92,819.03 1111.09,818.628 1113.27,818.228 1115.44,817.83 
  1117.61,817.434 1119.78,817.04 1121.95,816.647 1124.12,816.257 1126.29,815.868 1128.46,815.481 1130.63,815.097 1132.8,814.714 1134.97,814.332 1137.14,813.953 
  1139.31,813.576 1141.49,813.2 1143.66,812.826 1145.83,812.454 1148,812.083 1150.17,811.715 1152.34,811.348 1154.51,810.983 1156.68,810.62 1158.85,810.258 
  1161.02,809.899 1163.19,809.541 1165.36,809.184 1167.53,808.83 1169.7,808.477 1171.88,808.126 1174.05,807.776 1176.22,807.429 1178.39,807.083 1180.56,806.738 
  1182.73,806.395 1184.9,806.054 1187.07,805.715 1189.24,805.377 1191.41,805.041 1193.58,804.706 1195.75,804.373 1197.92,804.042 1200.1,803.712 1202.27,803.384 
  1204.44,803.058 1206.61,802.733 1208.78,802.409 1210.95,802.087 1213.12,801.767 1215.29,801.448 1217.46,801.131 1219.63,800.815 1221.8,800.501 1223.97,800.188 
  1226.14,799.877 1228.31,799.567 1230.49,799.259 1232.66,798.952 1234.83,798.647 1237,798.343 1239.17,798.041 1241.34,797.74 1243.51,797.441 1245.68,797.143 
  1247.85,796.846 1250.02,796.551 1252.19,796.257 1254.36,795.964 1256.53,795.673 1258.7,795.384 1260.88,795.095 1263.05,794.808 1265.22,794.523 1267.39,794.239 
  1269.56,793.956 1271.73,793.674 1273.9,793.394 1276.07,793.115 1278.24,792.838 1280.41,792.561 1282.58,792.286 1284.75,792.012 1286.92,791.74 1289.1,791.469 
  1291.27,791.199 1293.44,790.93 1295.61,790.663 1297.78,790.397 1299.95,790.132 1302.12,789.868 1304.29,789.605 1306.46,789.345 1308.63,789.085 1310.8,788.827 
  1312.97,788.57 1315.14,788.314 1317.31,788.06 1319.49,787.807 1321.66,787.555 1323.83,787.304 1326,787.054 1328.17,786.805 1330.34,786.558 1332.51,786.312 
  1334.68,786.067 1336.85,785.823 1339.02,785.58 1341.19,785.339 1343.36,785.099 1345.53,784.859 1347.71,784.621 1349.88,784.384 1352.05,784.149 1354.22,783.914 
  1356.39,783.68 1358.56,783.448 1360.73,783.217 1362.9,782.986 1365.07,782.757 1367.24,782.529 1369.41,782.302 1371.58,782.076 1373.75,781.852 1375.92,781.628 
  1378.1,781.405 1380.27,781.184 1382.44,780.963 1384.61,780.744 1386.78,780.526 1388.95,780.308 1391.12,780.092 1393.29,779.877 1395.46,779.663 1397.63,779.45 
  1399.8,779.238 1401.97,779.027 1404.14,778.817 1406.32,778.608 1408.49,778.4 1410.66,778.193 1412.83,777.987 1415,777.782 1417.17,777.577 1419.34,777.374 
  1421.51,777.172 1423.68,776.971 1425.85,776.771 1428.02,776.572 1430.19,776.374 1432.36,776.177 1434.53,775.98 1436.71,775.785 1438.88,775.591 1441.05,775.397 
  1443.22,775.205 1445.39,775.013 1447.56,774.823 1449.73,774.633 1451.9,774.444 1454.07,774.256 1456.24,774.069 1458.41,773.883 1460.58,773.698 1462.75,773.514 
  1464.92,773.331 1467.1,773.148 1469.27,772.966 1471.44,772.786 1473.61,772.606 1475.78,772.427 1477.95,772.249 1480.12,772.071 1482.29,771.895 1484.46,771.719 
  1486.63,771.545 1488.8,771.371 1490.97,771.198 1493.14,771.025 1495.32,770.854 1497.49,770.683 1499.66,770.513 1501.83,770.344 1504,770.176 1506.17,770.009 
  1508.34,769.842 1510.51,769.676 1512.68,769.511 1514.85,769.347 1517.02,769.184 1519.19,769.021 1521.36,768.859 1523.53,768.698 1525.71,768.538 1527.88,768.378 
  1530.05,768.219 1532.22,768.061 1534.39,767.904 1536.56,767.747 1538.73,767.591 1540.9,767.436 1543.07,767.281 1545.24,767.127 1547.41,766.974 1549.58,766.822 
  1551.75,766.67 1553.93,766.519 1556.1,766.369 1558.27,766.219 1560.44,766.071 1562.61,765.922 1564.78,765.775 1566.95,765.628 1569.12,765.482 1571.29,765.336 
  1573.46,765.191 1575.63,765.048 1577.8,764.905 1579.97,764.762 1582.14,764.621 1584.32,764.48 1586.49,764.34 1588.66,764.2 1590.83,764.061 1593,763.923 
  1595.17,763.785 1597.34,763.648 1599.51,763.512 1601.68,763.376 1603.85,763.241 1606.02,763.107 1608.19,762.973 1610.36,762.84 1612.53,762.708 1614.71,762.576 
  1616.88,762.444 1619.05,762.314 1621.22,762.184 1623.39,762.054 1625.56,761.926 1627.73,761.798 1629.9,761.67 1632.07,761.543 1634.24,761.417 1636.41,761.291 
  1638.58,761.166 1640.75,761.041 1642.93,760.917 1645.1,760.794 1647.27,760.671 1649.44,760.549 1651.61,760.428 1653.78,760.307 1655.95,760.186 1658.12,760.067 
  1660.29,759.947 1662.46,759.829 1664.63,759.711 1666.8,759.593 1668.97,759.476 1671.14,759.36 1673.32,759.244 1675.49,759.129 1677.66,759.014 1679.83,758.9 
  1682,758.786 1684.17,758.673 1686.34,758.561 1688.51,758.449 1690.68,758.337 1692.85,758.226 1695.02,758.116 1697.19,758.006 1699.36,757.897 1701.54,757.788 
  1703.71,757.68 1705.88,757.572 1708.05,757.465 1710.22,757.359 1712.39,757.252 1714.56,757.147 1716.73,757.042 1718.9,756.937 1721.07,756.833 1723.24,756.73 
  1725.41,756.626 1727.58,756.524 1729.75,756.422 1731.93,756.32 1734.1,756.219 1736.27,756.119 1738.44,756.019 1740.61,755.919 1742.78,755.82 1744.95,755.721 
  1747.12,755.623 1749.29,755.525 1751.46,755.428 1753.63,755.331 1755.8,755.235 1757.97,755.139 1760.14,755.044 1762.32,754.949 1764.49,754.855 1766.66,754.761 
  1768.83,754.667 1771,754.574 1773.17,754.481 1775.34,754.389 1777.51,754.298 1779.68,754.206 1781.85,754.115 1784.02,754.025 1786.19,753.935 1788.36,753.846 
  1790.54,753.756 1792.71,753.668 1794.88,753.579 1797.05,753.492 1799.22,753.404 1801.39,753.317 1803.56,753.231 1805.73,753.144 1807.9,753.059 1810.07,752.973 
  1812.24,752.888 1814.41,752.804 1816.58,752.72 1818.75,752.636 1820.93,752.553 1823.1,752.47 1825.27,752.387 1827.44,752.305 1829.61,752.223 1831.78,752.142 
  1833.95,752.061 1836.12,751.98 1838.29,751.9 1840.46,751.82 1842.63,751.74 1844.8,751.661 1846.97,751.582 1849.15,751.504 1851.32,751.426 1853.49,751.348 
  1855.66,751.271 1857.83,751.194 1860,751.117 1862.17,751.041 1864.34,750.965 1866.51,750.889 1868.68,750.814 1870.85,750.739 1873.02,750.664 1875.19,750.59 
  1877.36,750.516 1879.54,750.442 1881.71,750.369 1883.88,750.296 1886.05,750.224 1888.22,750.151 1890.39,750.079 1892.56,750.008 1894.73,749.937 1896.9,749.866 
  1899.07,749.796 1901.24,749.726 1903.41,749.657 1905.58,749.588 1907.76,749.519 1909.93,749.45 1912.1,749.382 1914.27,749.314 1916.44,749.247 1918.61,749.179 
  1920.78,749.112 1922.95,749.046 1925.12,748.979 1927.29,748.913 1929.46,748.848 1931.63,748.782 1933.8,748.717 1935.97,748.652 1938.15,748.588 1940.32,748.524 
  1942.49,748.46 1944.66,748.396 1946.83,748.333 1949,748.27 1951.17,748.207 1953.34,748.145 1955.51,748.083 1957.68,748.021 1959.85,747.96 1962.02,747.898 
  1964.19,747.837 1966.36,747.777 1968.54,747.717 1970.71,747.657 1972.88,747.597 1975.05,747.537 1977.22,747.478 1979.39,747.419 1981.56,747.361 1983.73,747.302 
  1985.9,747.244 1988.07,747.187 1990.24,747.129 1992.41,747.072 1994.58,747.015 1996.76,746.958 1998.93,746.902 2001.1,746.846 2003.27,746.79 2005.44,746.734 
  2007.61,746.679 2009.78,746.624 2011.95,746.569 2014.12,746.515 2016.29,746.461 2018.46,746.407 2020.63,746.353 2022.8,746.299 2024.97,746.246 2027.15,746.193 
  2029.32,746.141 2031.49,746.088 2033.66,746.036 2035.83,745.984 2038,745.932 2040.17,745.881 2042.34,745.83 2044.51,745.779 2046.68,745.728 2048.85,745.678 
  2051.02,745.628 2053.19,745.578 2055.37,745.528 2057.54,745.479 2059.71,745.43 2061.88,745.381 2064.05,745.332 2066.22,745.283 2068.39,745.235 2070.56,745.187 
  2072.73,745.139 2074.9,745.092 2077.07,745.045 2079.24,744.998 2081.41,744.951 2083.58,744.904 2085.76,744.858 2087.93,744.812 2090.1,744.766 2092.27,744.72 
  2094.44,744.675 2096.61,744.629 2098.78,744.584 2100.95,744.539 2103.12,744.495 2105.29,744.45 2107.46,744.406 2109.63,744.362 2111.8,744.319 2113.97,744.275 
  2116.15,744.232 2118.32,744.189 2120.49,744.146 2122.66,744.103 2124.83,744.061 2127,744.018 2129.17,743.976 2131.34,743.934 2133.51,743.893 2135.68,743.851 
  2137.85,743.81 2140.02,743.769 2142.19,743.728 2144.37,743.688 2146.54,743.647 2148.71,743.607 2150.88,743.567 2153.05,743.527 2155.22,743.487 2157.39,743.448 
  2159.56,743.408 2161.73,743.369 2163.9,743.33 2166.07,743.292 2168.24,743.253 2170.41,743.215 2172.58,743.176 2174.76,743.138 2176.93,743.101 2179.1,743.063 
  2181.27,743.025 2183.44,742.988 2185.61,742.951 2187.78,742.914 2189.95,742.877 2192.12,742.841 2194.29,742.804 2196.46,742.768 2198.63,742.732 2200.8,742.696 
  2202.98,742.66 2205.15,742.625 2207.32,742.589 2209.49,742.554 2211.66,742.519 2213.83,742.484 2216,742.449 2218.17,742.414 2220.34,742.38 2222.51,742.345 
  2224.68,742.311 2226.85,742.277 2229.02,742.243 2231.19,742.21 2233.37,742.176 2235.54,742.143 2237.71,742.109 2239.88,742.076 2242.05,742.043 2244.22,742.011 
  2246.39,741.978 2248.56,741.945 2250.73,741.913 2252.9,741.881 2255.07,741.848 2257.24,741.816 2259.41,741.785 2261.58,741.753 2263.76,741.721 2265.93,741.69 
  2268.1,741.659 2270.27,741.627 2272.44,741.596 2274.61,741.566 2276.78,741.535 2278.95,741.505 2281.12,741.475 2283.29,741.445 2285.46,741.415 2287.63,741.385 
  2289.8,741.355 2291.98,741.326 2294.15,741.297 2296.32,741.268 2298.49,741.239 2300.66,741.21 2302.83,741.181 2305,741.152 2307.17,741.124 2309.34,741.095 
  2311.51,741.067 2313.68,741.039 2315.85,741.011 2318.02,740.983 2320.19,740.956 2322.37,740.928 2324.54,740.901 2326.71,740.874 2328.88,740.846 2331.05,740.819 
  2333.22,740.793 2335.39,740.766 2337.56,740.739 2339.73,740.713 2341.9,740.686 2344.07,740.66 2346.24,740.634 2348.41,740.608 2350.59,740.582 2352.76,740.556 
  
  "/>
<path clip-path="url(#clip210)" d="
M1931.83 248.629 L2280.47 248.629 L2280.47 93.1086 L1931.83 93.1086  Z
  " fill="#ffffff" fill-rule="evenodd" fill-opacity="1"/>
<polyline clip-path="url(#clip210)" style="stroke:#000000; stroke-linecap:round; stroke-linejoin:round; stroke-width:4; stroke-opacity:1; fill:none" points="
  1931.83,248.629 2280.47,248.629 2280.47,93.1086 1931.83,93.1086 1931.83,248.629 
  "/>
<polyline clip-path="url(#clip210)" style="stroke:#009af9; stroke-linecap:round; stroke-linejoin:round; stroke-width:4; stroke-opacity:1; fill:none" points="
  1955.93,144.949 2100.5,144.949 
  "/>
<path clip-path="url(#clip210)" d="M2124.6 151.997 L2124.6 136.303 L2128.85 136.303 L2128.85 151.835 Q2128.85 155.516 2130.29 157.368 Q2131.73 159.196 2134.6 159.196 Q2138.04 159.196 2140.04 156.997 Q2142.05 154.798 2142.05 151.002 L2142.05 136.303 L2146.31 136.303 L2146.31 162.229 L2142.05 162.229 L2142.05 158.247 Q2140.5 160.608 2138.44 161.766 Q2136.4 162.9 2133.69 162.9 Q2129.23 162.9 2126.91 160.122 Q2124.6 157.344 2124.6 151.997 M2135.31 135.678 L2135.31 135.678 Z" fill="#000000" fill-rule="evenodd" fill-opacity="1" /><path clip-path="url(#clip210)" d="M2156.49 158.293 L2164.13 158.293 L2164.13 131.928 L2155.82 133.595 L2155.82 129.335 L2164.09 127.669 L2168.76 127.669 L2168.76 158.293 L2176.4 158.293 L2176.4 162.229 L2156.49 162.229 L2156.49 158.293 Z" fill="#000000" fill-rule="evenodd" fill-opacity="1" /><path clip-path="url(#clip210)" d="M2195.47 126.257 Q2192.37 131.581 2190.87 136.789 Q2189.36 141.997 2189.36 147.344 Q2189.36 152.692 2190.87 157.946 Q2192.4 163.178 2195.47 168.479 L2191.77 168.479 Q2188.3 163.039 2186.56 157.784 Q2184.85 152.53 2184.85 147.344 Q2184.85 142.182 2186.56 136.951 Q2188.28 131.72 2191.77 126.257 L2195.47 126.257 Z" fill="#000000" fill-rule="evenodd" fill-opacity="1" /><path clip-path="url(#clip210)" d="M2207.95 128.942 L2207.95 136.303 L2216.72 136.303 L2216.72 139.613 L2207.95 139.613 L2207.95 153.687 Q2207.95 156.858 2208.81 157.761 Q2209.69 158.664 2212.35 158.664 L2216.72 158.664 L2216.72 162.229 L2212.35 162.229 Q2207.42 162.229 2205.54 160.4 Q2203.67 158.548 2203.67 153.687 L2203.67 139.613 L2200.54 139.613 L2200.54 136.303 L2203.67 136.303 L2203.67 128.942 L2207.95 128.942 Z" fill="#000000" fill-rule="evenodd" fill-opacity="1" /><path clip-path="url(#clip210)" d="M2221.66 126.257 L2225.36 126.257 Q2228.83 131.72 2230.54 136.951 Q2232.28 142.182 2232.28 147.344 Q2232.28 152.53 2230.54 157.784 Q2228.83 163.039 2225.36 168.479 L2221.66 168.479 Q2224.73 163.178 2226.24 157.946 Q2227.77 152.692 2227.77 147.344 Q2227.77 141.997 2226.24 136.789 Q2224.73 131.581 2221.66 126.257 Z" fill="#000000" fill-rule="evenodd" fill-opacity="1" /><polyline clip-path="url(#clip210)" style="stroke:#e26f46; stroke-linecap:round; stroke-linejoin:round; stroke-width:4; stroke-opacity:1; fill:none" points="
  1955.93,196.789 2100.5,196.789 
  "/>
<path clip-path="url(#clip210)" d="M2124.6 203.837 L2124.6 188.143 L2128.85 188.143 L2128.85 203.675 Q2128.85 207.356 2130.29 209.208 Q2131.73 211.036 2134.6 211.036 Q2138.04 211.036 2140.04 208.837 Q2142.05 206.638 2142.05 202.842 L2142.05 188.143 L2146.31 188.143 L2146.31 214.069 L2142.05 214.069 L2142.05 210.087 Q2140.5 212.448 2138.44 213.606 Q2136.4 214.74 2133.69 214.74 Q2129.23 214.74 2126.91 211.962 Q2124.6 209.184 2124.6 203.837 M2135.31 187.518 L2135.31 187.518 Z" fill="#000000" fill-rule="evenodd" fill-opacity="1" /><path clip-path="url(#clip210)" d="M2159.71 210.133 L2176.03 210.133 L2176.03 214.069 L2154.09 214.069 L2154.09 210.133 Q2156.75 207.379 2161.33 202.749 Q2165.94 198.096 2167.12 196.754 Q2169.36 194.231 2170.24 192.495 Q2171.15 190.735 2171.15 189.046 Q2171.15 186.291 2169.2 184.555 Q2167.28 182.819 2164.18 182.819 Q2161.98 182.819 2159.53 183.583 Q2157.1 184.347 2154.32 185.897 L2154.32 181.175 Q2157.14 180.041 2159.6 179.462 Q2162.05 178.884 2164.09 178.884 Q2169.46 178.884 2172.65 181.569 Q2175.85 184.254 2175.85 188.745 Q2175.85 190.874 2175.03 192.796 Q2174.25 194.694 2172.14 197.286 Q2171.56 197.958 2168.46 201.175 Q2165.36 204.37 2159.71 210.133 Z" fill="#000000" fill-rule="evenodd" fill-opacity="1" /><path clip-path="url(#clip210)" d="M2195.47 178.097 Q2192.37 183.421 2190.87 188.629 Q2189.36 193.837 2189.36 199.184 Q2189.36 204.532 2190.87 209.786 Q2192.4 215.018 2195.47 220.319 L2191.77 220.319 Q2188.3 214.879 2186.56 209.624 Q2184.85 204.37 2184.85 199.184 Q2184.85 194.022 2186.56 188.791 Q2188.28 183.56 2191.77 178.097 L2195.47 178.097 Z" fill="#000000" fill-rule="evenodd" fill-opacity="1" /><path clip-path="url(#clip210)" d="M2207.95 180.782 L2207.95 188.143 L2216.72 188.143 L2216.72 191.453 L2207.95 191.453 L2207.95 205.527 Q2207.95 208.698 2208.81 209.601 Q2209.69 210.504 2212.35 210.504 L2216.72 210.504 L2216.72 214.069 L2212.35 214.069 Q2207.42 214.069 2205.54 212.24 Q2203.67 210.388 2203.67 205.527 L2203.67 191.453 L2200.54 191.453 L2200.54 188.143 L2203.67 188.143 L2203.67 180.782 L2207.95 180.782 Z" fill="#000000" fill-rule="evenodd" fill-opacity="1" /><path clip-path="url(#clip210)" d="M2221.66 178.097 L2225.36 178.097 Q2228.83 183.56 2230.54 188.791 Q2232.28 194.022 2232.28 199.184 Q2232.28 204.37 2230.54 209.624 Q2228.83 214.879 2225.36 220.319 L2221.66 220.319 Q2224.73 215.018 2226.24 209.786 Q2227.77 204.532 2227.77 199.184 Q2227.77 193.837 2226.24 188.629 Q2224.73 183.421 2221.66 178.097 Z" fill="#000000" fill-rule="evenodd" fill-opacity="1" /></svg>
