<?xml version="1.0" encoding="utf-8"?>
<svg xmlns="http://www.w3.org/2000/svg" xmlns:xlink="http://www.w3.org/1999/xlink" width="600" height="400" viewBox="0 0 2400 1600">
<defs>
  <clipPath id="clip280">
    <rect x="0" y="0" width="2400" height="1600"/>
  </clipPath>
</defs>
<path clip-path="url(#clip280)" d="
M0 1600 L2400 1600 L2400 0 L0 0  Z
  " fill="#ffffff" fill-rule="evenodd" fill-opacity="1"/>
<defs>
  <clipPath id="clip281">
    <rect x="480" y="0" width="1681" height="1600"/>
  </clipPath>
</defs>
<path clip-path="url(#clip280)" d="
M155.765 1423.18 L2352.76 1423.18 L2352.76 47.2441 L155.765 47.2441  Z
  " fill="#ffffff" fill-rule="evenodd" fill-opacity="1"/>
<defs>
  <clipPath id="clip282">
    <rect x="155" y="47" width="2198" height="1377"/>
  </clipPath>
</defs>
<polyline clip-path="url(#clip282)" style="stroke:#000000; stroke-linecap:round; stroke-linejoin:round; stroke-width:2; stroke-opacity:0.1; fill:none" points="
  155.765,1423.18 155.765,47.2441 
  "/>
<polyline clip-path="url(#clip282)" style="stroke:#000000; stroke-linecap:round; stroke-linejoin:round; stroke-width:2; stroke-opacity:0.1; fill:none" points="
  595.163,1423.18 595.163,47.2441 
  "/>
<polyline clip-path="url(#clip282)" style="stroke:#000000; stroke-linecap:round; stroke-linejoin:round; stroke-width:2; stroke-opacity:0.1; fill:none" points="
  1034.56,1423.18 1034.56,47.2441 
  "/>
<polyline clip-path="url(#clip282)" style="stroke:#000000; stroke-linecap:round; stroke-linejoin:round; stroke-width:2; stroke-opacity:0.1; fill:none" points="
  1473.96,1423.18 1473.96,47.2441 
  "/>
<polyline clip-path="url(#clip282)" style="stroke:#000000; stroke-linecap:round; stroke-linejoin:round; stroke-width:2; stroke-opacity:0.1; fill:none" points="
  1913.36,1423.18 1913.36,47.2441 
  "/>
<polyline clip-path="url(#clip282)" style="stroke:#000000; stroke-linecap:round; stroke-linejoin:round; stroke-width:2; stroke-opacity:0.1; fill:none" points="
  2352.76,1423.18 2352.76,47.2441 
  "/>
<polyline clip-path="url(#clip280)" style="stroke:#000000; stroke-linecap:round; stroke-linejoin:round; stroke-width:4; stroke-opacity:1; fill:none" points="
  155.765,1423.18 2352.76,1423.18 
  "/>
<polyline clip-path="url(#clip280)" style="stroke:#000000; stroke-linecap:round; stroke-linejoin:round; stroke-width:4; stroke-opacity:1; fill:none" points="
  155.765,1423.18 155.765,1404.28 
  "/>
<polyline clip-path="url(#clip280)" style="stroke:#000000; stroke-linecap:round; stroke-linejoin:round; stroke-width:4; stroke-opacity:1; fill:none" points="
  595.163,1423.18 595.163,1404.28 
  "/>
<polyline clip-path="url(#clip280)" style="stroke:#000000; stroke-linecap:round; stroke-linejoin:round; stroke-width:4; stroke-opacity:1; fill:none" points="
  1034.56,1423.18 1034.56,1404.28 
  "/>
<polyline clip-path="url(#clip280)" style="stroke:#000000; stroke-linecap:round; stroke-linejoin:round; stroke-width:4; stroke-opacity:1; fill:none" points="
  1473.96,1423.18 1473.96,1404.28 
  "/>
<polyline clip-path="url(#clip280)" style="stroke:#000000; stroke-linecap:round; stroke-linejoin:round; stroke-width:4; stroke-opacity:1; fill:none" points="
  1913.36,1423.18 1913.36,1404.28 
  "/>
<polyline clip-path="url(#clip280)" style="stroke:#000000; stroke-linecap:round; stroke-linejoin:round; stroke-width:4; stroke-opacity:1; fill:none" points="
  2352.76,1423.18 2352.76,1404.28 
  "/>
<path clip-path="url(#clip280)" d="M133.149 1454.1 Q129.538 1454.1 127.71 1457.66 Q125.904 1461.2 125.904 1468.33 Q125.904 1475.44 127.71 1479.01 Q129.538 1482.55 133.149 1482.55 Q136.784 1482.55 138.589 1479.01 Q140.418 1475.44 140.418 1468.33 Q140.418 1461.2 138.589 1457.66 Q136.784 1454.1 133.149 1454.1 M133.149 1450.39 Q138.959 1450.39 142.015 1455 Q145.094 1459.58 145.094 1468.33 Q145.094 1477.06 142.015 1481.67 Q138.959 1486.25 133.149 1486.25 Q127.339 1486.25 124.26 1481.67 Q121.205 1477.06 121.205 1468.33 Q121.205 1459.58 124.26 1455 Q127.339 1450.39 133.149 1450.39 Z" fill="#000000" fill-rule="evenodd" fill-opacity="1" /><path clip-path="url(#clip280)" d="M153.311 1479.7 L158.195 1479.7 L158.195 1485.58 L153.311 1485.58 L153.311 1479.7 Z" fill="#000000" fill-rule="evenodd" fill-opacity="1" /><path clip-path="url(#clip280)" d="M178.381 1454.1 Q174.769 1454.1 172.941 1457.66 Q171.135 1461.2 171.135 1468.33 Q171.135 1475.44 172.941 1479.01 Q174.769 1482.55 178.381 1482.55 Q182.015 1482.55 183.82 1479.01 Q185.649 1475.44 185.649 1468.33 Q185.649 1461.2 183.82 1457.66 Q182.015 1454.1 178.381 1454.1 M178.381 1450.39 Q184.191 1450.39 187.246 1455 Q190.325 1459.58 190.325 1468.33 Q190.325 1477.06 187.246 1481.67 Q184.191 1486.25 178.381 1486.25 Q172.57 1486.25 169.492 1481.67 Q166.436 1477.06 166.436 1468.33 Q166.436 1459.58 169.492 1455 Q172.57 1450.39 178.381 1450.39 Z" fill="#000000" fill-rule="evenodd" fill-opacity="1" /><path clip-path="url(#clip280)" d="M573.346 1454.1 Q569.735 1454.1 567.906 1457.66 Q566.101 1461.2 566.101 1468.33 Q566.101 1475.44 567.906 1479.01 Q569.735 1482.55 573.346 1482.55 Q576.98 1482.55 578.786 1479.01 Q580.615 1475.44 580.615 1468.33 Q580.615 1461.2 578.786 1457.66 Q576.98 1454.1 573.346 1454.1 M573.346 1450.39 Q579.156 1450.39 582.212 1455 Q585.29 1459.58 585.29 1468.33 Q585.29 1477.06 582.212 1481.67 Q579.156 1486.25 573.346 1486.25 Q567.536 1486.25 564.457 1481.67 Q561.402 1477.06 561.402 1468.33 Q561.402 1459.58 564.457 1455 Q567.536 1450.39 573.346 1450.39 Z" fill="#000000" fill-rule="evenodd" fill-opacity="1" /><path clip-path="url(#clip280)" d="M593.508 1479.7 L598.392 1479.7 L598.392 1485.58 L593.508 1485.58 L593.508 1479.7 Z" fill="#000000" fill-rule="evenodd" fill-opacity="1" /><path clip-path="url(#clip280)" d="M612.605 1481.64 L628.924 1481.64 L628.924 1485.58 L606.98 1485.58 L606.98 1481.64 Q609.642 1478.89 614.226 1474.26 Q618.832 1469.61 620.013 1468.27 Q622.258 1465.74 623.137 1464.01 Q624.04 1462.25 624.04 1460.56 Q624.04 1457.8 622.096 1456.07 Q620.175 1454.33 617.073 1454.33 Q614.874 1454.33 612.42 1455.09 Q609.989 1455.86 607.212 1457.41 L607.212 1452.69 Q610.036 1451.55 612.489 1450.97 Q614.943 1450.39 616.98 1450.39 Q622.35 1450.39 625.545 1453.08 Q628.739 1455.77 628.739 1460.26 Q628.739 1462.39 627.929 1464.31 Q627.142 1466.2 625.036 1468.8 Q624.457 1469.47 621.355 1472.69 Q618.253 1475.88 612.605 1481.64 Z" fill="#000000" fill-rule="evenodd" fill-opacity="1" /><path clip-path="url(#clip280)" d="M1011.7 1454.1 Q1008.09 1454.1 1006.26 1457.66 Q1004.46 1461.2 1004.46 1468.33 Q1004.46 1475.44 1006.26 1479.01 Q1008.09 1482.55 1011.7 1482.55 Q1015.34 1482.55 1017.14 1479.01 Q1018.97 1475.44 1018.97 1468.33 Q1018.97 1461.2 1017.14 1457.66 Q1015.34 1454.1 1011.7 1454.1 M1011.7 1450.39 Q1017.51 1450.39 1020.57 1455 Q1023.65 1459.58 1023.65 1468.33 Q1023.65 1477.06 1020.57 1481.67 Q1017.51 1486.25 1011.7 1486.25 Q1005.89 1486.25 1002.81 1481.67 Q999.758 1477.06 999.758 1468.33 Q999.758 1459.58 1002.81 1455 Q1005.89 1450.39 1011.7 1450.39 Z" fill="#000000" fill-rule="evenodd" fill-opacity="1" /><path clip-path="url(#clip280)" d="M1031.86 1479.7 L1036.75 1479.7 L1036.75 1485.58 L1031.86 1485.58 L1031.86 1479.7 Z" fill="#000000" fill-rule="evenodd" fill-opacity="1" /><path clip-path="url(#clip280)" d="M1059.78 1455.09 L1047.98 1473.54 L1059.78 1473.54 L1059.78 1455.09 M1058.55 1451.02 L1064.43 1451.02 L1064.43 1473.54 L1069.36 1473.54 L1069.36 1477.43 L1064.43 1477.43 L1064.43 1485.58 L1059.78 1485.58 L1059.78 1477.43 L1044.18 1477.43 L1044.18 1472.92 L1058.55 1451.02 Z" fill="#000000" fill-rule="evenodd" fill-opacity="1" /><path clip-path="url(#clip280)" d="M1451.26 1454.1 Q1447.65 1454.1 1445.82 1457.66 Q1444.02 1461.2 1444.02 1468.33 Q1444.02 1475.44 1445.82 1479.01 Q1447.65 1482.55 1451.26 1482.55 Q1454.9 1482.55 1456.7 1479.01 Q1458.53 1475.44 1458.53 1468.33 Q1458.53 1461.2 1456.7 1457.66 Q1454.9 1454.1 1451.26 1454.1 M1451.26 1450.39 Q1457.07 1450.39 1460.13 1455 Q1463.21 1459.58 1463.21 1468.33 Q1463.21 1477.06 1460.13 1481.67 Q1457.07 1486.25 1451.26 1486.25 Q1445.45 1486.25 1442.37 1481.67 Q1439.32 1477.06 1439.32 1468.33 Q1439.32 1459.58 1442.37 1455 Q1445.45 1450.39 1451.26 1450.39 Z" fill="#000000" fill-rule="evenodd" fill-opacity="1" /><path clip-path="url(#clip280)" d="M1471.42 1479.7 L1476.31 1479.7 L1476.31 1485.58 L1471.42 1485.58 L1471.42 1479.7 Z" fill="#000000" fill-rule="evenodd" fill-opacity="1" /><path clip-path="url(#clip280)" d="M1497.07 1466.44 Q1493.92 1466.44 1492.07 1468.59 Q1490.24 1470.74 1490.24 1474.49 Q1490.24 1478.22 1492.07 1480.39 Q1493.92 1482.55 1497.07 1482.55 Q1500.22 1482.55 1502.05 1480.39 Q1503.9 1478.22 1503.9 1474.49 Q1503.9 1470.74 1502.05 1468.59 Q1500.22 1466.44 1497.07 1466.44 M1506.36 1451.78 L1506.36 1456.04 Q1504.6 1455.21 1502.79 1454.77 Q1501.01 1454.33 1499.25 1454.33 Q1494.62 1454.33 1492.17 1457.45 Q1489.73 1460.58 1489.39 1466.9 Q1490.75 1464.89 1492.81 1463.82 Q1494.87 1462.73 1497.35 1462.73 Q1502.56 1462.73 1505.57 1465.9 Q1508.6 1469.05 1508.6 1474.49 Q1508.6 1479.82 1505.45 1483.03 Q1502.3 1486.25 1497.07 1486.25 Q1491.08 1486.25 1487.91 1481.67 Q1484.73 1477.06 1484.73 1468.33 Q1484.73 1460.14 1488.62 1455.28 Q1492.51 1450.39 1499.06 1450.39 Q1500.82 1450.39 1502.61 1450.74 Q1504.41 1451.09 1506.36 1451.78 Z" fill="#000000" fill-rule="evenodd" fill-opacity="1" /><path clip-path="url(#clip280)" d="M1890.79 1454.1 Q1887.18 1454.1 1885.35 1457.66 Q1883.54 1461.2 1883.54 1468.33 Q1883.54 1475.44 1885.35 1479.01 Q1887.18 1482.55 1890.79 1482.55 Q1894.42 1482.55 1896.23 1479.01 Q1898.06 1475.44 1898.06 1468.33 Q1898.06 1461.2 1896.23 1457.66 Q1894.42 1454.1 1890.79 1454.1 M1890.79 1450.39 Q1896.6 1450.39 1899.65 1455 Q1902.73 1459.58 1902.73 1468.33 Q1902.73 1477.06 1899.65 1481.67 Q1896.6 1486.25 1890.79 1486.25 Q1884.98 1486.25 1881.9 1481.67 Q1878.84 1477.06 1878.84 1468.33 Q1878.84 1459.58 1881.9 1455 Q1884.98 1450.39 1890.79 1450.39 Z" fill="#000000" fill-rule="evenodd" fill-opacity="1" /><path clip-path="url(#clip280)" d="M1910.95 1479.7 L1915.83 1479.7 L1915.83 1485.58 L1910.95 1485.58 L1910.95 1479.7 Z" fill="#000000" fill-rule="evenodd" fill-opacity="1" /><path clip-path="url(#clip280)" d="M1936.02 1469.17 Q1932.69 1469.17 1930.77 1470.95 Q1928.87 1472.73 1928.87 1475.86 Q1928.87 1478.98 1930.77 1480.77 Q1932.69 1482.55 1936.02 1482.55 Q1939.35 1482.55 1941.27 1480.77 Q1943.2 1478.96 1943.2 1475.86 Q1943.2 1472.73 1941.27 1470.95 Q1939.38 1469.17 1936.02 1469.17 M1931.34 1467.18 Q1928.33 1466.44 1926.64 1464.38 Q1924.98 1462.32 1924.98 1459.35 Q1924.98 1455.21 1927.92 1452.8 Q1930.88 1450.39 1936.02 1450.39 Q1941.18 1450.39 1944.12 1452.8 Q1947.06 1455.21 1947.06 1459.35 Q1947.06 1462.32 1945.37 1464.38 Q1943.7 1466.44 1940.72 1467.18 Q1944.1 1467.96 1945.97 1470.26 Q1947.87 1472.55 1947.87 1475.86 Q1947.87 1480.88 1944.79 1483.57 Q1941.74 1486.25 1936.02 1486.25 Q1930.3 1486.25 1927.22 1483.57 Q1924.17 1480.88 1924.17 1475.86 Q1924.17 1472.55 1926.07 1470.26 Q1927.96 1467.96 1931.34 1467.18 M1929.63 1459.79 Q1929.63 1462.48 1931.3 1463.98 Q1932.99 1465.49 1936.02 1465.49 Q1939.03 1465.49 1940.72 1463.98 Q1942.43 1462.48 1942.43 1459.79 Q1942.43 1457.11 1940.72 1455.6 Q1939.03 1454.1 1936.02 1454.1 Q1932.99 1454.1 1931.3 1455.6 Q1929.63 1457.11 1929.63 1459.79 Z" fill="#000000" fill-rule="evenodd" fill-opacity="1" /><path clip-path="url(#clip280)" d="M2319.91 1481.64 L2327.55 1481.64 L2327.55 1455.28 L2319.24 1456.95 L2319.24 1452.69 L2327.5 1451.02 L2332.18 1451.02 L2332.18 1481.64 L2339.82 1481.64 L2339.82 1485.58 L2319.91 1485.58 L2319.91 1481.64 Z" fill="#000000" fill-rule="evenodd" fill-opacity="1" /><path clip-path="url(#clip280)" d="M2349.26 1479.7 L2354.14 1479.7 L2354.14 1485.58 L2349.26 1485.58 L2349.26 1479.7 Z" fill="#000000" fill-rule="evenodd" fill-opacity="1" /><path clip-path="url(#clip280)" d="M2374.33 1454.1 Q2370.72 1454.1 2368.89 1457.66 Q2367.08 1461.2 2367.08 1468.33 Q2367.08 1475.44 2368.89 1479.01 Q2370.72 1482.55 2374.33 1482.55 Q2377.96 1482.55 2379.77 1479.01 Q2381.6 1475.44 2381.6 1468.33 Q2381.6 1461.2 2379.77 1457.66 Q2377.96 1454.1 2374.33 1454.1 M2374.33 1450.39 Q2380.14 1450.39 2383.2 1455 Q2386.27 1459.58 2386.27 1468.33 Q2386.27 1477.06 2383.2 1481.67 Q2380.14 1486.25 2374.33 1486.25 Q2368.52 1486.25 2365.44 1481.67 Q2362.39 1477.06 2362.39 1468.33 Q2362.39 1459.58 2365.44 1455 Q2368.52 1450.39 2374.33 1450.39 Z" fill="#000000" fill-rule="evenodd" fill-opacity="1" /><path clip-path="url(#clip280)" d="M1253.32 1522.27 L1253.32 1532.4 L1265.38 1532.4 L1265.38 1536.95 L1253.32 1536.95 L1253.32 1556.3 Q1253.32 1560.66 1254.5 1561.9 Q1255.71 1563.14 1259.37 1563.14 L1265.38 1563.14 L1265.38 1568.04 L1259.37 1568.04 Q1252.59 1568.04 1250.01 1565.53 Q1247.43 1562.98 1247.43 1556.3 L1247.43 1536.95 L1243.14 1536.95 L1243.14 1532.4 L1247.43 1532.4 L1247.43 1522.27 L1253.32 1522.27 Z" fill="#000000" fill-rule="evenodd" fill-opacity="1" /><polyline clip-path="url(#clip282)" style="stroke:#000000; stroke-linecap:round; stroke-linejoin:round; stroke-width:2; stroke-opacity:0.1; fill:none" points="
  155.765,1384.24 2352.76,1384.24 
  "/>
<polyline clip-path="url(#clip282)" style="stroke:#000000; stroke-linecap:round; stroke-linejoin:round; stroke-width:2; stroke-opacity:0.1; fill:none" points="
  155.765,1006.55 2352.76,1006.55 
  "/>
<polyline clip-path="url(#clip282)" style="stroke:#000000; stroke-linecap:round; stroke-linejoin:round; stroke-width:2; stroke-opacity:0.1; fill:none" points="
  155.765,628.869 2352.76,628.869 
  "/>
<polyline clip-path="url(#clip282)" style="stroke:#000000; stroke-linecap:round; stroke-linejoin:round; stroke-width:2; stroke-opacity:0.1; fill:none" points="
  155.765,251.184 2352.76,251.184 
  "/>
<polyline clip-path="url(#clip280)" style="stroke:#000000; stroke-linecap:round; stroke-linejoin:round; stroke-width:4; stroke-opacity:1; fill:none" points="
  155.765,1423.18 155.765,47.2441 
  "/>
<polyline clip-path="url(#clip280)" style="stroke:#000000; stroke-linecap:round; stroke-linejoin:round; stroke-width:4; stroke-opacity:1; fill:none" points="
  155.765,1384.24 174.663,1384.24 
  "/>
<polyline clip-path="url(#clip280)" style="stroke:#000000; stroke-linecap:round; stroke-linejoin:round; stroke-width:4; stroke-opacity:1; fill:none" points="
  155.765,1006.55 174.663,1006.55 
  "/>
<polyline clip-path="url(#clip280)" style="stroke:#000000; stroke-linecap:round; stroke-linejoin:round; stroke-width:4; stroke-opacity:1; fill:none" points="
  155.765,628.869 174.663,628.869 
  "/>
<polyline clip-path="url(#clip280)" style="stroke:#000000; stroke-linecap:round; stroke-linejoin:round; stroke-width:4; stroke-opacity:1; fill:none" points="
  155.765,251.184 174.663,251.184 
  "/>
<path clip-path="url(#clip280)" d="M53.3995 1397.58 L61.0384 1397.58 L61.0384 1371.22 L52.7282 1372.88 L52.7282 1368.62 L60.9921 1366.96 L65.668 1366.96 L65.668 1397.58 L73.3068 1397.58 L73.3068 1401.52 L53.3995 1401.52 L53.3995 1397.58 Z" fill="#000000" fill-rule="evenodd" fill-opacity="1" /><path clip-path="url(#clip280)" d="M82.7512 1395.64 L87.6354 1395.64 L87.6354 1401.52 L82.7512 1401.52 L82.7512 1395.64 Z" fill="#000000" fill-rule="evenodd" fill-opacity="1" /><path clip-path="url(#clip280)" d="M107.821 1370.04 Q104.209 1370.04 102.381 1373.6 Q100.575 1377.14 100.575 1384.27 Q100.575 1391.38 102.381 1394.94 Q104.209 1398.49 107.821 1398.49 Q111.455 1398.49 113.26 1394.94 Q115.089 1391.38 115.089 1384.27 Q115.089 1377.14 113.26 1373.6 Q111.455 1370.04 107.821 1370.04 M107.821 1366.33 Q113.631 1366.33 116.686 1370.94 Q119.765 1375.52 119.765 1384.27 Q119.765 1393 116.686 1397.61 Q113.631 1402.19 107.821 1402.19 Q102.01 1402.19 98.9317 1397.61 Q95.8761 1393 95.8761 1384.27 Q95.8761 1375.52 98.9317 1370.94 Q102.01 1366.33 107.821 1366.33 Z" fill="#000000" fill-rule="evenodd" fill-opacity="1" /><path clip-path="url(#clip280)" d="M54.3949 1019.9 L62.0337 1019.9 L62.0337 993.533 L53.7236 995.2 L53.7236 990.94 L61.9874 989.274 L66.6633 989.274 L66.6633 1019.9 L74.3022 1019.9 L74.3022 1023.83 L54.3949 1023.83 L54.3949 1019.9 Z" fill="#000000" fill-rule="evenodd" fill-opacity="1" /><path clip-path="url(#clip280)" d="M83.7466 1017.95 L88.6308 1017.95 L88.6308 1023.83 L83.7466 1023.83 L83.7466 1017.95 Z" fill="#000000" fill-rule="evenodd" fill-opacity="1" /><path clip-path="url(#clip280)" d="M98.8622 989.274 L117.219 989.274 L117.219 993.209 L103.145 993.209 L103.145 1001.68 Q104.163 1001.33 105.182 1001.17 Q106.2 1000.99 107.219 1000.99 Q113.006 1000.99 116.385 1004.16 Q119.765 1007.33 119.765 1012.75 Q119.765 1018.32 116.293 1021.43 Q112.82 1024.5 106.501 1024.5 Q104.325 1024.5 102.057 1024.13 Q99.8113 1023.76 97.4039 1023.02 L97.4039 1018.32 Q99.4872 1019.46 101.709 1020.01 Q103.932 1020.57 106.408 1020.57 Q110.413 1020.57 112.751 1018.46 Q115.089 1016.36 115.089 1012.75 Q115.089 1009.13 112.751 1007.03 Q110.413 1004.92 106.408 1004.92 Q104.534 1004.92 102.659 1005.34 Q100.807 1005.76 98.8622 1006.63 L98.8622 989.274 Z" fill="#000000" fill-rule="evenodd" fill-opacity="1" /><path clip-path="url(#clip280)" d="M56.6171 642.214 L72.9365 642.214 L72.9365 646.149 L50.9921 646.149 L50.9921 642.214 Q53.6541 639.459 58.2375 634.83 Q62.8439 630.177 64.0245 628.834 Q66.2698 626.311 67.1494 624.575 Q68.0522 622.816 68.0522 621.126 Q68.0522 618.371 66.1078 616.635 Q64.1865 614.899 61.0847 614.899 Q58.8856 614.899 56.4319 615.663 Q54.0014 616.427 51.2236 617.978 L51.2236 613.256 Q54.0477 612.121 56.5014 611.543 Q58.955 610.964 60.9921 610.964 Q66.3624 610.964 69.5568 613.649 Q72.7513 616.334 72.7513 620.825 Q72.7513 622.955 71.9411 624.876 Q71.1541 626.774 69.0476 629.367 Q68.4689 630.038 65.367 633.256 Q62.2652 636.45 56.6171 642.214 Z" fill="#000000" fill-rule="evenodd" fill-opacity="1" /><path clip-path="url(#clip280)" d="M82.7512 640.269 L87.6354 640.269 L87.6354 646.149 L82.7512 646.149 L82.7512 640.269 Z" fill="#000000" fill-rule="evenodd" fill-opacity="1" /><path clip-path="url(#clip280)" d="M107.821 614.668 Q104.209 614.668 102.381 618.233 Q100.575 621.774 100.575 628.904 Q100.575 636.01 102.381 639.575 Q104.209 643.117 107.821 643.117 Q111.455 643.117 113.26 639.575 Q115.089 636.01 115.089 628.904 Q115.089 621.774 113.26 618.233 Q111.455 614.668 107.821 614.668 M107.821 610.964 Q113.631 610.964 116.686 615.57 Q119.765 620.154 119.765 628.904 Q119.765 637.631 116.686 642.237 Q113.631 646.82 107.821 646.82 Q102.01 646.82 98.9317 642.237 Q95.8761 637.631 95.8761 628.904 Q95.8761 620.154 98.9317 615.57 Q102.01 610.964 107.821 610.964 Z" fill="#000000" fill-rule="evenodd" fill-opacity="1" /><path clip-path="url(#clip280)" d="M57.6125 264.529 L73.9318 264.529 L73.9318 268.464 L51.9875 268.464 L51.9875 264.529 Q54.6495 261.775 59.2328 257.145 Q63.8393 252.492 65.0198 251.15 Q67.2652 248.627 68.1448 246.89 Q69.0476 245.131 69.0476 243.441 Q69.0476 240.687 67.1032 238.951 Q65.1819 237.215 62.08 237.215 Q59.881 237.215 57.4273 237.978 Q54.9967 238.742 52.219 240.293 L52.219 235.571 Q55.043 234.437 57.4967 233.858 Q59.9504 233.279 61.9874 233.279 Q67.3578 233.279 70.5522 235.965 Q73.7466 238.65 73.7466 243.14 Q73.7466 245.27 72.9365 247.191 Q72.1494 249.09 70.0429 251.682 Q69.4642 252.353 66.3624 255.571 Q63.2606 258.765 57.6125 264.529 Z" fill="#000000" fill-rule="evenodd" fill-opacity="1" /><path clip-path="url(#clip280)" d="M83.7466 262.585 L88.6308 262.585 L88.6308 268.464 L83.7466 268.464 L83.7466 262.585 Z" fill="#000000" fill-rule="evenodd" fill-opacity="1" /><path clip-path="url(#clip280)" d="M98.8622 233.904 L117.219 233.904 L117.219 237.84 L103.145 237.84 L103.145 246.312 Q104.163 245.965 105.182 245.803 Q106.2 245.617 107.219 245.617 Q113.006 245.617 116.385 248.789 Q119.765 251.96 119.765 257.377 Q119.765 262.955 116.293 266.057 Q112.82 269.136 106.501 269.136 Q104.325 269.136 102.057 268.765 Q99.8113 268.395 97.4039 267.654 L97.4039 262.955 Q99.4872 264.089 101.709 264.645 Q103.932 265.201 106.408 265.201 Q110.413 265.201 112.751 263.094 Q115.089 260.988 115.089 257.377 Q115.089 253.765 112.751 251.659 Q110.413 249.552 106.408 249.552 Q104.534 249.552 102.659 249.969 Q100.807 250.386 98.8622 251.265 L98.8622 233.904 Z" fill="#000000" fill-rule="evenodd" fill-opacity="1" /><polyline clip-path="url(#clip282)" style="stroke:#009af9; stroke-linecap:round; stroke-linejoin:round; stroke-width:20; stroke-opacity:1; fill:none" points="
  155.765,1384.24 271.396,1382.14 387.027,1375.82 502.658,1365.17 618.289,1350.01 733.92,1330.07 849.552,1305.03 965.183,1274.42 1080.81,1237.72 1196.44,1194.23 
  1312.08,1143.14 1427.71,1083.46 1543.34,1013.98 1658.97,933.262 1774.6,839.577 1890.23,730.833 2005.86,604.512 2121.49,457.571 2237.12,286.325 2352.76,86.3011 
  
  "/>
<polyline clip-path="url(#clip282)" style="stroke:#ff0000; stroke-linecap:round; stroke-linejoin:round; stroke-width:4; stroke-opacity:1; fill:none" points="
  155.765,1384.24 157.964,1384.24 160.163,1384.24 162.362,1384.23 164.562,1384.23 166.761,1384.22 168.96,1384.21 171.159,1384.2 173.358,1384.19 175.558,1384.18 
  177.757,1384.16 179.956,1384.15 182.155,1384.13 184.354,1384.11 186.554,1384.09 188.753,1384.07 190.952,1384.04 193.151,1384.02 195.35,1383.99 197.55,1383.96 
  199.749,1383.94 201.948,1383.9 204.147,1383.87 206.346,1383.84 208.545,1383.8 210.745,1383.77 212.944,1383.73 215.143,1383.69 217.342,1383.64 219.541,1383.6 
  221.741,1383.56 223.94,1383.51 226.139,1383.46 228.338,1383.41 230.537,1383.36 232.737,1383.31 234.936,1383.26 237.135,1383.2 239.334,1383.14 241.533,1383.09 
  243.733,1383.03 245.932,1382.96 248.131,1382.9 250.33,1382.84 252.529,1382.77 254.728,1382.7 256.928,1382.63 259.127,1382.56 261.326,1382.49 263.525,1382.42 
  265.724,1382.34 267.924,1382.27 270.123,1382.19 272.322,1382.11 274.521,1382.03 276.72,1381.95 278.92,1381.86 281.119,1381.78 283.318,1381.69 285.517,1381.6 
  287.716,1381.51 289.916,1381.42 292.115,1381.32 294.314,1381.23 296.513,1381.13 298.712,1381.03 300.911,1380.93 303.111,1380.83 305.31,1380.73 307.509,1380.63 
  309.708,1380.52 311.907,1380.41 314.107,1380.3 316.306,1380.19 318.505,1380.08 320.704,1379.97 322.903,1379.85 325.103,1379.74 327.302,1379.62 329.501,1379.5 
  331.7,1379.38 333.899,1379.26 336.099,1379.13 338.298,1379.01 340.497,1378.88 342.696,1378.75 344.895,1378.62 347.094,1378.49 349.294,1378.35 351.493,1378.22 
  353.692,1378.08 355.891,1377.94 358.09,1377.8 360.29,1377.66 362.489,1377.52 364.688,1377.38 366.887,1377.23 369.086,1377.08 371.286,1376.93 373.485,1376.78 
  375.684,1376.63 377.883,1376.48 380.082,1376.32 382.281,1376.17 384.481,1376.01 386.68,1375.85 388.879,1375.69 391.078,1375.52 393.277,1375.36 395.477,1375.19 
  397.676,1375.02 399.875,1374.85 402.074,1374.68 404.273,1374.51 406.473,1374.34 408.672,1374.16 410.871,1373.98 413.07,1373.81 415.269,1373.63 417.469,1373.44 
  419.668,1373.26 421.867,1373.07 424.066,1372.89 426.265,1372.7 428.464,1372.51 430.664,1372.32 432.863,1372.13 435.062,1371.93 437.261,1371.73 439.46,1371.54 
  441.66,1371.34 443.859,1371.14 446.058,1370.93 448.257,1370.73 450.456,1370.52 452.656,1370.32 454.855,1370.11 457.054,1369.9 459.253,1369.68 461.452,1369.47 
  463.652,1369.25 465.851,1369.04 468.05,1368.82 470.249,1368.6 472.448,1368.38 474.647,1368.15 476.847,1367.93 479.046,1367.7 481.245,1367.47 483.444,1367.24 
  485.643,1367.01 487.843,1366.78 490.042,1366.54 492.241,1366.31 494.44,1366.07 496.639,1365.83 498.839,1365.59 501.038,1365.34 503.237,1365.1 505.436,1364.85 
  507.635,1364.61 509.835,1364.36 512.034,1364.1 514.233,1363.85 516.432,1363.6 518.631,1363.34 520.83,1363.08 523.03,1362.82 525.229,1362.56 527.428,1362.3 
  529.627,1362.04 531.826,1361.77 534.026,1361.5 536.225,1361.23 538.424,1360.96 540.623,1360.69 542.822,1360.42 545.022,1360.14 547.221,1359.86 549.42,1359.58 
  551.619,1359.3 553.818,1359.02 556.018,1358.74 558.217,1358.45 560.416,1358.16 562.615,1357.88 564.814,1357.58 567.013,1357.29 569.213,1357 571.412,1356.7 
  573.611,1356.4 575.81,1356.11 578.009,1355.8 580.209,1355.5 582.408,1355.2 584.607,1354.89 586.806,1354.58 589.005,1354.28 591.205,1353.96 593.404,1353.65 
  595.603,1353.34 597.802,1353.02 600.001,1352.7 602.201,1352.38 604.4,1352.06 606.599,1351.74 608.798,1351.42 610.997,1351.09 613.196,1350.76 615.396,1350.43 
  617.595,1350.1 619.794,1349.77 621.993,1349.43 624.192,1349.1 626.392,1348.76 628.591,1348.42 630.79,1348.08 632.989,1347.73 635.188,1347.39 637.388,1347.04 
  639.587,1346.69 641.786,1346.34 643.985,1345.99 646.184,1345.63 648.384,1345.28 650.583,1344.92 652.782,1344.56 654.981,1344.2 657.18,1343.84 659.379,1343.47 
  661.579,1343.11 663.778,1342.74 665.977,1342.37 668.176,1342 670.375,1341.63 672.575,1341.25 674.774,1340.87 676.973,1340.5 679.172,1340.12 681.371,1339.73 
  683.571,1339.35 685.77,1338.96 687.969,1338.58 690.168,1338.19 692.367,1337.8 694.567,1337.4 696.766,1337.01 698.965,1336.61 701.164,1336.21 703.363,1335.81 
  705.562,1335.41 707.762,1335.01 709.961,1334.6 712.16,1334.2 714.359,1333.79 716.558,1333.38 718.758,1332.96 720.957,1332.55 723.156,1332.13 725.355,1331.71 
  727.554,1331.29 729.754,1330.87 731.953,1330.45 734.152,1330.02 736.351,1329.59 738.55,1329.17 740.749,1328.73 742.949,1328.3 745.148,1327.87 747.347,1327.43 
  749.546,1326.99 751.745,1326.55 753.945,1326.11 756.144,1325.66 758.343,1325.22 760.542,1324.77 762.741,1324.32 764.941,1323.87 767.14,1323.41 769.339,1322.96 
  771.538,1322.5 773.737,1322.04 775.937,1321.58 778.136,1321.12 780.335,1320.65 782.534,1320.19 784.733,1319.72 786.932,1319.25 789.132,1318.77 791.331,1318.3 
  793.53,1317.82 795.729,1317.34 797.928,1316.86 800.128,1316.38 802.327,1315.9 804.526,1315.41 806.725,1314.92 808.924,1314.43 811.124,1313.94 813.323,1313.45 
  815.522,1312.95 817.721,1312.45 819.92,1311.95 822.12,1311.45 824.319,1310.95 826.518,1310.44 828.717,1309.94 830.916,1309.43 833.115,1308.91 835.315,1308.4 
  837.514,1307.89 839.713,1307.37 841.912,1306.85 844.111,1306.33 846.311,1305.8 848.51,1305.28 850.709,1304.75 852.908,1304.22 855.107,1303.69 857.307,1303.16 
  859.506,1302.62 861.705,1302.08 863.904,1301.54 866.103,1301 868.303,1300.46 870.502,1299.91 872.701,1299.36 874.9,1298.81 877.099,1298.26 879.298,1297.71 
  881.498,1297.15 883.697,1296.59 885.896,1296.03 888.095,1295.47 890.294,1294.91 892.494,1294.34 894.693,1293.77 896.892,1293.2 899.091,1292.63 901.29,1292.05 
  903.49,1291.48 905.689,1290.9 907.888,1290.32 910.087,1289.74 912.286,1289.15 914.486,1288.56 916.685,1287.97 918.884,1287.38 921.083,1286.79 923.282,1286.19 
  925.481,1285.59 927.681,1284.99 929.88,1284.39 932.079,1283.79 934.278,1283.18 936.477,1282.57 938.677,1281.96 940.876,1281.35 943.075,1280.73 945.274,1280.12 
  947.473,1279.5 949.673,1278.88 951.872,1278.25 954.071,1277.63 956.27,1277 958.469,1276.37 960.669,1275.73 962.868,1275.1 965.067,1274.46 967.266,1273.82 
  969.465,1273.18 971.664,1272.54 973.864,1271.89 976.063,1271.25 978.262,1270.59 980.461,1269.94 982.66,1269.29 984.86,1268.63 987.059,1267.97 989.258,1267.31 
  991.457,1266.65 993.656,1265.98 995.856,1265.31 998.055,1264.64 1000.25,1263.97 1002.45,1263.29 1004.65,1262.62 1006.85,1261.94 1009.05,1261.25 1011.25,1260.57 
  1013.45,1259.88 1015.65,1259.2 1017.85,1258.5 1020.05,1257.81 1022.25,1257.11 1024.45,1256.42 1026.64,1255.72 1028.84,1255.01 1031.04,1254.31 1033.24,1253.6 
  1035.44,1252.89 1037.64,1252.18 1039.84,1251.46 1042.04,1250.75 1044.24,1250.03 1046.44,1249.31 1048.64,1248.58 1050.84,1247.86 1053.03,1247.13 1055.23,1246.4 
  1057.43,1245.66 1059.63,1244.93 1061.83,1244.19 1064.03,1243.45 1066.23,1242.71 1068.43,1241.96 1070.63,1241.21 1072.83,1240.46 1075.03,1239.71 1077.23,1238.96 
  1079.42,1238.2 1081.62,1237.44 1083.82,1236.68 1086.02,1235.91 1088.22,1235.14 1090.42,1234.37 1092.62,1233.6 1094.82,1232.83 1097.02,1232.05 1099.22,1231.27 
  1101.42,1230.49 1103.62,1229.7 1105.82,1228.92 1108.01,1228.13 1110.21,1227.33 1112.41,1226.54 1114.61,1225.74 1116.81,1224.94 1119.01,1224.14 1121.21,1223.33 
  1123.41,1222.52 1125.61,1221.71 1127.81,1220.9 1130.01,1220.08 1132.21,1219.26 1134.4,1218.44 1136.6,1217.62 1138.8,1216.79 1141,1215.96 1143.2,1215.13 
  1145.4,1214.29 1147.6,1213.45 1149.8,1212.61 1152,1211.77 1154.2,1210.92 1156.4,1210.08 1158.6,1209.22 1160.79,1208.37 1162.99,1207.51 1165.19,1206.65 
  1167.39,1205.79 1169.59,1204.92 1171.79,1204.06 1173.99,1203.19 1176.19,1202.31 1178.39,1201.44 1180.59,1200.56 1182.79,1199.67 1184.99,1198.79 1187.19,1197.9 
  1189.38,1197.01 1191.58,1196.12 1193.78,1195.22 1195.98,1194.33 1198.18,1193.42 1200.38,1192.52 1202.58,1191.61 1204.78,1190.7 1206.98,1189.79 1209.18,1188.88 
  1211.38,1187.96 1213.58,1187.04 1215.77,1186.11 1217.97,1185.19 1220.17,1184.26 1222.37,1183.32 1224.57,1182.39 1226.77,1181.45 1228.97,1180.51 1231.17,1179.57 
  1233.37,1178.62 1235.57,1177.67 1237.77,1176.72 1239.97,1175.76 1242.16,1174.81 1244.36,1173.85 1246.56,1172.88 1248.76,1171.91 1250.96,1170.95 1253.16,1169.97 
  1255.36,1169 1257.56,1168.02 1259.76,1167.04 1261.96,1166.05 1264.16,1165.07 1266.36,1164.08 1268.56,1163.08 1270.75,1162.09 1272.95,1161.09 1275.15,1160.09 
  1277.35,1159.08 1279.55,1158.08 1281.75,1157.06 1283.95,1156.05 1286.15,1155.03 1288.35,1154.01 1290.55,1152.99 1292.75,1151.97 1294.95,1150.94 1297.14,1149.91 
  1299.34,1148.87 1301.54,1147.83 1303.74,1146.79 1305.94,1145.75 1308.14,1144.7 1310.34,1143.65 1312.54,1142.6 1314.74,1141.54 1316.94,1140.49 1319.14,1139.42 
  1321.34,1138.36 1323.53,1137.29 1325.73,1136.22 1327.93,1135.14 1330.13,1134.07 1332.33,1132.99 1334.53,1131.9 1336.73,1130.82 1338.93,1129.73 1341.13,1128.63 
  1343.33,1127.54 1345.53,1126.44 1347.73,1125.33 1349.93,1124.23 1352.12,1123.12 1354.32,1122.01 1356.52,1120.89 1358.72,1119.77 1360.92,1118.65 1363.12,1117.53 
  1365.32,1116.4 1367.52,1115.27 1369.72,1114.13 1371.92,1112.99 1374.12,1111.85 1376.32,1110.71 1378.51,1109.56 1380.71,1108.41 1382.91,1107.26 1385.11,1106.1 
  1387.31,1104.94 1389.51,1103.77 1391.71,1102.6 1393.91,1101.43 1396.11,1100.26 1398.31,1099.08 1400.51,1097.9 1402.71,1096.72 1404.9,1095.53 1407.1,1094.34 
  1409.3,1093.14 1411.5,1091.95 1413.7,1090.75 1415.9,1089.54 1418.1,1088.33 1420.3,1087.12 1422.5,1085.91 1424.7,1084.69 1426.9,1083.47 1429.1,1082.24 
  1431.3,1081.01 1433.49,1079.78 1435.69,1078.55 1437.89,1077.31 1440.09,1076.06 1442.29,1074.82 1444.49,1073.57 1446.69,1072.31 1448.89,1071.06 1451.09,1069.8 
  1453.29,1068.53 1455.49,1067.27 1457.69,1066 1459.88,1064.72 1462.08,1063.44 1464.28,1062.16 1466.48,1060.88 1468.68,1059.59 1470.88,1058.29 1473.08,1057 
  1475.28,1055.7 1477.48,1054.39 1479.68,1053.09 1481.88,1051.78 1484.08,1050.46 1486.27,1049.14 1488.47,1047.82 1490.67,1046.49 1492.87,1045.16 1495.07,1043.83 
  1497.27,1042.49 1499.47,1041.15 1501.67,1039.81 1503.87,1038.46 1506.07,1037.11 1508.27,1035.75 1510.47,1034.39 1512.67,1033.03 1514.86,1031.66 1517.06,1030.29 
  1519.26,1028.91 1521.46,1027.53 1523.66,1026.15 1525.86,1024.76 1528.06,1023.37 1530.26,1021.98 1532.46,1020.58 1534.66,1019.18 1536.86,1017.77 1539.06,1016.36 
  1541.25,1014.94 1543.45,1013.53 1545.65,1012.1 1547.85,1010.68 1550.05,1009.25 1552.25,1007.81 1554.45,1006.37 1556.65,1004.93 1558.85,1003.48 1561.05,1002.03 
  1563.25,1000.58 1565.45,999.118 1567.65,997.654 1569.84,996.187 1572.04,994.715 1574.24,993.24 1576.44,991.76 1578.64,990.276 1580.84,988.787 1583.04,987.295 
  1585.24,985.798 1587.44,984.297 1589.64,982.792 1591.84,981.283 1594.04,979.769 1596.23,978.251 1598.43,976.729 1600.63,975.202 1602.83,973.672 1605.03,972.136 
  1607.23,970.597 1609.43,969.053 1611.63,967.505 1613.83,965.952 1616.03,964.395 1618.23,962.833 1620.43,961.268 1622.62,959.697 1624.82,958.123 1627.02,956.543 
  1629.22,954.96 1631.42,953.371 1633.62,951.779 1635.82,950.182 1638.02,948.58 1640.22,946.974 1642.42,945.363 1644.62,943.747 1646.82,942.127 1649.02,940.503 
  1651.21,938.874 1653.41,937.24 1655.61,935.602 1657.81,933.958 1660.01,932.311 1662.21,930.658 1664.41,929.001 1666.61,927.339 1668.81,925.673 1671.01,924.002 
  1673.21,922.325 1675.41,920.645 1677.6,918.959 1679.8,917.269 1682,915.574 1684.2,913.874 1686.4,912.169 1688.6,910.459 1690.8,908.745 1693,907.025 
  1695.2,905.301 1697.4,903.572 1699.6,901.837 1701.8,900.098 1703.99,898.354 1706.19,896.605 1708.39,894.851 1710.59,893.092 1712.79,891.328 1714.99,889.559 
  1717.19,887.785 1719.39,886.006 1721.59,884.222 1723.79,882.432 1725.99,880.638 1728.19,878.838 1730.39,877.034 1732.58,875.224 1734.78,873.409 1736.98,871.589 
  1739.18,869.763 1741.38,867.933 1743.58,866.097 1745.78,864.256 1747.98,862.409 1750.18,860.558 1752.38,858.701 1754.58,856.838 1756.78,854.971 1758.97,853.098 
  1761.17,851.22 1763.37,849.336 1765.57,847.447 1767.77,845.553 1769.97,843.653 1772.17,841.747 1774.37,839.837 1776.57,837.92 1778.77,835.999 1780.97,834.071 
  1783.17,832.139 1785.36,830.2 1787.56,828.256 1789.76,826.307 1791.96,824.352 1794.16,822.391 1796.36,820.425 1798.56,818.453 1800.76,816.475 1802.96,814.492 
  1805.16,812.503 1807.36,810.509 1809.56,808.508 1811.76,806.502 1813.95,804.49 1816.15,802.472 1818.35,800.449 1820.55,798.42 1822.75,796.385 1824.95,794.344 
  1827.15,792.297 1829.35,790.244 1831.55,788.185 1833.75,786.121 1835.95,784.05 1838.15,781.974 1840.34,779.891 1842.54,777.803 1844.74,775.709 1846.94,773.608 
  1849.14,771.502 1851.34,769.389 1853.54,767.27 1855.74,765.146 1857.94,763.015 1860.14,760.878 1862.34,758.734 1864.54,756.585 1866.73,754.43 1868.93,752.268 
  1871.13,750.1 1873.33,747.926 1875.53,745.745 1877.73,743.558 1879.93,741.365 1882.13,739.166 1884.33,736.96 1886.53,734.748 1888.73,732.529 1890.93,730.304 
  1893.13,728.073 1895.32,725.835 1897.52,723.591 1899.72,721.34 1901.92,719.083 1904.12,716.819 1906.32,714.549 1908.52,712.272 1910.72,709.989 1912.92,707.699 
  1915.12,705.402 1917.32,703.099 1919.52,700.789 1921.71,698.473 1923.91,696.149 1926.11,693.819 1928.31,691.483 1930.51,689.139 1932.71,686.789 1934.91,684.432 
  1937.11,682.068 1939.31,679.698 1941.51,677.32 1943.71,674.936 1945.91,672.544 1948.1,670.146 1950.3,667.741 1952.5,665.329 1954.7,662.91 1956.9,660.484 
  1959.1,658.051 1961.3,655.611 1963.5,653.164 1965.7,650.709 1967.9,648.248 1970.1,645.78 1972.3,643.304 1974.5,640.821 1976.69,638.331 1978.89,635.834 
  1981.09,633.33 1983.29,630.818 1985.49,628.299 1987.69,625.773 1989.89,623.24 1992.09,620.699 1994.29,618.151 1996.49,615.595 1998.69,613.032 2000.89,610.462 
  2003.08,607.884 2005.28,605.299 2007.48,602.706 2009.68,600.106 2011.88,597.499 2014.08,594.883 2016.28,592.26 2018.48,589.63 2020.68,586.992 2022.88,584.346 
  2025.08,581.693 2027.28,579.032 2029.47,576.363 2031.67,573.687 2033.87,571.003 2036.07,568.311 2038.27,565.611 2040.47,562.904 2042.67,560.188 2044.87,557.465 
  2047.07,554.734 2049.27,551.995 2051.47,549.248 2053.67,546.493 2055.87,543.731 2058.06,540.96 2060.26,538.181 2062.46,535.394 2064.66,532.599 2066.86,529.796 
  2069.06,526.985 2071.26,524.166 2073.46,521.339 2075.66,518.503 2077.86,515.659 2080.06,512.807 2082.26,509.947 2084.45,507.079 2086.65,504.202 2088.85,501.317 
  2091.05,498.424 2093.25,495.522 2095.45,492.612 2097.65,489.693 2099.85,486.766 2102.05,483.831 2104.25,480.887 2106.45,477.934 2108.65,474.973 2110.84,472.004 
  2113.04,469.026 2115.24,466.039 2117.44,463.044 2119.64,460.04 2121.84,457.027 2124.04,454.006 2126.24,450.976 2128.44,447.937 2130.64,444.89 2132.84,441.834 
  2135.04,438.769 2137.24,435.695 2139.43,432.612 2141.63,429.52 2143.83,426.419 2146.03,423.31 2148.23,420.191 2150.43,417.064 2152.63,413.927 2154.83,410.782 
  2157.03,407.627 2159.23,404.463 2161.43,401.291 2163.63,398.109 2165.82,394.918 2168.02,391.717 2170.22,388.507 2172.42,385.288 2174.62,382.06 2176.82,378.822 
  2179.02,375.574 2181.22,372.317 2183.42,369.05 2185.62,365.774 2187.82,362.488 2190.02,359.193 2192.22,355.887 2194.41,352.572 2196.61,349.248 2198.81,345.913 
  2201.01,342.569 2203.21,339.215 2205.41,335.851 2207.61,332.477 2209.81,329.093 2212.01,325.699 2214.21,322.295 2216.41,318.882 2218.61,315.458 2220.8,312.024 
  2223,308.58 2225.2,305.125 2227.4,301.661 2229.6,298.186 2231.8,294.701 2234,291.206 2236.2,287.7 2238.4,284.184 2240.6,280.658 2242.8,277.121 
  2245,273.573 2247.19,270.016 2249.39,266.447 2251.59,262.868 2253.79,259.279 2255.99,255.679 2258.19,252.068 2260.39,248.446 2262.59,244.814 2264.79,241.171 
  2266.99,237.517 2269.19,233.852 2271.39,230.177 2273.59,226.49 2275.78,222.793 2277.98,219.084 2280.18,215.364 2282.38,211.634 2284.58,207.892 2286.78,204.139 
  2288.98,200.375 2291.18,196.6 2293.38,192.813 2295.58,189.016 2297.78,185.207 2299.98,181.386 2302.17,177.554 2304.37,173.711 2306.57,169.856 2308.77,165.99 
  2310.97,162.112 2313.17,158.222 2315.37,154.321 2317.57,150.409 2319.77,146.484 2321.97,142.548 2324.17,138.6 2326.37,134.64 2328.56,130.668 2330.76,126.685 
  2332.96,122.689 2335.16,118.682 2337.36,114.662 2339.56,110.631 2341.76,106.587 2343.96,102.531 2346.16,98.4632 2348.36,94.383 2350.56,90.2905 2352.76,86.1857 
  
  "/>
<path clip-path="url(#clip280)" d="
M1810.97 248.629 L2279.52 248.629 L2279.52 93.1086 L1810.97 93.1086  Z
  " fill="#ffffff" fill-rule="evenodd" fill-opacity="1"/>
<polyline clip-path="url(#clip280)" style="stroke:#000000; stroke-linecap:round; stroke-linejoin:round; stroke-width:4; stroke-opacity:1; fill:none" points="
  1810.97,248.629 2279.52,248.629 2279.52,93.1086 1810.97,93.1086 1810.97,248.629 
  "/>
<polyline clip-path="url(#clip280)" style="stroke:#009af9; stroke-linecap:round; stroke-linejoin:round; stroke-width:4; stroke-opacity:1; fill:none" points="
  1835.38,144.949 1981.85,144.949 
  "/>
<path clip-path="url(#clip280)" d="M2006.26 127.669 L2028.11 127.669 L2028.11 131.604 L2010.93 131.604 L2010.93 141.835 L2027.39 141.835 L2027.39 145.77 L2010.93 145.77 L2010.93 158.293 L2028.53 158.293 L2028.53 162.229 L2006.26 162.229 L2006.26 127.669 Z" fill="#000000" fill-rule="evenodd" fill-opacity="1" /><path clip-path="url(#clip280)" d="M2057.58 136.303 L2048.2 148.919 L2058.06 162.229 L2053.04 162.229 L2045.49 152.043 L2037.95 162.229 L2032.92 162.229 L2042.99 148.664 L2033.78 136.303 L2038.8 136.303 L2045.68 145.539 L2052.55 136.303 L2057.58 136.303 Z" fill="#000000" fill-rule="evenodd" fill-opacity="1" /><path clip-path="url(#clip280)" d="M2075.86 149.196 Q2070.7 149.196 2068.71 150.377 Q2066.72 151.557 2066.72 154.405 Q2066.72 156.673 2068.2 158.016 Q2069.71 159.335 2072.28 159.335 Q2075.82 159.335 2077.95 156.835 Q2080.1 154.312 2080.1 150.145 L2080.1 149.196 L2075.86 149.196 M2084.36 147.437 L2084.36 162.229 L2080.1 162.229 L2080.1 158.293 Q2078.64 160.655 2076.47 161.789 Q2074.29 162.9 2071.14 162.9 Q2067.16 162.9 2064.8 160.678 Q2062.46 158.432 2062.46 154.682 Q2062.46 150.307 2065.38 148.085 Q2068.32 145.863 2074.13 145.863 L2080.1 145.863 L2080.1 145.446 Q2080.1 142.507 2078.16 140.909 Q2076.23 139.289 2072.74 139.289 Q2070.52 139.289 2068.41 139.821 Q2066.3 140.354 2064.36 141.419 L2064.36 137.483 Q2066.7 136.581 2068.9 136.141 Q2071.1 135.678 2073.18 135.678 Q2078.8 135.678 2081.58 138.594 Q2084.36 141.511 2084.36 147.437 Z" fill="#000000" fill-rule="evenodd" fill-opacity="1" /><path clip-path="url(#clip280)" d="M2092.97 126.21 L2097.25 126.21 L2097.25 147.483 L2109.96 136.303 L2115.4 136.303 L2101.65 148.432 L2115.98 162.229 L2110.42 162.229 L2097.25 149.567 L2097.25 162.229 L2092.97 162.229 L2092.97 126.21 Z" fill="#000000" fill-rule="evenodd" fill-opacity="1" /><path clip-path="url(#clip280)" d="M2124.8 128.942 L2124.8 136.303 L2133.57 136.303 L2133.57 139.613 L2124.8 139.613 L2124.8 153.687 Q2124.8 156.858 2125.66 157.761 Q2126.53 158.664 2129.2 158.664 L2133.57 158.664 L2133.57 162.229 L2129.2 162.229 Q2124.27 162.229 2122.39 160.4 Q2120.52 158.548 2120.52 153.687 L2120.52 139.613 L2117.39 139.613 L2117.39 136.303 L2120.52 136.303 L2120.52 128.942 L2124.8 128.942 Z" fill="#000000" fill-rule="evenodd" fill-opacity="1" /><polyline clip-path="url(#clip280)" style="stroke:#ff0000; stroke-linecap:round; stroke-linejoin:round; stroke-width:4; stroke-opacity:1; fill:none" points="
  1835.38,196.789 1981.85,196.789 
  "/>
<path clip-path="url(#clip280)" d="M2006.26 179.509 L2012.55 179.509 L2027.88 208.421 L2027.88 179.509 L2032.41 179.509 L2032.41 214.069 L2026.12 214.069 L2010.79 185.157 L2010.79 214.069 L2006.26 214.069 L2006.26 179.509 Z" fill="#000000" fill-rule="evenodd" fill-opacity="1" /><path clip-path="url(#clip280)" d="M2053.32 201.036 Q2048.16 201.036 2046.16 202.217 Q2044.17 203.397 2044.17 206.245 Q2044.17 208.513 2045.66 209.856 Q2047.16 211.175 2049.73 211.175 Q2053.27 211.175 2055.4 208.675 Q2057.55 206.152 2057.55 201.985 L2057.55 201.036 L2053.32 201.036 M2061.81 199.277 L2061.81 214.069 L2057.55 214.069 L2057.55 210.133 Q2056.1 212.495 2053.92 213.629 Q2051.74 214.74 2048.6 214.74 Q2044.61 214.74 2042.25 212.518 Q2039.91 210.272 2039.91 206.522 Q2039.91 202.147 2042.83 199.925 Q2045.77 197.703 2051.58 197.703 L2057.55 197.703 L2057.55 197.286 Q2057.55 194.347 2055.61 192.749 Q2053.69 191.129 2050.19 191.129 Q2047.97 191.129 2045.86 191.661 Q2043.76 192.194 2041.81 193.259 L2041.81 189.323 Q2044.15 188.421 2046.35 187.981 Q2048.55 187.518 2050.63 187.518 Q2056.26 187.518 2059.04 190.434 Q2061.81 193.351 2061.81 199.277 M2052.99 178.143 L2057.69 178.143 L2057.69 182.819 L2052.99 182.819 L2052.99 178.143 M2043.94 178.143 L2048.64 178.143 L2048.64 182.819 L2043.94 182.819 L2043.94 178.143 Z" fill="#000000" fill-rule="evenodd" fill-opacity="1" /><path clip-path="url(#clip280)" d="M2092.14 198.421 L2092.14 214.069 L2087.88 214.069 L2087.88 198.559 Q2087.88 194.879 2086.44 193.05 Q2085.01 191.222 2082.14 191.222 Q2078.69 191.222 2076.7 193.421 Q2074.71 195.62 2074.71 199.416 L2074.71 214.069 L2070.42 214.069 L2070.42 178.05 L2074.71 178.05 L2074.71 192.171 Q2076.23 189.833 2078.29 188.675 Q2080.38 187.518 2083.09 187.518 Q2087.55 187.518 2089.85 190.296 Q2092.14 193.05 2092.14 198.421 Z" fill="#000000" fill-rule="evenodd" fill-opacity="1" /><path clip-path="url(#clip280)" d="M2122.81 200.041 L2122.81 202.124 L2103.22 202.124 Q2103.5 206.522 2105.86 208.837 Q2108.25 211.129 2112.48 211.129 Q2114.94 211.129 2117.23 210.527 Q2119.54 209.925 2121.81 208.721 L2121.81 212.749 Q2119.52 213.721 2117.11 214.231 Q2114.71 214.74 2112.23 214.74 Q2106.03 214.74 2102.39 211.129 Q2098.78 207.518 2098.78 201.36 Q2098.78 194.995 2102.21 191.268 Q2105.66 187.518 2111.49 187.518 Q2116.72 187.518 2119.75 190.897 Q2122.81 194.254 2122.81 200.041 M2118.55 198.791 Q2118.5 195.296 2116.58 193.212 Q2114.68 191.129 2111.53 191.129 Q2107.97 191.129 2105.82 193.143 Q2103.69 195.157 2103.36 198.814 L2118.55 198.791 Z" fill="#000000" fill-rule="evenodd" fill-opacity="1" /><path clip-path="url(#clip280)" d="M2144.82 192.124 Q2144.1 191.708 2143.25 191.522 Q2142.41 191.314 2141.4 191.314 Q2137.78 191.314 2135.84 193.675 Q2133.92 196.013 2133.92 200.411 L2133.92 214.069 L2129.64 214.069 L2129.64 188.143 L2133.92 188.143 L2133.92 192.171 Q2135.26 189.809 2137.41 188.675 Q2139.57 187.518 2142.65 187.518 Q2143.09 187.518 2143.62 187.587 Q2144.15 187.634 2144.8 187.749 L2144.82 192.124 Z" fill="#000000" fill-rule="evenodd" fill-opacity="1" /><path clip-path="url(#clip280)" d="M2148.85 203.837 L2148.85 188.143 L2153.11 188.143 L2153.11 203.675 Q2153.11 207.356 2154.54 209.208 Q2155.98 211.036 2158.85 211.036 Q2162.3 211.036 2164.29 208.837 Q2166.3 206.638 2166.3 202.842 L2166.3 188.143 L2170.56 188.143 L2170.56 214.069 L2166.3 214.069 L2166.3 210.087 Q2164.75 212.448 2162.69 213.606 Q2160.65 214.74 2157.95 214.74 Q2153.48 214.74 2151.16 211.962 Q2148.85 209.184 2148.85 203.837 M2159.57 187.518 L2159.57 187.518 Z" fill="#000000" fill-rule="evenodd" fill-opacity="1" /><path clip-path="url(#clip280)" d="M2200.89 198.421 L2200.89 214.069 L2196.63 214.069 L2196.63 198.559 Q2196.63 194.879 2195.19 193.05 Q2193.76 191.222 2190.89 191.222 Q2187.44 191.222 2185.45 193.421 Q2183.46 195.62 2183.46 199.416 L2183.46 214.069 L2179.17 214.069 L2179.17 188.143 L2183.46 188.143 L2183.46 192.171 Q2184.98 189.833 2187.04 188.675 Q2189.13 187.518 2191.84 187.518 Q2196.3 187.518 2198.59 190.296 Q2200.89 193.05 2200.89 198.421 Z" fill="#000000" fill-rule="evenodd" fill-opacity="1" /><path clip-path="url(#clip280)" d="M2226.44 200.805 Q2226.44 196.175 2224.52 193.629 Q2222.62 191.083 2219.17 191.083 Q2215.75 191.083 2213.83 193.629 Q2211.93 196.175 2211.93 200.805 Q2211.93 205.411 2213.83 207.958 Q2215.75 210.504 2219.17 210.504 Q2222.62 210.504 2224.52 207.958 Q2226.44 205.411 2226.44 200.805 M2230.7 210.851 Q2230.7 217.471 2227.76 220.689 Q2224.82 223.93 2218.76 223.93 Q2216.51 223.93 2214.52 223.582 Q2212.53 223.258 2210.65 222.564 L2210.65 218.42 Q2212.53 219.439 2214.36 219.925 Q2216.19 220.411 2218.09 220.411 Q2222.27 220.411 2224.36 218.212 Q2226.44 216.036 2226.44 211.615 L2226.44 209.508 Q2225.12 211.8 2223.06 212.934 Q2221 214.069 2218.13 214.069 Q2213.36 214.069 2210.45 210.434 Q2207.53 206.8 2207.53 200.805 Q2207.53 194.786 2210.45 191.152 Q2213.36 187.518 2218.13 187.518 Q2221 187.518 2223.06 188.652 Q2225.12 189.786 2226.44 192.078 L2226.44 188.143 L2230.7 188.143 L2230.7 210.851 Z" fill="#000000" fill-rule="evenodd" fill-opacity="1" /></svg>
